<svg width="68" height="68" viewBox="0 0 68 68" fill="none" xmlns="http://www.w3.org/2000/svg">
<rect width="68" height="68" rx="14" fill="#2228B4"/>
<path d="M29.6407 26.7409V18V17H28.6407H24H23V18V48.6275V49.6275H24H28.6407H29.6407V48.6275V47.7615C31.3263 49.0824 33.6215 50 36.4566 50C43.0001 50 48 44.6169 48 37.1215C48 29.6042 43.0207 24.4499 36.4566 24.4499C33.7277 24.4499 31.372 25.3742 29.6407 26.7409ZM41.2779 37.1215C41.2779 41.5366 38.3463 43.9025 35.4389 43.9025C32.5614 43.9025 29.6407 41.6081 29.6407 37.2043C29.6407 32.8456 32.5578 30.5474 35.4389 30.5474C38.3833 30.5474 41.2779 32.7443 41.2779 37.1215Z" fill="white" stroke="white" stroke-width="2"/>
</svg>
