<svg width="68" height="68" viewBox="0 0 68 68" fill="none" xmlns="http://www.w3.org/2000/svg">
<rect width="68" height="68" rx="14" fill="#1D3573"/>
<path d="M48 48.8519C40.7278 49.6173 34.3111 50 28.75 50C26.1056 50 23.9861 49.2154 22.3917 47.6463C20.7972 46.0772 20 43.9914 20 41.3889V28.1852C20 25.3148 20.8167 23.0759 22.45 21.4685C24.1222 19.8228 26.4167 19 29.3333 19H48V26.75H32.5417C30.9861 26.75 30.2083 27.5154 30.2083 29.0463V40.2407C30.2083 40.8148 30.4028 41.2932 30.7917 41.6759C31.1806 42.0586 31.6667 42.25 32.25 42.25C35.75 42.25 41 41.963 48 41.3889V48.8519Z" fill="#FBFBFB"/>
</svg>
