<svg width="68" height="68" viewBox="0 0 68 68" fill="none" xmlns="http://www.w3.org/2000/svg">
<rect width="68" height="68" rx="14" fill="#9D8160"/>
<path d="M34 15C30.2422 15 26.5687 16.1143 23.4442 18.2021C20.3196 20.2898 17.8844 23.2572 16.4463 26.729C15.0082 30.2008 14.632 34.0211 15.3651 37.7067C16.0982 41.3924 17.9078 44.7778 20.565 47.435C23.2222 50.0922 26.6076 51.9018 30.2933 52.6349C33.9789 53.368 37.7992 52.9918 41.271 51.5537C44.7428 50.1156 47.7102 47.6804 49.7979 44.5558C51.8857 41.4313 53 37.7578 53 34H43.456C43.456 35.8702 42.9014 37.6984 41.8624 39.2535C40.8233 40.8085 39.3465 42.0205 37.6187 42.7362C35.8908 43.4519 33.9895 43.6392 32.1552 43.2743C30.3209 42.9094 28.636 42.0088 27.3136 40.6864C25.9912 39.364 25.0906 37.6791 24.7257 35.8448C24.3608 34.0105 24.5481 32.1092 25.2638 30.3813C25.9795 28.6535 27.1915 27.1767 28.7465 26.1376C30.3016 25.0986 32.1298 24.544 34 24.544V15Z" fill="white"/>
</svg>
