<svg width="68" height="68" viewBox="0 0 68 68" fill="none" xmlns="http://www.w3.org/2000/svg">
<rect width="68" height="68" rx="14" fill="#BB57DE"/>
<path d="M22 48V19H27.0338V31.5529H33.7174C35.3249 31.5529 36.6926 31.111 37.8206 30.2271C38.9487 29.3157 39.5268 28.0452 39.555 26.4157V19H44.5888V26.3743C44.5888 28.28 44.1094 29.9648 43.1506 31.4286C42.1918 32.8648 40.9227 33.9695 39.3435 34.7429L43.066 42.6971C43.3198 43.3048 43.7992 43.6086 44.5042 43.6086H47V48H43.7428C42.3892 48 41.2893 47.7238 40.4433 47.1714C39.5973 46.619 38.9487 45.8595 38.4975 44.8929L34.2673 35.8614C33.6751 35.9167 33.0688 35.9443 32.4484 35.9443H27.0338V48H22Z" fill="white"/>
</svg>
