<svg width="212" height="160" viewBox="0 0 212 160" fill="none" xmlns="http://www.w3.org/2000/svg">
<g opacity="0.2">
<path opacity="0.64" fill-rule="evenodd" clip-rule="evenodd" d="M0 88.347C0 106.772 6.60088 123.562 17.4631 136.252C29.9244 150.814 47.9947 159.969 68.1371 160C76.9401 160.013 85.3574 158.272 93.0891 155.095C97.0867 153.451 101.561 153.64 105.433 155.587C109.975 157.868 115.06 159.147 120.431 159.147C122.649 159.147 124.822 158.928 126.923 158.51C132.921 157.323 138.38 154.515 142.863 150.537C145.68 148.036 149.288 146.779 152.976 146.783H153.038C165.223 146.783 176.542 142.902 185.939 136.252C194.34 130.314 201.2 122.165 205.771 112.596C209.757 104.258 212 94.8391 212 84.8701C212 50.6788 185.6 22.9571 153.038 22.9571C149.719 22.9571 146.467 23.2515 143.294 23.8008C134.893 9.52003 119.849 0 102.687 0C95.4412 0 88.572 1.69675 82.4232 4.73832C76.5757 7.62148 71.3767 11.7183 67.1238 16.7111C52.6826 16.9529 39.3295 21.9066 28.4005 30.174C11.1969 43.1801 0 64.3922 0 88.347Z" fill="url(#paint0_linear_549_16539)"/>
</g>
<path opacity="0.05" d="M129.411 91.6415C128.418 92.8294 127.346 92.8095 126.707 92.642L126.73 92.0268C126.73 92.0268 129.371 90.8123 129.304 91.0674C129.279 91.1631 129.329 91.393 129.411 91.6415Z" fill="#FF5630"/>
<path opacity="0.05" d="M136.649 92.9856C134.962 93.9662 133.973 92.8169 133.744 92.4913C133.885 92.1179 134.098 91.512 134.054 91.3393C133.991 91.0828 136.628 92.2973 136.628 92.2973L136.649 92.9856Z" fill="#FF5630"/>
<path opacity="0.05" d="M134.842 83.2019C134.842 83.2019 136.447 82.2717 136.797 82.6903C137.146 83.1088 134.842 83.2019 134.842 83.2019Z" fill="#FF5630"/>
<path opacity="0.05" d="M135.811 83.7139C135.811 83.7139 135.547 83.8467 136.129 84.0168C136.712 84.1869 135.811 83.7139 135.811 83.7139Z" fill="#FF5630"/>
<path opacity="0.05" d="M126.11 81.1552C126.056 81.1712 127.445 82.0986 128.699 81.3306C128.694 81.3306 126.423 81.0595 126.11 81.1552Z" fill="#FF5630"/>
<path opacity="0.05" d="M128.631 82.9297C128.631 82.9297 128.251 83.6818 127.472 83.7934C126.693 83.905 128.631 82.9297 128.631 82.9297Z" fill="#FF5630"/>
<path opacity="0.05" d="M133.73 84.5615C133.73 84.5615 135.558 87.4848 135.208 88.1744C134.858 88.8641 133.73 84.5615 133.73 84.5615Z" fill="#FF5630"/>
<path opacity="0.05" d="M130.124 96.185C130.124 96.3484 130.124 96.5012 130.108 96.6275C130.061 97.2188 128.615 96.9955 128.615 96.9955C127.295 97.1802 126.819 96.5424 126.662 95.9325C126.613 95.7344 126.588 95.5308 126.589 95.3266C126.589 95.2048 126.597 95.0831 126.613 94.9625V94.8416C126.898 94.7552 127.206 94.8186 127.435 95.0103C128.022 95.49 128.801 95.122 128.801 95.122C128.801 95.122 129.373 95.1698 129.593 95.3611C129.718 95.4688 129.922 95.2097 130.078 94.9625C130.087 95.122 130.102 95.4103 130.111 95.7186C130.122 95.8767 130.124 96.0362 130.124 96.185Z" fill="#FF5630"/>
<path opacity="0.05" d="M127.806 96.1505C127.806 96.1505 127.409 96.5412 126.662 95.9379C126.613 95.7398 126.588 95.5363 126.589 95.332C126.971 95.6244 127.679 96.1505 127.806 96.1505Z" fill="#FF5630"/>
<path opacity="0.05" d="M130.124 96.1855C130.059 96.2361 129.976 96.2573 129.895 96.2442C129.813 96.2312 129.741 96.1849 129.695 96.1164C129.849 95.9984 129.99 95.8649 130.117 95.7178C130.121 95.8772 130.124 96.0367 130.124 96.1855Z" fill="#FF5630"/>
<path opacity="0.05" d="M133.223 96.4595C133.223 96.6242 133.223 96.777 133.238 96.902C133.286 97.4946 134.731 97.27 134.731 97.27C136.052 97.456 136.527 96.8182 136.684 96.207C136.762 95.8898 136.779 95.5605 136.733 95.237V95.1161C136.448 95.0312 136.14 95.0945 135.911 95.2848C135.323 95.7645 134.545 95.3965 134.545 95.3965C134.545 95.3965 133.973 95.4456 133.753 95.637C133.629 95.7446 133.424 95.4855 133.27 95.2383C133.26 95.3978 133.245 95.6861 133.235 95.9944C133.225 96.1499 133.222 96.3093 133.223 96.4595Z" fill="#FF5630"/>
<path opacity="0.05" d="M135.542 96.4217C135.542 96.4217 135.939 96.8123 136.685 96.2091C136.734 96.0115 136.759 95.8083 136.759 95.6045C136.376 95.8955 135.668 96.4217 135.542 96.4217Z" fill="#FF5630"/>
<path opacity="0.05" d="M133.223 96.4589C133.288 96.5094 133.371 96.5307 133.452 96.5176C133.533 96.5045 133.605 96.4583 133.651 96.3898C133.497 96.2721 133.356 96.1385 133.229 95.9912C133.225 96.1493 133.222 96.3088 133.223 96.4589Z" fill="#FF5630"/>
<g opacity="0.05">
<path d="M141.164 47.2311C141.191 47.17 141.218 47.1088 141.243 47.0491C141.268 46.9893 141.277 46.956 141.292 46.9082C141.243 47.0134 141.2 47.1212 141.164 47.2311Z" fill="#FF5630"/>
</g>
<path fill-rule="evenodd" clip-rule="evenodd" d="M69.6036 124.205C69.2836 123.817 69.1369 123.314 69.1982 122.814L75.0268 74.8228L75.51 70.8365C75.6221 69.9192 76.3928 69.2278 77.3112 69.2207L94.3834 69.1064C94.8745 69.1034 95.3437 68.9015 95.685 68.5462C96.0264 68.1909 96.2112 67.7123 96.1977 67.2183L96.1911 67.0362C96.1743 66.538 96.3592 66.0542 96.7035 65.6958C97.0477 65.3373 97.5219 65.1348 98.0173 65.1348H115.957C116.964 65.1348 117.781 65.9551 117.783 66.9685C117.783 67.0511 117.778 67.1336 117.767 67.2156C117.699 67.7328 117.852 68.2551 118.188 68.6521C118.525 69.0491 119.013 69.2833 119.532 69.2965L136.761 69.7389C137.291 69.7521 137.789 69.9966 138.126 70.4088C138.463 70.8211 138.604 71.3603 138.515 71.8862L129.901 122.512L129.739 123.469C129.699 123.713 129.609 123.947 129.475 124.155L69.6036 124.205Z" fill="#011D2B"/>
<rect width="10.1089" height="34.3868" transform="matrix(0.821068 0.570831 -0.566006 0.824401 121.598 54.9678)" fill="white"/>
<rect width="7.1368" height="7.15241" transform="matrix(0.819427 0.573184 -0.568359 0.822781 122.196 56.3105)" fill="#FFAB00"/>
<rect opacity="0.5" width="7.14633" height="7.1622" transform="matrix(0.821068 0.570831 -0.566006 0.824401 117.614 63.4023)" fill="#FFAB00"/>
<rect opacity="0.3" width="7.14633" height="7.1622" transform="matrix(0.821068 0.570831 -0.566006 0.824401 112.719 70.5312)" fill="#FFAB00"/>
<rect width="10.0933" height="34.3092" transform="matrix(0.959378 0.282123 -0.278883 0.960325 109.871 53.1924)" fill="white"/>
<rect width="7.13535" height="7.17314" transform="matrix(0.959378 0.282123 -0.278883 0.960325 111.142 54.1426)" fill="#FF5630"/>
<rect opacity="0.5" width="7.13535" height="7.17314" transform="matrix(0.959378 0.282123 -0.278883 0.960325 108.727 62.459)" fill="#FF5630"/>
<rect opacity="0.3" width="7.13535" height="7.17315" transform="matrix(0.959378 0.282124 -0.278883 0.960325 106.312 70.7744)" fill="#FF5630"/>
<rect width="10.0887" height="34.3246" transform="matrix(0.996738 0.0807 -0.0797009 0.996819 103.012 53.7119)" fill="white"/>
<rect width="7.1321" height="7.17638" transform="matrix(0.996738 0.0807 -0.0797009 0.996819 104.443 54.3848)" fill="#00B8D9"/>
<rect opacity="0.5" width="7.1321" height="7.17638" transform="matrix(0.996738 0.0807001 -0.0797008 0.996819 103.751 63.0186)" fill="#00B8D9"/>
<rect opacity="0.3" width="7.1321" height="7.17637" transform="matrix(0.996738 0.0807 -0.0797009 0.996819 103.061 71.6562)" fill="#00B8D9"/>
<rect width="10.0885" height="34.3256" transform="matrix(0.99895 -0.0458231 0.0452533 0.998976 98.4873 55.0869)" fill="white"/>
<rect width="7.1319" height="7.17657" transform="matrix(0.99895 -0.0458232 0.0452533 0.998976 99.9897 55.5723)" fill="#02344F"/>
<rect opacity="0.5" width="7.14083" height="7.18552" transform="matrix(0.998737 -0.0502509 0.0496263 0.998768 100.661 63.9521)" fill="#02344F"/>
<rect opacity="0.3" width="7.1319" height="7.17657" transform="matrix(0.99895 -0.0458232 0.0452533 0.998976 100.773 72.8828)" fill="#02344F"/>
<path d="M102.767 100.323L93.8038 103.813L80.7035 108.909C80.2083 107.978 79.4795 106.721 78.5776 105.221C75.4745 100.047 70.3405 91.9987 65.7691 84.9256C60.6193 76.953 56.1865 70.2255 56.1865 70.2255L59.3952 69.2954L85.6064 61.6377L102.767 100.323Z" fill="#F4F6F8"/>
<path opacity="0.1" d="M102.767 100.323L93.8032 103.813C88.7961 104.862 83.6865 105.335 78.573 105.221C75.47 100.047 70.336 91.9987 65.7646 84.9256L59.396 69.2901L85.6058 61.6377L102.767 100.323Z" fill="black"/>
<path d="M109.435 98.1524C109.435 98.1524 95.5109 106.441 74.7215 104.566L58.1484 63.9061L66.091 62.5321L93.5487 57.7871L109.13 97.3617L109.435 98.1524Z" fill="#02344F"/>
<path opacity="0.1" d="M109.125 97.3666C105.846 97.5287 102.052 97.5128 98.2361 97.0544C94.1057 96.5654 89.9516 95.5582 86.3903 93.7112C83.4126 92.1685 80.8668 90.4903 78.6471 88.4772C72.8727 83.2511 69.2995 75.7755 66.0908 62.537L93.5485 57.792L109.125 97.3666Z" fill="#FF5630"/>
<path d="M119.34 95.0929C119.34 95.0929 109.076 97.1153 98.6282 95.8702C94.4978 95.3813 90.3436 94.3741 86.7823 92.5271C83.8047 90.9844 81.2602 89.3061 79.0391 87.2931C71.8928 80.8233 68.1189 70.9081 64.2275 50.8849C64.2275 50.8849 81.2905 55.0293 98.1634 45.9512C98.1581 45.9578 103.845 81.6724 119.34 95.0929Z" fill="white"/>
<g opacity="0.3">
<path d="M73.0537 58.2355C73.0537 58.2355 86.9291 57.4462 90.8033 54.4365L91.3909 56.3367C91.3909 56.3367 82.223 60.4067 73.0537 60.4558V58.2355Z" fill="#02344F"/>
<path d="M73.0537 67.6165C73.0537 67.6165 86.4881 66.8764 96.6385 61.9427L96.9818 62.732C96.9818 62.732 88.927 67.4637 73.0537 68.7021V67.6165Z" fill="#02344F"/>
<path d="M74.1354 71.272C74.1354 71.272 87.5698 70.5319 97.7189 65.5982L98.0622 66.3875C98.0622 66.3875 90.0074 71.1179 74.1354 72.3576V71.272Z" fill="#02344F"/>
<path d="M75.2155 74.9327C75.2155 74.9327 88.6498 74.1926 98.8002 69.2589L99.1422 70.0482C99.1422 70.0482 91.0874 74.7799 75.2155 76.0183V74.9327Z" fill="#02344F"/>
<path d="M76.2968 78.5935C76.2968 78.5935 89.7311 77.8534 99.8802 72.9197L100.224 73.709C100.224 73.709 92.1687 78.4407 76.2968 79.6791V78.5935Z" fill="#02344F"/>
<path d="M77.3768 82.2555C77.3768 82.2555 90.8111 81.5154 100.962 76.5817L101.304 77.371C101.304 77.371 93.2487 82.1014 77.3768 83.3411V82.2555Z" fill="#02344F"/>
</g>
<path d="M171.839 127.709C171.839 127.709 166.256 127.37 166.914 131.307C166.914 131.307 166.782 132.002 167.41 132.318C167.41 132.318 167.419 132.026 167.982 132.126C168.183 132.16 168.386 132.169 168.589 132.155C168.863 132.136 169.123 132.028 169.33 131.847C169.33 131.847 170.9 131.194 171.51 128.614C171.51 128.614 171.962 128.05 171.943 127.905L171.002 128.304C171.002 128.304 171.324 128.988 171.07 129.556C171.07 129.556 171.04 128.329 170.859 128.36C170.822 128.36 170.369 128.596 170.369 128.596C170.369 128.596 170.923 129.792 170.501 130.653C170.501 130.653 170.66 129.185 170.192 128.683L169.532 129.072C169.532 129.072 170.179 130.303 169.741 131.307C169.741 131.307 169.853 129.767 169.392 129.166L168.791 129.638C168.791 129.638 169.4 130.851 169.029 131.684C169.029 131.684 168.98 129.891 168.661 129.755C168.661 129.755 168.132 130.221 168.056 130.419C168.056 130.419 168.472 131.299 168.213 131.764C168.213 131.764 168.055 130.568 167.925 130.568C167.925 130.568 167.397 131.366 167.347 131.897C167.347 131.897 167.369 131.089 167.798 130.487C167.496 130.545 167.217 130.691 166.996 130.906C166.996 130.906 167.077 130.345 167.928 130.297C167.928 130.297 168.361 129.697 168.476 129.659C168.476 129.659 167.631 129.589 167.118 129.818C167.118 129.818 167.57 129.286 168.632 129.529L169.224 129.043C169.224 129.043 168.111 128.889 167.64 129.059C167.64 129.059 168.183 128.591 169.384 128.926L170.03 128.538C170.03 128.538 169.082 128.332 168.517 128.405C168.517 128.405 169.112 128.081 170.22 128.432L170.681 128.223C170.681 128.223 169.986 128.09 169.783 128.064C169.58 128.037 169.568 127.987 169.568 127.987C170.008 127.912 170.46 127.962 170.874 128.133C170.874 128.133 171.855 127.771 171.839 127.709Z" fill="#02344F"/>
<path d="M174.439 114.712C174.439 114.712 171.292 114.521 171.666 116.741C171.627 116.972 171.739 117.202 171.945 117.311C171.945 117.311 171.951 117.146 172.268 117.202C172.381 117.221 172.496 117.226 172.61 117.218C172.764 117.208 172.911 117.147 173.028 117.045C173.028 117.045 173.912 116.677 174.257 115.222C174.257 115.222 174.512 114.905 174.501 114.824L173.973 115.051C173.973 115.051 174.154 115.438 174.011 115.758C174.011 115.758 173.994 115.066 173.892 115.082C173.871 115.082 173.617 115.214 173.617 115.214C173.617 115.214 173.928 115.879 173.693 116.374C173.693 116.374 173.783 115.547 173.519 115.262L173.145 115.483C173.145 115.483 173.51 116.176 173.263 116.742C173.263 116.742 173.326 115.873 173.066 115.536L172.728 115.802C172.728 115.802 173.07 116.486 172.86 116.955C172.86 116.955 172.832 115.944 172.653 115.868C172.524 115.978 172.41 116.102 172.311 116.239C172.311 116.239 172.546 116.736 172.4 116.998C172.4 116.998 172.311 116.324 172.238 116.321C172.238 116.321 171.942 116.766 171.912 117.072C171.926 116.788 172.014 116.514 172.167 116.275C171.996 116.307 171.838 116.389 171.714 116.511C171.714 116.511 171.76 116.195 172.242 116.168C172.242 116.168 172.486 115.83 172.551 115.808C172.551 115.808 172.074 115.769 171.785 115.897C171.785 115.897 172.04 115.6 172.638 115.735L172.973 115.46C172.973 115.46 172.345 115.374 172.079 115.47C172.079 115.47 172.386 115.204 173.063 115.398L173.428 115.179C173.147 115.117 172.86 115.092 172.573 115.105C172.573 115.105 172.91 114.922 173.533 115.12L173.797 115.003C173.797 115.003 173.401 114.925 173.29 114.913C173.179 114.901 173.169 114.869 173.169 114.869C173.417 114.827 173.672 114.856 173.906 114.951C173.906 114.951 174.45 114.747 174.439 114.712Z" fill="#02344F"/>
<path d="M155.863 116.639C155.863 116.639 152.063 116.408 152.511 119.088C152.464 119.366 152.6 119.644 152.848 119.776C152.848 119.776 152.848 119.577 153.244 119.643C153.381 119.666 153.52 119.673 153.658 119.663C153.844 119.651 154.021 119.577 154.162 119.453C154.162 119.453 155.23 119.009 155.646 117.253C155.646 117.253 155.954 116.87 155.941 116.77L155.292 117.047C155.292 117.047 155.512 117.512 155.339 117.898C155.339 117.898 155.317 117.064 155.195 117.083C155.17 117.083 154.862 117.245 154.862 117.245C154.862 117.245 155.238 118.055 154.954 118.645C154.954 118.645 155.063 117.646 154.744 117.303L154.293 117.569C154.293 117.569 154.732 118.407 154.434 119.09C154.434 119.09 154.511 118.042 154.198 117.629L153.788 117.95C153.788 117.95 154.203 118.775 153.949 119.343C153.949 119.343 153.918 118.122 153.7 118.03C153.7 118.03 153.342 118.348 153.288 118.478C153.288 118.478 153.57 119.077 153.395 119.393C153.395 119.393 153.287 118.58 153.198 118.576C153.198 118.576 152.843 119.116 152.802 119.484C152.82 119.142 152.926 118.812 153.11 118.524C152.904 118.564 152.714 118.663 152.564 118.81C152.564 118.81 152.62 118.429 153.198 118.395C153.198 118.395 153.493 117.986 153.572 117.962C153.572 117.962 152.996 117.913 152.647 118.069C152.647 118.069 152.954 117.71 153.676 117.873L154.08 117.541C154.08 117.541 153.324 117.437 153.001 117.552C153.001 117.552 153.371 117.234 154.19 117.467L154.629 117.201C154.629 117.201 153.984 117.061 153.598 117.112C153.598 117.112 154.005 116.891 154.758 117.13L155.072 116.988C155.072 116.988 154.599 116.895 154.46 116.881C154.322 116.866 154.315 116.827 154.315 116.827C154.615 116.776 154.923 116.81 155.204 116.926C155.204 116.926 155.875 116.68 155.863 116.639Z" fill="#02344F"/>
<rect width="22.6645" height="40.3538" rx="5" transform="matrix(0.307434 -0.951569 0.950429 0.31094 122.842 55.5625)" fill="white"/>
<g opacity="0.24">
<path d="M138.237 46.0029C138.237 48.3043 136.383 50.17 134.096 50.17C131.809 50.17 129.955 48.3043 129.955 46.0029C129.955 43.7016 131.809 41.8359 134.096 41.8359C136.383 41.8359 138.237 43.7016 138.237 46.0029Z" fill="#02344F"/>
<path d="M144.004 45.2528L144.354 44.1673L161.512 49.7805L161.161 50.866L144.004 45.2528Z" fill="#02344F"/>
<path d="M143.109 48.0203L143.46 46.9348L152.2 49.7942L151.85 50.8796L143.109 48.0203Z" fill="#02344F"/>
<path d="M142.214 50.7895L142.564 49.7041L156.7 54.3288L156.35 55.4143L142.214 50.7895Z" fill="#02344F"/>
<path d="M141.32 53.5577L141.671 52.4722L158.828 58.0854L158.477 59.1709L141.32 53.5577Z" fill="#02344F"/>
</g>
<rect opacity="0.5" width="2.20576" height="4.99566" transform="matrix(0.307433 -0.95157 0.950429 0.310941 152.111 62.6289)" fill="#02344F"/>
<rect width="22.3149" height="34.6483" rx="4" transform="matrix(0.53836 -0.842715 0.839631 0.543157 119.323 94.9434)" fill="white"/>
<path d="M137.403 100.965L144.806 89.2402L145.95 89.972L138.547 101.697L137.403 100.965Z" fill="#F4F6F8"/>
<path d="M139.848 102.527L147.251 90.8023L148.395 91.5341L140.993 103.259L139.848 102.527Z" fill="#F4F6F8"/>
<path d="M123.634 93.6314L127.005 88.2928L128.253 89.0909L124.883 94.4295L123.634 93.6314Z" fill="#DFE3E8"/>
<path d="M127.624 94.7129L135.027 82.9883L136.171 83.7201L128.769 95.4447L127.624 94.7129Z" fill="#DFE3E8"/>
<path d="M130.069 96.2747L137.472 84.5501L138.616 85.2819L131.214 97.0065L130.069 96.2747Z" fill="#DFE3E8"/>
<path d="M132.514 97.8392L139.916 86.1146L141.061 86.8464L133.658 98.571L132.514 97.8392Z" fill="#DFE3E8"/>
<path d="M135.043 100.106L142.498 88.4374L143.637 89.1743L136.183 100.843L135.043 100.106Z" fill="#DFE3E8"/>
<path d="M150.114 95.8665L152.03 92.8305L155.047 94.7594L153.131 97.7955L150.114 95.8665Z" fill="#DFE3E8"/>
<path d="M118.93 75.005L98.7168 75.2242C97.9602 75.2322 97.3508 75.8513 97.3501 76.6128V78.2936C97.3497 79.0475 96.7521 79.6635 96.0033 79.6822L81.4174 80.0343C80.7813 80.0504 80.2168 79.6267 80.0508 79.0085L79.3655 76.4746C79.2011 75.8633 78.6465 75.4413 78.0173 75.4488L58.5339 75.66C58.1299 75.664 57.7479 75.846 57.4887 76.1579C57.2296 76.4698 57.1193 76.8803 57.187 77.2811L65.0252 123.703C65.1376 124.369 65.7098 124.857 66.3814 124.86L127.933 125.126C128.346 125.127 128.737 124.943 129.001 124.624C129.264 124.305 129.372 123.883 129.295 123.476L120.3 76.1331C120.175 75.4732 119.598 74.9982 118.93 75.005Z" fill="url(#paint1_linear_549_16539)"/>
<g opacity="0.2">
<path d="M171.944 132.661C171.944 133.033 170.175 133.334 167.993 133.334C165.811 133.334 164.043 133.033 164.043 132.661C164.043 132.29 165.811 131.989 167.993 131.989C170.175 131.989 171.944 132.29 171.944 132.661Z" fill="#02344F"/>
<path d="M174.501 117.504C174.501 117.713 173.504 117.883 172.273 117.883C171.043 117.883 170.046 117.713 170.046 117.504C170.046 117.295 171.043 117.126 172.273 117.126C173.504 117.126 174.501 117.295 174.501 117.504Z" fill="#02344F"/>
<path d="M155.935 120.01C155.935 120.263 154.731 120.467 153.246 120.467C151.76 120.467 150.556 120.263 150.556 120.01C150.556 119.758 151.76 119.553 153.246 119.553C154.731 119.553 155.935 119.758 155.935 120.01Z" fill="#02344F"/>
<path d="M54.961 114.962C54.961 115.126 54.0026 115.259 52.8205 115.259C51.6383 115.259 50.68 115.126 50.68 114.962C50.68 114.799 51.6383 114.666 52.8205 114.666C54.0026 114.666 54.961 114.799 54.961 114.962Z" fill="#02344F"/>
<path d="M46.7621 115.798C46.7621 115.962 45.8038 116.094 44.6216 116.094C43.4395 116.094 42.4812 115.962 42.4812 115.798C42.4812 115.635 43.4395 115.502 44.6216 115.502C45.8038 115.502 46.7621 115.635 46.7621 115.798Z" fill="#02344F"/>
<path d="M49.4243 118.181C49.4243 118.297 48.7433 118.391 47.9031 118.391C47.063 118.391 46.382 118.297 46.382 118.181C46.382 118.065 47.063 117.971 47.9031 117.971C48.7433 117.971 49.4243 118.065 49.4243 118.181Z" fill="#02344F"/>
<path d="M40.9149 117.971C40.9149 118.087 40.2338 118.181 39.3937 118.181C38.5536 118.181 37.8726 118.087 37.8726 117.971C37.8726 117.855 38.5536 117.761 39.3937 117.761C40.2338 117.761 40.9149 117.855 40.9149 117.971Z" fill="#02344F"/>
</g>
<path d="M38.5555 117.492C38.4598 117.414 38.3903 117.307 38.3561 117.188C38.3224 117.064 38.3813 116.934 38.4961 116.878C38.6281 116.829 38.7602 116.918 38.8658 117.011C38.9714 117.104 39.0916 117.203 39.2236 117.18C39.0811 117.05 39.0169 116.854 39.0546 116.664C39.06 116.626 39.076 116.589 39.1008 116.559C39.1721 116.482 39.3016 116.516 39.3874 116.577C39.6515 116.768 39.7347 117.139 39.736 117.474C39.7492 117.351 39.7492 117.227 39.736 117.104C39.7289 116.979 39.7843 116.858 39.8839 116.781C39.9482 116.746 40.0206 116.729 40.0938 116.731C40.2165 116.713 40.3409 116.749 40.4358 116.829C40.5283 116.956 40.5229 117.13 40.4226 117.25C40.3215 117.365 40.2018 117.461 40.0687 117.535C39.9677 117.596 39.8816 117.679 39.8165 117.778C39.8086 117.791 39.8023 117.805 39.798 117.82H39.0295C38.8575 117.733 38.698 117.623 38.5555 117.492Z" fill="#02344F"/>
<path d="M51.9514 114.593C51.8555 114.515 51.7859 114.409 51.752 114.29C51.7182 114.167 51.7764 114.036 51.8907 113.98C52.0227 113.931 52.1548 114.02 52.2604 114.113C52.3661 114.206 52.4849 114.307 52.6209 114.287C52.4783 114.158 52.4137 113.963 52.4506 113.773C52.4564 113.734 52.4729 113.698 52.4981 113.668C52.5694 113.591 52.6988 113.624 52.7846 113.684C53.0553 113.877 53.1319 114.247 53.1332 114.582C53.1465 114.459 53.1465 114.335 53.1332 114.211C53.1213 114.087 53.1706 113.965 53.2653 113.885C53.3299 113.85 53.4022 113.833 53.4752 113.835C53.5977 113.818 53.7218 113.853 53.8172 113.932C53.91 114.06 53.904 114.234 53.8027 114.355C53.7023 114.469 53.583 114.566 53.4502 114.639C53.3491 114.7 53.2629 114.783 53.1979 114.881C53.1902 114.895 53.184 114.91 53.1795 114.925H52.4281C52.2548 114.837 52.0944 114.725 51.9514 114.593Z" fill="#02344F"/>
<path d="M47.4872 117.492C47.3916 117.413 47.3217 117.307 47.2865 117.188C47.2528 117.064 47.3117 116.934 47.4265 116.878C47.5585 116.829 47.6905 116.918 47.7962 117.011C47.9018 117.104 48.0193 117.205 48.1567 117.187C48.0143 117.056 47.9497 116.861 47.9863 116.671C47.9922 116.632 48.0086 116.596 48.0339 116.566C48.1052 116.489 48.2346 116.522 48.3204 116.583C48.5911 116.775 48.6664 117.145 48.669 117.48C48.6822 117.357 48.6822 117.234 48.669 117.111C48.6586 116.985 48.7105 116.863 48.8077 116.784C48.8719 116.748 48.9444 116.731 49.0176 116.733C49.1403 116.716 49.2646 116.752 49.3596 116.832C49.4522 116.959 49.4462 117.133 49.3451 117.253C49.2444 117.367 49.1252 117.463 48.9925 117.537C48.8915 117.599 48.8054 117.682 48.7403 117.781C48.7323 117.794 48.7261 117.808 48.7218 117.823H47.956C47.7858 117.734 47.6281 117.623 47.4872 117.492Z" fill="#02344F"/>
<g opacity="0.08">
<path d="M40.1625 38.6684C40.1625 40.2557 38.8838 41.5425 37.3064 41.5425C35.7289 41.5425 34.4502 40.2557 34.4502 38.6684C34.4502 37.0811 35.7289 35.7943 37.3064 35.7943C38.8838 35.7943 40.1625 37.0811 40.1625 38.6684Z" fill="#02344F"/>
<path d="M177.502 61.6361C177.502 63.2234 176.224 64.5102 174.646 64.5102C173.069 64.5102 171.79 63.2234 171.79 61.6361C171.79 60.0487 173.069 58.7619 174.646 58.7619C176.224 58.7619 177.502 60.0487 177.502 61.6361Z" fill="#02344F"/>
<path d="M126.16 29.5411C126.16 31.1284 124.882 32.4152 123.304 32.4152C121.727 32.4152 120.448 31.1284 120.448 29.5411C120.448 27.9538 121.727 26.667 123.304 26.667C124.882 26.667 126.16 27.9538 126.16 29.5411Z" fill="#02344F"/>
<path d="M47.8053 54.5246C47.8053 57.1848 45.6622 59.3413 43.0186 59.3413C40.375 59.3413 38.232 57.1848 38.232 54.5246C38.232 51.8643 40.375 49.7078 43.0186 49.7078C45.6622 49.7078 47.8053 51.8643 47.8053 54.5246Z" fill="#02344F"/>
</g>
<path fill-rule="evenodd" clip-rule="evenodd" d="M90.9965 93.2939C87.4741 93.2939 84.6187 96.1674 84.6187 99.7119C84.6187 103.256 87.4741 106.13 90.9965 106.13C94.5189 106.13 97.3743 103.256 97.3743 99.7119C97.3743 96.1674 94.5189 93.2939 90.9965 93.2939V93.2939Z" fill="#012538"/>
<path opacity="0.72" fill-rule="evenodd" clip-rule="evenodd" d="M90.9963 94.04C94.1089 94.04 96.6322 96.5792 96.6322 99.7114C96.6322 102.844 94.1089 105.383 90.9963 105.383C87.8836 105.383 85.3604 102.844 85.3604 99.7114C85.3631 96.5803 87.8848 94.0428 90.9963 94.04Z" fill="#02344F"/>
<path fill-rule="evenodd" clip-rule="evenodd" d="M88.3592 100.181L88.0508 99.8781C87.9841 99.8168 87.9463 99.7311 87.9463 99.6415C87.9463 99.5518 87.9841 99.4661 88.0508 99.4048L90.7567 96.7452C90.8191 96.6797 90.9063 96.6426 90.9976 96.6426C91.0889 96.6426 91.1762 96.6797 91.2386 96.7452L93.9445 99.4025C94.0099 99.4644 94.0468 99.5499 94.0468 99.6391C94.0468 99.7283 94.0099 99.8137 93.9445 99.8757L93.6361 100.179C93.573 100.243 93.486 100.279 93.3951 100.279C93.3043 100.279 93.2173 100.243 93.1542 100.179L91.5542 98.5222V102.453C91.5549 102.54 91.5201 102.623 91.4577 102.685C91.3953 102.747 91.3103 102.781 91.2217 102.781H90.776C90.591 102.781 90.441 102.634 90.441 102.453V98.527L88.8411 100.183C88.7777 100.247 88.6905 100.283 88.5996 100.283C88.5088 100.282 88.422 100.245 88.3592 100.181Z" fill="#012538"/>
<path d="M44.5756 115.733C44.5756 115.733 47.577 105.831 44.1055 101.865C41.5081 98.8976 38.5595 99.2524 37.2391 99.6191C36.5481 99.8049 35.9727 100.286 35.6651 100.936C35.2029 101.938 35.2861 103.564 38.545 105.463C43.9998 108.641 44.3392 113.001 44.3392 113.001L44.5756 115.733Z" fill="#02344F"/>
<path d="M44.6975 115.811C44.6975 115.811 41.1811 108.615 40.2158 108.769C39.7576 108.845 39.5464 109.3 39.45 109.755C39.3315 110.344 39.3984 110.957 39.6414 111.506C40.1406 112.662 41.4809 114.848 44.6975 115.811Z" fill="#02344F"/>
<path d="M44.5928 115.811C44.5928 115.811 48.1079 108.615 49.0731 108.769C49.5326 108.845 49.7439 109.3 49.839 109.755C49.9575 110.344 49.8906 110.957 49.6475 111.506C49.1484 112.662 47.8068 114.848 44.5928 115.811Z" fill="#02344F"/>
<path fill-rule="evenodd" clip-rule="evenodd" d="M37.6052 100.99C37.6234 100.931 37.6854 100.899 37.7436 100.917L37.7105 101.023C37.7436 100.917 37.7436 100.917 37.7436 100.917L37.7442 100.917L37.7457 100.918L37.751 100.92L37.771 100.926C37.7885 100.932 37.8139 100.941 37.8469 100.953C37.9127 100.977 38.0085 101.013 38.1292 101.064C38.3706 101.165 38.7123 101.322 39.1157 101.548C39.9222 102.001 40.9765 102.729 41.9684 103.834C43.9558 106.047 45.6816 109.759 44.6858 115.751C44.6758 115.812 44.6189 115.852 44.5587 115.842C44.4986 115.832 44.458 115.775 44.468 115.714C45.453 109.787 43.7455 106.144 41.8046 103.983C40.8323 102.9 39.7986 102.186 39.0082 101.743C38.6131 101.521 38.2791 101.367 38.0444 101.269C37.9271 101.22 37.8347 101.185 37.7719 101.162C37.7406 101.151 37.7166 101.142 37.7007 101.137L37.6828 101.131L37.6786 101.13L37.6776 101.129C37.6195 101.111 37.5869 101.049 37.6052 100.99Z" fill="#012538"/>
<path fill-rule="evenodd" clip-rule="evenodd" d="M42.9704 101.959C43.0045 102.01 42.9911 102.079 42.9406 102.113L42.9403 102.114L42.9383 102.115L42.9295 102.121C42.9215 102.127 42.9095 102.136 42.8942 102.147C42.8636 102.171 42.8197 102.206 42.7679 102.253C42.6641 102.346 42.53 102.482 42.4079 102.654C42.1639 102.999 41.9734 103.48 42.1536 104.057C42.1719 104.115 42.1396 104.178 42.0814 104.196C42.0232 104.214 41.9612 104.182 41.9429 104.123C41.735 103.458 41.9596 102.904 42.228 102.525C42.3621 102.336 42.5085 102.188 42.6211 102.087C42.6775 102.036 42.7257 101.997 42.7602 101.971C42.7775 101.958 42.7913 101.947 42.801 101.94L42.8124 101.932L42.8156 101.93L42.8166 101.929L42.817 101.929C42.817 101.929 42.8171 101.929 42.8767 102.018L42.817 101.929C42.8676 101.895 42.9363 101.908 42.9704 101.959Z" fill="#012538"/>
<path fill-rule="evenodd" clip-rule="evenodd" d="M38.6765 102.835L38.6776 102.834L38.6828 102.829C38.6877 102.824 38.6952 102.817 38.7054 102.808C38.7256 102.79 38.7561 102.763 38.7955 102.733C38.8747 102.672 38.989 102.594 39.1295 102.53C39.4097 102.401 39.7877 102.324 40.2034 102.517C40.2587 102.542 40.3243 102.518 40.3499 102.462C40.3754 102.407 40.3513 102.341 40.2959 102.315C39.8044 102.087 39.3565 102.181 39.0375 102.328C38.8784 102.401 38.7498 102.488 38.661 102.557C38.6165 102.591 38.5817 102.621 38.5577 102.643C38.5457 102.654 38.5364 102.662 38.5299 102.669L38.5223 102.676L38.5201 102.678L38.5194 102.679L38.5191 102.679C38.5191 102.679 38.519 102.679 38.5977 102.757L38.5191 102.679C38.4763 102.723 38.4769 102.794 38.5204 102.837C38.5639 102.88 38.6338 102.879 38.6765 102.835Z" fill="#012538"/>
<path fill-rule="evenodd" clip-rule="evenodd" d="M42.1454 106.691L42.1459 106.691L42.1482 106.69L42.1582 106.685C42.1672 106.681 42.1806 106.674 42.198 106.667C42.2328 106.651 42.2832 106.629 42.3449 106.605C42.4688 106.557 42.6355 106.503 42.8104 106.474C42.9867 106.444 43.1622 106.442 43.3087 106.489C43.4502 106.534 43.5688 106.627 43.6401 106.803C43.6631 106.86 43.7276 106.887 43.7841 106.864C43.8405 106.841 43.8676 106.776 43.8445 106.719C43.7468 106.478 43.5751 106.341 43.3761 106.277C43.1823 106.215 42.9672 106.222 42.7741 106.255C42.5796 106.287 42.398 106.347 42.266 106.398C42.1997 106.423 42.1453 106.447 42.1072 106.464C42.0881 106.473 42.0731 106.48 42.0628 106.485L42.0507 106.491L42.0474 106.492L42.0464 106.493L42.046 106.493C42.046 106.493 42.046 106.493 42.0957 106.592L42.046 106.493C41.9916 106.521 41.9697 106.587 41.9971 106.642C42.0246 106.697 42.091 106.719 42.1454 106.691Z" fill="#012538"/>
<path fill-rule="evenodd" clip-rule="evenodd" d="M40.1792 110.046C40.2294 110.011 40.2982 110.024 40.3328 110.074L40.2419 110.137L40.151 110.2C40.1164 110.15 40.129 110.081 40.1792 110.046ZM40.2419 110.137C40.151 110.2 40.151 110.2 40.151 110.2L40.1928 110.261C40.22 110.301 40.2601 110.359 40.3112 110.433C40.4136 110.58 40.5607 110.792 40.7393 111.046C41.0966 111.555 41.5806 112.236 42.087 112.925C42.5931 113.613 43.1226 114.311 43.5709 114.851C43.7948 115.121 43.9999 115.354 44.1724 115.527C44.2587 115.614 44.3382 115.687 44.4091 115.743C44.4779 115.798 44.5464 115.842 44.6098 115.863C44.6677 115.883 44.7301 115.851 44.7492 115.793C44.7683 115.734 44.7368 115.672 44.6789 115.652C44.6531 115.644 44.6093 115.619 44.5457 115.569C44.4842 115.52 44.4113 115.453 44.3284 115.37C44.1628 115.203 43.9626 114.977 43.7404 114.709C43.2963 114.173 42.7698 113.48 42.2645 112.793C41.7594 112.106 41.2764 111.426 40.9197 110.918C40.7413 110.664 40.5946 110.453 40.4924 110.306C40.4413 110.232 40.4014 110.174 40.3743 110.135L40.3328 110.074C40.3328 110.074 40.3328 110.074 40.2419 110.137Z" fill="#012538"/>
<path fill-rule="evenodd" clip-rule="evenodd" d="M39.7921 110.978C39.7921 110.917 39.8415 110.867 39.9025 110.867H40.7634C40.8244 110.867 40.8738 110.917 40.8738 110.978C40.8738 111.04 40.8244 111.089 40.7634 111.089H39.9025C39.8415 111.089 39.7921 111.04 39.7921 110.978Z" fill="#012538"/>
<path fill-rule="evenodd" clip-rule="evenodd" d="M40.8234 112.943C40.8261 112.882 40.8776 112.834 40.9385 112.837L42.2893 112.895C42.3502 112.898 42.3975 112.95 42.3949 113.011C42.3923 113.072 42.3408 113.12 42.2798 113.117L40.929 113.059C40.8681 113.056 40.8208 113.004 40.8234 112.943Z" fill="#012538"/>
<path fill-rule="evenodd" clip-rule="evenodd" d="M41.7787 111.263C41.8384 111.275 41.8767 111.334 41.8643 111.394L41.7177 112.103C41.7053 112.163 41.6468 112.201 41.5871 112.189C41.5274 112.176 41.4891 112.117 41.5015 112.057L41.6481 111.349C41.6605 111.289 41.719 111.25 41.7787 111.263Z" fill="#012538"/>
<path fill-rule="evenodd" clip-rule="evenodd" d="M43.1961 113.415C43.257 113.417 43.3044 113.469 43.3019 113.53L43.2755 114.173C43.2729 114.235 43.2215 114.282 43.1606 114.28C43.0996 114.277 43.0523 114.225 43.0548 114.164L43.0812 113.521C43.0837 113.46 43.1352 113.412 43.1961 113.415Z" fill="#012538"/>
<path fill-rule="evenodd" clip-rule="evenodd" d="M48.9572 110.074C48.9919 110.024 49.0607 110.011 49.1109 110.046C49.161 110.081 49.1736 110.15 49.1389 110.2L49.0481 110.137L48.9572 110.074ZM48.9572 110.074C48.9572 110.074 48.9572 110.074 49.0481 110.137C49.1389 110.2 49.1389 110.2 49.1389 110.2L49.0971 110.261C49.0698 110.301 49.0297 110.359 48.9784 110.433C48.8758 110.581 48.7285 110.792 48.5495 111.046C48.1915 111.555 47.7068 112.236 47.1999 112.925C46.6931 113.613 46.1633 114.311 45.7153 114.851C45.4914 115.121 45.2866 115.354 45.1145 115.527C45.0285 115.614 44.9492 115.687 44.8787 115.743C44.8103 115.797 44.7422 115.842 44.6792 115.863C44.6213 115.883 44.5588 115.851 44.5396 115.793C44.5203 115.735 44.5516 115.672 44.6095 115.653C44.6348 115.644 44.6784 115.619 44.7417 115.569C44.803 115.52 44.8756 115.453 44.9583 115.37C45.1236 115.204 45.3236 114.977 45.5457 114.709C45.9896 114.173 46.5165 113.48 47.0224 112.793C47.5281 112.106 48.0118 111.426 48.3692 110.918C48.5479 110.664 48.6949 110.453 48.7973 110.305C48.8485 110.232 48.8885 110.174 48.9157 110.134L48.9572 110.074Z" fill="#012538"/>
<path fill-rule="evenodd" clip-rule="evenodd" d="M48.4158 110.978C48.4158 110.917 48.4652 110.867 48.5262 110.867H49.3871C49.4481 110.867 49.4975 110.917 49.4975 110.978C49.4975 111.04 49.4481 111.089 49.3871 111.089H48.5262C48.4652 111.089 48.4158 111.04 48.4158 110.978Z" fill="#012538"/>
<path fill-rule="evenodd" clip-rule="evenodd" d="M48.4661 112.943C48.4687 113.004 48.4214 113.056 48.3605 113.059L47.0097 113.117C46.9488 113.12 46.8972 113.072 46.8946 113.011C46.892 112.95 46.9393 112.898 47.0002 112.895L48.351 112.837C48.4119 112.834 48.4635 112.882 48.4661 112.943Z" fill="#012538"/>
<path fill-rule="evenodd" clip-rule="evenodd" d="M47.5108 111.263C47.5705 111.25 47.629 111.289 47.6414 111.349L47.788 112.057C47.8004 112.117 47.7621 112.176 47.7024 112.189C47.6427 112.201 47.5842 112.163 47.5718 112.103L47.4252 111.394C47.4128 111.334 47.4511 111.275 47.5108 111.263Z" fill="#012538"/>
<path fill-rule="evenodd" clip-rule="evenodd" d="M46.0935 113.415C46.1545 113.412 46.2059 113.46 46.2084 113.521L46.2348 114.164C46.2373 114.225 46.19 114.277 46.129 114.28C46.0681 114.282 46.0167 114.235 46.0142 114.173L45.9878 113.53C45.9852 113.469 46.0326 113.417 46.0935 113.415Z" fill="#012538"/>
<defs>
<linearGradient id="paint0_linear_549_16539" x1="145.224" y1="188.459" x2="224.036" y2="11.9432" gradientUnits="userSpaceOnUse">
<stop stop-color="#012538"/>
<stop offset="0.0001" stop-color="#012538"/>
<stop offset="1" stop-color="#012538" stop-opacity="0.01"/>
</linearGradient>
<linearGradient id="paint1_linear_549_16539" x1="78.8942" y1="60.9957" x2="57.2593" y2="124.48" gradientUnits="userSpaceOnUse">
<stop stop-color="#1572A3"/>
<stop offset="1" stop-color="#012538"/>
</linearGradient>
</defs>
</svg>
