<svg width="60" height="60" viewBox="0 0 60 60" fill="none" xmlns="http://www.w3.org/2000/svg">
<path d="M60 30C60 46.5685 46.5685 60 30 60C13.4315 60 0 46.5685 0 30C0 13.4315 13.4315 0 30 0C46.5685 0 60 13.4315 60 30ZM3.30906 30C3.30906 44.741 15.259 56.6909 30 56.6909C44.741 56.6909 56.6909 44.741 56.6909 30C56.6909 15.259 44.741 3.30906 30 3.30906C15.259 3.30906 3.30906 15.259 3.30906 30Z" fill="#ED5763"/>
<path d="M30 1.65453C30 0.740761 30.7413 -0.00476038 31.6537 0.0456051C36.8833 0.334275 41.9567 1.98805 46.3627 4.85518C51.2318 8.0237 55.0762 12.5378 57.4292 17.8492C59.7821 23.1607 60.5422 29.041 59.6174 34.7762C58.6925 40.5114 56.1224 45.8547 52.2191 50.1572C48.3158 54.4598 43.2472 57.5365 37.6289 59.0138C32.0106 60.4911 26.0843 60.3054 20.5695 58.4792C15.0547 56.6531 10.1887 53.265 6.56247 48.7265C3.28115 44.6197 1.14264 39.7308 0.347643 34.5539C0.208942 33.6508 0.878967 32.8405 1.78842 32.7518C2.69788 32.6631 3.50181 33.3298 3.64668 34.232C4.37554 38.7709 6.26642 43.0548 9.14768 46.6609C12.3739 50.6988 16.7032 53.7132 21.6097 55.3379C26.5162 56.9626 31.7888 57.1278 36.7874 55.8135C41.786 54.4992 46.2955 51.7618 49.7683 47.9338C53.241 44.1059 55.5276 39.3519 56.3505 34.2494C57.1734 29.1468 56.497 23.9151 54.4037 19.1895C52.3103 14.4639 48.8899 10.4477 44.5579 7.62871C40.6891 5.11114 36.2418 3.64508 31.6536 3.36032C30.7415 3.30372 30 2.5683 30 1.65453Z" fill="#32BCA3"/>
<path d="M15.5682 35L20.7727 24.7045V24.6136H14.7727V23.3636H22.2273V24.6818L17.0455 35H15.5682ZM27.8253 35.1591C27.1586 35.1591 26.5582 35.0265 26.0241 34.7614C25.4901 34.4962 25.062 34.1326 24.7401 33.6705C24.4181 33.2083 24.242 32.6818 24.2116 32.0909H25.5753C25.6283 32.6174 25.867 33.053 26.2912 33.3977C26.7192 33.7386 27.2306 33.9091 27.8253 33.9091C28.3026 33.9091 28.7268 33.7973 29.098 33.5739C29.473 33.3504 29.7666 33.0436 29.9787 32.6534C30.1946 32.2595 30.3026 31.8144 30.3026 31.3182C30.3026 30.8106 30.1908 30.358 29.9673 29.9602C29.7476 29.5587 29.4446 29.2424 29.0582 29.0114C28.6719 28.7803 28.2306 28.6629 27.7344 28.6591C27.3783 28.6553 27.0128 28.7102 26.6378 28.8239C26.2628 28.9337 25.9541 29.0758 25.7116 29.25L24.3935 29.0909L25.098 23.3636H31.1435V24.6136H26.2798L25.8707 28.0455H25.9389C26.1776 27.8561 26.4768 27.6989 26.8366 27.5739C27.1965 27.4489 27.5715 27.3864 27.9616 27.3864C28.6738 27.3864 29.3082 27.5568 29.8651 27.8977C30.4257 28.2348 30.8651 28.697 31.1832 29.2841C31.5052 29.8712 31.6662 30.5417 31.6662 31.2955C31.6662 32.0379 31.4995 32.7008 31.1662 33.2841C30.8366 33.8636 30.3821 34.322 29.8026 34.6591C29.223 34.9924 28.5639 35.1591 27.8253 35.1591ZM39.8551 32.8182V32.2045C39.8551 31.7803 39.9422 31.392 40.1165 31.0398C40.2945 30.6837 40.5521 30.3996 40.8892 30.1875C41.2301 29.9716 41.643 29.8636 42.1278 29.8636C42.6203 29.8636 43.0331 29.9716 43.3665 30.1875C43.6998 30.3996 43.9517 30.6837 44.1222 31.0398C44.2926 31.392 44.3778 31.7803 44.3778 32.2045V32.8182C44.3778 33.2424 44.2907 33.6326 44.1165 33.9886C43.946 34.3409 43.6922 34.625 43.3551 34.8409C43.0218 35.053 42.6127 35.1591 42.1278 35.1591C41.6354 35.1591 41.2206 35.053 40.8835 34.8409C40.5464 34.625 40.2907 34.3409 40.1165 33.9886C39.9422 33.6326 39.8551 33.2424 39.8551 32.8182ZM41.0142 32.2045V32.8182C41.0142 33.1705 41.0975 33.4867 41.2642 33.767C41.4309 34.0436 41.7188 34.1818 42.1278 34.1818C42.5256 34.1818 42.8059 34.0436 42.9688 33.767C43.1354 33.4867 43.2188 33.1705 43.2188 32.8182V32.2045C43.2188 31.8523 43.1392 31.5379 42.9801 31.2614C42.821 30.9811 42.5369 30.8409 42.1278 30.8409C41.7301 30.8409 41.4441 30.9811 41.2699 31.2614C41.0994 31.5379 41.0142 31.8523 41.0142 32.2045ZM34.0597 26.1591V25.5455C34.0597 25.1212 34.1468 24.733 34.321 24.3807C34.4991 24.0246 34.7566 23.7405 35.0938 23.5284C35.4347 23.3125 35.8475 23.2045 36.3324 23.2045C36.8248 23.2045 37.2377 23.3125 37.571 23.5284C37.9044 23.7405 38.1563 24.0246 38.3267 24.3807C38.4972 24.733 38.5824 25.1212 38.5824 25.5455V26.1591C38.5824 26.5833 38.4953 26.9735 38.321 27.3295C38.1506 27.6818 37.8968 27.9659 37.5597 28.1818C37.2263 28.3939 36.8172 28.5 36.3324 28.5C35.84 28.5 35.4252 28.3939 35.0881 28.1818C34.7509 27.9659 34.4953 27.6818 34.321 27.3295C34.1468 26.9735 34.0597 26.5833 34.0597 26.1591ZM35.2188 25.5455V26.1591C35.2188 26.5114 35.3021 26.8277 35.4688 27.108C35.6354 27.3845 35.9233 27.5227 36.3324 27.5227C36.7301 27.5227 37.0104 27.3845 37.1733 27.108C37.34 26.8277 37.4233 26.5114 37.4233 26.1591V25.5455C37.4233 25.1932 37.3438 24.8788 37.1847 24.6023C37.0256 24.322 36.7415 24.1818 36.3324 24.1818C35.9347 24.1818 35.6487 24.322 35.4744 24.6023C35.304 24.8788 35.2188 25.1932 35.2188 25.5455ZM34.4915 35L42.4915 23.3636H43.7869L35.7869 35H34.4915Z" fill="#1C2636"/>
</svg>
