<svg width="136" height="40" viewBox="0 0 136 40" fill="none" xmlns="http://www.w3.org/2000/svg">
<path d="M4.96216 32.0578H8.24403V32.4439H4.96216V34.6469H8.50521V35.0671H4.54199V29.5254H8.40301V29.9342H4.99623L4.96216 32.0578Z" fill="#E7EBFF"/>
<path d="M12.2422 32.5801H15.0471V32.9321H12.2422V32.5801Z" fill="#E7EBFF"/>
<path d="M19.4414 29.5254V35.1239H19.0439V29.5254H19.4414Z" fill="#E7EBFF"/>
<path d="M23.246 33.0911C23.2399 32.8239 23.2875 32.5581 23.3859 32.3096C23.4843 32.0611 23.6316 31.8349 23.819 31.6443C24.0064 31.4537 24.2301 31.3027 24.477 31.2001C24.7238 31.0975 24.9887 31.0454 25.256 31.047C25.5472 31.023 25.8399 31.0683 26.1102 31.1792C26.3806 31.29 26.6208 31.4633 26.8114 31.6849C27.0019 31.9064 27.1373 32.1699 27.2064 32.4538C27.2755 32.7377 27.2765 33.0339 27.2092 33.3182H23.6434C23.6669 33.7259 23.8486 34.1083 24.1497 34.384C24.4509 34.6597 24.8478 34.807 25.256 34.7945C25.5221 34.8036 25.7871 34.7545 26.0323 34.6505C26.2774 34.5465 26.497 34.3903 26.6755 34.1926L26.9594 34.4197C26.7494 34.6647 26.4877 34.86 26.1931 34.9915C25.8986 35.1231 25.5785 35.1877 25.256 35.1806C24.9824 35.191 24.7097 35.1434 24.4557 35.041C24.2018 34.9386 23.9724 34.7837 23.7826 34.5863C23.5928 34.389 23.4469 34.1538 23.3544 33.8961C23.2619 33.6384 23.2249 33.3641 23.246 33.0911ZM26.8571 32.9321C26.8681 32.7225 26.8335 32.513 26.7558 32.318C26.6781 32.123 26.5591 31.9472 26.4069 31.8026C26.2548 31.658 26.0731 31.5481 25.8744 31.4804C25.6757 31.4127 25.4647 31.3888 25.256 31.4104C24.8419 31.4041 24.4418 31.5596 24.1407 31.8438C23.8395 32.128 23.6611 32.5184 23.6434 32.9321H26.8571Z" fill="#E7EBFF"/>
<path d="M34.6814 31.1153V35.0671H34.2839V34.2268C34.1176 34.5056 33.8814 34.7362 33.5985 34.8955C33.3156 35.0549 32.996 35.1375 32.6714 35.1353C32.1323 35.1353 31.6152 34.9211 31.234 34.5399C30.8528 34.1587 30.6387 33.6417 30.6387 33.1025C30.6387 32.5634 30.8528 32.0464 31.234 31.6652C31.6152 31.284 32.1323 31.0698 32.6714 31.0698C32.9974 31.0604 33.3197 31.14 33.6038 31.3001C33.888 31.4602 34.1231 31.6946 34.2839 31.9783V31.1153H34.6814ZM31.0588 33.0912C31.0495 33.3076 31.0845 33.5235 31.1617 33.7259C31.2388 33.9283 31.3565 34.1127 31.5075 34.268C31.6585 34.4232 31.8396 34.546 32.0398 34.6287C32.2399 34.7115 32.4548 34.7525 32.6714 34.7492C33.0859 34.7148 33.4724 34.5258 33.7542 34.2197C34.0359 33.9136 34.1923 33.5129 34.1923 33.0969C34.1923 32.6809 34.0359 32.2801 33.7542 31.974C33.4724 31.668 33.0859 31.479 32.6714 31.4446C32.4554 31.4397 32.2407 31.4792 32.0406 31.5607C31.8405 31.6422 31.6592 31.7639 31.5081 31.9182C31.3569 32.0726 31.239 32.2563 31.1618 32.4581C31.0845 32.6599 31.0495 32.8753 31.0588 33.0912Z" fill="#E7EBFF"/>
<path d="M39.0648 31.1152V31.7966C39.1906 31.5603 39.3816 31.365 39.6151 31.2342C39.8487 31.1033 40.1149 31.0423 40.3821 31.0584C40.6786 31.0487 40.9712 31.1278 41.2224 31.2856L41.0521 31.6035C40.8495 31.4831 40.6178 31.4203 40.3821 31.4218C40.0347 31.4248 39.7026 31.5649 39.458 31.8117C39.2134 32.0584 39.0762 32.3917 39.0762 32.7391V35.0103H38.6787V31.1152H39.0648Z" fill="#E7EBFF"/>
<path d="M45.0154 31.1152V31.7966C45.1577 31.5519 45.364 31.3508 45.6121 31.2147C45.8602 31.0786 46.1408 31.0128 46.4235 31.0243C46.6593 31.0046 46.8965 31.0355 47.1193 31.1151C47.3422 31.1946 47.5454 31.3209 47.7153 31.4855C47.8853 31.65 48.0181 31.8491 48.1047 32.0692C48.1914 32.2894 48.2299 32.5255 48.2177 32.7618V35.033H47.8203V32.7618C47.8369 32.5747 47.8115 32.3863 47.7459 32.2103C47.6803 32.0343 47.5763 31.8751 47.4413 31.7445C47.3063 31.6139 47.1439 31.5151 46.9658 31.4553C46.7878 31.3956 46.5986 31.3764 46.4121 31.3991C46.2254 31.3957 46.04 31.4308 45.8674 31.5021C45.6948 31.5735 45.5386 31.6795 45.4087 31.8137C45.2788 31.9478 45.1779 32.1073 45.1121 32.2821C45.0464 32.4569 45.0174 32.6434 45.0267 32.8299V35.033H44.6406V31.1152H45.0154Z" fill="#E7EBFF"/>
<path d="M52.7033 29.8321C52.7033 29.9165 52.6698 29.9973 52.6102 30.057C52.5506 30.1166 52.4697 30.1501 52.3854 30.1501C52.301 30.1501 52.2201 30.1166 52.1605 30.057C52.1009 29.9973 52.0674 29.9165 52.0674 29.8321C52.0674 29.7478 52.1009 29.6669 52.1605 29.6073C52.2201 29.5477 52.301 29.5142 52.3854 29.5142C52.4697 29.5142 52.5506 29.5477 52.6102 29.6073C52.6698 29.6669 52.7033 29.7478 52.7033 29.8321ZM52.2377 31.104V35.0672H52.6238V31.104H52.2377Z" fill="#E7EBFF"/>
<path d="M56.9728 31.1153V31.7967C57.1131 31.5504 57.319 31.3478 57.5676 31.2115C57.8162 31.0751 58.0977 31.0104 58.3809 31.0245C58.62 31.0006 58.8614 31.0294 59.0882 31.1088C59.315 31.1881 59.5217 31.3162 59.6938 31.4839C59.8659 31.6516 59.9991 31.855 60.0842 32.0797C60.1694 32.3044 60.2043 32.545 60.1865 32.7847V35.0559H59.789V32.7847C59.8056 32.5976 59.7802 32.4091 59.7147 32.2331C59.6491 32.0571 59.545 31.898 59.4101 31.7674C59.2751 31.6368 59.1126 31.538 58.9346 31.4782C58.7565 31.4184 58.5673 31.3992 58.3809 31.422C58.1942 31.4186 58.0087 31.4537 57.8361 31.525C57.6635 31.5963 57.5074 31.7024 57.3775 31.8365C57.2476 31.9707 57.1466 32.1302 57.0809 32.305C57.0152 32.4798 56.9861 32.6663 56.9955 32.8528V35.0559H56.6094V31.1153H56.9728Z" fill="#E7EBFF"/>
<path d="M67.5335 30.9109L67.7947 31.138L67.3859 31.615C67.5654 31.7925 67.7064 32.0052 67.8002 32.2396C67.894 32.474 67.9385 32.7253 67.9309 32.9777C67.9447 33.3637 67.8277 33.743 67.5989 34.0543C67.3701 34.3655 67.043 34.5903 66.6704 34.6924C67.0011 34.7201 67.31 34.8686 67.5383 35.1094C67.7666 35.3503 67.8982 35.6667 67.9082 35.9983C67.9082 36.9409 66.9997 37.4746 65.8642 37.4746C64.7286 37.4746 63.9109 36.9068 63.9109 35.9075H64.3084C64.3084 36.7138 65.0692 37.0999 65.8642 37.0999C66.6591 37.0999 67.4767 36.7933 67.4767 36.0324C67.4767 35.2716 66.6023 34.8968 65.8642 34.8968C65.6 34.9169 65.3346 34.88 65.086 34.7887C64.8373 34.6973 64.6111 34.5537 64.4227 34.3675C64.2344 34.1812 64.0881 33.9567 63.994 33.7091C63.8998 33.4615 63.8599 33.1966 63.8769 32.9322C63.8947 32.4202 64.113 31.9356 64.4847 31.583C64.8564 31.2303 65.3519 31.0379 65.8642 31.0472C66.2944 31.0471 66.7157 31.1691 67.0792 31.3992L67.5335 30.9109ZM64.263 32.9322C64.2441 33.1478 64.2725 33.3648 64.3461 33.5683C64.4198 33.7717 64.5369 33.9566 64.6893 34.1101C64.8418 34.2637 65.0258 34.3821 65.2288 34.4572C65.4317 34.5322 65.6485 34.5621 65.8642 34.5448C66.0837 34.5607 66.3041 34.5305 66.5113 34.4562C66.7185 34.3818 66.9078 34.265 67.0672 34.1131C67.2265 33.9613 67.3523 33.7777 67.4365 33.5744C67.5208 33.371 67.5615 33.1523 67.5562 32.9322C67.5578 32.7176 67.5136 32.5052 67.4266 32.309C67.3396 32.1128 67.2118 31.9374 67.0517 31.7945C66.8915 31.6516 66.7028 31.5445 66.4981 31.4802C66.2933 31.416 66.0772 31.3961 65.8642 31.4219C65.6598 31.4159 65.4563 31.4501 65.2652 31.5228C65.0742 31.5954 64.8993 31.705 64.7506 31.8453C64.6019 31.9855 64.4823 32.1537 64.3986 32.3402C64.3149 32.5267 64.2688 32.7279 64.263 32.9322Z" fill="#E7EBFF"/>
<path d="M80.2298 30.5474C80.0422 30.2802 79.786 30.0686 79.4882 29.9347C79.1905 29.8008 78.8622 29.7496 78.5378 29.7865C77.8791 29.7865 76.8344 30.025 76.8344 30.9221C76.8344 31.6375 77.6066 31.8079 78.5491 31.9782C79.4917 32.1486 80.7522 32.3757 80.7522 33.5908C80.7522 34.8059 79.4917 35.2033 78.5378 35.2033C78.0851 35.2225 77.6356 35.1198 77.2362 34.9061C76.8367 34.6924 76.5019 34.3754 76.2666 33.9882L76.6527 33.7952C76.8582 34.1149 77.143 34.376 77.4793 34.5531C77.8156 34.7302 78.192 34.8172 78.5719 34.8059C79.2532 34.8059 80.3547 34.6128 80.3547 33.6703C80.3547 32.7277 79.4349 32.6482 78.5151 32.4665C77.5952 32.2848 76.4369 32.0577 76.4369 31.0357C76.4369 29.8433 77.652 29.4799 78.5719 29.4799C78.9675 29.4336 79.3683 29.4982 79.7293 29.6667C80.0903 29.8352 80.3973 30.1008 80.6159 30.4338L80.2298 30.5474Z" fill="#E7EBFF"/>
<path d="M84.2383 33.114C84.2383 32.5809 84.45 32.0697 84.827 31.6927C85.2039 31.3158 85.7152 31.104 86.2483 31.104C86.7814 31.104 87.2926 31.3158 87.6696 31.6927C88.0465 32.0697 88.2583 32.5809 88.2583 33.114C88.2583 33.6471 88.0465 34.1583 87.6696 34.5353C87.2926 34.9122 86.7814 35.124 86.2483 35.124C85.7152 35.124 85.2039 34.9122 84.827 34.5353C84.45 34.1583 84.2383 33.6471 84.2383 33.114ZM87.8722 33.114C87.8722 32.6833 87.7011 32.2703 87.3966 31.9657C87.092 31.6612 86.679 31.4901 86.2483 31.4901C85.8176 31.4901 85.4045 31.6612 85.1 31.9657C84.7955 32.2703 84.6244 32.6833 84.6244 33.114C84.6244 33.5447 84.7955 33.9577 85.1 34.2623C85.4045 34.5668 85.8176 34.7379 86.2483 34.7379C86.679 34.7379 87.092 34.5668 87.3966 34.2623C87.7011 33.9577 87.8722 33.5447 87.8722 33.114Z" fill="#E7EBFF"/>
<path d="M92.3352 35.0671V31.49H91.5176V31.1493H92.3352V30.7405C92.3352 29.957 92.6418 29.3892 93.4708 29.3892C93.755 29.3907 94.0306 29.4866 94.2544 29.6617L94.0613 29.9456C93.8798 29.8235 93.6668 29.7565 93.4481 29.7526C92.9598 29.7526 92.6645 30.0478 92.6645 30.7405V31.1493H93.9705V31.49H92.71V35.0671H92.3352Z" fill="#E7EBFF"/>
<path d="M98.3192 29.9229V31.0584H99.6592V31.3878H98.3192V33.7952C98.3192 34.329 98.4328 34.7037 99.046 34.7037C99.2598 34.698 99.4695 34.6436 99.6592 34.5447L99.7955 34.8627C99.5649 34.988 99.3083 35.058 99.046 35.0671C98.2057 35.0671 97.9104 34.5674 97.9104 33.7952V31.4445H97.0928V31.1152H97.9331V29.9796L98.3192 29.9229Z" fill="#E7EBFF"/>
<path d="M107.404 35.0671H106.973L106.337 33.341L105.86 31.7966L105.36 33.341L104.724 35.0557H104.293L102.885 31.1152H103.339L104.475 34.6129L105.678 31.1152H105.962L107.098 34.6129L108.233 31.1152H108.665L107.404 35.0671Z" fill="#E7EBFF"/>
<path d="M116.103 31.1152V35.0671H115.706V34.2267C115.54 34.5064 115.304 34.7375 115.021 34.897C114.738 35.0565 114.418 35.1386 114.093 35.1352C113.554 35.1352 113.037 34.9211 112.656 34.5399C112.275 34.1586 112.061 33.6416 112.061 33.1025C112.061 32.5634 112.275 32.0464 112.656 31.6652C113.037 31.284 113.554 31.0698 114.093 31.0698C114.419 31.0591 114.742 31.1382 115.027 31.2984C115.311 31.4586 115.546 31.6938 115.706 31.9783V31.1152H116.103ZM112.481 33.0912C112.471 33.3075 112.506 33.5235 112.584 33.7259C112.661 33.9282 112.778 34.1127 112.929 34.2679C113.08 34.4232 113.262 34.5459 113.462 34.6287C113.662 34.7114 113.877 34.7524 114.093 34.7491C114.531 34.7491 114.952 34.575 115.262 34.2652C115.571 33.9553 115.746 33.535 115.746 33.0968C115.746 32.6586 115.571 32.2384 115.262 31.9285C114.952 31.6186 114.531 31.4445 114.093 31.4445C113.877 31.4397 113.663 31.4792 113.462 31.5607C113.262 31.6422 113.081 31.7638 112.93 31.9182C112.779 32.0726 112.661 32.2563 112.584 32.4581C112.506 32.6598 112.471 32.8753 112.481 33.0912Z" fill="#E7EBFF"/>
<path d="M120.487 31.1152V31.7966C120.612 31.5603 120.803 31.365 121.037 31.2342C121.271 31.1033 121.537 31.0423 121.804 31.0584C122.1 31.0487 122.393 31.1278 122.644 31.2856L122.474 31.6035C122.271 31.4831 122.04 31.4203 121.804 31.4218C121.457 31.4248 121.124 31.5649 120.88 31.8117C120.635 32.0584 120.498 32.3917 120.498 32.7391V35.0103H120.101V31.1152H120.487Z" fill="#E7EBFF"/>
<path d="M125.608 33.0911C125.602 32.8239 125.65 32.5581 125.748 32.3096C125.847 32.0611 125.994 31.8349 126.181 31.6443C126.369 31.4537 126.593 31.3027 126.839 31.2001C127.086 31.0975 127.351 31.0454 127.618 31.047C127.91 31.023 128.202 31.0683 128.473 31.1792C128.743 31.29 128.983 31.4633 129.174 31.6849C129.364 31.9064 129.5 32.1699 129.569 32.4538C129.638 32.7377 129.639 33.0339 129.572 33.3182H126.051C126.072 33.7249 126.251 34.1072 126.55 34.3832C126.85 34.6592 127.245 34.8069 127.652 34.7945C127.92 34.8022 128.186 34.7525 128.433 34.6487C128.68 34.5449 128.902 34.3893 129.083 34.1926L129.356 34.4197C129.146 34.6647 128.884 34.86 128.59 34.9915C128.295 35.1231 127.975 35.1877 127.652 35.1806C127.376 35.196 127.1 35.1521 126.842 35.0519C126.584 34.9517 126.35 34.7975 126.156 34.5997C125.963 34.4018 125.814 34.1648 125.719 33.9046C125.625 33.6444 125.587 33.3671 125.608 33.0911ZM129.22 32.9321C129.231 32.7225 129.196 32.513 129.118 32.318C129.041 32.123 128.921 31.9472 128.769 31.8026C128.617 31.658 128.436 31.5481 128.237 31.4804C128.038 31.4127 127.827 31.3888 127.618 31.4104C127.211 31.4102 126.819 31.5691 126.526 31.8532C126.233 32.1374 126.063 32.5244 126.051 32.9321H129.22Z" fill="#E7EBFF"/>
<path d="M38.7244 23.5749H29.0605V10.6519H38.7244V13.0139H31.4794V15.9891H38.4746V18.2603H31.4794V21.1788H38.7244V23.5749Z" fill="#E7EBFF"/>
<path d="M49.8309 21.1334H43.0174L41.8818 23.5749H39.2812L45.0728 10.6519H47.7301L53.5329 23.5749H50.8757L49.8309 21.1334ZM46.4241 13.3659L44.028 18.8622H48.8089L46.4241 13.3659Z" fill="#E7EBFF"/>
<path d="M66.0806 23.5748H63.1848L59.4146 19.305H57.0753V23.6202H54.6338V10.6404H60.7773C61.3699 10.5901 61.9664 10.6634 62.5291 10.8557C63.0918 11.0481 63.6085 11.3552 64.0462 11.7578C64.4839 12.1603 64.8333 12.6494 65.0721 13.194C65.3108 13.7386 65.4338 14.3269 65.4333 14.9216C65.5008 15.8867 65.2014 16.8417 64.595 17.5955C63.9886 18.3493 63.1199 18.8463 62.1628 18.987L66.0806 23.3931V23.5748ZM57.0753 12.923V17.0338H60.7773C61.3255 17.0338 61.8512 16.8161 62.2388 16.4285C62.6264 16.0409 62.8441 15.5152 62.8441 14.967C62.8441 14.4189 62.6264 13.8932 62.2388 13.5056C61.8512 13.118 61.3255 12.9002 60.7773 12.9002L57.0753 12.923Z" fill="#E7EBFF"/>
<path d="M75.5629 10.6406H77.9931V23.575H76.4827L69.6692 14.8537V23.5637H67.2617V10.652H69.2377L75.5629 18.6693V10.6406Z" fill="#E7EBFF"/>
<path d="M95.3447 21.9511C94.6934 22.5765 93.9244 23.0662 93.0822 23.3918C92.24 23.7173 91.3415 23.8723 90.4389 23.8475C85.6354 23.8475 83.6254 20.543 83.6254 17.1816C83.5798 16.2748 83.7248 15.3685 84.0511 14.5212C84.3774 13.6739 84.8777 12.9044 85.5197 12.2624C86.1617 11.6204 86.9312 11.1201 87.7785 10.7938C88.6258 10.4675 89.5321 10.3225 90.4389 10.3681C91.3189 10.3668 92.1903 10.5397 93.0031 10.8769C93.8158 11.2141 94.5538 11.7088 95.1744 12.3326L93.5505 13.9452C92.7168 13.1401 91.5977 12.699 90.4389 12.7187C89.8381 12.6864 89.2372 12.7825 88.6763 13.0007C88.1155 13.2188 87.6076 13.5539 87.1864 13.9837C86.7652 14.4134 86.4404 14.928 86.2337 15.4932C86.0269 16.0583 85.943 16.661 85.9874 17.2611C85.9598 17.8468 86.0572 18.4317 86.2731 18.9769C86.4889 19.5222 86.8183 20.0152 87.2393 20.4233C87.6603 20.8315 88.1634 21.1454 88.7151 21.3442C89.2667 21.543 89.8543 21.6221 90.4389 21.5764C91.6484 21.5707 92.81 21.1036 93.6867 20.2704L95.3447 21.9511Z" fill="#E7EBFF"/>
<path d="M109.404 17.1928C109.404 20.5314 107.326 23.8701 102.783 23.8701C101.896 23.9197 101.008 23.781 100.178 23.4633C99.348 23.1455 98.5946 22.6558 97.9673 22.0263C97.3399 21.3968 96.8528 20.6417 96.5379 19.8107C96.2229 18.9796 96.0873 18.0913 96.14 17.2041C96.14 15.4452 96.8387 13.7584 98.0824 12.5147C99.3261 11.271 101.013 10.5723 102.772 10.5723C104.531 10.5723 106.218 11.271 107.461 12.5147C108.705 13.7584 109.404 15.4452 109.404 17.2041V17.1928ZM98.5361 17.1928C98.5361 19.3163 99.7398 21.5875 102.783 21.5875C105.827 21.5875 106.974 19.3163 107.008 17.1814C107.042 15.0465 105.872 12.5709 102.783 12.5709C102.186 12.5608 101.594 12.678 101.046 12.9148C100.497 13.1516 100.006 13.5025 99.6042 13.9441C99.2023 14.3858 98.8992 14.908 98.715 15.476C98.5308 16.044 98.4698 16.6448 98.5361 17.2382V17.1928Z" fill="#E7EBFF"/>
<path d="M102.792 14.1153C102.389 14.1038 101.987 14.175 101.613 14.3246C101.239 14.4742 100.901 14.6988 100.619 14.9842C100.338 15.2696 100.119 15.6096 99.9776 15.9827C99.836 16.3558 99.7745 16.7539 99.7968 17.1517C99.7735 17.5461 99.8351 17.9408 99.9774 18.31C100.12 18.6792 100.34 19.0145 100.622 19.2939C100.905 19.5732 101.245 19.7903 101.619 19.9307C101.993 20.0712 102.393 20.132 102.792 20.109C103.191 20.1268 103.59 20.0621 103.962 19.919C104.334 19.776 104.672 19.5577 104.954 19.2783C105.236 18.9988 105.456 18.6643 105.599 18.2962C105.743 17.928 105.807 17.5344 105.787 17.1404C105.81 16.7431 105.748 16.3455 105.607 15.973C105.465 15.6005 105.246 15.2611 104.965 14.9766C104.683 14.692 104.344 14.4685 103.97 14.3202C103.596 14.172 103.195 14.1022 102.792 14.1153Z" fill="#FFAF22"/>
<path d="M119.533 13.7747C119.173 13.3077 118.708 12.9331 118.174 12.6823C117.641 12.4314 117.056 12.3115 116.467 12.3325C114.661 12.3325 113.798 13.0934 113.798 14.0473C113.798 15.1829 115.127 15.4895 116.671 15.6712C119.374 16.0119 121.883 16.7046 121.883 19.7934C121.883 22.6664 119.328 23.9042 116.455 23.9042C113.809 23.9042 111.788 23.098 110.777 20.7359L112.81 19.6798C113.138 20.3482 113.661 20.9013 114.31 21.2663C114.958 21.6312 115.703 21.7908 116.444 21.7239C117.977 21.7239 119.419 21.1902 119.419 19.7934C119.419 18.567 118.147 18.0786 116.421 17.8856C113.787 17.579 111.356 16.8749 111.356 13.9792C111.356 11.3219 113.968 10.2317 116.353 10.209C118.363 10.209 120.453 10.7881 121.429 12.7754L119.533 13.7747Z" fill="#E7EBFF"/>
<path d="M128.63 15.9891L132.036 10.6519H135V10.7654L129.856 18.2376V23.5749H127.415V18.2376L122.509 10.7654V10.6519H125.405L128.63 15.9891Z" fill="#E7EBFF"/>
<path d="M27.38 21.3263V23.5975H18.2953V11.7533C18.3644 9.39478 17.5132 7.10192 15.9219 5.35986C17.0409 5.82718 18.0347 6.55038 18.8236 7.47139C19.6125 8.3924 20.1744 9.48556 20.4642 10.6631C20.6343 11.3696 20.7182 12.0941 20.7141 12.8207V21.3377L27.38 21.3263Z" fill="#E7EBFF"/>
<path d="M5.41645 19.3052V8.34668C4.28085 8.34668 3.56543 8.42617 3.56543 8.42617V21.2924C3.56543 21.2924 9.9134 20.577 14.6148 23.5636C12.0518 21.2436 8.84364 19.7584 5.41645 19.3052Z" fill="#FDA407"/>
<path d="M10.2204 17.772V6.81357C8.9763 6.30202 7.68231 5.92144 6.35938 5.67798V18.5215C6.35938 18.5215 12.3894 19.4981 15.1943 23.257C14.3653 20.7927 10.2204 17.772 10.2204 17.772Z" fill="#294CFF"/>
<path d="M11.1855 4.29248V17.1701C11.1855 17.1701 14.8308 19.782 16.0005 23.2455V11.7533C16.0501 10.168 15.616 8.60508 14.756 7.27238C13.8959 5.93969 12.6506 4.90033 11.1855 4.29248Z" fill="#9747FF"/>
<path d="M4.31543 5.32603V4.58789H3.57729V5.32603H4.31543Z" fill="#FDA407"/>
<path d="M6.56348 4.22429V3.65649H5.99568V4.22429H6.56348Z" fill="#FDA407"/>
<path d="M2.49805 3.07753V2.62329H2.04381V3.07753H2.49805Z" fill="#FDA407"/>
<path d="M4.48535 1.62392V1.16968H4.03111V1.62392H4.48535Z" fill="#FDA407"/>
<path d="M5.57617 5.82566V5.09888H4.84939V5.82566H5.57617Z" fill="#FDA407"/>
<path d="M1.71484 4.42893V3.70215H0.988064V4.42893H1.71484Z" fill="#FDA407"/>
<path d="M0.897119 5.71191H0V6.60903H0.897119V5.71191Z" fill="#FDA407"/>
<path d="M2.77051 6.27992V5.00806H1.49864V6.27992H2.77051Z" fill="#FDA407"/>
<path d="M5.29199 3.91792V2.86182H4.21318V3.91792H5.29199Z" fill="#FDA407"/>
<path d="M3.69043 4.36074V3.46362H2.7706V4.36074H3.69043Z" fill="#FDA407"/>
<path d="M4.84865 5.82568H3.56543V7.1089H4.84865V5.82568Z" fill="#FDA407"/>
</svg>
