<svg width="64" height="64" viewBox="0 0 64 64" fill="none" xmlns="http://www.w3.org/2000/svg">
<rect width="64" height="64" rx="32" fill="#3366FF"/>
<path d="M43.0603 30.2003C42.5686 30.6947 42.1922 31.2913 41.9576 31.9476C41.7231 32.604 41.6363 33.304 41.7034 33.9977L41.68 33.9744C41.749 34.791 41.6388 35.6127 41.3571 36.3825C41.0755 37.1521 40.6292 37.851 40.0495 38.4305C39.4696 39.0099 38.7702 39.456 38 39.7374C37.23 40.0188 36.4076 40.129 35.5906 40.0601L35.614 40.0834C34.6366 39.9925 33.655 40.205 32.8028 40.6921C31.9507 41.1792 31.2697 41.917 30.8526 42.8051C30.4355 43.6932 30.3026 44.6881 30.472 45.6545C30.6415 46.6208 31.1051 47.5113 31.7995 48.2047C32.4939 48.8981 33.3854 49.3605 34.3524 49.5289C35.3195 49.6975 36.3149 49.5637 37.2031 49.1461C38.0914 48.7284 38.829 48.0472 39.3156 47.1951C39.8022 46.3431 40.0141 45.3619 39.9222 44.3851L39.9469 44.4085C39.8778 43.5919 39.988 42.7701 40.2696 42.0004C40.5513 41.2308 40.9977 40.5319 41.5774 39.9523C42.1573 39.3729 42.8566 38.9268 43.6267 38.6455C44.3969 38.364 45.2191 38.2538 46.0362 38.3228L46.0116 38.2994C46.8099 38.3711 47.6136 38.2403 48.348 37.9191C49.0822 37.5978 49.7236 37.0964 50.2124 36.4615C50.7012 35.8267 51.0219 35.0786 51.1444 34.287C51.267 33.4952 51.1876 32.6854 50.9136 31.9324C50.6396 31.1795 50.1799 30.508 49.577 29.9799C48.9742 29.4519 48.2477 29.0844 47.4649 28.9117C46.6822 28.739 45.8684 28.7665 45.0991 28.9917C44.3298 29.2171 43.6299 29.6327 43.0642 30.2003H43.0603Z" fill="#F9F9F9"/>
<path d="M31.5982 36.7423L31.5736 36.7191C32.2664 36.7888 32.966 36.7038 33.622 36.47C34.2779 36.2363 34.8737 35.8598 35.3662 35.3675C35.8587 34.8753 36.2358 34.2797 36.4699 33.6239C36.7041 32.968 36.7897 32.2685 36.7204 31.5755L36.745 31.5988C36.6762 30.7835 36.7862 29.9632 37.067 29.1948C37.348 28.4265 37.7933 27.7287 38.3716 27.1501C38.9501 26.5717 39.6478 26.1263 40.416 25.8455C41.1843 25.5644 42.0045 25.4545 42.8197 25.5233L42.7951 25.5C43.7703 25.5917 44.7498 25.3801 45.6003 24.8944C46.451 24.4087 47.1309 23.6724 47.5476 22.786C47.9643 21.8996 48.0975 20.9062 47.929 19.9413C47.7605 18.9764 47.2985 18.0869 46.6059 17.3943C45.9134 16.7017 45.024 16.2396 44.0593 16.071C43.0945 15.9025 42.1012 16.0357 41.2149 16.4524C40.3285 16.8692 39.5924 17.5493 39.1067 18.3999C38.621 19.2506 38.4095 20.2303 38.5012 21.2055L38.4779 21.1809C38.5469 21.9962 38.4371 22.8167 38.1563 23.5852C37.8755 24.3536 37.4301 25.0515 36.8518 25.6301C36.2733 26.2085 35.5755 26.6539 34.8072 26.9348C34.0387 27.2156 33.2183 27.3254 32.4032 27.2564L32.4265 27.281C31.7337 27.2112 31.0339 27.2963 30.3781 27.53C29.7222 27.7636 29.1264 28.1403 28.6338 28.6325C28.1413 29.1247 27.7643 29.7204 27.5301 30.3762C27.2959 31.032 27.2104 31.7316 27.2796 32.4246L27.2563 32.4013C27.3249 33.2164 27.2148 34.0367 26.9338 34.805C26.6528 35.5732 26.2076 36.271 25.6292 36.8494C25.0508 37.4278 24.3532 37.8731 23.5851 38.1542C22.8169 38.4352 21.9967 38.5453 21.1816 38.4767L21.2049 38.5C20.2298 38.4084 19.2502 38.6199 18.3997 39.1056C17.5491 39.5914 16.8691 40.3276 16.4524 41.214C16.0357 42.1005 15.9025 43.0939 16.071 44.0588C16.2395 45.0237 16.7016 45.9131 17.3941 46.6057C18.0867 47.2984 18.976 47.7605 19.9408 47.929C20.9056 48.0975 21.8989 47.9643 22.7852 47.5476C23.6715 47.1308 24.4077 46.4508 24.8934 45.6002C25.3791 44.7494 25.5905 43.7698 25.4989 42.7945L25.5235 42.8178C25.4546 42.0025 25.5646 41.1822 25.8456 40.4138C26.1264 39.6455 26.5717 38.9477 27.1501 38.3692C27.7286 37.7907 28.4262 37.3454 29.1945 37.0645C29.9628 36.7835 30.783 36.6735 31.5982 36.7423Z" fill="#F9F9F9"/>
<path d="M22.5356 33.7991C23.0273 33.3048 23.4038 32.7081 23.6382 32.0516C23.8726 31.3951 23.9591 30.6949 23.8914 30.0012L23.9161 30.0245C23.8471 29.2077 23.9573 28.3854 24.2391 27.6155C24.5209 26.8455 24.9676 26.1464 25.5478 25.5668C26.1281 24.9872 26.8278 24.5412 27.5984 24.2599C28.369 23.9785 29.1917 23.8687 30.0091 23.9381L29.9845 23.9147C30.9618 24.0062 31.9436 23.7942 32.7959 23.3077C33.6482 22.8211 34.3295 22.0837 34.7472 21.1959C35.1647 20.3082 35.2981 19.3133 35.1292 18.347C34.9603 17.3807 34.497 16.49 33.803 15.7964C33.109 15.1027 32.2176 14.6399 31.2507 14.4711C30.2838 14.3022 29.2882 14.4355 28.4 14.8528C27.5116 15.2701 26.7737 15.9511 26.2869 16.8028C25.7999 17.6546 25.5878 18.6357 25.6794 19.6124L25.656 19.5891C25.7251 20.4058 25.6148 21.2277 25.3331 21.9974C25.0514 22.7672 24.6051 23.4662 24.0252 24.0458C23.4452 24.6253 22.7457 25.0714 21.9755 25.3528C21.2053 25.6343 20.3828 25.7446 19.5656 25.6756L19.5889 25.6989C18.7904 25.6273 17.9867 25.7584 17.2524 26.0799C16.518 26.4013 15.8767 26.9029 15.388 27.538C14.8992 28.1729 14.5787 28.9211 14.4563 29.7128C14.3338 30.5047 14.4134 31.3146 14.6875 32.0674C14.9616 32.8204 15.4215 33.4919 16.0245 34.0199C16.6274 34.5481 17.354 34.9154 18.1369 35.0881C18.9198 35.2607 19.7336 35.2331 20.503 35.0078C21.2724 34.7825 21.9724 34.3668 22.5381 33.7991H22.5356Z" fill="#F9F9F9"/>
</svg>
