<svg width="64" height="64" viewBox="0 0 64 64" fill="none" xmlns="http://www.w3.org/2000/svg">
<path d="M17.5767 26.3636V38H16.1676V27.8409H16.0994L13.2585 29.7273V28.2955L16.1676 26.3636H17.5767ZM24.7188 38.1591C23.8627 38.1591 23.1335 37.9261 22.5312 37.4602C21.929 36.9905 21.4688 36.3106 21.1506 35.4205C20.8324 34.5265 20.6733 33.447 20.6733 32.1818C20.6733 30.9242 20.8324 29.8504 21.1506 28.9602C21.4725 28.0663 21.9347 27.3845 22.5369 26.9148C23.143 26.4413 23.8703 26.2045 24.7188 26.2045C25.5672 26.2045 26.2926 26.4413 26.8949 26.9148C27.5009 27.3845 27.9631 28.0663 28.2812 28.9602C28.6032 29.8504 28.7642 30.9242 28.7642 32.1818C28.7642 33.447 28.6051 34.5265 28.2869 35.4205C27.9688 36.3106 27.5085 36.9905 26.9062 37.4602C26.304 37.9261 25.5748 38.1591 24.7188 38.1591ZM24.7188 36.9091C25.5672 36.9091 26.2263 36.5 26.696 35.6818C27.1657 34.8636 27.4006 33.697 27.4006 32.1818C27.4006 31.1742 27.2926 30.3163 27.0767 29.608C26.8646 28.8996 26.5578 28.3598 26.1562 27.9886C25.7585 27.6174 25.2794 27.4318 24.7188 27.4318C23.8778 27.4318 23.2206 27.8466 22.7472 28.6761C22.2737 29.5019 22.0369 30.6705 22.0369 32.1818C22.0369 33.1894 22.143 34.0455 22.3551 34.75C22.5672 35.4545 22.8722 35.9905 23.2699 36.358C23.6714 36.7254 24.1544 36.9091 24.7188 36.9091ZM34.7188 38.1591C33.8627 38.1591 33.1335 37.9261 32.5312 37.4602C31.929 36.9905 31.4688 36.3106 31.1506 35.4205C30.8324 34.5265 30.6733 33.447 30.6733 32.1818C30.6733 30.9242 30.8324 29.8504 31.1506 28.9602C31.4725 28.0663 31.9347 27.3845 32.5369 26.9148C33.143 26.4413 33.8703 26.2045 34.7188 26.2045C35.5672 26.2045 36.2926 26.4413 36.8949 26.9148C37.5009 27.3845 37.9631 28.0663 38.2812 28.9602C38.6032 29.8504 38.7642 30.9242 38.7642 32.1818C38.7642 33.447 38.6051 34.5265 38.2869 35.4205C37.9688 36.3106 37.5085 36.9905 36.9062 37.4602C36.304 37.9261 35.5748 38.1591 34.7188 38.1591ZM34.7188 36.9091C35.5672 36.9091 36.2263 36.5 36.696 35.6818C37.1657 34.8636 37.4006 33.697 37.4006 32.1818C37.4006 31.1742 37.2926 30.3163 37.0767 29.608C36.8646 28.8996 36.5578 28.3598 36.1562 27.9886C35.7585 27.6174 35.2794 27.4318 34.7188 27.4318C33.8778 27.4318 33.2206 27.8466 32.7472 28.6761C32.2737 29.5019 32.0369 30.6705 32.0369 32.1818C32.0369 33.1894 32.143 34.0455 32.3551 34.75C32.5672 35.4545 32.8722 35.9905 33.2699 36.358C33.6714 36.7254 34.1544 36.9091 34.7188 36.9091ZM46.8551 35.8182V35.2045C46.8551 34.7803 46.9422 34.392 47.1165 34.0398C47.2945 33.6837 47.5521 33.3996 47.8892 33.1875C48.2301 32.9716 48.643 32.8636 49.1278 32.8636C49.6203 32.8636 50.0331 32.9716 50.3665 33.1875C50.6998 33.3996 50.9517 33.6837 51.1222 34.0398C51.2926 34.392 51.3778 34.7803 51.3778 35.2045V35.8182C51.3778 36.2424 51.2907 36.6326 51.1165 36.9886C50.946 37.3409 50.6922 37.625 50.3551 37.8409C50.0218 38.053 49.6127 38.1591 49.1278 38.1591C48.6354 38.1591 48.2206 38.053 47.8835 37.8409C47.5464 37.625 47.2907 37.3409 47.1165 36.9886C46.9422 36.6326 46.8551 36.2424 46.8551 35.8182ZM48.0142 35.2045V35.8182C48.0142 36.1705 48.0975 36.4867 48.2642 36.767C48.4309 37.0436 48.7188 37.1818 49.1278 37.1818C49.5256 37.1818 49.8059 37.0436 49.9688 36.767C50.1354 36.4867 50.2188 36.1705 50.2188 35.8182V35.2045C50.2188 34.8523 50.1392 34.5379 49.9801 34.2614C49.821 33.9811 49.5369 33.8409 49.1278 33.8409C48.7301 33.8409 48.4441 33.9811 48.2699 34.2614C48.0994 34.5379 48.0142 34.8523 48.0142 35.2045ZM41.0597 29.1591V28.5455C41.0597 28.1212 41.1468 27.733 41.321 27.3807C41.4991 27.0246 41.7566 26.7405 42.0938 26.5284C42.4347 26.3125 42.8475 26.2045 43.3324 26.2045C43.8248 26.2045 44.2377 26.3125 44.571 26.5284C44.9044 26.7405 45.1563 27.0246 45.3267 27.3807C45.4972 27.733 45.5824 28.1212 45.5824 28.5455V29.1591C45.5824 29.5833 45.4953 29.9735 45.321 30.3295C45.1506 30.6818 44.8968 30.9659 44.5597 31.1818C44.2263 31.3939 43.8172 31.5 43.3324 31.5C42.84 31.5 42.4252 31.3939 42.0881 31.1818C41.7509 30.9659 41.4953 30.6818 41.321 30.3295C41.1468 29.9735 41.0597 29.5833 41.0597 29.1591ZM42.2188 28.5455V29.1591C42.2188 29.5114 42.3021 29.8277 42.4688 30.108C42.6354 30.3845 42.9233 30.5227 43.3324 30.5227C43.7301 30.5227 44.0104 30.3845 44.1733 30.108C44.34 29.8277 44.4233 29.5114 44.4233 29.1591V28.5455C44.4233 28.1932 44.3438 27.8788 44.1847 27.6023C44.0256 27.322 43.7415 27.1818 43.3324 27.1818C42.9347 27.1818 42.6487 27.322 42.4744 27.6023C42.304 27.8788 42.2188 28.1932 42.2188 28.5455ZM41.4915 38L49.4915 26.3636H50.7869L42.7869 38H41.4915Z" fill="#252525"/>
<path d="M64 32C64 49.6731 49.6731 64 32 64C14.3269 64 0 49.6731 0 32C0 14.3269 14.3269 0 32 0C49.6731 0 64 14.3269 64 32ZM3.2 32C3.2 47.9058 16.0942 60.8 32 60.8C47.9058 60.8 60.8 47.9058 60.8 32C60.8 16.0942 47.9058 3.2 32 3.2C16.0942 3.2 3.2 16.0942 3.2 32Z" fill="#32BCA3"/>
<path d="M32 1.6C32 0.716347 32.7168 -0.00417289 33.5994 0.0399899C38.0976 0.265084 42.5041 1.43764 46.5277 3.48779C51.0272 5.78042 54.9203 9.10539 57.8885 13.1909C60.8568 17.2764 62.816 22.0063 63.606 26.9941C64.3125 31.4543 64.066 36.0075 62.89 40.3551C62.6593 41.2081 61.7525 41.6672 60.9121 41.3941C60.0717 41.1211 59.6164 40.2193 59.8424 39.365C60.8651 35.4989 61.0728 31.4561 60.4454 27.4947C59.7344 23.0057 57.9711 18.7487 55.2997 15.0718C52.6282 11.3949 49.1245 8.40237 45.0749 6.33901C41.5013 4.51816 37.5921 3.46648 33.5992 3.24443C32.7169 3.19537 32 2.48365 32 1.6Z" fill="#32BCA3"/>
</svg>
