<svg width="26" height="26" viewBox="0 0 26 26" fill="none" xmlns="http://www.w3.org/2000/svg">
<g id="google">
<path id="vector" d="M24.3762 13.2523C24.3762 12.317 24.2988 11.6345 24.1312 10.9268H13.2334V15.1481H19.6302C19.5012 16.1972 18.8048 17.777 17.2572 18.8386L17.2355 18.98L20.6812 21.5959L20.9199 21.6193C23.1123 19.6349 24.3762 16.7153 24.3762 13.2523Z" fill="#FF9D25"/>
<path id="vector_2" d="M13.2328 24.3754C16.3667 24.3754 18.9976 23.3642 20.9193 21.6201L17.2566 18.8394C16.2764 19.5093 14.9609 19.9769 13.2328 19.9769C10.1634 19.9769 7.55826 17.9927 6.62961 15.25L6.49349 15.2613L2.91062 17.9787L2.86377 18.1064C4.77247 21.8222 8.6931 24.3754 13.2328 24.3754Z" fill="#34A853"/>
<path id="vector_3" d="M6.62989 15.2501C6.38485 14.5423 6.24304 13.7839 6.24304 13.0004C6.24304 12.2167 6.38485 11.4584 6.617 10.7506L6.61051 10.5999L2.98273 7.83887L2.86404 7.8942C2.07737 9.43616 1.62598 11.1677 1.62598 13.0004C1.62598 14.833 2.07737 16.5645 2.86404 18.1064L6.62989 15.2501Z" fill="#FBBC05"/>
<path id="vector_4" d="M13.2329 6.0233C15.4124 6.0233 16.8826 6.94594 17.7209 7.71696L20.9967 4.5825C18.9849 2.74987 16.3668 1.625 13.2329 1.625C8.69313 1.625 4.77248 4.17804 2.86377 7.89384L6.61674 10.7503C7.55829 8.00763 10.1634 6.0233 13.2329 6.0233Z" fill="#EB4335"/>
</g>
</svg>
