<svg width="136" height="40" viewBox="0 0 136 40" fill="none" xmlns="http://www.w3.org/2000/svg">
<path d="M4.96265 32.0578H8.24451V32.4439H4.96265V34.6469H8.5057V35.0671H4.54248V29.5254H8.4035V29.9342H4.99672L4.96265 32.0578Z" fill="#191919"/>
<path d="M12.2417 32.5801H15.0466V32.9321H12.2417V32.5801Z" fill="#191919"/>
<path d="M19.4414 29.5254V35.1239H19.0439V29.5254H19.4414Z" fill="#191919"/>
<path d="M23.2455 33.0913C23.2394 32.8241 23.287 32.5584 23.3854 32.3099C23.4838 32.0614 23.6311 31.8351 23.8185 31.6445C24.0059 31.454 24.2297 31.3029 24.4765 31.2003C24.7233 31.0977 24.9882 31.0457 25.2555 31.0473C25.5467 31.0233 25.8394 31.0686 26.1098 31.1794C26.3801 31.2903 26.6204 31.4636 26.8109 31.6851C27.0014 31.9066 27.1368 32.1701 27.2059 32.454C27.2751 32.7379 27.276 33.0341 27.2087 33.3185H23.6429C23.6664 33.7261 23.8481 34.1085 24.1493 34.3842C24.4504 34.66 24.8473 34.8072 25.2555 34.7947C25.5216 34.8038 25.7866 34.7547 26.0318 34.6507C26.277 34.5468 26.4965 34.3905 26.675 34.1929L26.9589 34.42C26.7489 34.6649 26.4872 34.8602 26.1927 34.9918C25.8981 35.1234 25.578 35.1879 25.2555 35.1808C24.9819 35.1912 24.7092 35.1437 24.4553 35.0413C24.2013 34.9389 23.972 34.7839 23.7821 34.5866C23.5923 34.3893 23.4464 34.1541 23.3539 33.8964C23.2614 33.6387 23.2245 33.3643 23.2455 33.0913ZM26.8567 32.9324C26.8676 32.7227 26.833 32.5132 26.7553 32.3183C26.6776 32.1233 26.5586 31.9474 26.4064 31.8029C26.2543 31.6583 26.0726 31.5483 25.8739 31.4806C25.6752 31.4129 25.4643 31.3891 25.2555 31.4107C24.8415 31.4044 24.4413 31.5598 24.1402 31.844C23.839 32.1282 23.6606 32.5187 23.6429 32.9324H26.8567Z" fill="#191919"/>
<path d="M34.6809 31.1155V35.0674H34.2834V34.227C34.1172 34.5059 33.8809 34.7364 33.598 34.8958C33.3152 35.0551 32.9955 35.1378 32.6709 35.1355C32.1318 35.1355 31.6148 34.9213 31.2336 34.5401C30.8523 34.1589 30.6382 33.6419 30.6382 33.1028C30.6382 32.5637 30.8523 32.0467 31.2336 31.6655C31.6148 31.2842 32.1318 31.0701 32.6709 31.0701C32.9969 31.0607 33.3192 31.1403 33.6033 31.3003C33.8875 31.4604 34.1226 31.6949 34.2834 31.9786V31.1155H34.6809ZM31.0584 33.0914C31.049 33.3078 31.084 33.5238 31.1612 33.7261C31.2384 33.9285 31.356 34.113 31.507 34.2682C31.658 34.4235 31.8391 34.5462 32.0393 34.629C32.2394 34.7117 32.4544 34.7527 32.6709 34.7494C33.0855 34.715 33.4719 34.526 33.7537 34.22C34.0354 33.9139 34.1918 33.5131 34.1918 33.0971C34.1918 32.6811 34.0354 32.2803 33.7537 31.9743C33.4719 31.6682 33.0855 31.4792 32.6709 31.4448C32.4549 31.44 32.2402 31.4795 32.0401 31.561C31.84 31.6424 31.6588 31.7641 31.5076 31.9185C31.3564 32.0728 31.2385 32.2566 31.1613 32.4584C31.084 32.6601 31.049 32.8756 31.0584 33.0914Z" fill="#191919"/>
<path d="M39.0643 31.115V31.7963C39.1901 31.56 39.3811 31.3648 39.6146 31.2339C39.8482 31.1031 40.1144 31.0421 40.3816 31.0582C40.6781 31.0484 40.9707 31.1275 41.2219 31.2853L41.0516 31.6033C40.849 31.4829 40.6173 31.42 40.3816 31.4216C40.0342 31.4246 39.7021 31.5647 39.4575 31.8114C39.2129 32.0581 39.0757 32.3915 39.0757 32.7389V35.0101H38.6782V31.115H39.0643Z" fill="#191919"/>
<path d="M45.0149 31.1152V31.7966C45.1572 31.5519 45.3635 31.3508 45.6116 31.2147C45.8597 31.0786 46.1403 31.0128 46.423 31.0243C46.6588 31.0046 46.896 31.0355 47.1189 31.1151C47.3417 31.1946 47.5449 31.3209 47.7148 31.4855C47.8848 31.65 48.0176 31.8491 48.1042 32.0692C48.1909 32.2894 48.2294 32.5255 48.2173 32.7618V35.033H47.8198V32.7618C47.8364 32.5747 47.811 32.3863 47.7454 32.2103C47.6799 32.0343 47.5758 31.8751 47.4408 31.7445C47.3058 31.6139 47.1434 31.5151 46.9653 31.4553C46.7873 31.3956 46.5981 31.3764 46.4117 31.3991C46.2249 31.3957 46.0395 31.4308 45.8669 31.5021C45.6943 31.5735 45.5382 31.6795 45.4082 31.8137C45.2783 31.9478 45.1774 32.1073 45.1117 32.2821C45.0459 32.4569 45.0169 32.6434 45.0262 32.8299V35.033H44.6401V31.1152H45.0149Z" fill="#191919"/>
<path d="M52.7028 29.8316C52.7028 29.916 52.6693 29.9968 52.6097 30.0565C52.5501 30.1161 52.4692 30.1496 52.3849 30.1496C52.3005 30.1496 52.2197 30.1161 52.16 30.0565C52.1004 29.9968 52.0669 29.916 52.0669 29.8316C52.0669 29.7473 52.1004 29.6664 52.16 29.6068C52.2197 29.5472 52.3005 29.5137 52.3849 29.5137C52.4692 29.5137 52.5501 29.5472 52.6097 29.6068C52.6693 29.6664 52.7028 29.7473 52.7028 29.8316ZM52.2372 31.1035V35.0667H52.6233V31.1035H52.2372Z" fill="#191919"/>
<path d="M56.9728 31.1156V31.7969C57.1131 31.5506 57.319 31.348 57.5676 31.2117C57.8162 31.0754 58.0977 31.0107 58.3809 31.0247C58.62 31.0009 58.8614 31.0296 59.0882 31.109C59.315 31.1884 59.5217 31.3164 59.6938 31.4841C59.8659 31.6519 59.9991 31.8552 60.0842 32.0799C60.1694 32.3047 60.2043 32.5453 60.1865 32.7849V35.0561H59.789V32.7849C59.8056 32.5978 59.7802 32.4094 59.7147 32.2334C59.6491 32.0574 59.545 31.8982 59.4101 31.7676C59.2751 31.637 59.1126 31.5382 58.9346 31.4784C58.7565 31.4187 58.5673 31.3995 58.3809 31.4222C58.1942 31.4188 58.0087 31.4539 57.8361 31.5252C57.6635 31.5966 57.5074 31.7026 57.3775 31.8368C57.2476 31.9709 57.1466 32.1304 57.0809 32.3052C57.0152 32.48 56.9861 32.6665 56.9955 32.853V35.0561H56.6094V31.1156H56.9728Z" fill="#191919"/>
<path d="M67.5335 30.9111L67.7947 31.1383L67.3859 31.6152C67.5654 31.7928 67.7064 32.0054 67.8002 32.2398C67.894 32.4743 67.9385 32.7255 67.9309 32.9779C67.9447 33.3639 67.8277 33.7433 67.5989 34.0545C67.3701 34.3657 67.043 34.5906 66.6704 34.6927C67.0011 34.7204 67.31 34.8688 67.5383 35.1097C67.7666 35.3505 67.8982 35.6669 67.9082 35.9986C67.9082 36.9411 66.9997 37.4749 65.8642 37.4749C64.7286 37.4749 63.9109 36.9071 63.9109 35.9077H64.3084C64.3084 36.714 65.0692 37.1001 65.8642 37.1001C66.6591 37.1001 67.4767 36.7935 67.4767 36.0327C67.4767 35.2718 66.6023 34.8971 65.8642 34.8971C65.6 34.9171 65.3346 34.8802 65.086 34.7889C64.8373 34.6976 64.6111 34.554 64.4227 34.3677C64.2344 34.1815 64.0881 33.957 63.994 33.7094C63.8998 33.4618 63.8599 33.1968 63.8769 32.9325C63.8947 32.4204 64.113 31.9358 64.4847 31.5832C64.8564 31.2306 65.3519 31.0382 65.8642 31.0474C66.2944 31.0473 66.7157 31.1694 67.0792 31.3994L67.5335 30.9111ZM64.263 32.9325C64.2441 33.148 64.2725 33.3651 64.3461 33.5685C64.4198 33.7719 64.5369 33.9569 64.6893 34.1104C64.8418 34.2639 65.0258 34.3823 65.2288 34.4574C65.4317 34.5325 65.6485 34.5624 65.8642 34.545C66.0837 34.5609 66.3041 34.5307 66.5113 34.4564C66.7185 34.3821 66.9078 34.2652 67.0672 34.1133C67.2265 33.9615 67.3523 33.778 67.4365 33.5746C67.5208 33.3713 67.5615 33.1525 67.5562 32.9325C67.5578 32.7179 67.5136 32.5054 67.4266 32.3092C67.3396 32.1131 67.2118 31.9377 67.0517 31.7948C66.8915 31.6519 66.7028 31.5447 66.4981 31.4805C66.2933 31.4162 66.0772 31.3963 65.8642 31.4222C65.6598 31.4161 65.4563 31.4504 65.2652 31.523C65.0742 31.5957 64.8993 31.7052 64.7506 31.8455C64.6019 31.9858 64.4823 32.154 64.3986 32.3405C64.3149 32.527 64.2688 32.7282 64.263 32.9325Z" fill="#191919"/>
<path d="M80.2298 30.5479C80.0422 30.2807 79.786 30.0691 79.4882 29.9352C79.1905 29.8013 78.8622 29.7501 78.5378 29.787C77.8791 29.787 76.8344 30.0255 76.8344 30.9226C76.8344 31.638 77.6066 31.8084 78.5491 31.9787C79.4917 32.1491 80.7522 32.3762 80.7522 33.5913C80.7522 34.8063 79.4917 35.2038 78.5378 35.2038C78.0851 35.2229 77.6356 35.1203 77.2362 34.9066C76.8367 34.6929 76.5019 34.3759 76.2666 33.9887L76.6527 33.7957C76.8582 34.1154 77.143 34.3765 77.4793 34.5536C77.8156 34.7307 78.192 34.8177 78.5719 34.8063C79.2532 34.8063 80.3547 34.6133 80.3547 33.6708C80.3547 32.7282 79.4349 32.6487 78.5151 32.467C77.5952 32.2853 76.4369 32.0582 76.4369 31.0362C76.4369 29.8438 77.652 29.4804 78.5719 29.4804C78.9675 29.434 79.3683 29.4987 79.7293 29.6672C80.0903 29.8356 80.3973 30.1013 80.6159 30.4343L80.2298 30.5479Z" fill="#191919"/>
<path d="M84.2383 33.1135C84.2383 32.5804 84.45 32.0692 84.827 31.6922C85.2039 31.3153 85.7152 31.1035 86.2483 31.1035C86.7814 31.1035 87.2926 31.3153 87.6696 31.6922C88.0465 32.0692 88.2583 32.5804 88.2583 33.1135C88.2583 33.6466 88.0465 34.1579 87.6696 34.5348C87.2926 34.9117 86.7814 35.1235 86.2483 35.1235C85.7152 35.1235 85.2039 34.9117 84.827 34.5348C84.45 34.1579 84.2383 33.6466 84.2383 33.1135ZM87.8722 33.1135C87.8722 32.6828 87.7011 32.2698 87.3966 31.9652C87.092 31.6607 86.679 31.4896 86.2483 31.4896C85.8176 31.4896 85.4045 31.6607 85.1 31.9652C84.7955 32.2698 84.6244 32.6828 84.6244 33.1135C84.6244 33.5442 84.7955 33.9572 85.1 34.2618C85.4045 34.5663 85.8176 34.7374 86.2483 34.7374C86.679 34.7374 87.092 34.5663 87.3966 34.2618C87.7011 33.9572 87.8722 33.5442 87.8722 33.1135Z" fill="#191919"/>
<path d="M92.3352 35.0666V31.4895H91.5176V31.1488H92.3352V30.74C92.3352 29.9565 92.6418 29.3887 93.4708 29.3887C93.755 29.3903 94.0306 29.4861 94.2544 29.6612L94.0613 29.9451C93.8798 29.823 93.6668 29.756 93.4481 29.7521C92.9598 29.7521 92.6645 30.0473 92.6645 30.74V31.1488H93.9705V31.4895H92.71V35.0666H92.3352Z" fill="#191919"/>
<path d="M98.3197 29.9229V31.0584H99.6597V31.3878H98.3197V33.7952C98.3197 34.329 98.4333 34.7037 99.0465 34.7037C99.2603 34.698 99.47 34.6436 99.6597 34.5447L99.796 34.8627C99.5654 34.988 99.3088 35.058 99.0465 35.0671C98.2061 35.0671 97.9109 34.5674 97.9109 33.7952V31.4445H97.0933V31.1152H97.9336V29.9796L98.3197 29.9229Z" fill="#191919"/>
<path d="M107.404 35.0671H106.973L106.337 33.341L105.86 31.7966L105.36 33.341L104.724 35.0557H104.293L102.885 31.1152H103.339L104.475 34.6129L105.678 31.1152H105.962L107.098 34.6129L108.233 31.1152H108.665L107.404 35.0671Z" fill="#191919"/>
<path d="M116.103 31.1157V35.0676H115.706V34.2272C115.54 34.5069 115.304 34.738 115.021 34.8975C114.738 35.057 114.418 35.1391 114.093 35.1357C113.554 35.1357 113.037 34.9216 112.656 34.5403C112.275 34.1591 112.061 33.6421 112.061 33.103C112.061 32.5639 112.275 32.0469 112.656 31.6657C113.037 31.2844 113.554 31.0703 114.093 31.0703C114.419 31.0596 114.742 31.1387 115.027 31.2989C115.311 31.4591 115.546 31.6942 115.706 31.9788V31.1157H116.103ZM112.481 33.0916C112.471 33.308 112.506 33.524 112.584 33.7264C112.661 33.9287 112.778 34.1132 112.929 34.2684C113.08 34.4237 113.262 34.5464 113.462 34.6292C113.662 34.7119 113.877 34.7529 114.093 34.7496C114.531 34.7496 114.952 34.5755 115.262 34.2657C115.571 33.9558 115.746 33.5355 115.746 33.0973C115.746 32.6591 115.571 32.2388 115.262 31.929C114.952 31.6191 114.531 31.445 114.093 31.445C113.877 31.4402 113.663 31.4797 113.462 31.5612C113.262 31.6426 113.081 31.7643 112.93 31.9187C112.779 32.073 112.661 32.2568 112.584 32.4586C112.506 32.6603 112.471 32.8758 112.481 33.0916Z" fill="#191919"/>
<path d="M120.487 31.115V31.7963C120.612 31.56 120.803 31.3648 121.037 31.2339C121.271 31.1031 121.537 31.0421 121.804 31.0582C122.1 31.0484 122.393 31.1275 122.644 31.2853L122.474 31.6033C122.271 31.4829 122.04 31.42 121.804 31.4216C121.457 31.4246 121.124 31.5647 120.88 31.8114C120.635 32.0581 120.498 32.3915 120.498 32.7389V35.0101H120.101V31.115H120.487Z" fill="#191919"/>
<path d="M125.608 33.0913C125.602 32.8241 125.649 32.5584 125.748 32.3099C125.846 32.0614 125.994 31.8351 126.181 31.6445C126.368 31.454 126.592 31.3029 126.839 31.2003C127.086 31.0977 127.351 31.0457 127.618 31.0473C127.909 31.0233 128.202 31.0686 128.472 31.1794C128.743 31.2903 128.983 31.4636 129.173 31.6851C129.364 31.9066 129.499 32.1701 129.568 32.454C129.637 32.7379 129.638 33.0341 129.571 33.3185H126.051C126.071 33.7251 126.251 34.1075 126.55 34.3835C126.849 34.6595 127.245 34.8071 127.652 34.7947C127.92 34.8025 128.186 34.7528 128.433 34.6489C128.679 34.5451 128.901 34.3896 129.083 34.1929L129.355 34.42C129.145 34.6649 128.884 34.8602 128.589 34.9918C128.295 35.1234 127.975 35.1879 127.652 35.1808C127.376 35.1962 127.099 35.1524 126.841 35.0522C126.583 34.952 126.349 34.7978 126.156 34.5999C125.962 34.402 125.813 34.1651 125.719 33.9049C125.624 33.6447 125.586 33.3673 125.608 33.0913ZM129.219 32.9324C129.23 32.7227 129.195 32.5132 129.118 32.3183C129.04 32.1233 128.921 31.9474 128.769 31.8029C128.617 31.6583 128.435 31.5483 128.236 31.4806C128.038 31.4129 127.827 31.3891 127.618 31.4107C127.21 31.4105 126.818 31.5693 126.526 31.8535C126.233 32.1376 126.063 32.5246 126.051 32.9324H129.219Z" fill="#191919"/>
<path d="M38.7244 23.5754H29.0605V10.6523H38.7244V13.0144H31.4794V15.9896H38.4746V18.2608H31.4794V21.1793H38.7244V23.5754Z" fill="#191919"/>
<path d="M49.8304 21.1339H43.0169L41.8813 23.5754H39.2808L45.0723 10.6523H47.7296L53.5325 23.5754H50.8752L49.8304 21.1339ZM46.4236 13.3664L44.0275 18.8627H48.8084L46.4236 13.3664Z" fill="#191919"/>
<path d="M66.0806 23.5748H63.1848L59.4146 19.305H57.0753V23.6202H54.6338V10.6404H60.7773C61.3699 10.5901 61.9664 10.6634 62.5291 10.8557C63.0918 11.0481 63.6085 11.3552 64.0462 11.7578C64.4839 12.1603 64.8333 12.6494 65.0721 13.194C65.3108 13.7386 65.4338 14.3269 65.4333 14.9216C65.5008 15.8867 65.2014 16.8417 64.595 17.5955C63.9886 18.3493 63.1199 18.8463 62.1628 18.987L66.0806 23.3931V23.5748ZM57.0753 12.923V17.0338H60.7773C61.3255 17.0338 61.8512 16.8161 62.2388 16.4285C62.6264 16.0409 62.8441 15.5152 62.8441 14.967C62.8441 14.4189 62.6264 13.8932 62.2388 13.5056C61.8512 13.118 61.3255 12.9002 60.7773 12.9002L57.0753 12.923Z" fill="#191919"/>
<path d="M75.5629 10.6406H77.9931V23.575H76.4827L69.6692 14.8537V23.5637H67.2617V10.652H69.2377L75.5629 18.6693V10.6406Z" fill="#191919"/>
<path d="M95.3452 21.9506C94.6939 22.576 93.9248 23.0657 93.0827 23.3913C92.2405 23.7168 91.342 23.8718 90.4394 23.8471C85.6359 23.8471 83.6259 20.5425 83.6259 17.1811C83.5803 16.2743 83.7253 15.368 84.0516 14.5207C84.3779 13.6734 84.8782 12.9039 85.5202 12.2619C86.1622 11.6199 86.9317 11.1196 87.779 10.7933C88.6263 10.467 89.5326 10.322 90.4394 10.3676C91.3193 10.3663 92.1908 10.5392 93.0036 10.8764C93.8163 11.2136 94.5543 11.7083 95.1749 12.3321L93.551 13.9447C92.7173 13.1396 91.5982 12.6985 90.4394 12.7182C89.8385 12.686 89.2377 12.7821 88.6768 13.0002C88.116 13.2183 87.6081 13.5534 87.1869 13.9832C86.7657 14.413 86.4409 14.9276 86.2342 15.4927C86.0274 16.0578 85.9435 16.6605 85.9879 17.2606C85.9603 17.8464 86.0577 18.4312 86.2736 18.9765C86.4894 19.5217 86.8188 20.0147 87.2398 20.4229C87.6608 20.831 88.1639 21.1449 88.7155 21.3437C89.2672 21.5425 89.8548 21.6216 90.4394 21.5759C91.6489 21.5702 92.8105 21.1031 93.6872 20.2699L95.3452 21.9506Z" fill="#191919"/>
<path d="M109.404 17.1928C109.404 20.5314 107.326 23.8701 102.783 23.8701C101.896 23.9197 101.008 23.781 100.178 23.4633C99.348 23.1455 98.5946 22.6558 97.9673 22.0263C97.3399 21.3968 96.8528 20.6417 96.5379 19.8107C96.2229 18.9796 96.0873 18.0913 96.14 17.2041C96.14 15.4452 96.8387 13.7584 98.0824 12.5147C99.3261 11.271 101.013 10.5723 102.772 10.5723C104.531 10.5723 106.218 11.271 107.461 12.5147C108.705 13.7584 109.404 15.4452 109.404 17.2041V17.1928ZM98.5361 17.1928C98.5361 19.3163 99.7398 21.5875 102.783 21.5875C105.827 21.5875 106.974 19.3163 107.008 17.1814C107.042 15.0465 105.872 12.5709 102.783 12.5709C102.186 12.5608 101.594 12.678 101.046 12.9148C100.497 13.1516 100.006 13.5025 99.6042 13.9441C99.2023 14.3858 98.8992 14.908 98.715 15.476C98.5308 16.044 98.4698 16.6448 98.5361 17.2382V17.1928Z" fill="#191919"/>
<path d="M102.792 14.1158C102.389 14.1043 101.987 14.1755 101.613 14.3251C101.239 14.4746 100.901 14.6992 100.619 14.9847C100.338 15.2701 100.119 15.6101 99.9776 15.9832C99.836 16.3563 99.7745 16.7544 99.7968 17.1522C99.7735 17.5465 99.8351 17.9413 99.9774 18.3105C100.12 18.6797 100.34 19.015 100.622 19.2944C100.905 19.5737 101.245 19.7907 101.619 19.9312C101.993 20.0717 102.393 20.1325 102.792 20.1095C103.191 20.1273 103.59 20.0626 103.962 19.9195C104.334 19.7764 104.672 19.5582 104.954 19.2788C105.236 18.9993 105.456 18.6648 105.599 18.2967C105.743 17.9285 105.807 17.5349 105.787 17.1409C105.81 16.7436 105.748 16.346 105.607 15.9735C105.465 15.601 105.246 15.2616 104.965 14.9771C104.683 14.6925 104.344 14.469 103.97 14.3207C103.596 14.1725 103.195 14.1027 102.792 14.1158Z" fill="#FFCF77"/>
<path d="M119.533 13.7747C119.174 13.3077 118.708 12.9331 118.175 12.6823C117.642 12.4314 117.056 12.3115 116.467 12.3325C114.662 12.3325 113.799 13.0934 113.799 14.0473C113.799 15.1829 115.127 15.4895 116.672 15.6712C119.374 16.0119 121.884 16.7046 121.884 19.7934C121.884 22.6664 119.329 23.9042 116.456 23.9042C113.81 23.9042 111.789 23.098 110.778 20.7359L112.811 19.6798C113.138 20.3482 113.661 20.9013 114.31 21.2663C114.959 21.6312 115.703 21.7908 116.444 21.7239C117.977 21.7239 119.42 21.1902 119.42 19.7934C119.42 18.567 118.148 18.0786 116.422 17.8856C113.787 17.579 111.357 16.8749 111.357 13.9792C111.357 11.3219 113.969 10.2317 116.354 10.209C118.364 10.209 120.453 10.7881 121.43 12.7754L119.533 13.7747Z" fill="#191919"/>
<path d="M128.63 15.9896L132.036 10.6523H135V10.7659L129.856 18.2381V23.5754H127.415V18.2381L122.509 10.7659V10.6523H125.405L128.63 15.9896Z" fill="#191919"/>
<path d="M27.38 21.3268V23.598H18.2953V11.7537C18.3644 9.39527 17.5132 7.10241 15.9219 5.36035C17.0409 5.82767 18.0347 6.55087 18.8236 7.47188C19.6125 8.39289 20.1744 9.48605 20.4642 10.6636C20.6343 11.3701 20.7182 12.0945 20.7141 12.8212V21.3382L27.38 21.3268Z" fill="#191919"/>
<path d="M5.41693 19.3052V8.34668C4.28134 8.34668 3.56592 8.42617 3.56592 8.42617V21.2924C3.56592 21.2924 9.91388 20.577 14.6152 23.5636C12.0523 21.2436 8.84413 19.7584 5.41693 19.3052Z" fill="#FFCD77"/>
<path d="M10.2204 17.7718V6.81333C8.9763 6.30178 7.68231 5.9212 6.35938 5.67773V18.5213C6.35938 18.5213 12.3894 19.4979 15.1943 23.2567C14.3653 20.7925 10.2204 17.7718 10.2204 17.7718Z" fill="#4362FF"/>
<path d="M11.1855 4.29297V17.1706C11.1855 17.1706 14.8308 19.7825 16.0005 23.246V11.7538C16.0501 10.1685 15.616 8.60557 14.756 7.27287C13.8959 5.94018 12.6506 4.90082 11.1855 4.29297Z" fill="#A561FF"/>
<path d="M4.31543 5.32603V4.58789H3.57729V5.32603H4.31543Z" fill="#FFCF77"/>
<path d="M6.56348 4.22405V3.65625H5.99568V4.22405H6.56348Z" fill="#FFCF77"/>
<path d="M2.49805 3.07728V2.62305H2.04381V3.07728H2.49805Z" fill="#FFCF77"/>
<path d="M4.48535 1.62416V1.16992H4.03111V1.62416H4.48535Z" fill="#FFCF77"/>
<path d="M5.57568 5.82541V5.09863H4.8489V5.82541H5.57568Z" fill="#FFCF77"/>
<path d="M1.71484 4.42893V3.70215H0.988064V4.42893H1.71484Z" fill="#FFCF77"/>
<path d="M0.897119 5.71191H0V6.60903H0.897119V5.71191Z" fill="#FFCF77"/>
<path d="M2.771 6.27968V5.00781H1.49913V6.27968H2.771Z" fill="#FFCF77"/>
<path d="M5.29199 3.91743V2.86133H4.21318V3.91743H5.29199Z" fill="#FFCF77"/>
<path d="M3.69043 4.36099V3.46387H2.7706V4.36099H3.69043Z" fill="#FFCF77"/>
<path d="M4.84914 5.8252H3.56592V7.10842H4.84914V5.8252Z" fill="#FFCF77"/>
</svg>
