<svg width="117" height="17" viewBox="0 0 117 17" fill="none" xmlns="http://www.w3.org/2000/svg">
<path d="M0.147727 1.36364H2.72727L6.18182 9.79545H6.31818L9.77273 1.36364H12.3523V13H10.3295V5.00568H10.2216L7.00568 12.9659H5.49432L2.27841 4.98864H2.17045V13H0.147727V1.36364ZM18.3636 13.1705C17.5114 13.1705 16.7727 12.983 16.1477 12.608C15.5227 12.233 15.0379 11.7083 14.6932 11.0341C14.3523 10.3598 14.1818 9.57197 14.1818 8.67045C14.1818 7.76894 14.3523 6.97917 14.6932 6.30114C15.0379 5.62311 15.5227 5.09659 16.1477 4.72159C16.7727 4.34659 17.5114 4.15909 18.3636 4.15909C19.2159 4.15909 19.9545 4.34659 20.5795 4.72159C21.2045 5.09659 21.6875 5.62311 22.0284 6.30114C22.3731 6.97917 22.5455 7.76894 22.5455 8.67045C22.5455 9.57197 22.3731 10.3598 22.0284 11.0341C21.6875 11.7083 21.2045 12.233 20.5795 12.608C19.9545 12.983 19.2159 13.1705 18.3636 13.1705ZM18.375 11.5227C18.8371 11.5227 19.2235 11.3958 19.5341 11.142C19.8447 10.8845 20.0758 10.5398 20.2273 10.108C20.3826 9.67614 20.4602 9.19508 20.4602 8.66477C20.4602 8.13068 20.3826 7.64773 20.2273 7.21591C20.0758 6.7803 19.8447 6.43371 19.5341 6.17614C19.2235 5.91856 18.8371 5.78977 18.375 5.78977C17.9015 5.78977 17.5076 5.91856 17.1932 6.17614C16.8826 6.43371 16.6496 6.7803 16.4943 7.21591C16.3428 7.64773 16.267 8.13068 16.267 8.66477C16.267 9.19508 16.3428 9.67614 16.4943 10.108C16.6496 10.5398 16.8826 10.8845 17.1932 11.142C17.5076 11.3958 17.9015 11.5227 18.375 11.5227ZM24.3821 13V1.36364H26.4389V5.71591H26.5241C26.6302 5.50379 26.7798 5.27841 26.973 5.03977C27.1662 4.79735 27.4276 4.59091 27.7571 4.42045C28.0866 4.24621 28.5071 4.15909 29.0185 4.15909C29.6927 4.15909 30.3007 4.33144 30.8423 4.67614C31.3878 5.01705 31.8196 5.52273 32.1378 6.19318C32.4598 6.85985 32.6207 7.67803 32.6207 8.64773C32.6207 9.60606 32.4635 10.4205 32.1491 11.0909C31.8348 11.7614 31.4067 12.2727 30.8651 12.625C30.3234 12.9773 29.7098 13.1534 29.0241 13.1534C28.5241 13.1534 28.1094 13.0701 27.7798 12.9034C27.4503 12.7367 27.1851 12.536 26.9844 12.3011C26.7874 12.0625 26.634 11.8371 26.5241 11.625H26.4048V13H24.3821ZM26.3991 8.63636C26.3991 9.20076 26.4787 9.69508 26.6378 10.1193C26.8007 10.5436 27.0336 10.875 27.3366 11.1136C27.6435 11.3485 28.0147 11.4659 28.4503 11.4659C28.9048 11.4659 29.2855 11.3447 29.5923 11.1023C29.8991 10.8561 30.1302 10.5208 30.2855 10.0966C30.4446 9.66856 30.5241 9.18182 30.5241 8.63636C30.5241 8.0947 30.4465 7.61364 30.2912 7.19318C30.1359 6.77273 29.9048 6.44318 29.598 6.20455C29.2912 5.96591 28.9086 5.84659 28.4503 5.84659C28.0109 5.84659 27.6378 5.96212 27.331 6.19318C27.0241 6.42424 26.7912 6.74811 26.6321 7.16477C26.4768 7.58144 26.3991 8.07197 26.3991 8.63636ZM34.3693 13V4.27273H36.4261V13H34.3693ZM35.4034 3.03409C35.0777 3.03409 34.7973 2.92614 34.5625 2.71023C34.3277 2.49053 34.2102 2.22727 34.2102 1.92045C34.2102 1.60985 34.3277 1.34659 34.5625 1.13068C34.7973 0.910984 35.0777 0.801136 35.4034 0.801136C35.733 0.801136 36.0133 0.910984 36.2443 1.13068C36.4792 1.34659 36.5966 1.60985 36.5966 1.92045C36.5966 2.22727 36.4792 2.49053 36.2443 2.71023C36.0133 2.92614 35.733 3.03409 35.4034 3.03409ZM40.598 1.36364V13H38.5412V1.36364H40.598ZM46.5767 13.1705C45.7017 13.1705 44.946 12.9886 44.3097 12.625C43.6771 12.2576 43.1903 11.7386 42.8494 11.0682C42.5085 10.3939 42.3381 9.60038 42.3381 8.6875C42.3381 7.78977 42.5085 7.00189 42.8494 6.32386C43.1941 5.64205 43.6752 5.11174 44.2926 4.73295C44.91 4.35038 45.6354 4.15909 46.4688 4.15909C47.0066 4.15909 47.5142 4.24621 47.9915 4.42045C48.4725 4.59091 48.8968 4.85606 49.2642 5.21591C49.6354 5.57576 49.9271 6.03409 50.1392 6.59091C50.3513 7.14394 50.4574 7.80303 50.4574 8.56818V9.19886H43.304V7.8125H48.4858C48.482 7.41856 48.3968 7.06818 48.2301 6.76136C48.0634 6.45076 47.8305 6.20644 47.5312 6.02841C47.2358 5.85038 46.8911 5.76136 46.4972 5.76136C46.0767 5.76136 45.7074 5.86364 45.3892 6.06818C45.071 6.26894 44.8229 6.53409 44.6449 6.86364C44.4706 7.18939 44.3816 7.54735 44.3778 7.9375V9.14773C44.3778 9.6553 44.4706 10.0909 44.6562 10.4545C44.8419 10.8144 45.1013 11.0909 45.4347 11.2841C45.768 11.4735 46.1581 11.5682 46.6051 11.5682C46.9044 11.5682 47.1752 11.5265 47.4176 11.4432C47.66 11.3561 47.8703 11.2292 48.0483 11.0625C48.2263 10.8958 48.3608 10.6894 48.4517 10.4432L50.3722 10.6591C50.2509 11.1667 50.0199 11.6098 49.679 11.9886C49.3419 12.3636 48.91 12.6553 48.3835 12.8636C47.857 13.0682 47.2547 13.1705 46.5767 13.1705ZM56.2571 13V1.36364H60.7116C61.5526 1.36364 62.2514 1.49621 62.8082 1.76136C63.3688 2.02273 63.7874 2.38068 64.0639 2.83523C64.3442 3.28977 64.4844 3.80492 64.4844 4.38068C64.4844 4.85417 64.3935 5.25947 64.2116 5.59659C64.0298 5.92992 63.7855 6.20076 63.4787 6.40909C63.1719 6.61742 62.8291 6.76705 62.4503 6.85795V6.97159C62.8632 6.99432 63.259 7.12121 63.6378 7.35227C64.0204 7.57955 64.3329 7.90151 64.5753 8.31818C64.8177 8.73485 64.9389 9.23864 64.9389 9.82955C64.9389 10.4318 64.7931 10.9735 64.5014 11.4545C64.2098 11.9318 63.7704 12.3087 63.1832 12.5852C62.5961 12.8617 61.8575 13 60.9673 13H56.2571ZM58.3651 11.2386H60.6321C61.3973 11.2386 61.9484 11.0928 62.2855 10.8011C62.6264 10.5057 62.7969 10.1269 62.7969 9.66477C62.7969 9.32008 62.7116 9.00947 62.5412 8.73295C62.3707 8.45265 62.1283 8.23295 61.8139 8.07386C61.4995 7.91098 61.1245 7.82955 60.6889 7.82955H58.3651V11.2386ZM58.3651 6.3125H60.4503C60.8139 6.3125 61.1416 6.24621 61.4332 6.11364C61.7249 5.97727 61.9541 5.78598 62.1207 5.53977C62.2912 5.28977 62.3764 4.99432 62.3764 4.65341C62.3764 4.20265 62.2173 3.83144 61.8991 3.53977C61.5848 3.24811 61.117 3.10227 60.4957 3.10227H58.3651V6.3125ZM69.1932 13.1761C68.6402 13.1761 68.142 13.0777 67.6989 12.8807C67.2595 12.6799 66.911 12.3845 66.6534 11.9943C66.3996 11.6042 66.2727 11.1231 66.2727 10.5511C66.2727 10.0587 66.3636 9.65152 66.5455 9.32955C66.7273 9.00758 66.9754 8.75 67.2898 8.55682C67.6042 8.36364 67.9583 8.2178 68.3523 8.11932C68.75 8.01705 69.161 7.94318 69.5852 7.89773C70.0966 7.8447 70.5114 7.79735 70.8295 7.75568C71.1477 7.71023 71.3788 7.64205 71.5227 7.55114C71.6705 7.45644 71.7443 7.31061 71.7443 7.11364V7.07955C71.7443 6.65152 71.6174 6.32008 71.3636 6.08523C71.1098 5.85038 70.7443 5.73295 70.267 5.73295C69.7633 5.73295 69.3636 5.8428 69.0682 6.0625C68.7765 6.2822 68.5795 6.54167 68.4773 6.84091L66.5568 6.56818C66.7083 6.03788 66.9583 5.5947 67.3068 5.23864C67.6553 4.87879 68.0814 4.60985 68.5852 4.43182C69.089 4.25 69.6458 4.15909 70.2557 4.15909C70.6761 4.15909 71.0947 4.20833 71.5114 4.30682C71.928 4.4053 72.3087 4.56818 72.6534 4.79545C72.9981 5.01894 73.2746 5.32386 73.483 5.71023C73.6951 6.09659 73.8011 6.57955 73.8011 7.15909V13H71.8239V11.8011H71.7557C71.6307 12.0436 71.4545 12.2708 71.2273 12.483C71.0038 12.6913 70.7216 12.8598 70.3807 12.9886C70.0436 13.1136 69.6477 13.1761 69.1932 13.1761ZM69.7273 11.6648C70.1402 11.6648 70.4981 11.5833 70.8011 11.4205C71.1042 11.2538 71.3371 11.0341 71.5 10.7614C71.6667 10.4886 71.75 10.1913 71.75 9.86932V8.84091C71.6856 8.89394 71.5758 8.94318 71.4205 8.98864C71.2689 9.03409 71.0985 9.07386 70.9091 9.10795C70.7197 9.14205 70.5322 9.17235 70.3466 9.19886C70.161 9.22538 70 9.24811 69.8636 9.26705C69.5568 9.30871 69.2822 9.37689 69.0398 9.47159C68.7973 9.56629 68.6061 9.69886 68.4659 9.86932C68.3258 10.036 68.2557 10.2519 68.2557 10.517C68.2557 10.8958 68.3939 11.1818 68.6705 11.375C68.947 11.5682 69.2992 11.6648 69.7273 11.6648ZM77.9261 7.88636V13H75.8693V4.27273H77.8352V5.75568H77.9375C78.1383 5.26705 78.4583 4.87879 78.8977 4.59091C79.3409 4.30303 79.8883 4.15909 80.5398 4.15909C81.142 4.15909 81.6667 4.28788 82.1136 4.54545C82.5644 4.80303 82.9129 5.17614 83.1591 5.66477C83.4091 6.15341 83.5322 6.74621 83.5284 7.44318V13H81.4716V7.76136C81.4716 7.17803 81.3201 6.72159 81.017 6.39205C80.7178 6.0625 80.303 5.89773 79.7727 5.89773C79.4129 5.89773 79.0928 5.97727 78.8125 6.13636C78.536 6.29167 78.3182 6.51705 78.1591 6.8125C78.0038 7.10795 77.9261 7.46591 77.9261 7.88636ZM87.4943 10.2614L87.4886 7.77841H87.8182L90.9545 4.27273H93.358L89.5 8.56818H89.0739L87.4943 10.2614ZM85.6193 13V1.36364H87.6761V13H85.6193ZM91.0966 13L88.2557 9.02841L89.642 7.57955L93.5568 13H91.0966ZM94.7287 13V4.27273H96.7855V13H94.7287ZM95.7628 3.03409C95.437 3.03409 95.1567 2.92614 94.9219 2.71023C94.687 2.49053 94.5696 2.22727 94.5696 1.92045C94.5696 1.60985 94.687 1.34659 94.9219 1.13068C95.1567 0.910984 95.437 0.801136 95.7628 0.801136C96.0923 0.801136 96.3726 0.910984 96.6037 1.13068C96.8385 1.34659 96.956 1.60985 96.956 1.92045C96.956 2.22727 96.8385 2.49053 96.6037 2.71023C96.3726 2.92614 96.0923 3.03409 95.7628 3.03409ZM100.957 7.88636V13H98.9006V4.27273H100.866V5.75568H100.969C101.17 5.26705 101.49 4.87879 101.929 4.59091C102.372 4.30303 102.92 4.15909 103.571 4.15909C104.173 4.15909 104.698 4.28788 105.145 4.54545C105.596 4.80303 105.944 5.17614 106.19 5.66477C106.44 6.15341 106.563 6.74621 106.56 7.44318V13H104.503V7.76136C104.503 7.17803 104.351 6.72159 104.048 6.39205C103.749 6.0625 103.334 5.89773 102.804 5.89773C102.444 5.89773 102.124 5.97727 101.844 6.13636C101.567 6.29167 101.349 6.51705 101.19 6.8125C101.035 7.10795 100.957 7.46591 100.957 7.88636ZM112.446 16.4545C111.707 16.4545 111.073 16.3542 110.543 16.1534C110.012 15.9564 109.586 15.6913 109.264 15.358C108.942 15.0246 108.719 14.6553 108.594 14.25L110.446 13.8011C110.529 13.9716 110.651 14.1402 110.81 14.3068C110.969 14.4773 111.183 14.6174 111.452 14.7273C111.724 14.8409 112.067 14.8977 112.48 14.8977C113.063 14.8977 113.546 14.7557 113.929 14.4716C114.312 14.1913 114.503 13.7292 114.503 13.0852V11.4318H114.401C114.295 11.6439 114.139 11.8617 113.935 12.0852C113.734 12.3087 113.467 12.4962 113.134 12.6477C112.804 12.7992 112.389 12.875 111.889 12.875C111.219 12.875 110.611 12.7178 110.065 12.4034C109.524 12.0852 109.092 11.6117 108.77 10.983C108.452 10.3504 108.293 9.55871 108.293 8.60795C108.293 7.64962 108.452 6.84091 108.77 6.18182C109.092 5.51894 109.526 5.01705 110.071 4.67614C110.616 4.33144 111.224 4.15909 111.895 4.15909C112.406 4.15909 112.827 4.24621 113.156 4.42045C113.49 4.59091 113.755 4.79735 113.952 5.03977C114.149 5.27841 114.298 5.50379 114.401 5.71591H114.514V4.27273H116.543V13.142C116.543 13.8883 116.365 14.5057 116.009 14.9943C115.652 15.483 115.166 15.8485 114.548 16.0909C113.931 16.3333 113.23 16.4545 112.446 16.4545ZM112.463 11.2614C112.899 11.2614 113.27 11.1553 113.577 10.9432C113.884 10.7311 114.116 10.4261 114.276 10.0284C114.435 9.63068 114.514 9.15341 114.514 8.59659C114.514 8.04735 114.435 7.56629 114.276 7.15341C114.12 6.74053 113.889 6.42045 113.582 6.19318C113.279 5.96212 112.906 5.84659 112.463 5.84659C112.005 5.84659 111.622 5.96591 111.315 6.20455C111.009 6.44318 110.777 6.77083 110.622 7.1875C110.467 7.60038 110.389 8.07008 110.389 8.59659C110.389 9.13068 110.467 9.59848 110.622 10C110.781 10.3977 111.014 10.7083 111.321 10.9318C111.632 11.1515 112.012 11.2614 112.463 11.2614Z" fill="#344054"/>
</svg>
