<svg width="40" height="40" viewBox="0 0 40 40" fill="none" xmlns="http://www.w3.org/2000/svg">
<rect width="40" height="40" rx="20" fill="#00AB55" fill-opacity="0.08"/>
<path fill-rule="evenodd" clip-rule="evenodd" d="M27 13H25V11H15V13H13C11.9 13 11 13.9 11 15V16C11 18.55 12.92 20.63 15.39 20.94C16.02 22.44 17.37 23.57 19 23.9V27H15V29H25V27H21V23.9C22.63 23.57 23.98 22.44 24.61 20.94C27.08 20.63 29 18.55 29 16V15C29 13.9 28.1 13 27 13ZM13 16V15H15V18.82C13.84 18.4 13 17.3 13 16ZM25 18.82C26.16 18.4 27 17.3 27 16V15H25V18.82Z" fill="#00AB55"/>
</svg>
