<svg width="144" height="144" viewBox="0 0 144 144" fill="none" xmlns="http://www.w3.org/2000/svg">
<circle cx="72" cy="72" r="64" fill="#F4F6F8"/>
<path d="M63 57C63 57.55 63.45 58 64 58C64.55 58 65 57.55 65 57V55H67C67.55 55 68 54.55 68 54C68 53.45 67.55 53 67 53H65V51C65 50.45 64.55 50 64 50C63.45 50 63 50.45 63 51V53H61C60.45 53 60 53.45 60 54C60 54.55 60.45 55 61 55H63V57Z" fill="#919EAB"/>
<path d="M76 63C76 64.6569 74.6569 66 73 66C71.3431 66 70 64.6569 70 63C70 61.3431 71.3431 60 73 60C74.6569 60 76 61.3431 76 63Z" fill="#919EAB"/>
<path fill-rule="evenodd" clip-rule="evenodd" d="M77.83 55H81C82.1 55 83 55.9 83 57V69C83 70.1 82.1 71 81 71H65C63.9 71 63 70.1 63 69V58.72C63.3 58.89 63.63 59 64 59C65.1 59 66 58.1 66 57V56H67C68.1 56 69 55.1 69 54C69 53.63 68.89 53.3 68.72 53H75.12C75.68 53 76.22 53.24 76.59 53.65L77.83 55ZM68 63C68 65.76 70.24 68 73 68C75.76 68 78 65.76 78 63C78 60.24 75.76 58 73 58C70.24 58 68 60.24 68 63Z" fill="#919EAB"/>
<path d="M42.363 91C42.363 91.668 42.253 92.234 42.033 92.698C41.813 93.162 41.469 93.516 41.001 93.76C40.537 94 39.933 94.12 39.189 94.12C38.437 94.12 37.827 93.996 37.359 93.748C36.895 93.5 36.555 93.136 36.339 92.656C36.127 92.176 36.021 91.586 36.021 90.886V85.324H37.173V91.054C37.173 91.754 37.347 92.278 37.695 92.626C38.043 92.974 38.541 93.148 39.189 93.148C39.625 93.148 39.995 93.072 40.299 92.92C40.607 92.768 40.841 92.538 41.001 92.23C41.165 91.918 41.247 91.526 41.247 91.054V85.324H42.363V91ZM44.1953 95.932V87.796H45.2993L45.3113 88.876C45.3833 88.748 45.4753 88.614 45.5873 88.474C45.7033 88.334 45.8433 88.204 46.0073 88.084C46.1753 87.964 46.3693 87.866 46.5893 87.79C46.8133 87.714 47.0673 87.676 47.3513 87.676C47.8473 87.676 48.2833 87.79 48.6593 88.018C49.0393 88.242 49.3353 88.586 49.5473 89.05C49.7593 89.514 49.8653 90.102 49.8653 90.814C49.8653 91.526 49.7613 92.128 49.5533 92.62C49.3493 93.108 49.0533 93.48 48.6653 93.736C48.2773 93.992 47.8093 94.12 47.2613 94.12C46.9853 94.12 46.7393 94.08 46.5233 94C46.3113 93.924 46.1253 93.824 45.9653 93.7C45.8093 93.572 45.6773 93.436 45.5693 93.292C45.4653 93.148 45.3793 93.01 45.3113 92.878V95.932H44.1953ZM47.0513 93.256C47.5633 93.256 47.9813 93.062 48.3053 92.674C48.6293 92.282 48.7913 91.674 48.7913 90.85C48.7913 90.142 48.6433 89.58 48.3473 89.164C48.0513 88.748 47.6193 88.54 47.0513 88.54C46.4753 88.54 46.0393 88.754 45.7433 89.182C45.4473 89.606 45.2993 90.162 45.2993 90.85C45.2993 91.294 45.3653 91.698 45.4973 92.062C45.6293 92.426 45.8253 92.716 46.0853 92.932C46.3453 93.148 46.6673 93.256 47.0513 93.256ZM52.8863 94.078C52.5503 94.078 52.2783 94.032 52.0703 93.94C51.8663 93.848 51.7083 93.724 51.5963 93.568C51.4883 93.412 51.4143 93.234 51.3743 93.034C51.3383 92.83 51.3203 92.62 51.3203 92.404V85.084H52.4123V92.296C52.4123 92.608 52.4723 92.842 52.5923 92.998C52.7163 93.154 52.8883 93.24 53.1083 93.256L53.4443 93.262V93.982C53.3523 94.01 53.2563 94.032 53.1563 94.048C53.0563 94.068 52.9663 94.078 52.8863 94.078ZM57.2668 94.12C56.6948 94.12 56.1948 93.998 55.7668 93.754C55.3388 93.506 55.0068 93.144 54.7708 92.668C54.5348 92.192 54.4168 91.61 54.4168 90.922C54.4168 90.274 54.5268 89.706 54.7468 89.218C54.9668 88.73 55.2888 88.352 55.7128 88.084C56.1408 87.812 56.6588 87.676 57.2668 87.676C57.8388 87.676 58.3348 87.802 58.7548 88.054C59.1788 88.302 59.5068 88.668 59.7388 89.152C59.9708 89.636 60.0868 90.226 60.0868 90.922C60.0868 91.554 59.9788 92.11 59.7628 92.59C59.5508 93.07 59.2348 93.446 58.8148 93.718C58.3988 93.986 57.8828 94.12 57.2668 94.12ZM57.2668 93.244C57.6388 93.244 57.9528 93.15 58.2088 92.962C58.4648 92.774 58.6588 92.504 58.7908 92.152C58.9228 91.8 58.9888 91.382 58.9888 90.898C58.9888 90.454 58.9308 90.056 58.8148 89.704C58.6988 89.348 58.5128 89.066 58.2568 88.858C58.0048 88.65 57.6748 88.546 57.2668 88.546C56.8908 88.546 56.5728 88.64 56.3128 88.828C56.0528 89.012 55.8548 89.28 55.7188 89.632C55.5868 89.984 55.5208 90.406 55.5208 90.898C55.5208 91.334 55.5808 91.73 55.7008 92.086C55.8208 92.442 56.0088 92.724 56.2648 92.932C56.5208 93.14 56.8548 93.244 57.2668 93.244ZM63.1848 94.12C62.7848 94.12 62.4308 94.05 62.1228 93.91C61.8148 93.766 61.5728 93.56 61.3968 93.292C61.2248 93.024 61.1388 92.7 61.1388 92.32C61.1388 91.632 61.3788 91.12 61.8588 90.784C62.3388 90.448 63.1088 90.268 64.1688 90.244L65.2788 90.214V89.728C65.2788 89.348 65.1648 89.048 64.9368 88.828C64.7088 88.604 64.3548 88.492 63.8748 88.492C63.5188 88.496 63.2048 88.58 62.9328 88.744C62.6648 88.908 62.4908 89.176 62.4108 89.548H61.4328C61.4568 89.144 61.5708 88.804 61.7748 88.528C61.9788 88.248 62.2628 88.036 62.6268 87.892C62.9948 87.748 63.4288 87.676 63.9288 87.676C64.4688 87.676 64.9168 87.752 65.2728 87.904C65.6328 88.056 65.9008 88.28 66.0768 88.576C66.2568 88.872 66.3468 89.236 66.3468 89.668V94H65.3988L65.3208 92.836C65.0808 93.32 64.7748 93.656 64.4028 93.844C64.0348 94.028 63.6288 94.12 63.1848 94.12ZM63.5208 93.322C63.7288 93.322 63.9348 93.284 64.1388 93.208C64.3468 93.132 64.5368 93.03 64.7088 92.902C64.8808 92.77 65.0168 92.624 65.1168 92.464C65.2208 92.3 65.2748 92.132 65.2788 91.96V90.898L64.3548 90.916C63.8828 90.924 63.4868 90.972 63.1668 91.06C62.8508 91.148 62.6128 91.286 62.4528 91.474C62.2968 91.662 62.2188 91.908 62.2188 92.212C62.2188 92.56 62.3388 92.832 62.5788 93.028C62.8228 93.224 63.1368 93.322 63.5208 93.322ZM70.4802 94.12C69.6762 94.12 69.0382 93.844 68.5662 93.292C68.0942 92.74 67.8582 91.934 67.8582 90.874C67.8582 90.23 67.9522 89.668 68.1402 89.188C68.3322 88.708 68.6162 88.336 68.9922 88.072C69.3682 87.808 69.8362 87.676 70.3962 87.676C70.6922 87.676 70.9542 87.714 71.1822 87.79C71.4142 87.866 71.6142 87.962 71.7822 88.078C71.9502 88.194 72.0862 88.314 72.1902 88.438C72.2982 88.562 72.3782 88.676 72.4302 88.78V85.084H73.5462V94H72.7002L72.5802 92.728C72.5402 92.848 72.4762 92.988 72.3882 93.148C72.3002 93.304 72.1762 93.458 72.0162 93.61C71.8562 93.758 71.6502 93.88 71.3982 93.976C71.1502 94.072 70.8442 94.12 70.4802 94.12ZM70.6782 93.268C71.3062 93.268 71.7542 93.078 72.0222 92.698C72.2942 92.314 72.4302 91.688 72.4302 90.82C72.4262 90.336 72.3642 89.924 72.2442 89.584C72.1282 89.244 71.9442 88.986 71.6922 88.81C71.4442 88.63 71.1142 88.54 70.7022 88.54C70.1902 88.54 69.7742 88.722 69.4542 89.086C69.1342 89.45 68.9742 90.028 68.9742 90.82C68.9742 91.596 69.1182 92.198 69.4062 92.626C69.6982 93.054 70.1222 93.268 70.6782 93.268ZM78.1446 95.932V87.796H79.2486L79.2606 88.876C79.3326 88.748 79.4246 88.614 79.5366 88.474C79.6526 88.334 79.7926 88.204 79.9566 88.084C80.1246 87.964 80.3186 87.866 80.5386 87.79C80.7626 87.714 81.0166 87.676 81.3006 87.676C81.7966 87.676 82.2326 87.79 82.6086 88.018C82.9886 88.242 83.2846 88.586 83.4966 89.05C83.7086 89.514 83.8146 90.102 83.8146 90.814C83.8146 91.526 83.7106 92.128 83.5026 92.62C83.2986 93.108 83.0026 93.48 82.6146 93.736C82.2266 93.992 81.7586 94.12 81.2106 94.12C80.9346 94.12 80.6886 94.08 80.4726 94C80.2606 93.924 80.0746 93.824 79.9146 93.7C79.7586 93.572 79.6266 93.436 79.5186 93.292C79.4146 93.148 79.3286 93.01 79.2606 92.878V95.932H78.1446ZM81.0006 93.256C81.5126 93.256 81.9306 93.062 82.2546 92.674C82.5786 92.282 82.7406 91.674 82.7406 90.85C82.7406 90.142 82.5926 89.58 82.2966 89.164C82.0006 88.748 81.5686 88.54 81.0006 88.54C80.4246 88.54 79.9886 88.754 79.6926 89.182C79.3966 89.606 79.2486 90.162 79.2486 90.85C79.2486 91.294 79.3146 91.698 79.4466 92.062C79.5786 92.426 79.7746 92.716 80.0346 92.932C80.2946 93.148 80.6166 93.256 81.0006 93.256ZM85.2696 94V85.084H86.3496V88.708C86.4536 88.536 86.5936 88.376 86.7696 88.228C86.9456 88.076 87.1596 87.954 87.4116 87.862C87.6636 87.766 87.9556 87.718 88.2876 87.718C88.6916 87.718 89.0576 87.794 89.3856 87.946C89.7136 88.094 89.9736 88.306 90.1656 88.582C90.3576 88.858 90.4536 89.186 90.4536 89.566V94H89.3436V89.788C89.3436 89.416 89.2156 89.13 88.9596 88.93C88.7076 88.726 88.3776 88.624 87.9696 88.624C87.6936 88.624 87.4336 88.67 87.1896 88.762C86.9456 88.85 86.7476 88.986 86.5956 89.17C86.4476 89.35 86.3736 89.58 86.3736 89.86V94H85.2696ZM94.6496 94.12C94.0776 94.12 93.5776 93.998 93.1496 93.754C92.7216 93.506 92.3896 93.144 92.1536 92.668C91.9176 92.192 91.7996 91.61 91.7996 90.922C91.7996 90.274 91.9096 89.706 92.1296 89.218C92.3496 88.73 92.6716 88.352 93.0956 88.084C93.5236 87.812 94.0416 87.676 94.6496 87.676C95.2216 87.676 95.7176 87.802 96.1376 88.054C96.5616 88.302 96.8896 88.668 97.1216 89.152C97.3536 89.636 97.4696 90.226 97.4696 90.922C97.4696 91.554 97.3616 92.11 97.1456 92.59C96.9336 93.07 96.6176 93.446 96.1976 93.718C95.7816 93.986 95.2656 94.12 94.6496 94.12ZM94.6496 93.244C95.0216 93.244 95.3356 93.15 95.5916 92.962C95.8476 92.774 96.0416 92.504 96.1736 92.152C96.3056 91.8 96.3716 91.382 96.3716 90.898C96.3716 90.454 96.3136 90.056 96.1976 89.704C96.0816 89.348 95.8956 89.066 95.6396 88.858C95.3876 88.65 95.0576 88.546 94.6496 88.546C94.2736 88.546 93.9556 88.64 93.6956 88.828C93.4356 89.012 93.2376 89.28 93.1016 89.632C92.9696 89.984 92.9036 90.406 92.9036 90.898C92.9036 91.334 92.9636 91.73 93.0836 92.086C93.2036 92.442 93.3916 92.724 93.6476 92.932C93.9036 93.14 94.2376 93.244 94.6496 93.244ZM101.875 88.606H100.477V92.464C100.477 92.684 100.499 92.846 100.543 92.95C100.591 93.05 100.669 93.114 100.777 93.142C100.889 93.17 101.041 93.184 101.233 93.184H101.911V93.928C101.835 93.956 101.719 93.98 101.563 94C101.411 94.02 101.221 94.03 100.993 94.03C100.565 94.03 100.233 93.972 99.9967 93.856C99.7607 93.74 99.5947 93.568 99.4987 93.34C99.4067 93.112 99.3607 92.832 99.3607 92.5V88.606H98.3527V87.796H99.3907L99.6607 85.99H100.477V87.79H101.875V88.606ZM105.771 94.12C105.199 94.12 104.699 93.998 104.271 93.754C103.843 93.506 103.511 93.144 103.275 92.668C103.039 92.192 102.921 91.61 102.921 90.922C102.921 90.274 103.031 89.706 103.251 89.218C103.471 88.73 103.793 88.352 104.217 88.084C104.645 87.812 105.163 87.676 105.771 87.676C106.343 87.676 106.839 87.802 107.259 88.054C107.683 88.302 108.011 88.668 108.243 89.152C108.475 89.636 108.591 90.226 108.591 90.922C108.591 91.554 108.483 92.11 108.267 92.59C108.055 93.07 107.739 93.446 107.319 93.718C106.903 93.986 106.387 94.12 105.771 94.12ZM105.771 93.244C106.143 93.244 106.457 93.15 106.713 92.962C106.969 92.774 107.163 92.504 107.295 92.152C107.427 91.8 107.493 91.382 107.493 90.898C107.493 90.454 107.435 90.056 107.319 89.704C107.203 89.348 107.017 89.066 106.761 88.858C106.509 88.65 106.179 88.546 105.771 88.546C105.395 88.546 105.077 88.64 104.817 88.828C104.557 89.012 104.359 89.28 104.223 89.632C104.091 89.984 104.025 90.406 104.025 90.898C104.025 91.334 104.085 91.73 104.205 92.086C104.325 92.442 104.513 92.724 104.769 92.932C105.025 93.14 105.359 93.244 105.771 93.244Z" fill="#919EAB"/>
<rect x="0.5" y="0.5" width="143" height="143" rx="71.5" stroke="#919EAB" stroke-opacity="0.32" stroke-dasharray="3 2"/>
</svg>
