<svg width="68" height="68" viewBox="0 0 68 68" fill="none" xmlns="http://www.w3.org/2000/svg">
<path d="M17.7931 62.3333C20.1376 62.3333 22.3861 61.402 24.044 59.7441C25.7018 58.0863 26.6331 55.8378 26.6331 53.4933C26.6331 51.1488 25.7018 48.9003 24.044 47.2425C22.3861 45.5847 20.1376 44.6533 17.7931 44.6533C15.4486 44.6533 13.2001 45.5847 11.5423 47.2425C9.88448 48.9003 8.95313 51.1488 8.95312 53.4933C8.95313 55.8378 9.88448 58.0863 11.5423 59.7441C13.2001 61.402 15.4486 62.3333 17.7931 62.3333Z" stroke="#536ADC" stroke-width="3" stroke-linecap="round" stroke-linejoin="round"/>
<path d="M59.0461 47.5997V13.033C59.0461 5.66632 54.4278 4.64632 49.7528 5.92132L32.0728 10.738C28.8428 11.6163 26.6328 14.1663 26.6328 17.8497V53.4647" stroke="#536ADC" stroke-width="3" stroke-linecap="round" stroke-linejoin="round"/>
<path d="M26.6328 26.9738L59.0461 18.1338M50.2061 56.4405C52.5507 56.4405 54.7991 55.5091 56.457 53.8513C58.1148 52.1935 59.0461 49.945 59.0461 47.6005C59.0461 45.2559 58.1148 43.0075 56.457 41.3496C54.7991 39.6918 52.5507 38.7605 50.2061 38.7605C47.8616 38.7605 45.6131 39.6918 43.9553 41.3496C42.2975 43.0075 41.3661 45.2559 41.3661 47.6005C41.3661 49.945 42.2975 52.1935 43.9553 53.8513C45.6131 55.5091 47.8616 56.4405 50.2061 56.4405Z" stroke="#536ADC" stroke-width="3" stroke-linecap="round" stroke-linejoin="round"/>
</svg>
