<svg width="22" height="22" viewBox="0 0 22 22" fill="none" xmlns="http://www.w3.org/2000/svg">
<path d="M18.97 9.00031H2.97V17.0003C2.97 20.0003 3.97 21.0003 6.97 21.0003H14.97C17.97 21.0003 18.97 20.0003 18.97 17.0003V9.00031ZM20.5 6.00031V7.00031C20.5 8.10031 19.97 9.00031 18.5 9.00031H3.5C1.97 9.00031 1.5 8.10031 1.5 7.00031V6.00031C1.5 4.90031 1.97 4.00031 3.5 4.00031H18.5C19.97 4.00031 20.5 4.90031 20.5 6.00031ZM10.64 4.00031H5.12C4.95557 3.82197 4.8668 3.58675 4.8724 3.34425C4.87799 3.10174 4.97752 2.87087 5.15 2.70031L6.57 1.28031C6.74972 1.1026 6.99226 1.00293 7.245 1.00293C7.49774 1.00293 7.74028 1.1026 7.92 1.28031L10.64 4.00031ZM16.87 4.00031H11.35L14.07 1.28031C14.2497 1.1026 14.4923 1.00293 14.745 1.00293C14.9977 1.00293 15.2403 1.1026 15.42 1.28031L16.84 2.70031C17.2 3.06031 17.21 3.63031 16.87 4.00031Z" stroke="#2F3A4C" stroke-width="1.5" stroke-miterlimit="10" stroke-linecap="round" stroke-linejoin="round"/>
</svg>
