<svg width="32" height="32" viewBox="0 0 32 32" fill="none" xmlns="http://www.w3.org/2000/svg">
<path d="M18.668 21.3333C18.668 23.6933 17.6413 25.8266 16.0013 27.2799C14.5417 28.6054 12.6396 29.3377 10.668 29.3333C6.25464 29.3333 2.66797 25.7466 2.66797 21.3333C2.66797 17.6533 5.17464 14.5333 8.5613 13.6133C9.0203 14.7674 9.74089 15.7991 10.6664 16.6274C11.5918 17.4557 12.6969 18.0579 13.8946 18.3866C14.5613 18.5733 15.268 18.6666 16.0013 18.6666C16.7346 18.6666 17.4413 18.5733 18.108 18.3866C18.468 19.2933 18.668 20.2933 18.668 21.3333Z" stroke="#2F3A4C" stroke-width="1.5" stroke-linecap="round" stroke-linejoin="round"/>
<path d="M24 10.667C24.0021 12.4225 23.426 14.1298 22.3608 15.5251C21.2956 16.9205 19.8006 17.9262 18.1067 18.387C17.44 18.5737 16.7333 18.667 16 18.667C15.2667 18.667 14.56 18.5737 13.8933 18.387C12.1994 17.9262 10.7044 16.9205 9.63917 15.5251C8.57398 14.1298 7.99792 12.4225 8.00001 10.667C8.00001 6.25366 11.5867 2.66699 16 2.66699C20.4133 2.66699 24 6.25366 24 10.667Z" stroke="#2F3A4C" stroke-width="1.5" stroke-linecap="round" stroke-linejoin="round"/>
<path d="M29.3333 21.3333C29.3333 25.7466 25.7467 29.3333 21.3333 29.3333C19.3617 29.3377 17.4596 28.6054 16 27.2799C17.64 25.8266 18.6667 23.6933 18.6667 21.3333C18.6667 20.2933 18.4667 19.2933 18.1067 18.3866C20.5467 17.7199 22.52 15.9333 23.44 13.6133C26.8267 14.5333 29.3333 17.6533 29.3333 21.3333Z" stroke="#2F3A4C" stroke-width="1.5" stroke-linecap="round" stroke-linejoin="round"/>
</svg>
