<svg width="56" height="56" viewBox="0 0 56 56" fill="none" xmlns="http://www.w3.org/2000/svg">
<rect x="0.5" y="0.5" width="55" height="55" rx="7.5" fill="#F3F5FF"/>
<path d="M37.7346 22.56V29.4267C37.7346 33.5334 35.3879 35.2934 31.8679 35.2934H20.1479C19.5479 35.2934 18.9746 35.24 18.4412 35.12C18.1079 35.0667 17.7879 34.9734 17.4946 34.8667C15.4946 34.12 14.2812 32.3867 14.2812 29.4267V22.56C14.2812 18.4534 16.6279 16.6934 20.1479 16.6934H31.8679C34.8546 16.6934 37.0013 17.96 37.5746 20.8534C37.6679 21.3867 37.7346 21.9334 37.7346 22.56Z" stroke="#2F3A4C" stroke-width="1.5" stroke-miterlimit="10" stroke-linecap="round" stroke-linejoin="round"/>
<path d="M41.7347 26.5602V33.4268C41.7347 37.5335 39.3881 39.2935 35.8681 39.2935H24.1481C23.1614 39.2935 22.2681 39.1602 21.4947 38.8668C19.9081 38.2802 18.8281 37.0669 18.4414 35.1202C18.9747 35.2402 19.5481 35.2935 20.1481 35.2935H31.8681C35.3881 35.2935 37.7347 33.5335 37.7347 29.4268V22.5602C37.7347 21.9335 37.6814 21.3735 37.5747 20.8535C40.1081 21.3868 41.7347 23.1735 41.7347 26.5602Z" stroke="#2F3A4C" stroke-width="1.5" stroke-miterlimit="10" stroke-linecap="round" stroke-linejoin="round"/>
<path d="M18.375 23.0671V28.9338M33.631 23.0671V28.9338M25.999 29.5205C26.9326 29.5205 27.8279 29.1496 28.488 28.4895C29.1481 27.8294 29.519 26.934 29.519 26.0005C29.519 25.0669 29.1481 24.1716 28.488 23.5115C27.8279 22.8513 26.9326 22.4805 25.999 22.4805C25.0654 22.4805 24.1701 22.8513 23.51 23.5115C22.8499 24.1716 22.479 25.0669 22.479 26.0005C22.479 26.934 22.8499 27.8294 23.51 28.4895C24.1701 29.1496 25.0654 29.5205 25.999 29.5205Z" stroke="#2F3A4C" stroke-width="1.5" stroke-miterlimit="10" stroke-linecap="round" stroke-linejoin="round"/>
<rect x="0.5" y="0.5" width="55" height="55" rx="7.5" stroke="#DEE4ED"/>
</svg>
