<svg width="56" height="56" viewBox="0 0 56 56" fill="none" xmlns="http://www.w3.org/2000/svg">
<rect x="0.5" y="0.5" width="55" height="55" rx="7.5" fill="#131313"/>
<path d="M24.666 30.3333C24.666 31.6267 25.666 32.6667 26.8927 32.6667H29.3993C30.466 32.6667 31.3327 31.76 31.3327 30.6267C31.3327 29.4133 30.7993 28.9733 30.0127 28.6933L25.9993 27.2933C25.2127 27.0133 24.6793 26.5867 24.6793 25.36C24.6793 24.24 25.546 23.32 26.6127 23.32H29.1193C30.346 23.32 31.346 24.36 31.346 25.6533M27.9993 22V34" stroke="#7289FF" stroke-width="1.5" stroke-linecap="round" stroke-linejoin="round"/>
<path d="M41.3327 28.0001C41.3327 35.3601 35.3593 41.3334 27.9993 41.3334C20.6393 41.3334 14.666 35.3601 14.666 28.0001C14.666 20.6401 20.6393 14.6667 27.9993 14.6667" stroke="#7289FF" stroke-width="1.5" stroke-linecap="round" stroke-linejoin="round"/>
<path d="M34.666 16.0001V21.3334M34.666 21.3334H39.9993M34.666 21.3334L41.3327 14.6667" stroke="#7289FF" stroke-width="1.5" stroke-linecap="round" stroke-linejoin="round"/>
<rect x="0.5" y="0.5" width="55" height="55" rx="7.5" stroke="#1B2431"/>
</svg>
