<svg width="56" height="56" viewBox="0 0 56 56" fill="none" xmlns="http://www.w3.org/2000/svg">
<rect x="0.5" y="0.5" width="55" height="55" rx="7.5" fill="#131313"/>
<path d="M37.7326 22.56V29.4267C37.7326 33.5334 35.386 35.2934 31.866 35.2934H20.146C19.546 35.2934 18.9726 35.24 18.4393 35.12C18.106 35.0667 17.786 34.9734 17.4926 34.8667C15.4926 34.12 14.2793 32.3867 14.2793 29.4267V22.56C14.2793 18.4534 16.626 16.6934 20.146 16.6934H31.866C34.8526 16.6934 36.9993 17.96 37.5726 20.8534C37.666 21.3867 37.7326 21.9334 37.7326 22.56Z" stroke="#7289FF" stroke-width="1.5" stroke-miterlimit="10" stroke-linecap="round" stroke-linejoin="round"/>
<path d="M41.7347 26.5599V33.4266C41.7347 37.5333 39.3881 39.2933 35.8681 39.2933H24.1481C23.1614 39.2933 22.2681 39.1599 21.4947 38.8666C19.9081 38.2799 18.8281 37.0666 18.4414 35.1199C18.9747 35.2399 19.5481 35.2933 20.1481 35.2933H31.8681C35.3881 35.2933 37.7347 33.5333 37.7347 29.4266V22.5599C37.7347 21.9333 37.6814 21.3733 37.5747 20.8533C40.1081 21.3866 41.7347 23.1733 41.7347 26.5599Z" stroke="#7289FF" stroke-width="1.5" stroke-miterlimit="10" stroke-linecap="round" stroke-linejoin="round"/>
<path d="M18.373 23.0666V28.9333M33.629 23.0666V28.9333M25.997 29.52C26.9306 29.52 27.8259 29.1491 28.4861 28.489C29.1462 27.8289 29.517 26.9335 29.517 26C29.517 25.0664 29.1462 24.1711 28.4861 23.511C27.8259 22.8508 26.9306 22.48 25.997 22.48C25.0635 22.48 24.1682 22.8508 23.508 23.511C22.8479 24.1711 22.477 25.0664 22.477 26C22.477 26.9335 22.8479 27.8289 23.508 28.489C24.1682 29.1491 25.0635 29.52 25.997 29.52Z" stroke="#7289FF" stroke-width="1.5" stroke-miterlimit="10" stroke-linecap="round" stroke-linejoin="round"/>
<rect x="0.5" y="0.5" width="55" height="55" rx="7.5" stroke="#1B2431"/>
</svg>
