<svg width="41" height="40" viewBox="0 0 41 40" fill="none" xmlns="http://www.w3.org/2000/svg">
<g filter="url(#filter0_d_3360_34215)">
<circle cx="20.1502" cy="18.1643" r="7.89041" fill="#3D5CFF"/>
<path d="M32.3145 18C32.3145 21.1826 31.0502 24.2348 28.7997 26.4853C26.5493 28.7357 23.4971 30 20.3145 30C17.1319 30 14.0796 28.7357 11.8292 26.4853C9.57874 24.2348 8.31445 21.1826 8.31445 18C8.31445 14.8174 9.57874 11.7652 11.8292 9.51472C14.0796 7.26428 17.1319 6 20.3145 6C23.4971 6 26.5493 7.26428 28.7997 9.51472C31.0502 11.7652 32.3145 14.8174 32.3145 18ZM18.4995 13.6395C18.3873 13.5597 18.2553 13.5122 18.118 13.5024C17.9807 13.4925 17.8433 13.5207 17.721 13.5837C17.5986 13.6468 17.4959 13.7423 17.4242 13.8598C17.3525 13.9773 17.3145 14.1123 17.3145 14.25V21.75C17.3145 21.8877 17.3525 22.0227 17.4242 22.1402C17.4959 22.2577 17.5986 22.3532 17.721 22.4163C17.8433 22.4793 17.9807 22.5075 18.118 22.4976C18.2553 22.4878 18.3873 22.4403 18.4995 22.3605L23.7495 18.6105C23.8467 18.5411 23.9259 18.4495 23.9806 18.3433C24.0353 18.2372 24.0638 18.1194 24.0638 18C24.0638 17.8806 24.0353 17.7628 23.9806 17.6567C23.9259 17.5505 23.8467 17.4589 23.7495 17.3895L18.4995 13.6395Z" fill="#DFE4FF"/>
</g>
<defs>
<filter id="filter0_d_3360_34215" x="0.314453" y="0" width="40" height="40" filterUnits="userSpaceOnUse" color-interpolation-filters="sRGB">
<feFlood flood-opacity="0" result="BackgroundImageFix"/>
<feColorMatrix in="SourceAlpha" type="matrix" values="0 0 0 0 0 0 0 0 0 0 0 0 0 0 0 0 0 0 127 0" result="hardAlpha"/>
<feOffset dy="2"/>
<feGaussianBlur stdDeviation="4"/>
<feColorMatrix type="matrix" values="0 0 0 0 0 0 0 0 0 0 0 0 0 0 0 0 0 0 0.1 0"/>
<feBlend mode="normal" in2="BackgroundImageFix" result="effect1_dropShadow_3360_34215"/>
<feBlend mode="normal" in="SourceGraphic" in2="effect1_dropShadow_3360_34215" result="shape"/>
</filter>
</defs>
</svg>
