<svg width="20" height="21" viewBox="0 0 20 21" fill="none" xmlns="http://www.w3.org/2000/svg">
<path d="M8.32789 12.3828L7.64821 13.1484C7.12459 13.6711 6.45779 14.0269 5.73205 14.1708C5.00632 14.3146 4.25422 14.2401 3.57081 13.9567C2.8874 13.6733 2.30333 13.1936 1.89243 12.5784C1.48152 11.9631 1.26221 11.2399 1.26221 10.5C1.26221 9.76015 1.48152 9.03689 1.89243 8.42163C2.30333 7.80638 2.8874 7.32673 3.57081 7.0433C4.25422 6.75987 5.00632 6.68538 5.73205 6.82924C6.45779 6.9731 7.12459 7.32886 7.64821 7.85156L12.3513 13.1484C12.8749 13.6711 13.5418 14.0269 14.2675 14.1708C14.9932 14.3146 15.7453 14.2401 16.4287 13.9567C17.1121 13.6733 17.6962 13.1936 18.1071 12.5784C18.518 11.9631 18.7373 11.2399 18.7373 10.5C18.7373 9.76015 18.518 9.03689 18.1071 8.42163C17.6962 7.80638 17.1121 7.32673 16.4287 7.0433C15.7453 6.75987 14.9932 6.68538 14.2675 6.82924C13.5418 6.9731 12.8749 7.32886 12.3513 7.85156L11.6716 8.61719" stroke="#2F3A4C" stroke-width="1.5" stroke-linecap="round" stroke-linejoin="round"/>
</svg>
