<svg width="21" height="21" viewBox="0 0 21 21" fill="none" xmlns="http://www.w3.org/2000/svg">
<path d="M19.1299 15.4716C19.1299 15.7716 19.0633 16.0799 18.9216 16.3799C18.7799 16.6799 18.5966 16.9633 18.3549 17.2299C17.9466 17.6799 17.4966 18.0049 16.9883 18.2133C16.4883 18.4216 15.9466 18.5299 15.3633 18.5299C14.5133 18.5299 13.6049 18.3299 12.6466 17.9216C11.6883 17.5133 10.7299 16.9633 9.77995 16.2716C8.81171 15.5634 7.89802 14.7834 7.04661 13.9383C6.20392 13.09 5.4267 12.179 4.72161 11.2133C4.03828 10.2633 3.48828 9.31328 3.08828 8.37161C2.68828 7.42161 2.48828 6.51328 2.48828 5.64661C2.48828 5.07995 2.58828 4.53828 2.78828 4.03828C2.98828 3.52995 3.30495 3.06328 3.74661 2.64661C4.27995 2.12161 4.86328 1.86328 5.47995 1.86328C5.71328 1.86328 5.94661 1.91328 6.15495 2.01328C6.37161 2.11328 6.56328 2.26328 6.71328 2.47995L8.64662 5.20495C8.79662 5.41328 8.90495 5.60495 8.97995 5.78828C9.05495 5.96328 9.09662 6.13828 9.09662 6.29661C9.09662 6.49661 9.03828 6.69661 8.92162 6.88828C8.81328 7.07995 8.65495 7.27995 8.45495 7.47995L7.82161 8.13828C7.72995 8.22995 7.68828 8.33828 7.68828 8.47161C7.68828 8.53828 7.69662 8.59661 7.71328 8.66328C7.73828 8.72995 7.76328 8.77995 7.77995 8.82995C7.92995 9.10495 8.18828 9.46328 8.55495 9.89661C8.92995 10.3299 9.32995 10.7716 9.76328 11.2133C10.2133 11.6549 10.6466 12.0633 11.0883 12.4383C11.5216 12.8049 11.8799 13.0549 12.1633 13.2049C12.2049 13.2216 12.2549 13.2466 12.3133 13.2716C12.3799 13.2966 12.4466 13.3049 12.5216 13.3049C12.6633 13.3049 12.7716 13.2549 12.8633 13.1633L13.4966 12.5383C13.7049 12.3299 13.9049 12.1716 14.0966 12.0716C14.2883 11.9549 14.4799 11.8966 14.6883 11.8966C14.8466 11.8966 15.0133 11.9299 15.1966 12.0049C15.3799 12.0799 15.5716 12.1883 15.7799 12.3299L18.5383 14.2883C18.7549 14.4383 18.9049 14.6133 18.9966 14.8216C19.0799 15.0299 19.1299 15.2383 19.1299 15.4716Z" stroke="#2F3A4C" stroke-width="1.5" stroke-miterlimit="10"/>
</svg>
