<svg width="24" height="24" viewBox="0 0 24 24" fill="none" xmlns="http://www.w3.org/2000/svg">
<path d="M11.9199 22C17.4199 22 21.9199 17.5 21.9199 12C21.9199 6.5 17.4199 2 11.9199 2C6.41992 2 1.91992 6.5 1.91992 12C1.91992 17.5 6.41992 22 11.9199 22Z" stroke="#294CFF" stroke-width="1.5" stroke-linecap="round" stroke-linejoin="round"/>
<g clip-path="url(#clip0_3228_36254)">
<path d="M12.6297 7.79962L8.52468 12.1446C8.36968 12.3096 8.21968 12.6346 8.18968 12.8596L8.00468 14.4796C7.93968 15.0646 8.35968 15.4646 8.93968 15.3646L10.5497 15.0896C10.7747 15.0496 11.0897 14.8846 11.2447 14.7146L15.3497 10.3696C16.0597 9.61962 16.3797 8.76462 15.2747 7.71962C14.1747 6.68462 13.3397 7.04962 12.6297 7.79962Z" stroke="#294CFF" stroke-width="1.5" stroke-miterlimit="10" stroke-linecap="round" stroke-linejoin="round"/>
<path d="M11.945 8.52539C12.0498 9.19582 12.3743 9.81246 12.8675 10.2785C13.3607 10.7446 13.9947 11.0337 14.67 11.1004M7.5 17.0004H16.5" stroke="#294CFF" stroke-width="1.5" stroke-miterlimit="10" stroke-linecap="round" stroke-linejoin="round"/>
</g>
<defs>
<clipPath id="clip0_3228_36254">
<rect width="12" height="12" fill="white" transform="translate(6 6)"/>
</clipPath>
</defs>
</svg>
