<svg width="40" height="40" viewBox="0 0 40 40" fill="none" xmlns="http://www.w3.org/2000/svg">
<path d="M17.5 26.8749H13.75C13.5842 26.8749 13.4253 26.8091 13.3081 26.6919C13.1909 26.5747 13.125 26.4157 13.125 26.2499V22.7577C13.1247 22.6766 13.1404 22.5962 13.1713 22.5211C13.2021 22.446 13.2474 22.3778 13.3047 22.3202L22.6797 12.9452C22.7378 12.8862 22.8072 12.8393 22.8836 12.8073C22.9601 12.7753 23.0421 12.7588 23.125 12.7588C23.2079 12.7588 23.2899 12.7753 23.3664 12.8073C23.4428 12.8393 23.5122 12.8862 23.5703 12.9452L27.0547 16.4296C27.1137 16.4878 27.1606 16.5571 27.1927 16.6335C27.2247 16.71 27.2411 16.792 27.2411 16.8749C27.2411 16.9578 27.2247 17.0399 27.1927 17.1163C27.1606 17.1928 27.1137 17.2621 27.0547 17.3202L17.5 26.8749Z" stroke="#294CFF" stroke-width="1.5" stroke-linecap="round" stroke-linejoin="round"/>
<path d="M20.625 15L25 19.375" stroke="#294CFF" stroke-width="1.5" stroke-linecap="round" stroke-linejoin="round"/>
<path d="M26.875 26.875H17.5" stroke="#294CFF" stroke-width="1.5" stroke-linecap="round" stroke-linejoin="round"/>
<rect x="0.5" y="0.5" width="39" height="39" rx="19.5" stroke="#294CFF"/>
</svg>
