<svg width="15" height="18" viewBox="0 0 15 18" fill="none" xmlns="http://www.w3.org/2000/svg">
<path d="M13.8203 8.46879L2.57812 1.59379C2.48349 1.53542 2.37499 1.50334 2.26382 1.50089C2.15265 1.49843 2.04284 1.52567 1.94571 1.57981C1.84859 1.63394 1.76766 1.71301 1.71128 1.80886C1.65491 1.9047 1.62512 2.01385 1.625 2.12504V15.875C1.62512 15.9862 1.65491 16.0954 1.71128 16.1912C1.76766 16.2871 1.84859 16.3661 1.94571 16.4203C2.04284 16.4744 2.15265 16.5017 2.26382 16.4992C2.37499 16.4967 2.48349 16.4647 2.57812 16.4063L13.8203 9.53129C13.9126 9.4767 13.9891 9.399 14.0423 9.30584C14.0954 9.21269 14.1233 9.10729 14.1233 9.00004C14.1233 8.8928 14.0954 8.7874 14.0423 8.69424C13.9891 8.60109 13.9126 8.52338 13.8203 8.46879V8.46879Z" stroke="#1C1C1C" stroke-width="1.5" stroke-linecap="round" stroke-linejoin="round"/>
</svg>
