<svg width="27" height="25" viewBox="0 0 27 25" fill="none" xmlns="http://www.w3.org/2000/svg">
<g opacity="0.4">
<path d="M23.0533 5.73C21.2942 5.57 19.5351 5.45 17.765 5.36V5.35L17.5247 4.05C17.3608 3.13 17.1204 1.75 14.5637 1.75H11.7011C9.15528 1.75 8.9149 3.07 8.74009 4.04L8.51064 5.32C7.49451 5.38 6.47838 5.44 5.46226 5.53L3.23333 5.73C2.77444 5.77 2.44665 6.14 2.49036 6.55C2.53406 6.96 2.9274 7.26 3.3863 7.22L5.61522 7.02C11.3405 6.5 17.1095 6.7 22.9003 7.23C22.9331 7.23 22.9549 7.23 22.9877 7.23C23.4029 7.23 23.7635 6.94 23.8072 6.55C23.84 6.14 23.5122 5.77 23.0533 5.73Z" fill="#292D32"/>
<path d="M21.0429 8.64C20.7807 8.39 20.4201 8.25 20.0486 8.25H6.23802C5.86653 8.25 5.49505 8.39 5.24375 8.64C4.99245 8.89 4.85041 9.23 4.87226 9.58L5.54968 19.84C5.66986 21.36 5.82283 23.26 9.63604 23.26H16.6506C20.4638 23.26 20.6168 21.37 20.737 19.84L21.4144 9.59C21.4362 9.23 21.2942 8.89 21.0429 8.64ZM14.957 18.25H11.3187C10.8707 18.25 10.4992 17.91 10.4992 17.5C10.4992 17.09 10.8707 16.75 11.3187 16.75H14.957C15.405 16.75 15.7765 17.09 15.7765 17.5C15.7765 17.91 15.405 18.25 14.957 18.25ZM15.8748 14.25H10.4118C9.96382 14.25 9.59233 13.91 9.59233 13.5C9.59233 13.09 9.96382 12.75 10.4118 12.75H15.8748C16.3228 12.75 16.6943 13.09 16.6943 13.5C16.6943 13.91 16.3228 14.25 15.8748 14.25Z" fill="#292D32"/>
</g>
</svg>
