<svg width="24" height="24" viewBox="0 0 24 24" fill="none" xmlns="http://www.w3.org/2000/svg">
<path d="M12 8.24985C12 6.18735 13.7344 4.47173 15.7969 4.49985C16.5192 4.50819 17.2237 4.72496 17.8258 5.12411C18.4278 5.52326 18.9018 6.08779 19.1906 6.74985H22.5L19.4719 9.77798C19.2765 12.8198 17.93 15.673 15.7061 17.7575C13.4823 19.842 10.5481 21.0014 7.50002 20.9999C4.50002 20.9999 3.75002 19.8749 3.75002 19.8749C3.75002 19.8749 6.75002 18.7499 8.25002 16.4999C8.25002 16.4999 2.25002 13.4999 3.75002 5.24985C3.75002 5.24985 7.50002 8.99985 12 9.74985V8.24985Z" stroke="#1C1C1C" stroke-width="1.5" stroke-linecap="round" stroke-linejoin="round"/>
</svg>
