<svg width="20" height="21" viewBox="0 0 20 21" fill="none" xmlns="http://www.w3.org/2000/svg">
<path d="M6.875 13C9.11866 13 10.9375 11.1812 10.9375 8.9375C10.9375 6.69384 9.11866 4.875 6.875 4.875C4.63134 4.875 2.8125 6.69384 2.8125 8.9375C2.8125 11.1812 4.63134 13 6.875 13Z" stroke="#2F3A4C" stroke-width="1.5" stroke-miterlimit="10"/>
<path d="M12.1406 5.02344C12.4997 4.92604 12.8701 4.87613 13.2422 4.875C14.3196 4.875 15.3529 5.30301 16.1148 6.06488C16.8767 6.82675 17.3047 7.86006 17.3047 8.9375C17.3047 10.0149 16.8767 11.0483 16.1148 11.8101C15.3529 12.572 14.3196 13 13.2422 13" stroke="#2F3A4C" stroke-width="1.5" stroke-linecap="round" stroke-linejoin="round"/>
<path d="M1.25 15.9219C1.88433 15.0192 2.72659 14.2825 3.70563 13.7739C4.68467 13.2653 5.77173 12.9998 6.875 12.9998C7.97827 12.9998 9.06533 13.2653 10.0444 13.7739C11.0234 14.2825 11.8657 15.0192 12.5 15.9219" stroke="#2F3A4C" stroke-width="1.5" stroke-linecap="round" stroke-linejoin="round"/>
<path d="M13.2422 13C14.3455 12.9993 15.4328 13.2645 16.412 13.7731C17.3911 14.2817 18.2333 15.0188 18.8672 15.9219" stroke="#2F3A4C" stroke-width="1.5" stroke-linecap="round" stroke-linejoin="round"/>
</svg>
