<svg width="20" height="21" viewBox="0 0 20 21" fill="none" xmlns="http://www.w3.org/2000/svg">
<path d="M10.442 17.5167H5.17533C2.54199 17.5167 1.66699 15.7667 1.66699 14.0084V6.99173C1.66699 4.3584 2.54199 3.4834 5.17533 3.4834H10.442C13.0753 3.4834 13.9503 4.3584 13.9503 6.99173V14.0084C13.9503 16.6417 13.067 17.5167 10.442 17.5167Z" stroke="#66768E" stroke-width="1.5" stroke-linecap="round" stroke-linejoin="round"/>
<path d="M16.2663 14.7501L13.9497 13.1251V7.86678L16.2663 6.24178C17.3997 5.45011 18.333 5.93344 18.333 7.32511V13.6751C18.333 15.0668 17.3997 15.5501 16.2663 14.7501ZM9.58301 9.66678C9.91453 9.66678 10.2325 9.53508 10.4669 9.30066C10.7013 9.06624 10.833 8.7483 10.833 8.41678C10.833 8.08526 10.7013 7.76731 10.4669 7.53289C10.2325 7.29847 9.91453 7.16678 9.58301 7.16678C9.25149 7.16678 8.93354 7.29847 8.69912 7.53289C8.4647 7.76731 8.33301 8.08526 8.33301 8.41678C8.33301 8.7483 8.4647 9.06624 8.69912 9.30066C8.93354 9.53508 9.25149 9.66678 9.58301 9.66678Z" stroke="#66768E" stroke-width="1.5" stroke-linecap="round" stroke-linejoin="round"/>
</svg>
