<svg width="120" height="64" viewBox="0 0 120 64" fill="none" xmlns="http://www.w3.org/2000/svg">
<ellipse cx="60" cy="32" rx="23.75" ry="23.75" stroke="#00C562" stroke-width="4"/>
<path d="M36.25 32C36.25 45.1168 46.8832 55.75 60 55.75C73.1168 55.75 83.75 45.1168 83.75 32C83.75 18.8832 73.1168 8.25 60 8.25" stroke="#00C562" stroke-width="4" stroke-linecap="round" stroke-linejoin="round"/>
<path d="M48.1761 27.2727V36H46.5951V28.8111H46.544L44.5028 30.1151V28.6662L46.6718 27.2727H48.1761ZM53.6178 36.1662C52.9161 36.1662 52.3138 35.9886 51.811 35.6335C51.311 35.2756 50.9261 34.7599 50.6562 34.0866C50.3891 33.4105 50.2556 32.5966 50.2556 31.6449C50.2585 30.6932 50.3934 29.8835 50.6604 29.2159C50.9303 28.5455 51.3153 28.0341 51.8153 27.6818C52.3181 27.3295 52.919 27.1534 53.6178 27.1534C54.3167 27.1534 54.9175 27.3295 55.4204 27.6818C55.9232 28.0341 56.3082 28.5455 56.5752 29.2159C56.8451 29.8864 56.98 30.696 56.98 31.6449C56.98 32.5994 56.8451 33.4148 56.5752 34.0909C56.3082 34.7642 55.9232 35.2784 55.4204 35.6335C54.9204 35.9886 54.3195 36.1662 53.6178 36.1662ZM53.6178 34.8324C54.1633 34.8324 54.5937 34.5639 54.909 34.027C55.2272 33.4872 55.3863 32.6932 55.3863 31.6449C55.3863 30.9517 55.3138 30.3693 55.169 29.8977C55.0241 29.4261 54.8195 29.071 54.5553 28.8324C54.2911 28.5909 53.9786 28.4702 53.6178 28.4702C53.0752 28.4702 52.6462 28.7401 52.3309 29.2798C52.0156 29.8168 51.8565 30.6051 51.8536 31.6449C51.8508 32.3409 51.9204 32.9261 52.0624 33.4006C52.2073 33.875 52.4119 34.233 52.6761 34.4744C52.9403 34.7131 53.2542 34.8324 53.6178 34.8324ZM61.6217 36.1662C60.92 36.1662 60.3178 35.9886 59.8149 35.6335C59.3149 35.2756 58.93 34.7599 58.6601 34.0866C58.393 33.4105 58.2595 32.5966 58.2595 31.6449C58.2624 30.6932 58.3973 29.8835 58.6643 29.2159C58.9342 28.5455 59.3192 28.0341 59.8192 27.6818C60.322 27.3295 60.9229 27.1534 61.6217 27.1534C62.3206 27.1534 62.9214 27.3295 63.4243 27.6818C63.9271 28.0341 64.3121 28.5455 64.5791 29.2159C64.849 29.8864 64.9839 30.696 64.9839 31.6449C64.9839 32.5994 64.849 33.4148 64.5791 34.0909C64.3121 34.7642 63.9271 35.2784 63.4243 35.6335C62.9243 35.9886 62.3234 36.1662 61.6217 36.1662ZM61.6217 34.8324C62.1672 34.8324 62.5976 34.5639 62.9129 34.027C63.2311 33.4872 63.3902 32.6932 63.3902 31.6449C63.3902 30.9517 63.3178 30.3693 63.1729 29.8977C63.028 29.4261 62.8234 29.071 62.5592 28.8324C62.295 28.5909 61.9825 28.4702 61.6217 28.4702C61.0791 28.4702 60.6501 28.7401 60.3348 29.2798C60.0195 29.8168 59.8604 30.6051 59.8575 31.6449C59.8547 32.3409 59.9243 32.9261 60.0663 33.4006C60.2112 33.875 60.4158 34.233 60.68 34.4744C60.9442 34.7131 61.2581 34.8324 61.6217 34.8324ZM71.066 34.3636V33.9034C71.066 33.5653 71.137 33.2543 71.279 32.9702C71.4239 32.6861 71.6342 32.4574 71.9097 32.2841C72.1853 32.1108 72.5191 32.0241 72.9111 32.0241C73.3146 32.0241 73.6526 32.1108 73.9254 32.2841C74.1981 32.4545 74.404 32.6818 74.5433 32.9659C74.6853 33.25 74.7563 33.5625 74.7563 33.9034V34.3636C74.7563 34.7017 74.6853 35.0128 74.5433 35.2969C74.4012 35.581 74.1924 35.8097 73.9168 35.983C73.6441 36.1563 73.3089 36.2429 72.9111 36.2429C72.5134 36.2429 72.1768 36.1563 71.9012 35.983C71.6256 35.8097 71.4168 35.581 71.2748 35.2969C71.1356 35.0128 71.066 34.7017 71.066 34.3636ZM72.1782 33.9034V34.3636C72.1782 34.5881 72.2322 34.794 72.3401 34.9815C72.4481 35.169 72.6384 35.2628 72.9111 35.2628C73.1867 35.2628 73.3756 35.1705 73.4779 34.9858C73.583 34.7983 73.6356 34.5909 73.6356 34.3636V33.9034C73.6356 33.6761 73.5859 33.4688 73.4864 33.2812C73.387 33.0909 73.1952 32.9957 72.9111 32.9957C72.6441 32.9957 72.4552 33.0909 72.3444 33.2812C72.2336 33.4688 72.1782 33.6761 72.1782 33.9034ZM66.6299 29.3693V28.9091C66.6299 28.5682 66.7023 28.2557 66.8472 27.9716C66.9921 27.6875 67.2023 27.4602 67.4779 27.2898C67.7535 27.1165 68.0873 27.0298 68.4793 27.0298C68.8799 27.0298 69.2165 27.1165 69.4893 27.2898C69.7648 27.4602 69.9722 27.6875 70.1114 27.9716C70.2506 28.2557 70.3202 28.5682 70.3202 28.9091V29.3693C70.3202 29.7102 70.2492 30.0227 70.1072 30.3068C69.968 30.5881 69.7606 30.8139 69.485 30.9844C69.2094 31.1548 68.8742 31.2401 68.4793 31.2401C68.0788 31.2401 67.7407 31.1548 67.4651 30.9844C67.1924 30.8139 66.985 30.5866 66.843 30.3026C66.7009 30.0185 66.6299 29.7074 66.6299 29.3693ZM67.7506 28.9091V29.3693C67.7506 29.5966 67.8032 29.804 67.9083 29.9915C68.0163 30.1761 68.2066 30.2685 68.4793 30.2685C68.7521 30.2685 68.9396 30.1761 69.0418 29.9915C69.1469 29.804 69.1995 29.5966 69.1995 29.3693V28.9091C69.1995 28.6818 69.1498 28.4744 69.0504 28.2869C68.9509 28.0966 68.7606 28.0014 68.4793 28.0014C68.2094 28.0014 68.0205 28.0966 67.9126 28.2869C67.8046 28.4773 67.7506 28.6847 67.7506 28.9091ZM67.1157 36L73.1157 27.2727H74.181L68.181 36H67.1157Z" fill="#C9D3DE"/>
</svg>
