<svg width="160" height="160" viewBox="0 0 160 160" fill="none" xmlns="http://www.w3.org/2000/svg">
<path d="M51.1023 88.3977C49.4356 88.3977 47.9347 88.0663 46.5994 87.4034C45.2642 86.7405 44.1941 85.8314 43.3892 84.6761C42.5843 83.5208 42.1439 82.2045 42.0682 80.7273H45.4773C45.6098 82.0436 46.2064 83.1326 47.267 83.9943C48.3371 84.8466 49.6155 85.2727 51.1023 85.2727C52.2955 85.2727 53.3561 84.9934 54.2841 84.4347C55.2216 83.8759 55.9555 83.1089 56.4858 82.1335C57.0256 81.1487 57.2955 80.036 57.2955 78.7955C57.2955 77.5265 57.0161 76.3949 56.4574 75.4006C55.9081 74.3968 55.1506 73.6061 54.1847 73.0284C53.2188 72.4508 52.1155 72.1572 50.875 72.1477C49.9848 72.1383 49.071 72.2756 48.1335 72.5597C47.196 72.8343 46.4242 73.1894 45.8182 73.625L42.5227 73.2273L44.2841 58.9091H59.3977V62.0341H47.2386L46.2159 70.6136H46.3864C46.983 70.1402 47.7311 69.7472 48.6307 69.4347C49.5303 69.1222 50.4678 68.9659 51.4432 68.9659C53.2235 68.9659 54.8097 69.392 56.2017 70.2443C57.6032 71.0871 58.7017 72.2424 59.4972 73.7102C60.3021 75.178 60.7045 76.8542 60.7045 78.7386C60.7045 80.5947 60.2879 82.2519 59.4545 83.7102C58.6307 85.1591 57.4943 86.3049 56.0455 87.1477C54.5966 87.9811 52.9489 88.3977 51.1023 88.3977ZM75.8359 88.3977C73.6958 88.3977 71.8729 87.8153 70.3672 86.6506C68.8615 85.4763 67.7109 83.7765 66.9155 81.5511C66.12 79.3163 65.7223 76.6174 65.7223 73.4545C65.7223 70.3106 66.12 67.6259 66.9155 65.4006C67.7204 63.1657 68.8757 61.4612 70.3814 60.2869C71.8965 59.1032 73.7147 58.5114 75.8359 58.5114C77.9571 58.5114 79.7706 59.1032 81.2763 60.2869C82.7914 61.4612 83.9467 63.1657 84.7422 65.4006C85.5471 67.6259 85.9496 70.3106 85.9496 73.4545C85.9496 76.6174 85.5518 79.3163 84.7564 81.5511C83.9609 83.7765 82.8104 85.4763 81.3047 86.6506C79.799 87.8153 77.9761 88.3977 75.8359 88.3977ZM75.8359 85.2727C77.9571 85.2727 79.6049 84.25 80.7791 82.2045C81.9534 80.1591 82.5405 77.2424 82.5405 73.4545C82.5405 70.9356 82.2706 68.7907 81.7308 67.0199C81.2005 65.2491 80.4335 63.8996 79.4297 62.9716C78.4354 62.0436 77.2375 61.5795 75.8359 61.5795C73.7337 61.5795 72.0907 62.6165 70.907 64.6903C69.7232 66.7547 69.1314 69.6761 69.1314 73.4545C69.1314 75.9735 69.3965 78.1136 69.9268 79.875C70.4571 81.6364 71.2195 82.9763 72.2138 83.8949C73.2176 84.8134 74.425 85.2727 75.8359 85.2727ZM106.177 82.5455V81.0114C106.177 79.9508 106.395 78.9801 106.83 78.0994C107.275 77.2093 107.919 76.4991 108.762 75.9688C109.614 75.429 110.647 75.1591 111.859 75.1591C113.09 75.1591 114.122 75.429 114.955 75.9688C115.789 76.4991 116.418 77.2093 116.844 78.0994C117.271 78.9801 117.484 79.9508 117.484 81.0114V82.5455C117.484 83.6061 117.266 84.5814 116.83 85.4716C116.404 86.3523 115.77 87.0625 114.927 87.6023C114.094 88.1326 113.071 88.3977 111.859 88.3977C110.628 88.3977 109.591 88.1326 108.748 87.6023C107.905 87.0625 107.266 86.3523 106.83 85.4716C106.395 84.5814 106.177 83.6061 106.177 82.5455ZM109.075 81.0114V82.5455C109.075 83.4261 109.283 84.2169 109.7 84.9176C110.116 85.6089 110.836 85.9545 111.859 85.9545C112.853 85.9545 113.554 85.6089 113.961 84.9176C114.378 84.2169 114.586 83.4261 114.586 82.5455V81.0114C114.586 80.1307 114.387 79.3447 113.989 78.6534C113.592 77.9527 112.881 77.6023 111.859 77.6023C110.864 77.6023 110.149 77.9527 109.714 78.6534C109.288 79.3447 109.075 80.1307 109.075 81.0114ZM91.6882 65.8977V64.3636C91.6882 63.303 91.906 62.3324 92.3416 61.4517C92.7867 60.5616 93.4306 59.8513 94.2734 59.321C95.1257 58.7812 96.1579 58.5114 97.37 58.5114C98.6011 58.5114 99.6333 58.7812 100.467 59.321C101.3 59.8513 101.93 60.5616 102.356 61.4517C102.782 62.3324 102.995 63.303 102.995 64.3636V65.8977C102.995 66.9583 102.777 67.9337 102.342 68.8239C101.915 69.7045 101.281 70.4148 100.438 70.9545C99.6049 71.4848 98.5821 71.75 97.37 71.75C96.139 71.75 95.102 71.4848 94.2592 70.9545C93.4164 70.4148 92.7772 69.7045 92.3416 68.8239C91.906 67.9337 91.6882 66.9583 91.6882 65.8977ZM94.5859 64.3636V65.8977C94.5859 66.7784 94.7943 67.5691 95.2109 68.2699C95.6276 68.9612 96.3473 69.3068 97.37 69.3068C98.3643 69.3068 99.0651 68.9612 99.4723 68.2699C99.889 67.5691 100.097 66.7784 100.097 65.8977V64.3636C100.097 63.483 99.8984 62.697 99.5007 62.0057C99.103 61.3049 98.3928 60.9545 97.37 60.9545C96.3757 60.9545 95.6607 61.3049 95.2251 62.0057C94.799 62.697 94.5859 63.483 94.5859 64.3636ZM92.7678 88L112.768 58.9091H116.006L96.0064 88H92.7678Z" fill="#F9F9F9"/>
<path d="M63.7955 103.364V115H62.3864V104.841H62.3182L59.4773 106.727V105.295L62.3864 103.364H63.7955ZM71.0739 115.159C70.3239 115.159 69.6553 115.03 69.0682 114.773C68.4848 114.515 68.0208 114.157 67.6761 113.699C67.3352 113.237 67.1496 112.701 67.1193 112.091H68.5511C68.5814 112.466 68.7102 112.79 68.9375 113.062C69.1648 113.331 69.4621 113.54 69.8295 113.688C70.197 113.835 70.6042 113.909 71.0511 113.909C71.5511 113.909 71.9943 113.822 72.3807 113.648C72.767 113.473 73.0701 113.231 73.2898 112.92C73.5095 112.61 73.6193 112.25 73.6193 111.841C73.6193 111.413 73.5133 111.036 73.3011 110.71C73.089 110.381 72.7784 110.123 72.3693 109.938C71.9602 109.752 71.4602 109.659 70.8693 109.659H69.9375V108.409H70.8693C71.3314 108.409 71.7367 108.326 72.0852 108.159C72.4375 107.992 72.7121 107.758 72.9091 107.455C73.1098 107.152 73.2102 106.795 73.2102 106.386C73.2102 105.992 73.1231 105.65 72.9489 105.358C72.7746 105.066 72.5284 104.839 72.2102 104.676C71.8958 104.513 71.5246 104.432 71.0966 104.432C70.6951 104.432 70.3163 104.506 69.9602 104.653C69.608 104.797 69.3201 105.008 69.0966 105.284C68.8731 105.557 68.7519 105.886 68.733 106.273H67.3693C67.392 105.663 67.5758 105.129 67.9205 104.67C68.2652 104.208 68.7159 103.848 69.2727 103.591C69.8333 103.333 70.4489 103.205 71.1193 103.205C71.839 103.205 72.4564 103.35 72.9716 103.642C73.4867 103.93 73.8826 104.311 74.1591 104.784C74.4356 105.258 74.5739 105.769 74.5739 106.318C74.5739 106.973 74.4015 107.532 74.0568 107.994C73.7159 108.456 73.2519 108.777 72.6648 108.955V109.045C73.3996 109.167 73.9735 109.479 74.3864 109.983C74.7992 110.483 75.0057 111.102 75.0057 111.841C75.0057 112.473 74.8333 113.042 74.4886 113.545C74.1477 114.045 73.6818 114.439 73.0909 114.727C72.5 115.015 71.8277 115.159 71.0739 115.159ZM81.4659 102.818L77.7159 116.75H76.4886L80.2386 102.818H81.4659ZM83.0327 115V113.977L86.8736 109.773C87.3243 109.28 87.6955 108.852 87.9872 108.489C88.2789 108.121 88.4948 107.777 88.6349 107.455C88.7789 107.129 88.8509 106.788 88.8509 106.432C88.8509 106.023 88.7524 105.669 88.5554 105.369C88.3622 105.07 88.0971 104.839 87.7599 104.676C87.4228 104.513 87.044 104.432 86.6236 104.432C86.1766 104.432 85.7865 104.525 85.4531 104.71C85.1236 104.892 84.8679 105.148 84.6861 105.477C84.508 105.807 84.419 106.193 84.419 106.636H83.0781C83.0781 105.955 83.2353 105.356 83.5497 104.841C83.8641 104.326 84.2921 103.924 84.8338 103.636C85.3793 103.348 85.991 103.205 86.669 103.205C87.3509 103.205 87.955 103.348 88.4815 103.636C89.008 103.924 89.4209 104.312 89.7202 104.801C90.0194 105.29 90.169 105.833 90.169 106.432C90.169 106.86 90.0914 107.278 89.9361 107.688C89.7846 108.093 89.5194 108.545 89.1406 109.045C88.7656 109.542 88.2448 110.148 87.5781 110.864L84.9645 113.659V113.75H90.3736V115H83.0327ZM96.5838 115.159C96.1065 115.152 95.6293 115.061 95.152 114.886C94.6747 114.712 94.2391 114.419 93.8452 114.006C93.4512 113.589 93.1349 113.027 92.8963 112.318C92.6577 111.606 92.5384 110.712 92.5384 109.636C92.5384 108.606 92.6349 107.693 92.8281 106.898C93.0213 106.098 93.3016 105.426 93.669 104.881C94.0365 104.331 94.4796 103.915 94.9986 103.631C95.5213 103.347 96.1103 103.205 96.7656 103.205C97.4171 103.205 97.9967 103.335 98.5043 103.597C99.0156 103.854 99.4323 104.214 99.7543 104.676C100.076 105.138 100.285 105.67 100.379 106.273H98.9929C98.8641 105.75 98.6141 105.316 98.2429 104.972C97.8717 104.627 97.3793 104.455 96.7656 104.455C95.8641 104.455 95.1539 104.847 94.6349 105.631C94.1198 106.415 93.8603 107.515 93.8565 108.932H93.9474C94.1596 108.61 94.4115 108.335 94.7031 108.108C94.9986 107.877 95.3243 107.699 95.6804 107.574C96.0365 107.449 96.4134 107.386 96.8111 107.386C97.4777 107.386 98.0876 107.553 98.6406 107.886C99.1937 108.216 99.6368 108.672 99.9702 109.256C100.304 109.835 100.47 110.5 100.47 111.25C100.47 111.97 100.309 112.629 99.9872 113.227C99.6652 113.822 99.2126 114.295 98.6293 114.648C98.0497 114.996 97.3679 115.167 96.5838 115.159ZM96.5838 113.909C97.0611 113.909 97.4891 113.79 97.8679 113.551C98.2505 113.312 98.5516 112.992 98.7713 112.591C98.9948 112.189 99.1065 111.742 99.1065 111.25C99.1065 110.769 98.9986 110.331 98.7827 109.938C98.5705 109.54 98.277 109.223 97.902 108.989C97.5308 108.754 97.1065 108.636 96.6293 108.636C96.2694 108.636 95.9342 108.708 95.6236 108.852C95.313 108.992 95.0402 109.186 94.8054 109.432C94.5743 109.678 94.3925 109.96 94.2599 110.278C94.1274 110.593 94.0611 110.924 94.0611 111.273C94.0611 111.735 94.169 112.167 94.3849 112.568C94.6046 112.97 94.9039 113.294 95.2827 113.54C95.6652 113.786 96.099 113.909 96.5838 113.909Z" fill="#E0E0E0"/>
<path d="M160 80C160 124.183 124.183 160 80 160C35.8172 160 0 124.183 0 80C0 35.8172 35.8172 0 80 0C124.183 0 160 35.8172 160 80ZM8.82417 80C8.82417 119.309 40.6907 151.176 80 151.176C119.309 151.176 151.176 119.309 151.176 80C151.176 40.6907 119.309 8.82417 80 8.82417C40.6907 8.82417 8.82417 40.6907 8.82417 80Z" fill="#515151"/>
<path d="M80 4.41208C80 1.97536 81.9773 -0.0126943 84.4103 0.121553C104.02 1.20349 122.608 9.47139 136.569 23.4315C151.571 38.4344 160 58.7827 160 80C160 101.217 151.571 121.566 136.569 136.569C122.608 150.529 104.02 158.797 84.4103 159.878C81.9773 160.013 80 158.025 80 155.588C80 153.151 81.9778 151.19 84.4098 151.039C101.678 149.968 118.024 142.634 130.329 130.329C143.677 116.981 151.176 98.877 151.176 80C151.176 61.123 143.677 43.0191 130.329 29.6711C118.024 17.3662 101.678 10.032 84.4098 8.96079C81.9778 8.80991 80 6.8488 80 4.41208Z" fill="#32BCA3"/>
</svg>
