<svg width="24" height="24" viewBox="0 0 24 24" fill="none" xmlns="http://www.w3.org/2000/svg">
<path fill-rule="evenodd" clip-rule="evenodd" d="M11 4.0621C8.98271 4.3188 7.13885 5.33403 5.84319 6.90146C4.54752 8.46888 3.89728 10.4709 4.02462 12.5005C4.15196 14.5302 5.04733 16.4352 6.52874 17.8284C8.01016 19.2216 9.96645 19.9984 12 20.0009C13.9486 20.0008 15.8302 19.2897 17.2917 18.0008C18.7533 16.7119 19.6942 14.9339 19.938 13.0005H12C11.7348 13.0005 11.4804 12.8952 11.2929 12.7076C11.1054 12.5201 11 12.2657 11 12.0005V4.0621ZM13 4.0621V11.0004H19.938C19.7154 9.23796 18.9129 7.59961 17.6568 6.34345C16.4007 5.08728 14.7624 4.2847 13 4.0621ZM2 12.0005C2 6.47722 6.477 2 12 2C17.523 2 22 6.47722 22 12.0005C22 17.5238 17.523 22.001 12 22.001C6.477 22.001 2 17.5238 2 12.0005Z" fill="#A5B4CB"/>
</svg>
