<svg width="24" height="24" viewBox="0 0 24 24" fill="none" xmlns="http://www.w3.org/2000/svg">
<path fill-rule="evenodd" clip-rule="evenodd" d="M16.0001 6.00006C15.2044 6.00006 14.4413 6.31614 13.8787 6.87878C13.3161 7.44142 13.0001 8.20451 13.0001 9.0002C13.0001 9.79589 13.3161 10.559 13.8787 11.1216C14.4413 11.6843 15.2044 12.0003 16.0001 12.0003C16.7957 12.0003 17.5588 11.6843 18.1214 11.1216C18.684 10.559 19.0001 9.79589 19.0001 9.0002C19.0001 8.20451 18.684 7.44142 18.1214 6.87878C17.5588 6.31614 16.7957 6.00006 16.0001 6.00006ZM11.0001 9.0002C11.0001 8.18512 11.1993 7.3824 11.5805 6.66193C11.9616 5.94146 12.5131 5.3251 13.1869 4.86651C13.8607 4.40791 14.6364 4.121 15.4464 4.03075C16.2565 3.9405 17.0763 4.04964 17.8345 4.34868C18.5927 4.64772 19.2663 5.12759 19.7967 5.7465C20.327 6.3654 20.6981 7.10459 20.8774 7.89968C21.0568 8.69478 21.0391 9.52167 20.8259 10.3084C20.6127 11.0951 20.2104 11.8177 19.6541 12.4134C21.3505 12.9653 22.8172 14.0621 23.8261 15.5335C23.9668 15.7527 24.0164 16.0181 23.9645 16.2734C23.9125 16.5286 23.763 16.7535 23.5478 16.9002C23.3326 17.0469 23.0686 17.1038 22.8121 17.0589C22.5555 17.014 22.3266 16.8707 22.1741 16.6596C21.1981 15.2275 19.4181 14.0004 17.0001 14.0004C13.1661 14.0004 11.0001 17.0746 11.0001 19.0007C11.0001 19.2659 10.8947 19.5203 10.7072 19.7078C10.5196 19.8954 10.2653 20.0007 10.0001 20.0007C9.73484 20.0007 9.48049 19.8954 9.29295 19.7078C9.10542 19.5203 9.00006 19.2659 9.00006 19.0007C9.00006 18.3087 9.15806 17.5706 9.46006 16.8436C9.38154 16.7927 9.31051 16.7311 9.24906 16.6606C8.42806 15.7265 7.15406 15.0005 5.50006 15.0005C3.84606 15.0005 2.57206 15.7265 1.75106 16.6606C1.57329 16.8494 1.32911 16.9618 1.07005 16.974C0.810993 16.9862 0.557322 16.8973 0.362572 16.726C0.167821 16.5548 0.0472247 16.3145 0.0262326 16.056C0.00524061 15.7975 0.085495 15.541 0.250059 15.3405C0.840576 14.6684 1.55664 14.1181 2.35806 13.7204C1.71777 13.0955 1.27828 12.2939 1.09573 11.418C0.913177 10.5421 0.995852 9.63166 1.33319 8.80297C1.67054 7.97428 2.24723 7.26497 2.98961 6.76562C3.732 6.26627 4.60638 5.99957 5.50106 5.99957C6.39574 5.99957 7.27012 6.26627 8.0125 6.76562C8.75489 7.26497 9.33158 7.97428 9.66892 8.80297C10.0063 9.63166 10.0889 10.5421 9.90639 11.418C9.72384 12.2939 9.28435 13.0955 8.64406 13.7204C9.33782 14.0648 9.96837 14.5239 10.5091 15.0785C11.1882 14.2238 12.0332 13.5153 12.9931 12.9954C12.3736 12.5298 11.871 11.9265 11.5251 11.233C11.1791 10.5396 10.9994 9.77514 11.0001 9.0002ZM3.00006 10.5003C3.00006 9.8372 3.26345 9.20129 3.73229 8.73242C4.20113 8.26356 4.83702 8.00015 5.50006 8.00015C6.1631 8.00015 6.79899 8.26356 7.26783 8.73242C7.73667 9.20129 8.00006 9.8372 8.00006 10.5003C8.00006 11.1634 7.73667 11.7993 7.26783 12.2681C6.79899 12.737 6.1631 13.0004 5.50006 13.0004C4.83702 13.0004 4.20113 12.737 3.73229 12.2681C3.26345 11.7993 3.00006 11.1634 3.00006 10.5003Z" fill="#A5B4CB"/>
</svg>
