<svg width="24" height="24" viewBox="0 0 24 24" fill="none" xmlns="http://www.w3.org/2000/svg">
<path d="M20.5 8H3.5M6 21H18C19.6569 21 21 19.6569 21 18V8C21 6.34315 19.6569 5 18 5H6C4.34315 5 3 6.34315 3 8V18C3 19.6569 4.34315 21 6 21Z" stroke="url(#paint0_linear_309_30006)" stroke-width="1.8" stroke-linecap="round"/>
<path d="M7.5 5V2.75" stroke="url(#paint1_linear_309_30006)" stroke-width="1.8" stroke-linecap="round" stroke-linejoin="round"/>
<path d="M16.5 5V2.75" stroke="url(#paint2_linear_309_30006)" stroke-width="1.8" stroke-linecap="round" stroke-linejoin="round"/>
<path d="M8.25 17.5H6.75M8.25 14.5H6.75M8.25 11.5H6.75M12.75 17.5H11.25M12.75 14.5H11.25M12.75 11.5H11.25M17.25 17.5H15.75M17.25 14.5H15.75M17.25 11.5H15.75" stroke="url(#paint3_linear_309_30006)" stroke-width="1.8" stroke-linecap="round"/>
<defs>
<linearGradient id="paint0_linear_309_30006" x1="6.18" y1="9.13793" x2="20.1733" y2="11.3593" gradientUnits="userSpaceOnUse">
<stop stop-color="#FF6262"/>
<stop offset="1" stop-color="#F37F14"/>
</linearGradient>
<linearGradient id="paint1_linear_309_30006" x1="7.67667" y1="3.3319" x2="8.47054" y2="3.38168" gradientUnits="userSpaceOnUse">
<stop stop-color="#FF6262"/>
<stop offset="1" stop-color="#F37F14"/>
</linearGradient>
<linearGradient id="paint2_linear_309_30006" x1="16.6767" y1="3.3319" x2="17.4705" y2="3.38168" gradientUnits="userSpaceOnUse">
<stop stop-color="#FF6262"/>
<stop offset="1" stop-color="#F37F14"/>
</linearGradient>
<linearGradient id="paint3_linear_309_30006" x1="8.605" y1="13.0517" x2="16.4925" y2="14.9994" gradientUnits="userSpaceOnUse">
<stop stop-color="#FF6262"/>
<stop offset="1" stop-color="#F37F14"/>
</linearGradient>
</defs>
</svg>
