<svg width="23" height="21" viewBox="0 0 23 21" fill="none" xmlns="http://www.w3.org/2000/svg">
<path fill-rule="evenodd" clip-rule="evenodd" d="M19.4421 0.603052C19.6095 0.685576 19.7506 0.813338 19.8492 0.971874C19.9478 1.13041 20.0001 1.31339 20.0001 1.5001V5.46529L20.8901 6.05932C21.539 6.49191 22.071 7.07803 22.439 7.76565C22.807 8.45326 22.9996 9.2211 22.9996 10.001C22.9996 10.7809 22.807 11.5488 22.439 12.2364C22.071 12.924 21.539 13.5101 20.8901 13.9427L20.0001 14.5357V17.5009C20.0002 17.686 19.9489 17.8675 19.8519 18.0252C19.7549 18.1829 19.6161 18.3106 19.4509 18.3941C19.2856 18.4775 19.1004 18.5135 18.916 18.4979C18.7315 18.4824 18.555 18.4159 18.4061 18.3059L18.4001 18.3009L18.3821 18.2879L18.3091 18.2339L18.0301 18.0339C17.7921 17.8659 17.4561 17.6319 17.0701 17.3739C16.2861 16.8518 15.3381 16.2628 14.5751 15.9058C13.1871 15.2558 11.7401 14.7727 10.6311 14.4507C10.2332 14.3352 9.83314 14.2275 9.43106 14.1277C9.04386 14.757 8.90251 15.5071 9.03408 16.2342C9.16565 16.9612 9.56089 17.6142 10.1441 18.0679C11.3771 19.0269 10.7001 21.001 9.14006 21.001H6.00006C5.80422 21.0012 5.61263 20.9439 5.44909 20.8361C5.28554 20.7284 5.15722 20.575 5.08006 20.395L4.70006 19.505C3.88015 17.5922 3.83782 15.4352 4.58206 13.4917L4.62706 13.3737C3.49716 13.0985 2.50731 12.4187 1.8448 11.4629C1.1823 10.5071 0.893105 9.34156 1.03193 8.18689C1.17076 7.03223 1.72799 5.9685 2.59817 5.19699C3.46835 4.42548 4.59113 3.9997 5.75406 4.00022H9.00006C9.02675 4.00015 9.05344 4.00115 9.08006 4.00322H9.08206L9.10006 4.00522L9.18706 4.00922C9.73499 4.02896 10.2836 4.01627 10.8301 3.97122C11.9041 3.88321 13.2881 3.6492 14.6041 3.08117C15.3591 2.75616 16.2941 2.17613 17.0741 1.6491C17.4883 1.3681 17.8961 1.07768 18.2971 0.77806L18.3691 0.724058L18.3871 0.710057L18.3911 0.707057C18.5391 0.593361 18.716 0.523363 18.9017 0.504983C19.0875 0.486603 19.2746 0.520573 19.4421 0.603052ZM8.00006 6.00031H5.75406C5.0583 6.00047 4.38838 6.26398 3.87894 6.73788C3.36951 7.21178 3.05831 7.86094 3.00791 8.55491C2.9575 9.24888 3.17161 9.93621 3.60721 10.4788C4.04282 11.0213 4.66762 11.3789 5.35606 11.4796L6.14106 11.5936L8.00006 11.8516V6.00031ZM10.0001 12.2086C10.3211 12.2886 10.7271 12.3966 11.1901 12.5316C12.3561 12.8696 13.9091 13.3867 15.4241 14.0947C16.2631 14.4877 17.2271 15.0828 18.0001 15.5918V3.43619C17.2291 3.95021 16.2581 4.54624 15.3961 4.91826C13.8131 5.60129 12.1961 5.86631 10.9951 5.96531C10.6231 5.99531 10.2881 6.01131 10.0001 6.01732V12.2076V12.2086ZM7.36806 13.7837L6.65006 13.6837L6.45006 14.2067C5.89165 15.6643 5.92322 17.2822 6.53806 18.7169L6.65906 19.0009H8.22906C7.61309 18.2982 7.20608 17.4372 7.0541 16.5151C6.90211 15.5931 7.01121 14.6469 7.36906 13.7837H7.36806ZM20.0001 12.1156C20.3126 11.8588 20.5644 11.536 20.7373 11.1703C20.9102 10.8045 20.9998 10.405 20.9998 10.0005C20.9998 9.59598 20.9102 9.19648 20.7373 8.83075C20.5644 8.46503 20.3126 8.14217 20.0001 7.88541V12.1156Z" fill="#A5B4CB"/>
</svg>
