<svg width="32" height="32" viewBox="0 0 32 32" fill="none" xmlns="http://www.w3.org/2000/svg">
<path fill-rule="evenodd" clip-rule="evenodd" d="M25.3874 12.1914C26.695 12.1914 27.7551 13.2514 27.7551 14.5591V25.6081C27.7551 26.9157 26.695 27.9757 25.3874 27.9757H19.0737C17.7661 27.9757 16.7061 26.9157 16.7061 25.6081V14.5591C16.7061 13.2514 17.7661 12.1914 19.0737 12.1914H25.3874ZM25.3874 13.7698H19.0737C18.6378 13.7698 18.2845 14.1232 18.2845 14.5591V25.6081C18.2845 26.0439 18.6378 26.3973 19.0737 26.3973H25.3874C25.8233 26.3973 26.1766 26.0439 26.1766 25.6081V14.5591C26.1766 14.1232 25.8233 13.7698 25.3874 13.7698ZM22.2306 23.2404C22.6664 23.2404 23.0198 23.5938 23.0198 24.0296C23.0198 24.4655 22.6664 24.8189 22.2306 24.8189C21.7947 24.8189 21.4413 24.4655 21.4413 24.0296C21.4413 23.5938 21.7947 23.2404 22.2306 23.2404Z" fill="#A5B4CB"/>
<path fill-rule="evenodd" clip-rule="evenodd" d="M16.154 23.9475C15.2072 23.9475 14.042 24.0956 13.1458 24.235C12.6908 24.3058 12.292 24.3766 12.0066 24.4297C11.8638 24.4562 11.749 24.4784 11.6693 24.4941L11.577 24.5125L11.5522 24.5175L11.5455 24.5189L11.5435 24.5193L11.5429 24.5194L11.5427 24.5195C11.5427 24.5195 11.5426 24.5195 11.7343 25.4498L11.5426 24.5195C11.0287 24.6254 10.698 25.1279 10.8039 25.6417C10.9098 26.1556 11.4122 26.4863 11.9261 26.3804L13.1458 24.235L11.9262 26.3804L11.9262 26.3804L11.9272 26.3802L11.932 26.3792L11.9528 26.375L12.0365 26.3583C12.1103 26.3438 12.2184 26.3228 12.3541 26.2976C12.6256 26.2471 13.0055 26.1797 13.438 26.1124C14.3167 25.9757 15.3614 25.8475 16.154 25.8475V23.9475Z" fill="#A5B4CB"/>
<path fill-rule="evenodd" clip-rule="evenodd" d="M5 18.9254V7.66663H5.01937H5.04368H5.06825H5.09307H5.11815H5.14349H5.16907H5.19491H5.22101H5.24735H5.27394H5.30078H5.32787H5.3552H5.38278H5.41061H5.43867H5.46698H5.49554H5.52433H5.55336H5.58263H5.61214H5.64188H5.67186H5.70207H5.73251H5.76319H5.7941H5.82524H5.85661H5.8882H5.92003H5.95208H5.98435H6.01685H6.04957H6.08251H6.11568H6.14906H6.18266H6.21648H6.25052H6.28477H6.31924H6.35393H6.38882H6.42393H6.45924H6.49477H6.53051H6.56645H6.6026H6.63895H6.67551H6.71228H6.74924H6.78641H6.82378H6.86135H6.89911H6.93708H6.97523H7.01359H7.05214H7.09088H7.12982H7.16894H7.20826H7.24777H7.28746H7.32734H7.36741H7.40766H7.4481H7.48872H7.52952H7.5705H7.61167H7.65301H7.69453H7.73623H7.7781H7.82015H7.86237H7.90477H7.94733H7.99007H8.03298H8.07606H8.1193H8.16271H8.20629H8.25003H8.29393H8.338H8.38223H8.42662H8.47117H8.51588H8.56075H8.60577H8.65095H8.69628H8.74177H8.7874H8.83319H8.87913H8.92522H8.97146H9.01785H9.06438H9.11106H9.15788H9.20484H9.25195H9.2992H9.34659H9.39412H9.44178H9.48959H9.53752H9.5856H9.63381H9.68215H9.73062H9.77923H9.82796H9.87682H9.92582H9.97494H10.0242H10.0735H10.123H10.1727H10.2224H10.2723H10.3222H10.3723H10.4225H10.4729H10.5233H10.5739H10.6246H10.6753H10.7262H10.7773H10.8284H10.8796H10.9309H10.9824H11.0339H11.0856H11.1373H11.1892H11.2412H11.2932H11.3454H11.3976H11.45H11.5024H11.555H11.6076H11.6604H11.7132H11.7661H11.8191H11.8722H11.9254H11.9787H12.032H12.0855H12.139H12.1926H12.2463H12.3001H12.3539H12.4079H12.4619H12.5159H12.5701H12.6243H12.6787H12.733H12.7875H12.842H12.8966H12.9513H13.006H13.0608H13.1157H13.1706H13.2256H13.2807H13.3358H13.391H13.4462H13.5015H13.5568H13.6122H13.6677H13.7232H13.7788H13.8344H13.8901H13.9458H14.0016H14.0574H14.1133H14.1692H14.2252H14.2812H14.3372H14.3933H14.4495H14.5056H14.5618H14.6181H14.6744H14.7307H14.7871H14.8435H14.8999H14.9563H15.0128H15.0693H15.1259H15.1825H15.2391H15.2957H15.3523H15.409H15.4657H15.5224H15.5792H15.6359H15.6927H15.7495H15.8063H15.8632H15.92H15.9769H16.0337H16.0906H16.1475H16.2044H16.2613H16.3182H16.3752H16.4321H16.489H16.5459H16.6029H16.6598H16.7168H16.7737H16.8306H16.8876H16.9445H17.0014H17.0584H17.1153H17.1722H17.2291H17.286H17.3428H17.3997H17.4565H17.5134H17.5702H17.627H17.6838H17.7406H17.7973H17.854H17.9107H17.9674H18.0241H18.0807H18.1374H18.1939H18.2505H18.307H18.3635H18.42H18.4764H18.5329H18.5892H18.6456H18.7019H18.7581H18.8144H18.8706H18.9267H18.9828H19.0389H19.0949H19.1509H19.2068H19.2627H19.3186H19.3744H19.4301H19.4858H19.5415H19.5971H19.6526H19.7081H19.7635H19.8189H19.8743H19.9295H19.9847H20.0399H20.095H20.15H20.2049H20.2598H20.3147H20.3694H20.4241H20.4788H20.5333H20.5878H20.6422H20.6966H20.7508H20.805H20.8592H20.9132H20.9672H21.0211H21.0749H21.1286H21.1822H21.2358H21.2893H21.3427H21.396H21.4492H21.5024H21.5554H21.6084H21.6613H21.714H21.7667H21.8193H21.8718H21.9242H21.9765H22.0287H22.0808H22.1328H22.1847H22.2365H22.2882H22.3398H22.3913H22.4427H22.494H22.5452H22.5962H22.6472H22.698H22.7488H22.7994H22.8499H22.9003H22.9505H23.0007H23.0507H23.1006H23.1504H23.2001H23.2497H23.2991H23.3484H23.3976H23.4466H23.4955H23.5443H23.593H23.6415H23.6899H23.7382H23.7863H23.8344H23.8822H23.93H23.9775H24.025H24.0723H24.1195H24.1665H24.2134H24.2602H24.3068H24.3532H24.3995H24.4457H24.4917H24.5376H24.5833H24.6288H24.6742H24.7195H24.7646H24.8095H24.8543H24.8989H24.9434H24.9877H25.0318H25.0758H25.1196H25.1633H25.2068H25.2501H25.2933H25.3363H25.3791H25.4217H25.4642H25.5065H25.5486H25.5906H25.6324H25.674H25.7154H25.7566H25.7977H25.8386H25.8793H25.9198H25.9602H26.0003H26.0403H26.0801H26.1197H26.1591H26.1983H26.2373H26.2762H26.3148H26.3533H26.3915H26.4296H26.4674H26.5051H26.5425H26.5798H26.6169H26.6537H26.6904H26.7268H26.7631H26.7991H26.835H26.8706H26.906H26.9412H26.9762H27.011H27.0456H27.0799H27.114H27.148H27.1817H27.2152H27.2484H27.2815H27.3078V12.2703C27.9166 12.7471 28.3078 13.4889 28.3078 14.322V20.9254C28.8601 20.9254 29.3078 20.4777 29.3078 19.9254V7.16663C29.3078 6.34012 28.6389 5.66663 27.8086 5.66663H27.7794H27.7501H27.7204H27.6906H27.6605H27.6302H27.5996H27.5688H27.5378H27.5066H27.4751H27.4434H27.4115H27.3793H27.3469H27.3143H27.2815H27.2484H27.2152H27.1817H27.148H27.114H27.0799H27.0456H27.011H26.9762H26.9412H26.906H26.8706H26.835H26.7991H26.7631H26.7268H26.6904H26.6537H26.6169H26.5798H26.5425H26.5051H26.4674H26.4296H26.3915H26.3533H26.3148H26.2762H26.2373H26.1983H26.1591H26.1197H26.0801H26.0403H26.0003H25.9602H25.9198H25.8793H25.8386H25.7977H25.7566H25.7154H25.674H25.6324H25.5906H25.5486H25.5065H25.4642H25.4217H25.3791H25.3363H25.2933H25.2501H25.2068H25.1633H25.1196H25.0758H25.0318H24.9877H24.9434H24.8989H24.8543H24.8095H24.7646H24.7195H24.6742H24.6288H24.5833H24.5376H24.4917H24.4457H24.3995H24.3532H24.3068H24.2602H24.2134H24.1665H24.1195H24.0723H24.025H23.9775H23.93H23.8822H23.8344H23.7863H23.7382H23.6899H23.6415H23.593H23.5443H23.4955H23.4466H23.3976H23.3484H23.2991H23.2497H23.2001H23.1504H23.1006H23.0507H23.0007H22.9505H22.9003H22.8499H22.7994H22.7488H22.698H22.6472H22.5962H22.5452H22.494H22.4427H22.3913H22.3398H22.2882H22.2365H22.1847H22.1328H22.0808H22.0287H21.9765H21.9242H21.8718H21.8193H21.7667H21.714H21.6613H21.6084H21.5554H21.5024H21.4492H21.396H21.3427H21.2893H21.2358H21.1822H21.1286H21.0749H21.0211H20.9672H20.9132H20.8592H20.805H20.7508H20.6966H20.6422H20.5878H20.5333H20.4788H20.4241H20.3694H20.3147H20.2598H20.2049H20.15H20.095H20.0399H19.9847H19.9295H19.8743H19.8189H19.7635H19.7081H19.6526H19.5971H19.5415H19.4858H19.4301H19.3744H19.3186H19.2627H19.2068H19.1509H19.0949H19.0389H18.9828H18.9267H18.8706H18.8144H18.7581H18.7019H18.6456H18.5892H18.5329H18.4764H18.42H18.3635H18.307H18.2505H18.1939H18.1374H18.0807H18.0241H17.9674H17.9107H17.854H17.7973H17.7406H17.6838H17.627H17.5702H17.5134H17.4565H17.3997H17.3428H17.286H17.2291H17.1722H17.1153H17.0584H17.0014H16.9445H16.8876H16.8306H16.7737H16.7168H16.6598H16.6029H16.5459H16.489H16.4321H16.3752H16.3182H16.2613H16.2044H16.1475H16.0906H16.0337H15.9769H15.92H15.8632H15.8063H15.7495H15.6927H15.6359H15.5792H15.5224H15.4657H15.409H15.3523H15.2957H15.2391H15.1825H15.1259H15.0693H15.0128H14.9563H14.8999H14.8435H14.7871H14.7307H14.6744H14.6181H14.5618H14.5056H14.4495H14.3933H14.3372H14.2812H14.2252H14.1692H14.1133H14.0574H14.0016H13.9458H13.8901H13.8344H13.7788H13.7232H13.6677H13.6122H13.5568H13.5015H13.4462H13.391H13.3358H13.2807H13.2256H13.1706H13.1157H13.0608H13.006H12.9513H12.8966H12.842H12.7875H12.733H12.6787H12.6243H12.5701H12.5159H12.4619H12.4079H12.3539H12.3001H12.2463H12.1926H12.139H12.0855H12.032H11.9787H11.9254H11.8722H11.8191H11.7661H11.7132H11.6604H11.6076H11.555H11.5024H11.45H11.3976H11.3454H11.2932H11.2412H11.1892H11.1373H11.0856H11.0339H10.9824H10.9309H10.8796H10.8284H10.7773H10.7262H10.6753H10.6246H10.5739H10.5233H10.4729H10.4225H10.3723H10.3222H10.2723H10.2224H10.1727H10.123H10.0735H10.0242H9.97494H9.92582H9.87682H9.82796H9.77923H9.73062H9.68215H9.63381H9.5856H9.53752H9.48959H9.44178H9.39412H9.34659H9.2992H9.25195H9.20484H9.15788H9.11106H9.06438H9.01785H8.97146H8.92522H8.87913H8.83319H8.7874H8.74177H8.69628H8.65095H8.60577H8.56075H8.51588H8.47117H8.42662H8.38223H8.338H8.29393H8.25003H8.20629H8.16271H8.1193H8.07606H8.03298H7.99007H7.94733H7.90477H7.86237H7.82015H7.7781H7.73623H7.69453H7.65301H7.61167H7.5705H7.52952H7.48872H7.4481H7.40766H7.36741H7.32734H7.28746H7.24777H7.20826H7.16894H7.12982H7.09088H7.05214H7.01359H6.97523H6.93708H6.89911H6.86135H6.82378H6.78641H6.74924H6.71228H6.67551H6.63895H6.6026H6.56645H6.53051H6.49477H6.45924H6.42393H6.38882H6.35393H6.31924H6.28477H6.25052H6.21648H6.18266H6.14906H6.11568H6.08251H6.04957H6.01685H5.98435H5.95208H5.92003H5.8882H5.85661H5.82524H5.7941H5.76319H5.73251H5.70207H5.67186H5.64188H5.61214H5.58263H5.55336H5.52433H5.49554H5.46698H5.43867H5.41061H5.38278H5.3552H5.32787H5.30078H5.27394H5.24735H5.22101H5.19491H5.16907H5.14349H5.11815H5.09307H5.06825H5.04368H5.01937H4.99532H4.97153H4.948H4.92473H4.90173H4.87898H4.85651H4.8343H4.81235H4.79068H4.76927H4.74813H4.72727H4.70667H4.68635H4.6663H4.64653H4.62704H4.60782H4.58888H4.57021H4.55183H4.53373H4.51591H4.49838C3.66573 5.66663 3 6.34243 3 7.16663V19.4254C3 20.2443 3.65841 20.9254 4.49636 20.9254H4.50552H4.51477H4.5241H4.5335H4.54298H4.55254H4.56217H4.57189H4.58168H4.59155H4.60149H4.61152H4.62162H4.63179H4.64205H4.65237H4.66278H4.67326H4.68382H4.69445H4.70516H4.71595H4.72681H4.73774H4.74875H4.75984H4.771H4.78223H4.79354H4.80492H4.81638H4.82791H4.83952H4.8512H4.86295H4.87478H4.88668H4.89865H4.9107H4.92281H4.93501H4.94727H4.95961H4.97201H4.98449H4.99705H5.00967H5.02237H5.03513H5.04797H5.06088H5.07386H5.08692H5.10004H5.11323H5.1265H5.13983H5.15323H5.16671H5.18025H5.19387H5.20755H5.2213H5.23513H5.24902H5.26298H5.27701H5.2911H5.30527H5.31951H5.33381H5.34818H5.36262H5.37713H5.3917H5.40634H5.42105H5.43583H5.45067H5.46558H5.48056H5.4956H5.51071H5.52589H5.54113H5.55644H5.57181H5.58726H5.60276H5.61833H5.63397H5.64967H5.66544H5.68127H5.69716H5.71312H5.72915H5.74524H5.76139H5.77761H5.79389H5.81024H5.82664H5.84311H5.85965H5.87625H5.89291H5.90963H5.92642H5.94326H5.96018H5.97715H5.99418H6.01128H6.02844H6.04566H6.06294H6.08028H6.09768H6.11515H6.13268H6.15026H6.16791H6.18561H6.20338H6.22121H6.2391H6.25704H6.27505H6.29312H6.31124H6.32942H6.34767H6.36597H6.38433H6.40275H6.42123H6.43977H6.45836H6.47701H6.49572H6.51449H6.53332H6.5522H6.57114H6.59014H6.60919H6.6283H6.64747H6.6667H6.68598H6.70531H6.72471H6.74415H6.76366H6.78322H6.80283H6.8225H6.84223H6.86201H6.88185H6.90174H6.92168H6.94168H6.96174H6.98185H7.00201H7.02222H7.04249H7.06282H7.08319H7.10362H7.1241H7.14464H7.16523H7.18587H7.20656H7.22731H7.24811H7.26896H7.28986H7.31081H7.33182H7.35288H7.37398H7.39514H7.41635H7.43762H7.45893H7.48029H7.5017H7.52317H7.54468H7.56624H7.58786H7.60952H7.63123H7.65299H7.6748H7.69666H7.71857H7.74053H7.76254H7.78459H7.80669H7.82884H7.85104H7.87329H7.89559H7.91793H7.94032H7.96275H7.98524H8.00777H8.03035H8.05297H8.07564H8.09836H8.12113H8.14394H8.16679H8.18969H8.21264H8.23564H8.25867H8.28176H8.30489H8.32806H8.35128H8.37454H8.39785H8.4212H8.4446H8.46804H8.49152H8.51505H8.53862H8.56223H8.58589H8.60959H8.63334H8.65712H8.68095H8.70482H8.72874H8.7527H8.77669H8.80074H8.82482H8.84894H8.87311H8.89731H8.92156H8.94585H8.97018H8.99455H9.01896H9.04342H9.06791H9.09244H9.11701H9.14163H9.16628H9.19097H9.2157H9.24047H9.26528H9.29013H9.31502H9.33994H9.36491H9.38991H9.41495H9.44003H9.46515H9.4903H9.51549H9.54072H9.56599H9.5913H9.61664H9.64201H9.66743H9.69288H9.71837H9.74389H9.76946H9.79505H9.82068H9.84635H9.87206H9.8978H9.92357H9.94938H9.97522H10.0011H10.027H10.053H10.0789H10.105H10.131H10.1571H10.1832H10.2094H10.2356H10.2618H10.288H10.3143H10.3406H10.367H10.3934H10.4198H10.4462H10.4727H10.4992H10.5258H10.5523H10.579H10.6056H10.6323H10.659H10.6857H10.7125H10.7393H10.7661H10.7929H10.8198H10.8467H10.8737H10.9007H10.9277H10.9547H10.9818H11.0088H11.036H11.0631H11.0903H11.1175H11.1447H11.172H11.1993H11.2266H11.254H11.2813H11.3087H11.3362H11.3636H11.3911H11.4186H11.4462H11.4737H11.5013H11.5289H11.5566H11.5843H11.6119H11.6397H11.6674H11.6952H11.723H11.7508H11.7787H11.8065H11.8344H11.8624H11.8903H11.9183H11.9463H11.9743H12.0023H12.0304H12.0585H12.0866H12.1147H12.1429H12.1711H12.1993H12.2275H12.2558H12.284H12.3123H12.3407H12.369H12.3974H12.4257H12.4541H12.4826H12.511H12.5395H12.568H12.5965H12.625H12.6536H12.6821H12.7107H12.7393H12.768H12.7966H12.8253H12.854H12.8827H12.9114H12.9402H12.9689H12.9977H13.0265H13.0553H13.0842H13.113H13.1419H13.1708H13.1997H13.2286H13.2576H13.2865H13.3155H13.3445H13.3735H13.4025H13.4316H13.4606H13.4897H13.5188H13.5479H13.577H13.6062H13.6353H13.6645H13.6937H13.7229H13.7521H13.7813H13.8106H13.8398H13.8691H13.8984H13.9277H13.957H13.9864H14.0157H14.045H14.0744H14.1038H14.1332H14.1626H14.192H14.2214H14.2509H14.2803H14.3098H14.3393H14.3688H14.3983H14.4278H14.4573H14.4869H14.5164H14.546H14.5755H14.6051H14.6347H14.6643H14.6939H14.7235H14.7532H14.7828H14.8124H14.8421H14.8718H14.9014H14.9311H14.9608H14.9905H15.0202H15.0499H15.0797H15.1094H15.1391H15.1689H15.1987H15.2284H15.2582H15.288H15.3178H15.3475H15.3773H15.4071H15.437H15.4668H15.4966H15.5264H15.5563H15.5861H15.6159H15.6458H15.6757H15.7055H15.7354H15.7653H15.7951H15.825H15.8549H15.8848H15.9147H15.9446H15.9745H16.0044H16.0343H16.0642H16.0941H16.124H16.1539V18.9254H16.124H16.0941H16.0642H16.0343H16.0044H15.9745H15.9446H15.9147H15.8848H15.8549H15.825H15.7951H15.7653H15.7354H15.7055H15.6757H15.6458H15.6159H15.5861H15.5563H15.5264H15.4966H15.4668H15.437H15.4071H15.3773H15.3475H15.3178H15.288H15.2582H15.2284H15.1987H15.1689H15.1391H15.1094H15.0797H15.0499H15.0202H14.9905H14.9608H14.9311H14.9014H14.8718H14.8421H14.8124H14.7828H14.7532H14.7235H14.6939H14.6643H14.6347H14.6051H14.5755H14.546H14.5164H14.4869H14.4573H14.4278H14.3983H14.3688H14.3393H14.3098H14.2803H14.2509H14.2214H14.192H14.1626H14.1332H14.1038H14.0744H14.045H14.0157H13.9864H13.957H13.9277H13.8984H13.8691H13.8398H13.8106H13.7813H13.7521H13.7229H13.6937H13.6645H13.6353H13.6062H13.577H13.5479H13.5188H13.4897H13.4606H13.4316H13.4025H13.3735H13.3445H13.3155H13.2865H13.2576H13.2286H13.1997H13.1708H13.1419H13.113H13.0842H13.0553H13.0265H12.9977H12.9689H12.9402H12.9114H12.8827H12.854H12.8253H12.7966H12.768H12.7393H12.7107H12.6821H12.6536H12.625H12.5965H12.568H12.5395H12.511H12.4826H12.4541H12.4257H12.3974H12.369H12.3407H12.3123H12.284H12.2558H12.2275H12.1993H12.1711H12.1429H12.1147H12.0866H12.0585H12.0304H12.0023H11.9743H11.9463H11.9183H11.8903H11.8624H11.8344H11.8065H11.7787H11.7508H11.723H11.6952H11.6674H11.6397H11.6119H11.5843H11.5566H11.5289H11.5013H11.4737H11.4462H11.4186H11.3911H11.3636H11.3362H11.3087H11.2813H11.254H11.2266H11.1993H11.172H11.1447H11.1175H11.0903H11.0631H11.036H11.0088H10.9818H10.9547H10.9277H10.9007H10.8737H10.8467H10.8198H10.7929H10.7661H10.7393H10.7125H10.6857H10.659H10.6323H10.6056H10.579H10.5523H10.5258H10.4992H10.4727H10.4462H10.4198H10.3934H10.367H10.3406H10.3143H10.288H10.2618H10.2356H10.2094H10.1832H10.1571H10.131H10.105H10.0789H10.053H10.027H10.0011H9.97522H9.94938H9.92357H9.8978H9.87206H9.84635H9.82068H9.79505H9.76946H9.74389H9.71837H9.69288H9.66743H9.64201H9.61664H9.5913H9.56599H9.54072H9.51549H9.4903H9.46515H9.44003H9.41495H9.38991H9.36491H9.33994H9.31502H9.29013H9.26528H9.24047H9.2157H9.19097H9.16628H9.14163H9.11701H9.09244H9.06791H9.04342H9.01896H8.99455H8.97018H8.94585H8.92156H8.89731H8.87311H8.84894H8.82482H8.80074H8.77669H8.7527H8.72874H8.70482H8.68095H8.65712H8.63334H8.60959H8.58589H8.56223H8.53862H8.51505H8.49152H8.46804H8.4446H8.4212H8.39785H8.37454H8.35128H8.32806H8.30489H8.28176H8.25867H8.23564H8.21264H8.18969H8.16679H8.14394H8.12113H8.09836H8.07564H8.05297H8.03035H8.00777H7.98524H7.96275H7.94032H7.91793H7.89559H7.87329H7.85104H7.82884H7.80669H7.78459H7.76254H7.74053H7.71857H7.69666H7.6748H7.65299H7.63123H7.60952H7.58786H7.56624H7.54468H7.52317H7.5017H7.48029H7.45893H7.43762H7.41635H7.39514H7.37398H7.35288H7.33182H7.31081H7.28986H7.26896H7.24811H7.22731H7.20656H7.18587H7.16523H7.14464H7.1241H7.10362H7.08319H7.06282H7.04249H7.02222H7.00201H6.98185H6.96174H6.94168H6.92168H6.90174H6.88185H6.86201H6.84223H6.8225H6.80283H6.78322H6.76366H6.74415H6.72471H6.70531H6.68598H6.6667H6.64747H6.6283H6.60919H6.59014H6.57114H6.5522H6.53332H6.51449H6.49572H6.47701H6.45836H6.43977H6.42123H6.40275H6.38433H6.36597H6.34767H6.32942H6.31124H6.29312H6.27505H6.25704H6.2391H6.22121H6.20338H6.18561H6.16791H6.15026H6.13268H6.11515H6.09768H6.08028H6.06294H6.04566H6.02844H6.01128H5.99418H5.97715H5.96018H5.94326H5.92642H5.90963H5.89291H5.87625H5.85965H5.84311H5.82664H5.81024H5.79389H5.77761H5.76139H5.74524H5.72915H5.71312H5.69716H5.68127H5.66544H5.64967H5.63397H5.61833H5.60276H5.58726H5.57181H5.55644H5.54113H5.52589H5.51071H5.4956H5.48056H5.46558H5.45067H5.43583H5.42105H5.40634H5.3917H5.37713H5.36262H5.34818H5.33381H5.31951H5.30527H5.2911H5.27701H5.26298H5.24902H5.23513H5.2213H5.20755H5.19387H5.18025H5.16671H5.15323H5.13983H5.1265H5.11323H5.10004H5.08692H5.07386H5.06088H5.04797H5.03513H5.02237H5.00967H5Z" fill="#A5B4CB"/>
</svg>
