<svg width="65" height="64" viewBox="0 0 65 64" fill="none" xmlns="http://www.w3.org/2000/svg">
<rect x="0.5" y="0.000183105" width="64" height="64" rx="20" fill="url(#paint0_linear_351_3866)" fill-opacity="0.2"/>
<path d="M20.5 32.0002C20.5 26.9719 20.5 24.4577 22.0621 22.8956C23.6242 21.3335 26.1384 21.3335 31.1667 21.3335H34.5C38.8833 21.3335 41.075 21.3335 42.5501 22.5441C42.8201 22.7657 43.0678 23.0134 43.2894 23.2834C44.5 24.7585 44.5 26.9502 44.5 31.3335V31.3335C44.5 35.7168 44.5 37.9085 43.2894 39.3836C43.0678 39.6536 42.8201 39.9013 42.5501 40.1229C41.075 41.3335 38.8833 41.3335 34.5 41.3335H28.903C28.0568 41.3335 27.6338 41.3335 27.2298 41.3958C26.3833 41.5263 25.5807 41.8587 24.8899 42.365C24.5602 42.6066 24.2611 42.9058 23.6628 43.5041V43.5041C22.9249 44.242 22.5559 44.6109 22.261 44.7108C21.6279 44.9251 20.934 44.6377 20.6379 44.0385C20.5 43.7593 20.5 43.2375 20.5 42.194V32.0002Z" stroke="url(#paint1_linear_351_3866)" stroke-width="2.4" stroke-linejoin="round"/>
<circle cx="26.5" cy="31.3335" r="1" stroke="url(#paint2_linear_351_3866)" stroke-width="2"/>
<circle cx="32.5" cy="31.3335" r="1" stroke="url(#paint3_linear_351_3866)" stroke-width="2"/>
<circle cx="38.5" cy="31.3335" r="1" stroke="url(#paint4_linear_351_3866)" stroke-width="2"/>
<defs>
<linearGradient id="paint0_linear_351_3866" x1="11.8067" y1="16.5519" x2="61.8188" y2="23.6089" gradientUnits="userSpaceOnUse">
<stop stop-color="#FF6262"/>
<stop offset="1" stop-color="#F37F14"/>
</linearGradient>
<linearGradient id="paint1_linear_351_3866" x1="24.74" y1="27.8852" x2="43.5321" y2="30.3973" gradientUnits="userSpaceOnUse">
<stop stop-color="#FF6262"/>
<stop offset="1" stop-color="#F37F14"/>
</linearGradient>
<linearGradient id="paint2_linear_351_3866" x1="25.2067" y1="30.368" x2="28.3324" y2="30.809" gradientUnits="userSpaceOnUse">
<stop stop-color="#FF6262"/>
<stop offset="1" stop-color="#F37F14"/>
</linearGradient>
<linearGradient id="paint3_linear_351_3866" x1="31.2067" y1="30.368" x2="34.3324" y2="30.809" gradientUnits="userSpaceOnUse">
<stop stop-color="#FF6262"/>
<stop offset="1" stop-color="#F37F14"/>
</linearGradient>
<linearGradient id="paint4_linear_351_3866" x1="37.2067" y1="30.368" x2="40.3324" y2="30.809" gradientUnits="userSpaceOnUse">
<stop stop-color="#FF6262"/>
<stop offset="1" stop-color="#F37F14"/>
</linearGradient>
</defs>
</svg>
