<svg width="65" height="64" viewBox="0 0 65 64" fill="none" xmlns="http://www.w3.org/2000/svg">
<rect x="0.5" y="0.000183105" width="64" height="64" rx="20" fill="url(#paint0_linear_351_3870)" fill-opacity="0.2"/>
<path d="M21.833 32.0002V42.6669C21.833 43.3741 22.114 44.0524 22.6141 44.5525C23.1142 45.0526 23.7924 45.3335 24.4997 45.3335H40.4997C41.2069 45.3335 41.8852 45.0526 42.3853 44.5525C42.8854 44.0524 43.1663 43.3741 43.1663 42.6669V32.0002" stroke="url(#paint1_linear_351_3870)" stroke-width="2.66667" stroke-linecap="round" stroke-linejoin="round"/>
<path d="M37.8337 24.0002L32.5003 18.6669L27.167 24.0002" stroke="url(#paint2_linear_351_3870)" stroke-width="2.66667" stroke-linecap="round" stroke-linejoin="round"/>
<path d="M32.5 18.6669V36.0002" stroke="url(#paint3_linear_351_3870)" stroke-width="2.66667" stroke-linecap="round" stroke-linejoin="round"/>
<defs>
<linearGradient id="paint0_linear_351_3870" x1="11.8067" y1="16.5519" x2="61.8188" y2="23.6089" gradientUnits="userSpaceOnUse">
<stop stop-color="#FF6262"/>
<stop offset="1" stop-color="#F37F14"/>
</linearGradient>
<linearGradient id="paint1_linear_351_3870" x1="25.6019" y1="35.4485" x2="41.7799" y2="39.101" gradientUnits="userSpaceOnUse">
<stop stop-color="#FF6262"/>
<stop offset="1" stop-color="#F37F14"/>
</linearGradient>
<linearGradient id="paint2_linear_351_3870" x1="29.0514" y1="20.0462" x2="36.9256" y2="22.2684" gradientUnits="userSpaceOnUse">
<stop stop-color="#FF6262"/>
<stop offset="1" stop-color="#F37F14"/>
</linearGradient>
<linearGradient id="paint3_linear_351_3870" x1="32.6767" y1="23.1496" x2="33.4736" y2="23.1561" gradientUnits="userSpaceOnUse">
<stop stop-color="#FF6262"/>
<stop offset="1" stop-color="#F37F14"/>
</linearGradient>
</defs>
</svg>
