<svg width="25" height="24" viewBox="0 0 25 24" fill="none" xmlns="http://www.w3.org/2000/svg">
<path fill-rule="evenodd" clip-rule="evenodd" d="M7.0303 15.5776C5.5073 14.2686 4.4203 12.7736 3.9093 12.0006C4.4193 11.2276 5.5073 9.73261 7.0303 8.42361C8.6033 7.07261 10.5453 6.00061 12.7293 6.00061C14.9133 6.00061 16.8553 7.07261 18.4283 8.42361C19.9513 9.73261 21.0383 11.2276 21.5493 12.0006C21.0393 12.7736 19.9513 14.2686 18.4283 15.5776C16.8553 16.9286 14.9133 18.0006 12.7293 18.0006C10.5453 18.0006 8.6033 16.9286 7.0303 15.5776ZM12.7293 4.00061C9.8773 4.00061 7.4863 5.39561 5.7273 6.90661C3.9623 8.42361 2.7373 10.1386 2.1933 10.9706C1.99233 11.2765 1.88525 11.6346 1.88525 12.0006C1.88525 12.3666 1.99233 12.7247 2.1933 13.0306C2.7373 13.8626 3.9623 15.5776 5.7273 17.0946C7.4873 18.6056 9.8773 20.0006 12.7293 20.0006C15.5813 20.0006 17.9723 18.6056 19.7313 17.0946C21.4963 15.5776 22.7213 13.8626 23.2653 13.0306C23.6763 12.4026 23.6763 11.5996 23.2653 10.9706C22.7213 10.1386 21.4963 8.42361 19.7313 6.90661C17.9713 5.39561 15.5813 4.00061 12.7293 4.00061ZM10.7293 12.0006C10.7293 11.4702 10.94 10.9615 11.3151 10.5864C11.6902 10.2113 12.1989 10.0006 12.7293 10.0006C13.2597 10.0006 13.7684 10.2113 14.1435 10.5864C14.5186 10.9615 14.7293 11.4702 14.7293 12.0006C14.7293 12.531 14.5186 13.0398 14.1435 13.4148C13.7684 13.7899 13.2597 14.0006 12.7293 14.0006C12.1989 14.0006 11.6902 13.7899 11.3151 13.4148C10.94 13.0398 10.7293 12.531 10.7293 12.0006ZM12.7293 8.00061C11.6684 8.00061 10.651 8.42204 9.90087 9.17218C9.15073 9.92233 8.7293 10.9397 8.7293 12.0006C8.7293 13.0615 9.15073 14.0789 9.90087 14.829C10.651 15.5792 11.6684 16.0006 12.7293 16.0006C13.7902 16.0006 14.8076 15.5792 15.5577 14.829C16.3079 14.0789 16.7293 13.0615 16.7293 12.0006C16.7293 10.9397 16.3079 9.92233 15.5577 9.17218C14.8076 8.42204 13.7902 8.00061 12.7293 8.00061Z" fill="#A5B4CB"/>
</svg>
