<svg width="25" height="25" viewBox="0 0 25 25" fill="none" xmlns="http://www.w3.org/2000/svg">
<circle cx="12.5" cy="12.5002" r="12.5" fill="#727DFF"/>
<g clip-path="url(#clip0_351_3912)">
<path d="M22 12.5583C22 7.27953 17.7467 3.00024 12.5 3.00024C7.25329 3.00024 3 7.27953 3 12.5583C3 17.3289 6.47399 21.2832 11.0156 22.0002V15.3212L8.60352 15.3212L8.60352 12.5583L11.0156 12.5583L11.0156 10.4525C11.0156 8.05705 12.4339 6.73386 14.6039 6.73386C15.643 6.73386 16.7305 6.92054 16.7305 6.92054V9.27272H15.5326C14.3525 9.27272 13.9844 10.0095 13.9844 10.7662L13.9844 12.5583H16.6191L16.1979 15.3212H13.9844V22.0002C18.526 21.2832 22 17.3289 22 12.5583Z" fill="#FCFCFC"/>
</g>
<defs>
<clipPath id="clip0_351_3912">
<rect width="19" height="19" fill="white" transform="translate(3 3.00024)"/>
</clipPath>
</defs>
</svg>
