<svg width="512" height="512" viewBox="0 0 512 512" fill="none" xmlns="http://www.w3.org/2000/svg">
<path fill-rule="evenodd" clip-rule="evenodd" d="M190.101 109C232.02 109 266 142.981 266 184.899H119.899C77.9808 184.899 44 150.919 44 109H190.101ZM377.849 403.885C373.641 402.971 369.674 401.776 365.948 400.3C356.355 396.425 348.33 391.167 341.873 384.526C335.6 377.7 330.896 369.675 327.759 360.45C324.847 351.348 323.371 341.527 323.333 330.988C316.602 329.033 309.485 327.985 302.124 327.985H156.023C156.023 369.904 190.004 403.885 231.923 403.885H377.849ZM343.074 274.373C333.235 243.863 304.607 221.792 270.824 221.792H75.236C75.236 263.71 109.22 297.691 151.139 297.691H280.741H328.792C328.907 297.393 329.024 297.097 329.143 296.802C332.809 287.972 337.452 280.495 343.074 274.373Z" fill="url(#paint0_linear_380_3569)"/>
<path d="M332.295 326.79C332.295 313.876 334.232 302.622 338.106 293.029C342.165 283.251 347.423 275.134 353.88 268.677C360.337 262.22 367.716 257.331 376.018 254.01C384.505 250.689 393.176 249.029 402.031 249.029C422.694 249.029 439.021 255.394 451.012 268.123C463.004 280.668 469 299.209 469 323.746C469 326.144 468.908 328.82 468.723 331.771C468.539 334.539 468.354 337.029 468.17 339.243H374.635C375.557 347.729 379.524 354.463 386.534 359.444C393.545 364.426 402.954 366.916 414.761 366.916C422.325 366.916 429.704 366.27 436.899 364.979V364.979C446.23 363.113 456.397 368.857 457.948 378.245L458.877 383.864C459.795 389.418 456.958 394.909 451.566 396.526V396.526C447.876 397.633 443.725 398.556 439.113 399.294C434.685 400.216 429.889 400.954 424.723 401.507C419.557 402.061 414.392 402.338 409.226 402.338C396.127 402.338 384.689 400.401 374.911 396.526C365.318 392.652 357.293 387.394 350.836 380.753C344.563 373.927 339.859 365.901 336.723 356.677C333.771 347.453 332.295 337.49 332.295 326.79ZM429.151 311.017C428.966 307.511 428.321 304.098 427.214 300.777C426.291 297.457 424.723 294.505 422.509 291.922C420.48 289.339 417.805 287.218 414.484 285.557C411.348 283.897 407.381 283.067 402.585 283.067C397.972 283.067 394.006 283.897 390.685 285.557C387.364 287.033 384.597 289.063 382.383 291.645C380.169 294.228 378.417 297.272 377.125 300.777C376.018 304.098 375.188 307.511 374.635 311.017H429.151Z" fill="#333333"/>
<path d="M363.596 230.499C363.596 217.077 374.476 206.196 387.898 206.196H434.678C434.678 219.618 423.798 230.499 410.376 230.499H363.596Z" fill="url(#paint1_linear_380_3569)"/>
<defs>
<linearGradient id="paint0_linear_380_3569" x1="102.98" y1="185.263" x2="362.436" y2="226.712" gradientUnits="userSpaceOnUse">
<stop stop-color="#FF6262"/>
<stop offset="1" stop-color="#F37F14"/>
</linearGradient>
<linearGradient id="paint1_linear_380_3569" x1="376.154" y1="224.214" x2="424.561" y2="204.235" gradientUnits="userSpaceOnUse">
<stop stop-color="#FF6262"/>
<stop offset="1" stop-color="#F37F14"/>
</linearGradient>
</defs>
</svg>
