<svg width="24" height="24" viewBox="0 0 24 24" fill="none" xmlns="http://www.w3.org/2000/svg">
<path d="M21.6 17.7888V15C21.6 13.8861 21.1575 12.8178 20.3698 12.0301C19.5822 11.2425 18.5139 10.8 17.4 10.8H15C14.5226 10.8 14.0647 10.6103 13.7272 10.2728C13.3896 9.9352 13.2 9.47736 13.2 8.99997V6.21117C13.7006 5.9825 14.1251 5.61486 14.4229 5.15197C14.7208 4.68907 14.8794 4.15039 14.88 3.59997C14.88 2.83615 14.5765 2.10361 14.0364 1.5635C13.4963 1.0234 12.7638 0.719971 12 0.719971C11.2361 0.719971 10.5036 1.0234 9.9635 1.5635C9.42339 2.10361 9.11997 2.83615 9.11997 3.59997C9.11997 4.76037 9.81116 5.75517 10.8 6.21117V8.99997C10.8 9.47736 10.6103 9.9352 10.2728 10.2728C9.93519 10.6103 9.47736 10.8 8.99997 10.8H6.59997C5.48606 10.8 4.41777 11.2425 3.63012 12.0301C2.84246 12.8178 2.39997 13.8861 2.39997 15V17.7888C1.80209 18.0614 1.31564 18.5307 1.02163 19.1183C0.727618 19.706 0.643776 20.3766 0.784066 21.0186C0.924356 21.6606 1.28031 22.2351 1.79266 22.6466C2.30502 23.058 2.94285 23.2816 3.59997 23.28C3.99064 23.459 4.41647 23.5483 4.84616 23.5412C5.27586 23.5341 5.6985 23.4307 6.08302 23.2388C6.46754 23.0469 6.80417 22.7713 7.06818 22.4322C7.33218 22.0931 7.51684 21.6991 7.60859 21.2793C7.70034 20.8594 7.69684 20.4243 7.59836 20.006C7.49988 19.5877 7.30892 19.1968 7.0395 18.8619C6.77009 18.5271 6.42908 18.2569 6.04152 18.0712C5.65396 17.8855 5.22972 17.789 4.79997 17.7888V15C4.79997 14.5226 4.98961 14.0647 5.32717 13.7272C5.66474 13.3896 6.12258 13.2 6.59997 13.2H8.99997C9.64677 13.2 10.2528 13.0416 10.8 12.78V17.7888C10.2021 18.0614 9.71564 18.5307 9.42163 19.1183C9.12762 19.706 9.04378 20.3766 9.18407 21.0186C9.32436 21.6606 9.68031 22.2351 10.1927 22.6466C10.705 23.058 11.3429 23.2816 12 23.28C12.3906 23.459 12.8165 23.5483 13.2462 23.5412C13.6759 23.5341 14.0985 23.4307 14.483 23.2388C14.8675 23.0469 15.2042 22.7713 15.4682 22.4322C15.7322 22.0931 15.9168 21.6991 16.0086 21.2793C16.1003 20.8594 16.0968 20.4243 15.9984 20.006C15.8999 19.5877 15.7089 19.1968 15.4395 18.8619C15.1701 18.5271 14.8291 18.2569 14.4415 18.0712C14.054 17.8855 13.6297 17.789 13.2 17.7888V12.78C13.7472 13.0416 14.3532 13.2 15 13.2H17.4C17.8774 13.2 18.3352 13.3896 18.6728 13.7272C19.0103 14.0647 19.2 14.5226 19.2 15V17.7888C18.6993 18.0174 18.2748 18.3851 17.977 18.848C17.6792 19.3109 17.5205 19.8495 17.52 20.4C17.52 21.1638 17.8234 21.8963 18.3635 22.4364C18.9036 22.9765 19.6361 23.28 20.4 23.28C21.1638 23.28 21.8963 22.9765 22.4364 22.4364C22.9765 21.8963 23.28 21.1638 23.28 20.4C23.28 19.2396 22.59 18.2448 21.6 17.7888ZM12 1.93797C12.4404 1.93797 12.8629 2.11295 13.1743 2.42441C13.4858 2.73587 13.6608 3.1583 13.6608 3.59877C13.6608 4.03924 13.4858 4.46167 13.1743 4.77313C12.8629 5.08459 12.4404 5.25957 12 5.25957C11.5595 5.25957 11.1371 5.08459 10.8256 4.77313C10.5141 4.46167 10.3392 4.03924 10.3392 3.59877C10.3392 3.1583 10.5141 2.73587 10.8256 2.42441C11.1371 2.11295 11.5595 1.93797 12 1.93797ZM3.59997 22.062C3.38171 22.062 3.16559 22.019 2.96395 21.9355C2.7623 21.8519 2.57909 21.7295 2.42475 21.5752C2.27042 21.4209 2.148 21.2376 2.06448 21.036C1.98095 20.8343 1.93797 20.6182 1.93797 20.4C1.93797 20.1817 1.98095 19.9656 2.06448 19.764C2.148 19.5623 2.27042 19.3791 2.42475 19.2248C2.57909 19.0704 2.7623 18.948 2.96395 18.8645C3.16559 18.781 3.38171 18.738 3.59997 18.738C4.04076 18.738 4.46349 18.9131 4.77518 19.2248C5.08686 19.5364 5.26197 19.9592 5.26197 20.4C5.26197 20.8408 5.08686 21.2635 4.77518 21.5752C4.46349 21.8869 4.04076 22.062 3.59997 22.062ZM12 22.062C11.7817 22.062 11.5656 22.019 11.3639 21.9355C11.1623 21.8519 10.9791 21.7295 10.8248 21.5752C10.6704 21.4209 10.548 21.2376 10.4645 21.036C10.381 20.8343 10.338 20.6182 10.338 20.4C10.338 20.1817 10.381 19.9656 10.4645 19.764C10.548 19.5623 10.6704 19.3791 10.8248 19.2248C10.9791 19.0704 11.1623 18.948 11.3639 18.8645C11.5656 18.781 11.7817 18.738 12 18.738C12.4408 18.738 12.8635 18.9131 13.1752 19.2248C13.4869 19.5364 13.662 19.9592 13.662 20.4C13.662 20.8408 13.4869 21.2635 13.1752 21.5752C12.8635 21.8869 12.4408 22.062 12 22.062ZM20.4 22.062C20.1817 22.062 19.9656 22.019 19.7639 21.9355C19.5623 21.8519 19.3791 21.7295 19.2248 21.5752C19.0704 21.4209 18.948 21.2376 18.8645 21.036C18.781 20.8343 18.738 20.6182 18.738 20.4C18.738 20.1817 18.781 19.9656 18.8645 19.764C18.948 19.5623 19.0704 19.3791 19.2248 19.2248C19.3791 19.0704 19.5623 18.948 19.7639 18.8645C19.9656 18.781 20.1817 18.738 20.4 18.738C20.8408 18.738 21.2635 18.9131 21.5752 19.2248C21.8869 19.5364 22.062 19.9592 22.062 20.4C22.062 20.8408 21.8869 21.2635 21.5752 21.5752C21.2635 21.8869 20.8408 22.062 20.4 22.062Z" fill="#A5B4CB"/>
</svg>
