<svg width="16" height="16" viewBox="0 0 16 16" fill="none" xmlns="http://www.w3.org/2000/svg">
<circle opacity="0.2" cx="8" cy="8" r="8" fill="#FF9051"/>
<path d="M9.02689 11.2H7.18582C5.98289 11.2 5.00734 10.3853 5.00734 9.3816C5.00734 9.13953 5.25672 8.93879 5.55746 8.93879C5.85819 8.93879 6.10758 9.13953 6.10758 9.3816C6.10758 9.89525 6.59169 10.3144 7.18582 10.3144H9.02689C9.50367 10.3144 9.89976 9.972 9.89976 9.55872C9.89976 9.04507 9.67237 8.9447 9.29829 8.83843L6.3423 8.00005C5.77017 7.84064 5 7.4982 5 6.44138C5 5.53215 5.88753 4.80005 6.97311 4.80005H8.81418C10.0171 4.80005 10.9927 5.61481 10.9927 6.6185C10.9927 6.86057 10.7433 7.0613 10.4425 7.0613C10.1418 7.0613 9.89242 6.86057 9.89242 6.6185C9.89242 6.10485 9.40831 5.68566 8.81418 5.68566H6.97311C6.49633 5.68566 6.10024 6.02809 6.10024 6.44138C6.10024 6.95503 6.32763 7.0554 6.70171 7.16167L9.6577 8.00005C10.2298 8.15946 11 8.50189 11 9.55872C10.9927 10.462 10.1125 11.2 9.02689 11.2Z" fill="#FF9051"/>
<path d="M7.99986 12C7.76557 12 7.57129 11.7985 7.57129 11.5556V4.44444C7.57129 4.20148 7.76557 4 7.99986 4C8.23415 4 8.42843 4.20148 8.42843 4.44444V11.5556C8.42843 11.7985 8.23415 12 7.99986 12Z" fill="#FF9051"/>
</svg>
