<svg width="16" height="16" viewBox="0 0 16 16" fill="none" xmlns="http://www.w3.org/2000/svg">
<circle opacity="0.2" cx="8" cy="8" r="8" fill="#FF9051"/>
<path d="M7.99998 10.4567C7.40332 10.4567 6.80665 10.2301 6.34998 9.7734C5.43998 8.8634 5.43998 7.38339 6.34998 6.47339C7.25998 5.56339 8.73999 5.56339 9.64999 6.47339C10.56 7.38339 10.56 8.8634 9.64999 9.7734C9.19332 10.2301 8.59665 10.4567 7.99998 10.4567ZM7.99998 6.29006C7.52998 6.29006 7.05998 6.47006 6.70331 6.82673C5.98998 7.54339 5.98998 8.7034 6.70331 9.42007C7.41998 10.1367 8.58332 10.1334 9.29666 9.42007C10.01 8.7034 10.01 7.54339 9.29666 6.82673C8.93999 6.47006 8.46998 6.29006 7.99998 6.29006Z" fill="#FF9051"/>
<path d="M6.74985 11.4633C6.71985 11.4633 6.68652 11.4566 6.65652 11.4466C5.90652 11.1466 5.29985 10.6166 4.89318 9.91658C4.49985 9.23325 4.34318 8.45992 4.44651 7.67326C4.46318 7.53659 4.58985 7.43991 4.72651 7.45658C4.86318 7.47325 4.95984 7.59992 4.94318 7.73659C4.85651 8.40992 4.98985 9.07658 5.32652 9.66325C5.67319 10.2632 6.19651 10.7199 6.83984 10.9766C6.96651 11.0299 7.02985 11.1732 6.97985 11.3032C6.94318 11.4032 6.84652 11.4633 6.74985 11.4633Z" fill="#FF9051"/>
<path d="M5.94987 5.74329C5.87654 5.74329 5.8032 5.70996 5.7532 5.64663C5.66654 5.53663 5.68654 5.37996 5.79654 5.29663C6.43321 4.79996 7.1932 4.53662 7.99987 4.53662C8.78654 4.53662 9.53654 4.78996 10.1665 5.26996C10.2765 5.35329 10.2965 5.50995 10.2132 5.61995C10.1299 5.72995 9.9732 5.74996 9.8632 5.66663C9.3232 5.25329 8.67987 5.03662 7.99987 5.03662C7.30654 5.03662 6.64987 5.2633 6.1032 5.68996C6.05653 5.72663 6.0032 5.74329 5.94987 5.74329Z" fill="#FF9051"/>
<path d="M9.2504 11.4633C9.1504 11.4633 9.05706 11.4033 9.01706 11.3067C8.96706 11.18 9.02706 11.0333 9.15706 10.98C9.8004 10.72 10.3237 10.2667 10.6704 9.66666C11.0104 9.08 11.1437 8.41332 11.0537 7.73999C11.0371 7.60332 11.1337 7.47666 11.2704 7.46C11.4037 7.44333 11.5337 7.54001 11.5504 7.67667C11.6504 8.46001 11.4971 9.23667 11.1037 9.92C10.7004 10.62 10.0904 11.1467 9.34039 11.45C9.31372 11.4567 9.28373 11.4633 9.2504 11.4633Z" fill="#FF9051"/>
</svg>
