<svg width="16" height="16" viewBox="0 0 16 16" fill="none" xmlns="http://www.w3.org/2000/svg">
<circle opacity="0.2" cx="8" cy="8" r="8" fill="#FF9051"/>
<path d="M8.00016 8.24996C6.9435 8.24996 6.0835 7.38996 6.0835 6.33329C6.0835 5.27663 6.9435 4.41663 8.00016 4.41663C9.05683 4.41663 9.91683 5.27663 9.91683 6.33329C9.91683 7.38996 9.05683 8.24996 8.00016 8.24996ZM8.00016 4.91663C7.22016 4.91663 6.5835 5.55329 6.5835 6.33329C6.5835 7.11329 7.22016 7.74996 8.00016 7.74996C8.78016 7.74996 9.41683 7.11329 9.41683 6.33329C9.41683 5.55329 8.78016 4.91663 8.00016 4.91663Z" fill="#FF9051"/>
<path d="M10.8634 11.5833C10.7267 11.5833 10.6134 11.47 10.6134 11.3333C10.6134 10.1833 9.44005 9.25 8.00005 9.25C6.56005 9.25 5.38672 10.1833 5.38672 11.3333C5.38672 11.47 5.27339 11.5833 5.13672 11.5833C5.00005 11.5833 4.88672 11.47 4.88672 11.3333C4.88672 9.91 6.28338 8.75 8.00005 8.75C9.71672 8.75 11.1134 9.91 11.1134 11.3333C11.1134 11.47 11 11.5833 10.8634 11.5833Z" fill="#FF9051"/>
</svg>
