<svg width="16" height="16" viewBox="0 0 16 16" fill="none" xmlns="http://www.w3.org/2000/svg">
<circle opacity="0.2" cx="8" cy="8" r="8" fill="#FF9051"/>
<path d="M7.8144 10.83C7.38591 10.4541 7.01761 9.84276 7.69905 9.06596L9.01796 7.56248C9.6994 6.78568 10.3535 7.07123 10.782 7.44712C11.2105 7.82302 11.5788 8.43432 10.8973 9.21112L9.5784 10.7146C8.89696 11.4914 8.2429 11.2059 7.8144 10.83ZM10.4522 7.823C10.0463 7.46689 9.74994 7.48627 9.39383 7.89221L8.07492 9.39569C7.71881 9.80163 7.73819 10.098 8.14413 10.4541C8.55007 10.8102 8.84643 10.7908 9.20253 10.3849L10.5214 8.88139C10.8776 8.47545 10.8582 8.1791 10.4522 7.823Z" fill="#FF9051"/>
<path d="M5.21821 8.55262C4.78972 8.17673 4.42142 7.56542 5.10286 6.78862L6.42177 5.28514C7.10321 4.50834 7.75728 4.79389 8.18577 5.16978C8.61426 5.54567 8.98257 6.15698 8.30113 6.93378L6.98221 8.43726C6.30077 9.21406 5.64671 8.92851 5.21821 8.55262ZM7.85604 5.54565C7.4501 5.18954 7.15375 5.20892 6.79764 5.61487L5.47873 7.11835C5.12262 7.52429 5.142 7.82064 5.54794 8.17675C5.95388 8.53286 6.25023 8.51348 6.60634 8.10754L7.92526 6.60405C8.28136 6.19811 8.26198 5.90176 7.85604 5.54565Z" fill="#FF9051"/>
<path d="M8.3814 8.66699L7.28887 7.70858C7.18613 7.61846 7.17567 7.45852 7.2658 7.35578C7.35593 7.25304 7.51586 7.24259 7.6186 7.33271L8.71113 8.29112C8.81387 8.38125 8.82433 8.54118 8.7342 8.64392C8.64408 8.74666 8.48665 8.75932 8.3814 8.66699Z" fill="#FF9051"/>
<path d="M9.91683 11.1224C9.81409 11.0322 9.80363 10.8723 9.89375 10.7696L10.9929 9.51667C11.083 9.41393 11.2429 9.40347 11.3457 9.4936C11.4484 9.58373 11.4588 9.74366 11.3687 9.8464L10.2696 11.0993C10.1795 11.202 10.0196 11.2125 9.91683 11.1224Z" fill="#FF9051"/>
<path d="M4.65462 6.50616C4.55188 6.41604 4.54142 6.2561 4.63155 6.15336L5.73064 4.90046C5.82077 4.79772 5.98071 4.78726 6.08344 4.87739C6.18618 4.96751 6.19664 5.12745 6.10651 5.23019L5.00742 6.48309C4.91729 6.58583 4.75736 6.59629 4.65462 6.50616Z" fill="#FF9051"/>
</svg>
