<svg width="16" height="16" viewBox="0 0 16 16" fill="none" xmlns="http://www.w3.org/2000/svg">
<circle opacity="0.2" cx="8" cy="8" r="8" fill="#FF9051"/>
<path d="M8.02336 11.3266C7.55336 11.3266 7.08003 11.1466 6.72336 10.7899L5.21336 9.27994C4.8467 8.91328 4.65336 8.40661 4.6767 7.88994L4.7567 6.21994C4.79336 5.42328 5.42336 4.79328 6.22336 4.75328L7.89003 4.67328C8.41003 4.64994 8.91336 4.84328 9.28003 5.20994L10.79 6.71994C11.5067 7.43661 11.5067 8.60661 10.79 9.32328L9.3267 10.7866C8.9667 11.1466 8.4967 11.3266 8.02336 11.3266ZM5.5667 8.92328L7.0767 10.4333C7.60003 10.9566 8.45003 10.9566 8.97336 10.4333L10.4367 8.96994C10.96 8.44661 10.96 7.59661 10.4367 7.07328L8.92336 5.56661C8.6567 5.29994 8.29336 5.15994 7.91003 5.17661L6.24336 5.25661C5.70336 5.27994 5.28003 5.70328 5.25336 6.24328L5.17336 7.91328C5.1567 8.28661 5.30003 8.65661 5.5667 8.92328Z" fill="#FF9051"/>
<path d="M7.16683 8.25004C6.57016 8.25004 6.0835 7.76337 6.0835 7.16671C6.0835 6.57004 6.57016 6.08337 7.16683 6.08337C7.7635 6.08337 8.25016 6.57004 8.25016 7.16671C8.25016 7.76337 7.7635 8.25004 7.16683 8.25004ZM7.16683 6.58337C6.84683 6.58337 6.5835 6.84671 6.5835 7.16671C6.5835 7.48671 6.84683 7.75004 7.16683 7.75004C7.48683 7.75004 7.75016 7.48671 7.75016 7.16671C7.75016 6.84671 7.48683 6.58337 7.16683 6.58337Z" fill="#FF9051"/>
<path d="M8.33315 9.91661C8.26982 9.91661 8.20648 9.89327 8.15648 9.84327C8.05982 9.74661 8.05982 9.58661 8.15648 9.48994L9.48982 8.15661C9.58648 8.05994 9.74648 8.05994 9.84315 8.15661C9.93982 8.25327 9.93982 8.41327 9.84315 8.50994L8.50982 9.84327C8.45982 9.89327 8.39648 9.91661 8.33315 9.91661Z" fill="#FF9051"/>
</svg>
