<svg width="16" height="16" viewBox="0 0 16 16" fill="none" xmlns="http://www.w3.org/2000/svg">
<circle opacity="0.2" cx="8" cy="8" r="8" fill="#FF9051"/>
<path d="M9.92984 11.5801H6.06984C5.1565 11.5801 4.4165 10.8368 4.4165 9.92344V7.45344C4.4165 7.00011 4.6965 6.43011 5.0565 6.15011L6.85317 4.75011C7.39317 4.33011 8.2565 4.31011 8.8165 4.70344L10.8765 6.14678C11.2732 6.42344 11.5832 7.01678 11.5832 7.50011V9.92678C11.5832 10.8368 10.8432 11.5801 9.92984 11.5801ZM7.15984 5.14344L5.36317 6.54344C5.1265 6.73011 4.9165 7.15344 4.9165 7.45344V9.92344C4.9165 10.5601 5.43317 11.0801 6.06984 11.0801H9.92984C10.5665 11.0801 11.0832 10.5634 11.0832 9.92678V7.50011C11.0832 7.18011 10.8532 6.73678 10.5898 6.55678L8.52984 5.11344C8.14984 4.84678 7.52317 4.86011 7.15984 5.14344Z" fill="#FF9051"/>
<path d="M6.49965 9.74994C6.43632 9.74994 6.37299 9.72661 6.32299 9.67661C6.22632 9.57994 6.22632 9.41994 6.32299 9.32327L7.38965 8.25661C7.44299 8.20327 7.51299 8.17661 7.58966 8.18327C7.66299 8.18994 7.72965 8.22994 7.77299 8.29327L8.13632 8.83994L9.31965 7.65661C9.41632 7.55994 9.57632 7.55994 9.67299 7.65661C9.76965 7.75327 9.76965 7.91327 9.67299 8.00994L8.27299 9.40994C8.21965 9.46327 8.14966 9.48994 8.07299 9.48327C7.99966 9.47661 7.93299 9.43661 7.88965 9.37327L7.52632 8.82661L6.67632 9.67661C6.62632 9.72661 6.56299 9.74994 6.49965 9.74994Z" fill="#FF9051"/>
<path d="M9.50016 8.75004C9.3635 8.75004 9.25016 8.63671 9.25016 8.50004V8.08337H8.8335C8.69683 8.08337 8.5835 7.97004 8.5835 7.83337C8.5835 7.69671 8.69683 7.58337 8.8335 7.58337H9.50016C9.63683 7.58337 9.75016 7.69671 9.75016 7.83337V8.50004C9.75016 8.63671 9.63683 8.75004 9.50016 8.75004Z" fill="#FF9051"/>
</svg>
