<svg width="16" height="16" viewBox="0 0 16 16" fill="none" xmlns="http://www.w3.org/2000/svg">
<circle opacity="0.2" cx="8" cy="8" r="8" fill="#FF9051"/>
<path d="M10.3798 10.75C10.3165 10.75 10.2532 10.7267 10.2032 10.68C10.1032 10.5834 10.1032 10.4267 10.1998 10.3267C10.7698 9.74671 11.0832 8.98004 11.0832 8.16671C11.0832 6.46671 9.69984 5.08337 7.99984 5.08337C6.29984 5.08337 4.9165 6.46671 4.9165 8.16671C4.9165 8.97671 5.22651 9.74004 5.79317 10.32C5.88984 10.42 5.8865 10.5767 5.78984 10.6734C5.68984 10.77 5.53317 10.7667 5.4365 10.67C4.77984 9.99671 4.4165 9.10671 4.4165 8.16671C4.4165 6.19004 6.02317 4.58337 7.99984 4.58337C9.9765 4.58337 11.5832 6.19004 11.5832 8.16671C11.5832 9.11004 11.2198 10.0034 10.5565 10.6767C10.5098 10.7267 10.4432 10.75 10.3798 10.75Z" fill="#F37F14"/>
<path d="M7.9998 11.4166C7.24313 11.4166 6.62646 10.8 6.62646 10.0433C6.62646 9.28663 7.24313 8.66663 7.9998 8.66663C8.75646 8.66663 9.37313 9.28329 9.37313 10.04C9.37313 10.7966 8.75646 11.4166 7.9998 11.4166ZM7.9998 9.16663C7.51646 9.16663 7.12646 9.55996 7.12646 10.04C7.12646 10.52 7.5198 10.9133 7.9998 10.9133C8.4798 10.9133 8.87313 10.52 8.87313 10.04C8.87313 9.55996 8.48313 9.16663 7.9998 9.16663Z" fill="#F37F14"/>
<path d="M9.3335 8.25H9.0835C8.80683 8.25 8.5835 8.02667 8.5835 7.75V7.5C8.5835 7.08667 8.92016 6.75 9.3335 6.75C9.74683 6.75 10.0835 7.08667 10.0835 7.5C10.0835 7.91333 9.74683 8.25 9.3335 8.25ZM9.3335 7.25C9.19683 7.25 9.0835 7.36333 9.0835 7.5V7.75H9.3335C9.47016 7.75 9.5835 7.63667 9.5835 7.5C9.5835 7.36333 9.47016 7.25 9.3335 7.25Z" fill="#F37F14"/>
</svg>
