<svg width="16" height="74" viewBox="0 0 16 74" fill="none" xmlns="http://www.w3.org/2000/svg">
<path d="M6.58579 30.4142C7.36684 29.6332 8.63317 29.6332 9.41421 30.4142L14.5858 35.5858C15.3668 36.3668 15.3668 37.6332 14.5858 38.4142L9.41421 43.5858C8.63316 44.3668 7.36684 44.3668 6.58579 43.5858L1.41421 38.4142C0.633164 37.6332 0.633165 36.3668 1.41421 35.5858L6.58579 30.4142Z" fill="#D9D9D9"/>
<path d="M7.29289 33.7071C7.68342 33.3166 8.31658 33.3166 8.70711 33.7071L11.2929 36.2929C11.6834 36.6834 11.6834 37.3166 11.2929 37.7071L8.70711 40.2929C8.31658 40.6834 7.68342 40.6834 7.29289 40.2929L4.70711 37.7071C4.31658 37.3166 4.31658 36.6834 4.70711 36.2929L7.29289 33.7071Z" fill="white"/>
<line x1="7.5" y1="26" x2="7.5" y2="2.18558e-08" stroke="#D9D9D9"/>
<line x1="7.5" y1="74" x2="7.5" y2="48" stroke="#D9D9D9"/>
</svg>
