<svg width="25" height="25" viewBox="0 0 25 25" fill="none" xmlns="http://www.w3.org/2000/svg">
<circle cx="12.5" cy="12.5002" r="12.5" fill="#727DFF"/>
<path d="M12.2103 16.9221C11.5408 16.3347 10.9654 15.3796 12.0301 14.1658L14.0909 11.8166C15.1557 10.6029 16.1776 11.0491 16.8472 11.6364C17.5167 12.2237 18.0921 13.1789 17.0274 14.3926L14.9666 16.7418C13.9018 17.9556 12.8799 17.5094 12.2103 16.9221ZM16.332 12.2237C15.6977 11.6673 15.2346 11.6976 14.6782 12.3318L12.6174 14.681C12.061 15.3153 12.0913 15.7784 12.7255 16.3348C13.3598 16.8912 13.8229 16.8609 14.3793 16.2266L16.4401 13.8774C16.9965 13.2432 16.9662 12.7801 16.332 12.2237Z" fill="white"/>
<path d="M8.1537 13.3637C7.48418 12.7764 6.90871 11.8212 7.97346 10.6075L10.0343 8.25828C11.099 7.04454 12.121 7.49071 12.7905 8.07804C13.46 8.66537 14.0355 9.62054 12.9708 10.8343L10.9099 13.1835C9.8452 14.3972 8.82322 13.9511 8.1537 13.3637ZM12.2753 8.66534C11.641 8.10892 11.178 8.1392 10.6216 8.77349L8.56076 11.1227C8.00434 11.757 8.03462 12.22 8.6689 12.7764C9.30318 13.3328 9.76623 13.3026 10.3227 12.6683L12.3835 10.3191C12.9399 9.68481 12.9096 9.22176 12.2753 8.66534Z" fill="white"/>
<path d="M13.0959 13.5424L11.3888 12.0449C11.2283 11.9041 11.2119 11.6542 11.3528 11.4937C11.4936 11.3331 11.7435 11.3168 11.904 11.4576L13.6111 12.9551C13.7716 13.096 13.788 13.3459 13.6471 13.5064C13.5063 13.6669 13.2603 13.6867 13.0959 13.5424Z" fill="white"/>
<path d="M15.4957 17.379C15.3352 17.2382 15.3188 16.9883 15.4596 16.8277L17.177 14.8701C17.3178 14.7095 17.5677 14.6932 17.7282 14.834C17.8887 14.9748 17.9051 15.2247 17.7643 15.3853L16.0469 17.3429C15.9061 17.5035 15.6562 17.5198 15.4957 17.379Z" fill="white"/>
<path d="M7.274 10.1661C7.11347 10.0253 7.09713 9.77543 7.23795 9.6149L8.95529 7.65724C9.09611 7.49671 9.34601 7.48037 9.50654 7.62119C9.66707 7.76201 9.68341 8.01191 9.54259 8.17244L7.82525 10.1301C7.68443 10.2906 7.43453 10.307 7.274 10.1661Z" fill="white"/>
</svg>
