<svg width="16" height="17" viewBox="0 0 16 17" fill="none" xmlns="http://www.w3.org/2000/svg">
<path fill-rule="evenodd" clip-rule="evenodd" d="M4.00033 3.16675C3.6467 3.16675 3.30756 3.30723 3.05752 3.55729C2.80747 3.80735 2.66699 4.14651 2.66699 4.50015V6.50025C2.66699 6.85389 2.80747 7.19304 3.05752 7.4431C3.30756 7.69316 3.6467 7.83365 4.00033 7.83365H6.00033C6.35395 7.83365 6.69309 7.69316 6.94313 7.4431C7.19318 7.19304 7.33366 6.85389 7.33366 6.50025V4.50015C7.33366 4.14651 7.19318 3.80735 6.94313 3.55729C6.69309 3.30723 6.35395 3.16675 6.00033 3.16675H4.00033ZM4.00033 4.50015H6.00033V6.50025H4.00033V4.50015ZM9.33366 4.50015C9.15685 4.50015 8.98728 4.57039 8.86225 4.69542C8.73723 4.82045 8.66699 4.99003 8.66699 5.16685C8.66699 5.34367 8.73723 5.51324 8.86225 5.63828C8.98728 5.76331 9.15685 5.83355 9.33366 5.83355H12.667C12.8438 5.83355 13.0134 5.76331 13.1384 5.63828C13.2634 5.51324 13.3337 5.34367 13.3337 5.16685C13.3337 4.99003 13.2634 4.82045 13.1384 4.69542C13.0134 4.57039 12.8438 4.50015 12.667 4.50015H9.33366ZM9.33366 10.5004C9.15685 10.5004 8.98728 10.5707 8.86225 10.6957C8.73723 10.8207 8.66699 10.9903 8.66699 11.1671C8.66699 11.344 8.73723 11.5135 8.86225 11.6386C8.98728 11.7636 9.15685 11.8338 9.33366 11.8338H12.667C12.8438 11.8338 13.0134 11.7636 13.1384 11.6386C13.2634 11.5135 13.3337 11.344 13.3337 11.1671C13.3337 10.9903 13.2634 10.8207 13.1384 10.6957C13.0134 10.5707 12.8438 10.5004 12.667 10.5004H9.33366ZM2.66699 10.5004C2.66699 10.1468 2.80747 9.80765 3.05752 9.55759C3.30756 9.30753 3.6467 9.16705 4.00033 9.16705H6.00033C6.35395 9.16705 6.69309 9.30753 6.94313 9.55759C7.19318 9.80765 7.33366 10.1468 7.33366 10.5004V12.5005C7.33366 12.8542 7.19318 13.1933 6.94313 13.4434C6.69309 13.6935 6.35395 13.8339 6.00033 13.8339H4.00033C3.6467 13.8339 3.30756 13.6935 3.05752 13.4434C2.80747 13.1933 2.66699 12.8542 2.66699 12.5005V10.5004ZM6.00033 10.5004H4.00033V12.5005H6.00033V10.5004Z" fill="#A5B4CB"/>
</svg>
