<svg width="25" height="24" viewBox="0 0 25 24" fill="none" xmlns="http://www.w3.org/2000/svg">
<path fill-rule="evenodd" clip-rule="evenodd" d="M17.9236 3H17.9046H17.8748H17.845H17.8151H17.785H17.7549H17.7247H17.6944H17.6639H17.6334H17.6028H17.5721H17.5413H17.5105H17.4795H17.4484H17.4173H17.386H17.3547H17.3233H17.2918H17.2603H17.2286H17.1969H17.165H17.1331H17.1012H17.0691H17.037H17.0048H16.9725H16.9401H16.9077H16.8752H16.8426H16.8099H16.7772H16.7444H16.7116H16.6786H16.6456H16.6126H16.5794H16.5463H16.513H16.4797H16.4463H16.4129H16.3794H16.3458H16.3122H16.2785H16.2448H16.211H16.1772H16.1433H16.1094H16.0754H16.0413H16.0072H15.9731H15.9389H15.9047H15.8704H15.8361H15.8017H15.7673H15.7328H15.6983H15.6638H15.6292H15.5946H15.5599H15.5252H15.4905H15.4557H15.4209H15.3861H15.3512H15.3163H15.2814H15.2465H15.2115H15.1765H15.1414H15.1063H15.0712H15.0361H15.001H14.9658H14.9306H14.8954H14.8602H14.8249H14.7897H14.7544H14.7191H14.6838H14.6484H14.6131H14.5777H14.5423H14.507H14.4716H14.4362H14.4007H14.3653H14.3299H14.2945H14.259H14.2236H14.1881H14.1527H14.1172H14.0818H14.0463H14.0109H13.9755H13.94H13.9046H13.8691H13.8337H13.7983H13.7629H13.7275H13.6921H13.6567H13.6213H13.586H13.5506H13.5153H13.4799H13.4446H13.4093H13.3741H13.3388H13.3036H13.2684H13.2332H13.198H13.1629H13.1277H13.0926H13.0576H13.0225H12.9875H12.9525H12.9175H12.8826H12.8477H12.8128H12.778H12.7432H12.7084H12.6737H12.639H12.6043H12.5697H12.5351H12.5005H12.466H12.4316H12.3971H12.3627H12.3284H12.2941H12.2599H12.2257H12.1915H12.1574H12.1234H12.0894H12.0554H12.0215H11.9877H11.9539H11.9202H11.8865H11.8528H11.8193H11.7858H11.7523H11.7189H11.6856H11.6523H11.6191H11.586H11.5529H11.5199H11.487H11.4541H11.4213H11.3886H11.3559H11.3233H11.2908H11.2583H11.226H11.1937H11.1614H11.1293H11.0972H11.0652H11.0333H11.0015H10.9697H10.938H10.9064H10.8749H10.8435H10.8122H10.7809H10.7497H10.7187H10.6877H10.6568H10.626H10.5953H10.5646H10.5341H10.5037H10.4733H10.4431H10.4129H10.3829H10.3529H10.3231H10.2933H10.2637H10.2341H10.2047H10.1754H10.1461H10.117H10.088H10.0591H10.0302H10.0015H9.97296H9.94449H9.91612H9.88787H9.85974H9.83171H9.80381H9.77602H9.74835H9.72079H9.69336H9.66605H9.63885H9.61178H9.58483H9.55801H9.53131H9.50473H9.47829H9.45197H9.42577H9.39971H9.37378H9.34797H9.3223H9.29677H9.27136H9.24609H9.22096H9.19596H9.1711H9.14638H9.12179H9.09735H9.07304H9.04888H9.02486H9.00099H8.97725H8.95367H8.93023H8.90693H8.88379H8.86079H8.83794H8.81525H8.7927H8.77031H8.74807H8.72599H8.70406H8.68228H8.66066H8.6392H8.6179H8.59676H8.57578H8.55496H8.5343H8.51381H8.49348H8.47331H8.45331H8.43348H8.41381H8.39431H8.37498H8.35583H8.33684H8.31803H8.29938H8.28092H8.26262H8.2445H8.22656H8.2088H8.19121H8.17381H8.15658H8.13953H8.12267H8.10599H8.08949H8.07318H8.05705H8.04111H8.02536H8.00979H7.99442H7.97923H7.96423H7.94943H7.93482H7.9204H7.90618H7.89215H7.87831H7.86468H7.85124H7.838H7.82496H7.81213H7.79949H7.78706H7.77483H7.7628H7.75098C7.42596 3 7.24868 3.07838 7.14943 3.14455C7.04391 3.21489 6.96109 3.31584 6.8954 3.44721C6.82776 3.5825 6.78896 3.72989 6.76862 3.8519C6.75885 3.91053 6.75435 3.95721 6.75234 3.98531C6.75151 3.99696 6.75113 4.00504 6.75098 4.00902V16H14.751C15.3033 16 15.751 16.4477 15.751 17V19.991C15.7511 19.995 15.7515 20.003 15.7523 20.0147C15.7543 20.0428 15.7588 20.0895 15.7686 20.1481C15.789 20.2701 15.8278 20.4175 15.8954 20.5528C15.9611 20.6842 16.0439 20.7851 16.1494 20.8554C16.2487 20.9216 16.426 21 16.751 21C17.076 21 17.2533 20.9216 17.3525 20.8554C17.458 20.7851 17.5409 20.6842 17.6065 20.5528C17.6742 20.4175 17.713 20.2701 17.7333 20.1481C17.7431 20.0895 17.7476 20.0428 17.7496 20.0147C17.7504 20.003 17.7508 19.995 17.751 19.991V7V4H18.751C17.751 4 17.751 3.9995 17.751 3.999L17.751 3.99795L17.751 3.9957L17.751 3.99061L17.7512 3.97814C17.7513 3.96881 17.7516 3.95746 17.752 3.94422C17.7529 3.91778 17.7545 3.88362 17.7574 3.84282C17.7632 3.76154 17.7744 3.65197 17.7958 3.5231C17.8203 3.37651 17.8595 3.19646 17.9236 3ZM4.75098 16V4H5.75098C4.75098 4 4.75098 3.9995 4.75098 3.999L4.75098 3.99795L4.75099 3.9957L4.75102 3.99061L4.75117 3.97814C4.75132 3.96881 4.75158 3.95746 4.75202 3.94422C4.7529 3.91778 4.75451 3.88362 4.75742 3.84282C4.76323 3.76154 4.77435 3.65197 4.79583 3.5231C4.838 3.27011 4.92419 2.9175 5.10655 2.55279C5.29086 2.18416 5.58304 1.78511 6.04003 1.48045C6.50327 1.17162 7.07599 1 7.75098 1H7.7628H7.77483H7.78706H7.79949H7.81213H7.82496H7.838H7.85124H7.86468H7.87831H7.89215H7.90618H7.9204H7.93482H7.94943H7.96423H7.97923H7.99442H8.00979H8.02536H8.04111H8.05705H8.07318H8.08949H8.10599H8.12267H8.13953H8.15658H8.17381H8.19121H8.2088H8.22656H8.2445H8.26262H8.28092H8.29938H8.31803H8.33684H8.35583H8.37498H8.39431H8.41381H8.43348H8.45331H8.47331H8.49348H8.51381H8.5343H8.55496H8.57578H8.59676H8.6179H8.6392H8.66066H8.68228H8.70406H8.72599H8.74807H8.77031H8.7927H8.81525H8.83794H8.86079H8.88379H8.90693H8.93023H8.95367H8.97725H9.00099H9.02486H9.04888H9.07304H9.09735H9.12179H9.14638H9.1711H9.19596H9.22096H9.24609H9.27136H9.29677H9.3223H9.34797H9.37378H9.39971H9.42577H9.45197H9.47829H9.50473H9.53131H9.55801H9.58483H9.61178H9.63885H9.66605H9.69336H9.72079H9.74835H9.77602H9.80381H9.83171H9.85974H9.88787H9.91612H9.94449H9.97296H10.0015H10.0302H10.0591H10.088H10.117H10.1461H10.1754H10.2047H10.2341H10.2637H10.2933H10.3231H10.3529H10.3829H10.4129H10.4431H10.4733H10.5037H10.5341H10.5646H10.5953H10.626H10.6568H10.6877H10.7187H10.7497H10.7809H10.8122H10.8435H10.8749H10.9064H10.938H10.9697H11.0015H11.0333H11.0652H11.0972H11.1293H11.1614H11.1937H11.226H11.2583H11.2908H11.3233H11.3559H11.3886H11.4213H11.4541H11.487H11.5199H11.5529H11.586H11.6191H11.6523H11.6856H11.7189H11.7523H11.7858H11.8193H11.8528H11.8865H11.9202H11.9539H11.9877H12.0215H12.0554H12.0894H12.1234H12.1574H12.1915H12.2257H12.2599H12.2941H12.3284H12.3627H12.3971H12.4316H12.466H12.5005H12.5351H12.5697H12.6043H12.639H12.6737H12.7084H12.7432H12.778H12.8128H12.8477H12.8826H12.9175H12.9525H12.9875H13.0225H13.0576H13.0926H13.1277H13.1629H13.198H13.2332H13.2684H13.3036H13.3388H13.3741H13.4093H13.4446H13.4799H13.5153H13.5506H13.586H13.6213H13.6567H13.6921H13.7275H13.7629H13.7983H13.8337H13.8691H13.9046H13.94H13.9755H14.0109H14.0463H14.0818H14.1172H14.1527H14.1881H14.2236H14.259H14.2945H14.3299H14.3653H14.4007H14.4362H14.4716H14.507H14.5423H14.5777H14.6131H14.6484H14.6838H14.7191H14.7544H14.7897H14.8249H14.8602H14.8954H14.9306H14.9658H15.001H15.0361H15.0712H15.1063H15.1414H15.1765H15.2115H15.2465H15.2814H15.3163H15.3512H15.3861H15.4209H15.4557H15.4905H15.5252H15.5599H15.5946H15.6292H15.6638H15.6983H15.7328H15.7673H15.8017H15.8361H15.8704H15.9047H15.9389H15.9731H16.0072H16.0413H16.0754H16.1094H16.1433H16.1772H16.211H16.2448H16.2785H16.3122H16.3458H16.3794H16.4129H16.4463H16.4797H16.513H16.5463H16.5794H16.6126H16.6456H16.6786H16.7116H16.7444H16.7772H16.8099H16.8426H16.8752H16.9077H16.9401H16.9725H17.0048H17.037H17.0691H17.1012H17.1331H17.165H17.1969H17.2286H17.2603H17.2918H17.3233H17.3547H17.386H17.4173H17.4484H17.4795H17.5105H17.5413H17.5721H17.6028H17.6334H17.6639H17.6944H17.7247H17.7549H17.785H17.8151H17.845H17.8748H17.9046H17.9342H17.9637H17.9931H18.0225H18.0517H18.0808H18.1098H18.1387H18.1675H18.1961H18.2247H18.2531H18.2815H18.3097H18.3378H18.3658H18.3937H18.4215H18.4491H18.4767H18.5041H18.5314H18.5585H18.5856H18.6125H18.6393H18.666H18.6925H18.7189H18.7452H18.7714H18.7974H18.8233H18.8491H18.8748H18.9003H18.9257H18.9509H18.976H19.001H19.0258H19.0505H19.0751H19.0995H19.1238H19.1479H19.1719H19.1957H19.2194H19.243H19.2664H19.2897H19.3128H19.3357H19.3586H19.3812H19.4037H19.4261H19.4483H19.4704H19.4923H19.514H19.5356H19.557H19.5783H19.5994H19.6203H19.6411H19.6618H19.6822H19.7025H19.7227H19.7426H19.7624H19.7821H19.8015H19.8208H19.8399H19.8589H19.8777H19.8963H19.9147H19.933H19.9511H19.969H19.9867H20.0042H20.0216H20.0388H20.0558H20.0726H20.0893H20.1057H20.122H20.1381H20.154H20.1697H20.1853H20.2006H20.2157H20.2307H20.2455H20.26H20.2744H20.2886H20.3026H20.3164H20.33H20.3434H20.3566H20.3696H20.3824H20.395H20.4074H20.4195H20.4315H20.4433H20.4549H20.4663H20.4774H20.4884H20.4991H20.5096H20.52H20.5301H20.54H20.5496H20.5591H20.5683H20.5774H20.5862H20.5948H20.6032H20.6113H20.6192H20.627H20.6344H20.6417H20.6487H20.6556H20.6621H20.6685H20.6746H20.6805H20.6862H20.6916H20.6968H20.7018H20.7066H20.7111H20.7153H20.7194H20.7232H20.7267H20.73H20.7331H20.7359H20.7385H20.7409H20.743H20.7449H20.7465H20.7478H20.749H20.7498H20.7505H20.7509C20.7509 1 20.7509 1 20.751 1C21.426 1 21.9987 1.17162 22.4619 1.48045C22.9189 1.78511 23.2111 2.18416 23.3954 2.55279C23.5778 2.9175 23.664 3.27011 23.7061 3.5231C23.7276 3.65197 23.7387 3.76154 23.7445 3.84282C23.7474 3.88362 23.7491 3.91778 23.7499 3.94422L23.7505 3.9625L23.7508 3.97814L23.7509 3.99061L23.751 3.9957L23.751 3.99795L23.751 3.999C23.751 3.9995 23.751 4 22.751 4H23.751V7C23.751 7.55228 23.3033 8 22.751 8H19.751V20H18.751C19.751 20 19.751 20.0005 19.751 20.001L19.751 20.0021L19.751 20.0043L19.7509 20.0094L19.7508 20.0219C19.7506 20.0312 19.7504 20.0425 19.7499 20.0558C19.7491 20.0822 19.7474 20.1164 19.7445 20.1572C19.7387 20.2385 19.7276 20.348 19.7061 20.4769C19.664 20.7299 19.5778 21.0825 19.3954 21.4472C19.2111 21.8158 18.9189 22.2149 18.4619 22.5196C17.9987 22.8284 17.426 23 16.751 23H16.7392H16.7273H16.7152H16.703H16.6907H16.6782H16.6656H16.6529H16.64H16.627H16.6139H16.6006H16.5872H16.5737H16.56H16.5463H16.5324H16.5183H16.5041H16.4899H16.4754H16.4609H16.4462H16.4314H16.4165H16.4014H16.3863H16.371H16.3556H16.34H16.3244H16.3086H16.2927H16.2767H16.2605H16.2443H16.2279H16.2114H16.1948H16.1781H16.1612H16.1443H16.1272H16.11H16.0927H16.0753H16.0578H16.0402H16.0224H16.0046H15.9866H15.9685H15.9503H15.932H15.9136H15.8951H15.8765H15.8577H15.8389H15.82H15.8009H15.7818H15.7625H15.7432H15.7237H15.7041H15.6845H15.6647H15.6448H15.6249H15.6048H15.5846H15.5644H15.544H15.5236H15.503H15.4823H15.4616H15.4407H15.4198H15.3988H15.3776H15.3564H15.3351H15.3137H15.2922H15.2706H15.2489H15.2271H15.2053H15.1833H15.1613H15.1392H15.117H15.0947H15.0723H15.0498H15.0272H15.0046H14.9819H14.9591H14.9362H14.9132H14.8901H14.867H14.8438H14.8205H14.7971H14.7736H14.7501H14.7265H14.7028H14.679H14.6551H14.6312H14.6072H14.5831H14.559H14.5348H14.5105H14.4861H14.4616H14.4371H14.4125H14.3879H14.3631H14.3383H14.3135H14.2885H14.2635H14.2385H14.2133H14.1881H14.1628H14.1375H14.1121H14.0866H14.0611H14.0355H14.0099H13.9841H13.9584H13.9325H13.9066H13.8807H13.8546H13.8286H13.8024H13.7762H13.75H13.7236H13.6973H13.6709H13.6444H13.6178H13.5913H13.5646H13.5379H13.5112H13.4844H13.4575H13.4306H13.4037H13.3767H13.3496H13.3225H13.2954H13.2682H13.2409H13.2136H13.1863H13.1589H13.1315H13.104H13.0765H13.049H13.0213H12.9937H12.966H12.9383H12.9105H12.8827H12.8549H12.827H12.7991H12.7711H12.7431H12.7151H12.687H12.6589H12.6307H12.6025H12.5743H12.5461H12.5178H12.4895H12.4611H12.4328H12.4043H12.3759H12.3474H12.3189H12.2904H12.2618H12.2333H12.2046H12.176H12.1473H12.1186H12.0899H12.0612H12.0324H12.0036H11.9748H11.946H11.9171H11.8883H11.8594H11.8304H11.8015H11.7725H11.7436H11.7146H11.6855H11.6565H11.6275H11.5984H11.5693H11.5402H11.5111H11.482H11.4529H11.4237H11.3946H11.3654H11.3362H11.307H11.2778H11.2486H11.2194H11.1901H11.1609H11.1316H11.1024H11.0731H11.0439H11.0146H10.9853H10.956H10.9267H10.8974H10.8682H10.8389H10.8096H10.7803H10.751H10.7217H10.6924H10.6631H10.6338H10.6045H10.5752H10.5459H10.5166H10.4874H10.4581H10.4288H10.3996H10.3703H10.3411H10.3118H10.2826H10.2534H10.2242H10.1949H10.1658H10.1366H10.1074H10.0782H10.0491H10.02H9.99083H9.96172H9.93263H9.90355H9.87448H9.84544H9.81641H9.78739H9.7584H9.72942H9.70046H9.67152H9.6426H9.6137H9.58482H9.55597H9.52713H9.49832H9.46953H9.44076H9.41202H9.38331H9.35461H9.32595H9.29731H9.2687H9.24011H9.21155H9.18302H9.15452H9.12605H9.09761H9.0692H9.04082H9.01248H8.98416H8.95588H8.92763H8.89941H8.87123H8.84309H8.81498H8.7869H8.75886H8.73086H8.7029H8.67497H8.64709H8.61924H8.59143H8.56366H8.53593H8.50825H8.4806H8.453H8.42544H8.39793H8.37046H8.34303H8.31565H8.28831H8.26102H8.23378H8.20658H8.17944H8.15234H8.12528H8.09828H8.07133H8.04443H8.01758H7.99078H7.96403H7.93734H7.9107H7.88411H7.85757H7.8311H7.80467H7.7783H7.75199H7.72574H7.69954H7.6734H7.64732H7.6213H7.59534H7.56943H7.54359H7.51781H7.49209H7.46644H7.44084H7.41531H7.38985H7.36444H7.33911H7.31384H7.28863H7.26349H7.23842H7.21341H7.18848H7.16361H7.13881H7.11408H7.08942H7.06483H7.04032H7.01587H6.9915H6.9672H6.94298H6.91882H6.89475H6.87074H6.84682H6.82297H6.79919H6.7755H6.75188H6.72834H6.70488H6.6815H6.65819H6.63497H6.61183H6.58877H6.5658H6.5429H6.52009H6.49736H6.47472H6.45216H6.42969H6.4073H6.385H6.36278H6.34066H6.31862H6.29667H6.27481H6.25304H6.23135H6.20976H6.18826H6.16686H6.14554H6.12432H6.10319H6.08215H6.06121H6.04037H6.01962H5.99896H5.9784H5.95794H5.93758H5.91731H5.89715H5.87708H5.85711H5.83724H5.81748H5.79781H5.77825H5.75879H5.73943H5.72018H5.70103H5.68198H5.66304H5.64421H5.62548H5.60686H5.58834H5.56994H5.55164H5.53345H5.51537H5.4974H5.47954H5.46179H5.44416H5.42663H5.40922H5.39192H5.37474H5.35766H5.34071H5.32387H5.30714H5.29053H5.27404H5.25767H5.24141H5.22528H5.20926H5.19336H5.17758H5.16192H5.14639H5.13097H5.11568H5.10051H5.08546H5.07054H5.05574H5.04107H5.02652H5.0121H4.99781H4.98364H4.9696H4.95569H4.94191H4.92825H4.91473H4.90133H4.88807H4.87494H4.86194H4.84908H4.83634H4.82374H4.81128H4.79894H4.78675H4.77469H4.76276H4.75098C4.07599 23 3.50327 22.8284 3.04003 22.5196C2.58304 22.2149 2.29086 21.8158 2.10655 21.4472C1.92419 21.0825 1.838 20.7299 1.79583 20.4769C1.77436 20.348 1.76323 20.2385 1.75742 20.1572C1.75451 20.1164 1.7529 20.0822 1.75202 20.0558C1.75158 20.0425 1.75132 20.0312 1.75117 20.0219L1.75102 20.0094L1.75099 20.0043L1.75098 20.0021L1.75098 20.001C1.75098 20.0005 1.75098 20 2.75098 20H1.75098V17C1.75098 16.4477 2.19869 16 2.75098 16H4.75098ZM21.751 6H19.751V4.00903C19.7511 4.00504 19.7515 3.99697 19.7523 3.98531C19.7543 3.95721 19.7588 3.91053 19.7686 3.8519C19.789 3.72989 19.8278 3.5825 19.8954 3.44721C19.9611 3.31584 20.0439 3.21489 20.1494 3.14455C20.2487 3.07838 20.426 3 20.751 3C21.076 3 21.2533 3.07838 21.3525 3.14455C21.458 3.21489 21.5409 3.31584 21.6066 3.44721C21.6742 3.5825 21.713 3.72989 21.7333 3.8519C21.7431 3.91053 21.7476 3.95721 21.7496 3.98531C21.7504 3.99697 21.7508 4.00504 21.751 4.00903V6ZM13.7958 20.4769C13.8203 20.6235 13.8595 20.8035 13.9236 21H13.9066H13.8807H13.8546H13.8286H13.8024H13.7762H13.75H13.7236H13.6973H13.6709H13.6444H13.6178H13.5913H13.5646H13.5379H13.5112H13.4844H13.4575H13.4306H13.4037H13.3767H13.3496H13.3225H13.2954H13.2682H13.2409H13.2136H13.1863H13.1589H13.1315H13.104H13.0765H13.049H13.0213H12.9937H12.966H12.9383H12.9105H12.8827H12.8549H12.827H12.7991H12.7711H12.7431H12.7151H12.687H12.6589H12.6307H12.6025H12.5743H12.5461H12.5178H12.4895H12.4611H12.4328H12.4043H12.3759H12.3474H12.3189H12.2904H12.2618H12.2333H12.2046H12.176H12.1473H12.1186H12.0899H12.0612H12.0324H12.0036H11.9748H11.946H11.9171H11.8883H11.8594H11.8304H11.8015H11.7725H11.7436H11.7146H11.6855H11.6565H11.6275H11.5984H11.5693H11.5402H11.5111H11.482H11.4529H11.4237H11.3946H11.3654H11.3362H11.307H11.2778H11.2486H11.2194H11.1901H11.1609H11.1316H11.1024H11.0731H11.0439H11.0146H10.9853H10.956H10.9267H10.8974H10.8682H10.8389H10.8096H10.7803H10.751H10.7217H10.6924H10.6631H10.6338H10.6045H10.5752H10.5459H10.5166H10.4874H10.4581H10.4288H10.3996H10.3703H10.3411H10.3118H10.2826H10.2534H10.2242H10.1949H10.1658H10.1366H10.1074H10.0782H10.0491H10.02H9.99083H9.96172H9.93263H9.90355H9.87448H9.84544H9.81641H9.78739H9.7584H9.72942H9.70046H9.67152H9.6426H9.6137H9.58482H9.55597H9.52713H9.49832H9.46953H9.44076H9.41202H9.38331H9.35461H9.32595H9.29731H9.2687H9.24011H9.21155H9.18302H9.15452H9.12605H9.09761H9.0692H9.04082H9.01248H8.98416H8.95588H8.92763H8.89941H8.87123H8.84309H8.81498H8.7869H8.75886H8.73086H8.7029H8.67497H8.64709H8.61924H8.59143H8.56366H8.53593H8.50825H8.4806H8.453H8.42544H8.39793H8.37046H8.34303H8.31565H8.28831H8.26102H8.23378H8.20658H8.17944H8.15234H8.12528H8.09828H8.07133H8.04443H8.01758H7.99078H7.96403H7.93734H7.9107H7.88411H7.85757H7.8311H7.80467H7.7783H7.75199H7.72574H7.69954H7.6734H7.64732H7.6213H7.59534H7.56943H7.54359H7.51781H7.49209H7.46644H7.44084H7.41531H7.38985H7.36444H7.33911H7.31384H7.28863H7.26349H7.23842H7.21341H7.18848H7.16361H7.13881H7.11408H7.08942H7.06483H7.04032H7.01587H6.9915H6.9672H6.94298H6.91882H6.89475H6.87074H6.84682H6.82297H6.79919H6.7755H6.75188H6.72834H6.70488H6.6815H6.65819H6.63497H6.61183H6.58877H6.5658H6.5429H6.52009H6.49736H6.47472H6.45216H6.42969H6.4073H6.385H6.36278H6.34066H6.31862H6.29667H6.27481H6.25304H6.23135H6.20976H6.18826H6.16686H6.14554H6.12432H6.10319H6.08215H6.06121H6.04037H6.01962H5.99896H5.9784H5.95794H5.93758H5.91731H5.89715H5.87708H5.85711H5.83724H5.81748H5.79781H5.77825H5.75879H5.73943H5.72018H5.70103H5.68198H5.66304H5.64421H5.62548H5.60686H5.58834H5.56994H5.55164H5.53345H5.51537H5.4974H5.47954H5.46179H5.44416H5.42663H5.40922H5.39192H5.37474H5.35766H5.34071H5.32387H5.30714H5.29053H5.27404H5.25767H5.24141H5.22528H5.20926H5.19336H5.17758H5.16192H5.14639H5.13097H5.11568H5.10051H5.08546H5.07054H5.05574H5.04107H5.02652H5.0121H4.99781H4.98364H4.9696H4.95569H4.94191H4.92825H4.91473H4.90133H4.88807H4.87494H4.86194H4.84908H4.83634H4.82374H4.81128H4.79894H4.78675H4.77469H4.76276H4.75098C4.42596 21 4.24868 20.9216 4.14943 20.8554C4.04391 20.7851 3.96109 20.6842 3.8954 20.5528C3.82776 20.4175 3.78896 20.2701 3.76862 20.1481C3.75885 20.0895 3.75435 20.0428 3.75234 20.0147C3.75151 20.003 3.75113 19.995 3.75098 19.991V18H5.75098H13.751V20H14.751C13.751 20 13.751 20.0005 13.751 20.001L13.751 20.0021L13.751 20.0043L13.751 20.0094L13.7512 20.0219C13.7513 20.0278 13.7514 20.0345 13.7516 20.042C13.7517 20.0463 13.7519 20.0509 13.752 20.0558C13.7529 20.0822 13.7545 20.1164 13.7574 20.1572C13.7632 20.2385 13.7744 20.348 13.7958 20.4769Z" fill="#A5B4CB"/>
<path d="M9.75098 8H14.751" stroke="#A5B4CB" stroke-width="2" stroke-linecap="round" stroke-linejoin="round"/>
<path d="M9.75098 12H14.751" stroke="#A5B4CB" stroke-width="2" stroke-linecap="round" stroke-linejoin="round"/>
</svg>
