<svg width="107" height="35" viewBox="0 0 107 35" fill="none" xmlns="http://www.w3.org/2000/svg">
<path d="M17.5 20C17.5 22.2125 16.5375 24.2125 15 25.575C13.675 26.775 11.925 27.5 10 27.5C5.8625 27.5 2.5 24.1375 2.5 20C2.5 17.4177 3.81944 15.1358 5.8124 13.7902C6.06387 13.6205 6.39947 13.7394 6.52918 14.0137C7.69387 16.4768 9.89654 18.3249 12.525 19.0375C13.3125 19.2625 14.1375 19.375 15 19.375C15.6571 19.375 16.2843 19.3078 16.8932 19.1848C17.1808 19.1268 17.4676 19.3117 17.4869 19.6045C17.4956 19.7367 17.5 19.8694 17.5 20Z" fill="#424EDE"/>
<path d="M22.5 10C22.5 10.975 22.3125 11.9125 21.975 12.7625C21.1125 14.9375 19.2625 16.6125 16.975 17.2375C16.35 17.4125 15.6875 17.5 15 17.5C14.3125 17.5 13.65 17.4125 13.025 17.2375C10.7375 16.6125 8.8875 14.9375 8.025 12.7625C7.6875 11.9125 7.5 10.975 7.5 10C7.5 5.8625 10.8625 2.5 15 2.5C19.1375 2.5 22.5 5.8625 22.5 10Z" fill="#FE6470"/>
<path d="M27.5 20C27.5 24.1375 24.1375 27.5 20 27.5C19.0083 27.5 18.0567 27.3073 17.1903 26.9541C16.8746 26.8255 16.8154 26.4178 17.0421 26.1632C18.5413 24.4794 19.375 22.2912 19.375 20C19.375 19.575 19.3375 19.15 19.275 18.75L19.271 18.7251C19.2362 18.5093 19.3462 18.2971 19.5377 18.1918C21.2444 17.253 22.6303 15.7965 23.4711 14.0146C23.6007 13.74 23.9365 13.6207 24.1882 13.7906C26.1808 15.1362 27.5 17.418 27.5 20Z" fill="#FFAE4E"/>
<path d="M46.837 12.5H48.639V20.609C48.639 21.901 48.214 22.8927 47.364 23.584C46.514 24.2753 45.4827 24.621 44.27 24.621C42.3093 24.621 40.9663 23.9353 40.241 22.564L41.822 21.646C42.264 22.5187 43.0913 22.955 44.304 22.955C45.0973 22.955 45.715 22.7453 46.157 22.326C46.6103 21.918 46.837 21.3457 46.837 20.609V19.572C46.1457 20.558 45.1597 21.051 43.879 21.051C42.6777 21.051 41.6633 20.626 40.836 19.776C40.0087 18.9147 39.595 17.8777 39.595 16.665C39.595 15.4523 40.0087 14.421 40.836 13.571C41.6633 12.7097 42.6777 12.279 43.879 12.279C45.1597 12.279 46.1457 12.772 46.837 13.758V12.5ZM42.196 18.569C42.7173 19.079 43.3633 19.334 44.134 19.334C44.9047 19.334 45.545 19.079 46.055 18.569C46.5763 18.059 46.837 17.4243 46.837 16.665C46.837 15.9057 46.5763 15.271 46.055 14.761C45.545 14.251 44.9047 13.996 44.134 13.996C43.3633 13.996 42.7173 14.251 42.196 14.761C41.686 15.271 41.431 15.9057 41.431 16.665C41.431 17.4243 41.686 18.059 42.196 18.569ZM52.513 10.885C52.2863 11.1117 52.0143 11.225 51.697 11.225C51.3797 11.225 51.102 11.1117 50.864 10.885C50.6373 10.647 50.524 10.3693 50.524 10.052C50.524 9.73467 50.6373 9.46267 50.864 9.236C51.0907 8.998 51.3683 8.879 51.697 8.879C52.0257 8.879 52.3033 8.998 52.53 9.236C52.7567 9.46267 52.87 9.73467 52.87 10.052C52.87 10.3693 52.751 10.647 52.513 10.885ZM50.779 21V12.5H52.615V21H50.779ZM58.7588 21.221C57.5121 21.221 56.4524 20.7903 55.5798 19.929C54.7071 19.0677 54.2708 18.008 54.2708 16.75C54.2708 15.492 54.7071 14.4323 55.5798 13.571C56.4524 12.7097 57.5121 12.279 58.7588 12.279C60.0168 12.279 61.0764 12.7097 61.9378 13.571C62.8104 14.4323 63.2468 15.492 63.2468 16.75C63.2468 18.008 62.8104 19.0677 61.9378 19.929C61.0764 20.7903 60.0168 21.221 58.7588 21.221ZM56.8718 18.671C57.3818 19.181 58.0108 19.436 58.7588 19.436C59.5068 19.436 60.1358 19.181 60.6458 18.671C61.1558 18.161 61.4108 17.5207 61.4108 16.75C61.4108 15.9793 61.1558 15.339 60.6458 14.829C60.1358 14.319 59.5068 14.064 58.7588 14.064C58.0108 14.064 57.3818 14.319 56.8718 14.829C56.3618 15.339 56.1068 15.9793 56.1068 16.75C56.1068 17.5207 56.3618 18.161 56.8718 18.671ZM69.7179 12.279C70.8853 12.279 71.8826 12.7153 72.7099 13.588C73.5373 14.4493 73.9509 15.5033 73.9509 16.75C73.9509 18.008 73.5373 19.0677 72.7099 19.929C71.8826 20.7903 70.8853 21.221 69.7179 21.221C68.4259 21.221 67.4343 20.745 66.7429 19.793V24.4H64.9069V12.5H66.7429V13.724C67.4343 12.7607 68.4259 12.279 69.7179 12.279ZM67.5079 18.705C68.0179 19.215 68.6583 19.47 69.4289 19.47C70.1996 19.47 70.8399 19.215 71.3499 18.705C71.8599 18.1837 72.1149 17.532 72.1149 16.75C72.1149 15.968 71.8599 15.322 71.3499 14.812C70.8399 14.2907 70.1996 14.03 69.4289 14.03C68.6583 14.03 68.0179 14.2907 67.5079 14.812C66.9979 15.322 66.7429 15.968 66.7429 16.75C66.7429 17.532 66.9979 18.1837 67.5079 18.705ZM77.3489 10.885C77.1223 11.1117 76.8503 11.225 76.5329 11.225C76.2156 11.225 75.9379 11.1117 75.6999 10.885C75.4733 10.647 75.3599 10.3693 75.3599 10.052C75.3599 9.73467 75.4733 9.46267 75.6999 9.236C75.9266 8.998 76.2043 8.879 76.5329 8.879C76.8616 8.879 77.1393 8.998 77.3659 9.236C77.5926 9.46267 77.7059 9.73467 77.7059 10.052C77.7059 10.3693 77.5869 10.647 77.3489 10.885ZM75.6149 21V12.5H77.4509V21H75.6149ZM83.5947 21.221C82.3481 21.221 81.2884 20.7903 80.4157 19.929C79.5431 19.0677 79.1067 18.008 79.1067 16.75C79.1067 15.492 79.5431 14.4323 80.4157 13.571C81.2884 12.7097 82.3481 12.279 83.5947 12.279C84.8527 12.279 85.9124 12.7097 86.7737 13.571C87.6464 14.4323 88.0827 15.492 88.0827 16.75C88.0827 18.008 87.6464 19.0677 86.7737 19.929C85.9124 20.7903 84.8527 21.221 83.5947 21.221ZM81.7077 18.671C82.2177 19.181 82.8467 19.436 83.5947 19.436C84.3427 19.436 84.9717 19.181 85.4817 18.671C85.9917 18.161 86.2467 17.5207 86.2467 16.75C86.2467 15.9793 85.9917 15.339 85.4817 14.829C84.9717 14.319 84.3427 14.064 83.5947 14.064C82.8467 14.064 82.2177 14.319 81.7077 14.829C81.1977 15.339 80.9427 15.9793 80.9427 16.75C80.9427 17.5207 81.1977 18.161 81.7077 18.671Z" fill="black"/>
</svg>
