<svg width="64" height="64" viewBox="0 0 64 64" fill="none" xmlns="http://www.w3.org/2000/svg">
<rect width="64" height="64" rx="20" fill="url(#paint0_linear_309_28988)" fill-opacity="0.3"/>
<path d="M41.759 23.1661H45.5284C45.8539 23.1659 46.166 23.0364 46.3961 22.8062C46.6262 22.576 46.7555 22.2638 46.7557 21.9383V18.1694C46.7557 17.844 46.6265 17.5319 46.3966 17.3016C46.1667 17.0713 45.8547 16.9417 45.5293 16.9412H41.7646C41.4392 16.9415 41.1273 17.071 40.8972 17.301C40.6671 17.5311 40.5377 17.8431 40.5373 18.1685V19.5826H37.5011C37.0007 19.5832 36.521 19.7823 36.1673 20.1361C35.8135 20.49 35.6145 20.9697 35.614 21.4701V31.5972H32.3717L32.3726 31.5746C32.3726 27.4066 28.9797 24.0155 24.8084 24.0155C20.6371 24.0155 17.2441 27.407 17.2441 31.5746C17.2441 33.5652 18.0107 35.4447 19.4032 36.8706C20.8404 38.3332 22.7604 39.1388 24.8088 39.1388C26.8573 39.1388 28.7768 38.3332 30.215 36.8696C31.3664 35.6934 32.1006 34.1721 32.3048 32.5388H35.614V42.6659C35.614 43.7068 36.4611 44.5529 37.5016 44.5529H40.5378V45.8381C40.5382 46.1618 40.667 46.4722 40.8959 46.701C41.1249 46.9299 41.4352 47.0586 41.759 47.0588H45.5284C45.8537 47.0586 46.1657 46.9292 46.3958 46.6992C46.6259 46.4692 46.7553 46.1573 46.7557 45.832V42.0612C46.7554 41.7358 46.6261 41.4239 46.3961 41.1938C46.1661 40.9637 45.8542 40.8342 45.5288 40.8339H41.7646C41.4392 40.8341 41.1272 40.9635 40.8971 41.1936C40.667 41.4237 40.5376 41.7357 40.5373 42.0612V43.6117H37.5011C37.2502 43.6114 37.0098 43.5115 36.8325 43.3341C36.6552 43.1567 36.5554 42.9162 36.5552 42.6654V32.5383H40.5373V33.9595C40.5378 34.2832 40.6667 34.5934 40.8956 34.8221C41.1245 35.0509 41.4349 35.1795 41.7585 35.1798H45.5279C45.8533 35.1795 46.1653 35.0501 46.3955 34.82C46.6256 34.5899 46.755 34.2779 46.7552 33.9525V30.1835C46.755 29.8582 46.6256 29.5462 46.3956 29.3161C46.1656 29.086 45.8537 28.9566 45.5284 28.9562H41.7646C41.4392 28.9565 41.1272 29.0859 40.8971 29.316C40.667 29.5461 40.5376 29.8581 40.5373 30.1835V31.5981H36.5552V21.4701C36.5552 20.9487 36.9797 20.5242 37.5016 20.5242H40.5378V21.9449C40.538 22.2687 40.6668 22.5792 40.8957 22.8082C41.1247 23.0371 41.4352 23.1659 41.759 23.1661ZM29.9646 35.735C29.4226 34.8721 28.6733 34.1585 27.7848 33.6593C26.9623 34.3812 25.9052 34.7793 24.8107 34.7793C23.6766 34.7793 22.6413 34.3605 21.8413 33.6687C21.3566 33.9369 20.9048 34.2757 20.5001 34.6805C20.1785 34.9988 19.8947 35.3533 19.6545 35.7369C18.701 34.5595 18.1822 33.0896 18.1853 31.5746C18.1853 27.9256 21.1566 24.9567 24.8088 24.9567C28.4611 24.9567 31.4319 27.9256 31.4319 31.5746C31.4319 33.104 30.9143 34.5595 29.9646 35.735Z" fill="url(#paint1_linear_309_28988)"/>
<path d="M24.8095 26.6621C22.8316 26.6621 21.2222 28.2715 21.2222 30.2494C21.2222 32.2273 22.8316 33.8367 24.8095 33.8367C26.7878 33.8367 28.3972 32.2273 28.3972 30.2494C28.3972 28.2715 26.7878 26.6621 24.8095 26.6621Z" fill="url(#paint2_linear_309_28988)"/>
<defs>
<linearGradient id="paint0_linear_309_28988" x1="11.3067" y1="16.5517" x2="61.3188" y2="23.6087" gradientUnits="userSpaceOnUse">
<stop stop-color="#FF6262"/>
<stop offset="1" stop-color="#F37F14"/>
</linearGradient>
<linearGradient id="paint1_linear_309_28988" x1="22.4578" y1="24.7302" x2="45.5373" y2="27.9213" gradientUnits="userSpaceOnUse">
<stop stop-color="#FF6262"/>
<stop offset="1" stop-color="#F37F14"/>
</linearGradient>
<linearGradient id="paint2_linear_309_28988" x1="22.4898" y1="28.5176" x2="28.0966" y2="29.3088" gradientUnits="userSpaceOnUse">
<stop stop-color="#FF6262"/>
<stop offset="1" stop-color="#F37F14"/>
</linearGradient>
</defs>
</svg>
