<svg width="64" height="64" viewBox="0 0 64 64" fill="none" xmlns="http://www.w3.org/2000/svg">
<rect width="64" height="64" rx="20" fill="url(#paint0_linear_309_28957)" fill-opacity="0.3"/>
<path d="M39.4173 17.3394L35.7143 17.3333C31.5541 17.3333 28.8655 20.1668 28.8655 24.5523V27.8807H25.1423C24.8206 27.8807 24.5601 28.1487 24.5601 28.4791V33.3017C24.5601 33.6322 24.8209 33.8998 25.1423 33.8998H28.8655V46.0685C28.8655 46.399 29.1261 46.6666 29.4478 46.6666H34.3055C34.6273 46.6666 34.8878 46.3987 34.8878 46.0685V33.8998H39.2411C39.5629 33.8998 39.8234 33.6322 39.8234 33.3017L39.8252 28.4791C39.8252 28.3205 39.7637 28.1685 39.6546 28.0562C39.5456 27.9439 39.3971 27.8807 39.2426 27.8807H34.8878V25.0592C34.8878 23.703 35.2024 23.0146 36.9222 23.0146L39.4167 23.0136C39.7381 23.0136 39.9987 22.7457 39.9987 22.4155V17.9375C39.9987 17.6077 39.7384 17.34 39.4173 17.3394Z" fill="url(#paint1_linear_309_28957)"/>
<defs>
<linearGradient id="paint0_linear_309_28957" x1="11.3067" y1="16.5517" x2="61.3188" y2="23.6087" gradientUnits="userSpaceOnUse">
<stop stop-color="#FF6262"/>
<stop offset="1" stop-color="#F37F14"/>
</linearGradient>
<linearGradient id="paint1_linear_309_28957" x1="27.2875" y1="24.9195" x2="39.5246" y2="25.8283" gradientUnits="userSpaceOnUse">
<stop stop-color="#FF6262"/>
<stop offset="1" stop-color="#F37F14"/>
</linearGradient>
</defs>
</svg>
