<svg width="64" height="64" viewBox="0 0 64 64" fill="none" xmlns="http://www.w3.org/2000/svg">
<rect width="64" height="64" rx="20" fill="url(#paint0_linear_309_28983)" fill-opacity="0.3"/>
<path d="M42.2651 29.5785C42.069 29.5985 41.8721 29.6089 41.6751 29.6098C40.6112 29.61 39.5641 29.3331 38.6282 28.804C37.6923 28.275 36.8971 27.5106 36.3143 26.5797V36.8981C36.3143 38.4064 35.8866 39.8809 35.0854 41.135C34.2842 42.3892 33.1454 43.3667 31.813 43.9439C30.4807 44.5211 29.0145 44.6721 27.6001 44.3779C26.1856 44.0836 24.8864 43.3573 23.8666 42.2907C22.8469 41.2241 22.1524 39.8653 21.8711 38.3859C21.5897 36.9065 21.7341 35.3731 22.286 33.9796C22.8379 32.5861 23.7725 31.395 24.9716 30.557C26.1707 29.719 27.5805 29.2718 29.0226 29.2718C29.1748 29.2718 29.3236 29.2861 29.4733 29.2959V33.0541C29.3236 33.0353 29.1766 33.0067 29.0226 33.0067C28.0356 33.0067 27.089 33.4167 26.3911 34.1467C25.6932 34.8766 25.3011 35.8667 25.3011 36.899C25.3011 37.9313 25.6932 38.9213 26.3911 39.6513C27.089 40.3812 28.0356 40.7913 29.0226 40.7913C31.0784 40.7913 32.8938 39.0973 32.8938 36.9473L32.9297 19.4229H36.3673C36.5244 20.9851 37.2015 22.4398 38.2802 23.5328C39.3589 24.6257 40.7707 25.2873 42.2685 25.4018V29.5785" fill="url(#paint1_linear_309_28983)"/>
<defs>
<linearGradient id="paint0_linear_309_28983" x1="11.3067" y1="16.5517" x2="61.3188" y2="23.6087" gradientUnits="userSpaceOnUse">
<stop stop-color="#FF6262"/>
<stop offset="1" stop-color="#F37F14"/>
</linearGradient>
<linearGradient id="paint1_linear_309_28983" x1="25.3593" y1="25.9147" x2="41.5124" y2="27.7796" gradientUnits="userSpaceOnUse">
<stop stop-color="#FF6262"/>
<stop offset="1" stop-color="#F37F14"/>
</linearGradient>
</defs>
</svg>
