<svg width="64" height="64" viewBox="0 0 64 64" fill="none" xmlns="http://www.w3.org/2000/svg">
<rect width="64" height="63.9985" rx="20" fill="url(#paint0_linear_309_28967)" fill-opacity="0.3"/>
<path fill-rule="evenodd" clip-rule="evenodd" d="M20.6667 31.9993C20.6675 29.5881 21.4373 27.2401 22.8643 25.2964C24.2914 23.3528 26.3011 21.9149 28.6014 21.1919C30.9018 20.4688 33.3728 20.4983 35.6552 21.2759C37.9377 22.0536 39.9126 23.5389 41.2929 25.516C42.6732 27.4931 43.3869 29.8588 43.3302 32.2694C43.2736 34.6799 42.4495 37.0095 40.9779 38.9196C39.5063 40.8296 37.4637 42.2206 35.1473 42.8902C32.8308 43.5598 30.3612 43.4731 28.0973 42.6428C28.8666 40.581 29.6128 38.5108 30.336 36.4324C31.1013 36.9791 32.0893 37.3324 33.3333 37.3324C35.9133 37.3324 38.6333 35.6325 39.3067 32.2606C40.156 28.0275 36.7653 23.9997 32 23.9997C29.996 23.9997 28.0253 24.805 26.5507 26.0823C25.0733 27.3635 24 29.2088 24 31.3327C24 32.366 24.312 33.5166 25.0547 34.2739C25.3063 34.5216 25.6453 34.6605 25.9984 34.6608C26.3515 34.661 26.6906 34.5226 26.9427 34.2752C27.1877 34.0303 27.3279 33.6996 27.3333 33.3532C27.3388 33.0068 27.2092 32.6718 26.972 32.4193C25.924 31.1127 27.3053 28.9581 28.2973 28.0982C29.328 27.2049 30.6893 26.6662 32 26.6662C35.236 26.6662 37.1787 29.3048 36.6933 31.738C36.288 33.7566 34.752 34.6659 33.3333 34.6659C32.2427 34.6659 31.656 34.2059 31.28 33.6099C31.4853 32.9646 31.66 32.378 31.7853 31.9007C32.0413 30.918 32.196 29.7328 31.312 28.9955C30.6547 28.4488 29.8787 28.5688 29.404 28.8075C28.52 29.2475 28 30.2794 28 31.3327C28 31.9207 28.092 32.8326 28.4227 33.7752C27.5623 36.3412 26.6563 38.8917 25.7053 41.4255C24.1542 40.3907 22.8826 38.9888 22.0036 37.3444C21.1246 35.7 20.6654 33.8639 20.6667 31.9993ZM32 18C24.268 18 18 24.2677 18 31.9993C18 39.7309 24.268 45.9986 32 45.9986C39.732 45.9986 46 39.7309 46 31.9993C46 24.2677 39.732 18 32 18Z" fill="url(#paint1_linear_309_28967)"/>
<defs>
<linearGradient id="paint0_linear_309_28967" x1="11.3067" y1="16.5513" x2="61.3187" y2="23.6085" gradientUnits="userSpaceOnUse">
<stop stop-color="#FF6262"/>
<stop offset="1" stop-color="#F37F14"/>
</linearGradient>
<linearGradient id="paint1_linear_309_28967" x1="22.9467" y1="25.241" x2="44.8269" y2="28.3286" gradientUnits="userSpaceOnUse">
<stop stop-color="#FF6262"/>
<stop offset="1" stop-color="#F37F14"/>
</linearGradient>
</defs>
</svg>
