<svg width="45" height="45" viewBox="0 0 45 45" fill="none" xmlns="http://www.w3.org/2000/svg">
<path opacity="0.4" d="M41.0489 11.82L36.4504 30.214C36.0754 31.7223 35.2966 33.0998 34.1976 34.1987C33.0986 35.2975 31.7209 36.0762 30.2126 36.4509L11.8185 41.0512C11.2968 41.1825 10.7607 41.2487 10.2227 41.2483C9.23864 41.244 8.26843 41.016 7.3854 40.5817C6.50237 40.1473 5.72962 39.5179 5.12555 38.7411C4.52148 37.9642 4.1019 37.0602 3.8985 36.0974C3.69511 35.1346 3.71323 34.1381 3.95149 33.1833L8.55002 14.7892C8.92499 13.281 9.70382 11.9034 10.8028 10.8046C11.9018 9.70572 13.2795 8.92709 14.7878 8.55234L33.1819 3.95199C34.2688 3.68037 35.4075 3.69483 36.4871 3.99397C37.5668 4.2931 38.5506 4.86672 39.3427 5.65895C40.1349 6.45119 40.7083 7.43505 41.0073 8.51473C41.3064 9.59442 41.3207 10.7331 41.0489 11.82Z" fill="url(#paint0_linear_309_11646)"/>
<path d="M29.7656 22.5016C29.7656 23.9386 29.3395 25.3433 28.5412 26.5382C27.7428 27.733 26.6081 28.6642 25.2804 29.2141C23.9528 29.7641 22.4919 29.908 21.0826 29.6276C19.6732 29.3473 18.3785 28.6553 17.3624 27.6392C16.3463 26.623 15.6543 25.3284 15.374 23.919C15.0936 22.5096 15.2375 21.0488 15.7874 19.7212C16.3374 18.3935 17.2686 17.2588 18.4634 16.4604C19.6583 15.6621 21.063 15.236 22.5 15.236C24.4263 15.2381 26.2731 16.0043 27.6352 17.3664C28.9973 18.7285 29.7635 20.5753 29.7656 22.5016Z" fill="url(#paint1_linear_309_11646)"/>
<defs>
<linearGradient id="paint0_linear_309_11646" x1="10.3805" y1="13.4541" x2="39.6725" y2="17.5867" gradientUnits="userSpaceOnUse">
<stop stop-color="#FF6262"/>
<stop offset="1" stop-color="#F37F14"/>
</linearGradient>
<linearGradient id="paint1_linear_309_11646" x1="17.8016" y1="18.994" x2="29.1569" y2="20.5963" gradientUnits="userSpaceOnUse">
<stop stop-color="#FF6262"/>
<stop offset="1" stop-color="#F37F14"/>
</linearGradient>
</defs>
</svg>
