<svg width="25" height="24" viewBox="0 0 25 24" fill="none" xmlns="http://www.w3.org/2000/svg">
<path d="M21.0499 9.07501L19.9249 7.95001L16.5499 4.57501L15.4249 3.45001C15.0499 3.07501 14.4499 3.07501 14.0749 3.45001C13.6999 3.82501 13.6999 4.42501 14.0749 4.80001L14.4499 5.25001L8.3749 10.2L7.8499 9.75001C7.4749 9.37501 6.8749 9.37501 6.4999 9.75001C6.1249 10.125 6.1249 10.725 6.4999 11.1L7.6249 12.225L9.3499 13.95L3.6499 19.65C3.2749 20.025 3.2749 20.625 3.6499 21C3.8749 21.225 4.0999 21.3 4.3249 21.3C4.5499 21.3 4.8499 21.225 4.9999 21L10.6999 15.3L12.3499 16.95L13.4749 18.075C13.6999 18.3 13.9249 18.375 14.1499 18.375C14.3749 18.375 14.6749 18.3 14.8249 18.075C15.1999 17.7 15.1999 17.1 14.8249 16.725L14.2999 16.2L19.2499 10.125L19.6249 10.5C19.8499 10.725 20.0749 10.8 20.2999 10.8C20.5249 10.8 20.8249 10.725 20.9749 10.5C21.4249 10.125 21.4249 9.45001 21.0499 9.07501ZM12.9499 14.775L9.7249 11.55L15.7999 6.60001L17.8999 8.70001L12.9499 14.775Z" fill="url(#paint0_linear_309_29999)"/>
<defs>
<linearGradient id="paint0_linear_309_29999" x1="6.54048" y1="7.85788" x2="20.5756" y2="9.81893" gradientUnits="userSpaceOnUse">
<stop stop-color="#FF6262"/>
<stop offset="1" stop-color="#F37F14"/>
</linearGradient>
</defs>
</svg>
