<svg width="25" height="25" viewBox="0 0 25 25" fill="none" xmlns="http://www.w3.org/2000/svg">
<circle opacity="0.2" cx="12.5" cy="12.5002" r="12.5" fill="#FF9051"/>
<path d="M14.1045 17.5002H11.2278C9.34826 17.5002 7.82396 16.2272 7.82396 14.6589C7.82396 14.2807 8.21363 13.967 8.68353 13.967C9.15342 13.967 9.54309 14.2807 9.54309 14.6589C9.54309 15.4615 10.2995 16.1165 11.2278 16.1165H14.1045C14.8495 16.1165 15.4684 15.5814 15.4684 14.9357C15.4684 14.1331 15.1131 13.9763 14.5286 13.8102L9.90984 12.5002C9.01589 12.2512 7.8125 11.7161 7.8125 10.0648C7.8125 8.64416 9.19927 7.50024 10.8955 7.50024H13.7722C15.6517 7.50024 17.176 8.77331 17.176 10.3416C17.176 10.7198 16.7864 11.0335 16.3165 11.0335C15.8466 11.0335 15.4569 10.7198 15.4569 10.3416C15.4569 9.53899 14.7005 8.88401 13.7722 8.88401H10.8955C10.1505 8.88401 9.53163 9.41906 9.53163 10.0648C9.53163 10.8674 9.88692 11.0242 10.4714 11.1903L15.0902 12.5002C15.9841 12.7493 17.1875 13.2844 17.1875 14.9357C17.176 16.3471 15.8007 17.5002 14.1045 17.5002Z" fill="#FF9051"/>
<path d="M12.4997 18.7502C12.1336 18.7502 11.8301 18.4354 11.8301 18.0557V6.94463C11.8301 6.565 12.1336 6.25018 12.4997 6.25018C12.8658 6.25018 13.1694 6.565 13.1694 6.94463V18.0557C13.1694 18.4354 12.8658 18.7502 12.4997 18.7502Z" fill="#FF9051"/>
</svg>
