<svg width="16" height="17" viewBox="0 0 16 17" fill="none" xmlns="http://www.w3.org/2000/svg">
<path fill-rule="evenodd" clip-rule="evenodd" d="M2 8.5H0C0 12.9183 3.58172 16.5 8 16.5C12.4183 16.5 16 12.9183 16 8.5C16 4.08172 12.4183 0.5 8 0.5C6.02398 0.5 4.16546 1.22183 2.7291 2.48124L1.92269 1.91658C1.58612 1.68092 1.12474 1.92926 1.13609 2.33998L1.23445 5.89665C1.24371 6.2313 1.57283 6.4625 1.89079 6.35769L5.27756 5.24134C5.66844 5.11249 5.74495 4.59296 5.40782 4.35689L4.43296 3.67429C5.44767 2.92282 6.68853 2.5 8 2.5C11.3137 2.5 14 5.18629 14 8.5C14 11.8137 11.3137 14.5 8 14.5C4.68629 14.5 2 11.8137 2 8.5Z" fill="#FF6262"/>
</svg>
