<svg width="20" height="20" viewBox="0 0 20 20" fill="none" xmlns="http://www.w3.org/2000/svg">
<path d="M15.8333 17.5H4.16667C3.72464 17.5 3.30072 17.3244 2.98816 17.0118C2.67559 16.6993 2.5 16.2754 2.5 15.8333V4.16667C2.5 3.72464 2.67559 3.30072 2.98816 2.98816C3.30072 2.67559 3.72464 2.5 4.16667 2.5H13.3333L17.5 6.66667V15.8333C17.5 16.2754 17.3244 16.6993 17.0118 17.0118C16.6993 17.3244 16.2754 17.5 15.8333 17.5Z" stroke="url(#paint0_linear_309_29798)" stroke-width="2" stroke-linecap="round" stroke-linejoin="round"/>
<path d="M14.1668 17.5V10.8334H5.8335V17.5" stroke="url(#paint1_linear_309_29798)" stroke-width="2" stroke-linecap="round" stroke-linejoin="round"/>
<path d="M5.8335 2.5V6.66667H12.5002" stroke="url(#paint2_linear_309_29798)" stroke-width="2" stroke-linecap="round" stroke-linejoin="round"/>
<defs>
<linearGradient id="paint0_linear_309_29798" x1="5.15" y1="6.37931" x2="16.8716" y2="8.0333" gradientUnits="userSpaceOnUse">
<stop stop-color="#FF6262"/>
<stop offset="1" stop-color="#F37F14"/>
</linearGradient>
<linearGradient id="paint1_linear_309_29798" x1="7.30572" y1="12.5575" x2="13.747" y2="13.6936" gradientUnits="userSpaceOnUse">
<stop stop-color="#FF6262"/>
<stop offset="1" stop-color="#F37F14"/>
</linearGradient>
<linearGradient id="paint2_linear_309_29798" x1="7.01127" y1="3.57759" x2="12.0669" y2="4.71899" gradientUnits="userSpaceOnUse">
<stop stop-color="#FF6262"/>
<stop offset="1" stop-color="#F37F14"/>
</linearGradient>
</defs>
</svg>
