<svg width="136" height="35" viewBox="0 0 136 35" fill="none" xmlns="http://www.w3.org/2000/svg">
<path fill-rule="evenodd" clip-rule="evenodd" d="M14.9625 0C19.2555 0 22.7355 3.48005 22.7355 7.773H7.773C3.48005 7.773 0 4.29296 0 0H14.9625ZM34.19 30.1997C33.7591 30.1061 33.3529 29.9837 32.9714 29.8326C31.9889 29.4358 31.167 28.8973 30.5058 28.2172C29.8634 27.5181 29.3816 26.6962 29.0604 25.7515C28.7621 24.8193 28.611 23.8135 28.607 22.7341C27.9178 22.534 27.1891 22.4267 26.4352 22.4267H11.4727C11.4727 26.7196 14.9528 30.1997 19.2457 30.1997H34.19ZM30.629 16.936C29.6213 13.8116 26.6895 11.5513 23.2298 11.5513H3.19923C3.19923 15.8443 6.67962 19.3243 10.9726 19.3243H24.2454H29.1661C29.1779 19.2938 29.1899 19.2634 29.2021 19.2332C29.5775 18.3288 30.0532 17.563 30.629 16.936Z" fill="url(#paint0_linear_489_5854)"/>
<path d="M29.5251 22.3044C29.5251 20.9818 29.7235 19.8293 30.1203 18.8468C30.536 17.8455 31.0744 17.0142 31.7357 16.3529C32.397 15.6916 33.1527 15.1909 34.003 14.8508C34.8721 14.5107 35.7601 14.3407 36.667 14.3407C38.7831 14.3407 40.4552 14.9925 41.6832 16.2962C42.9113 17.581 43.5254 19.4798 43.5254 21.9927C43.5254 22.2383 43.5159 22.5122 43.497 22.8145C43.4781 23.0979 43.4593 23.353 43.4404 23.5797H33.8613C33.9557 24.4488 34.3619 25.1385 35.0799 25.6486C35.7979 26.1587 36.7614 26.4138 37.9706 26.4138C38.7453 26.4138 39.501 26.3477 40.2379 26.2154C41.1934 26.0243 42.2347 26.6126 42.3936 27.574L42.4887 28.1494C42.5827 28.7182 42.2921 29.2806 41.7399 29.4462C41.3621 29.5596 40.9369 29.654 40.4646 29.7296C40.0112 29.8241 39.5199 29.8997 38.9909 29.9563C38.4619 30.013 37.9328 30.0414 37.4038 30.0414C36.0624 30.0414 34.891 29.843 33.8896 29.4462C32.9071 29.0495 32.0852 28.511 31.424 27.8308C30.7816 27.1317 30.2998 26.3099 29.9786 25.3652C29.6763 24.4205 29.5251 23.4002 29.5251 22.3044ZM39.4443 20.689C39.4254 20.33 39.3593 19.9805 39.246 19.6404C39.1515 19.3003 38.9909 18.998 38.7642 18.7335C38.5563 18.469 38.2824 18.2517 37.9423 18.0817C37.6211 17.9116 37.2149 17.8266 36.7236 17.8266C36.2513 17.8266 35.8451 17.9116 35.505 18.0817C35.1649 18.2328 34.8815 18.4406 34.6548 18.7051C34.4281 18.9697 34.2486 19.2814 34.1163 19.6404C34.003 19.9805 33.9179 20.33 33.8613 20.689H39.4443Z" fill="#343434"/>
<path d="M52.7073 19.272L55.505 14.9678C55.5984 14.8241 55.7581 14.7375 55.9294 14.7375H59.0379C59.4491 14.7375 59.6887 15.2019 59.4503 15.537L54.9178 21.9076C56.0515 23.3247 57.0812 24.7039 58.007 26.0454C58.6599 26.9915 59.2189 27.8671 59.6839 28.6722C59.9369 29.1103 59.6139 29.6446 59.1081 29.6446H56.088C55.8387 29.6446 55.6099 29.5072 55.4916 29.2878C55.3808 29.0822 55.2557 28.8516 55.1162 28.596C54.8895 28.1614 54.6344 27.7174 54.351 27.264C54.0676 26.7917 53.7653 26.3288 53.4441 25.8753C53.1418 25.403 52.8395 24.9779 52.5372 24.6C52.2538 24.959 51.961 25.3557 51.6587 25.7903C51.3753 26.2248 51.1013 26.6688 50.8368 27.1223C50.5723 27.5568 50.3078 27.9914 50.0433 28.426C49.8762 28.7215 49.7223 29.004 49.5814 29.2733C49.463 29.4998 49.23 29.6446 48.9743 29.6446H46.1562C45.6592 29.6446 45.3395 29.1288 45.5864 28.6976C45.7172 28.4693 45.8613 28.2276 46.0189 27.9725C46.4157 27.3301 46.8408 26.6688 47.2942 25.9887C47.7666 25.2896 48.2578 24.6 48.7679 23.9198C49.2781 23.2207 49.7788 22.5689 50.27 21.9643C49.4198 20.774 48.5696 19.5743 47.7193 18.3651C47.058 17.4098 46.4024 16.466 45.7526 15.5337C45.5185 15.1979 45.7587 14.7375 46.1679 14.7375H49.4852C49.6565 14.7375 49.8162 14.8241 49.9096 14.9678L52.7073 19.272Z" fill="#343434"/>
<path d="M72.0273 22.3044C72.0273 21.0007 71.7345 19.9616 71.1488 19.1869C70.5631 18.3934 69.694 17.9966 68.5415 17.9966C68.1636 17.9966 67.8141 18.0155 67.4929 18.0533C67.0312 18.0805 66.6993 18.4745 66.6993 18.9369V24.8409C66.6993 25.4149 66.9903 25.9645 67.5387 26.1344C67.5973 26.1526 67.6576 26.1701 67.7196 26.1871C68.1541 26.3004 68.5887 26.3571 69.0233 26.3571C71.026 26.3571 72.0273 25.0062 72.0273 22.3044ZM76.3351 22.191C76.3351 23.3435 76.1934 24.3922 75.91 25.3368C75.6266 26.2815 75.2109 27.094 74.663 27.7741C74.1151 28.4543 73.4349 28.9833 72.6225 29.3612C71.8101 29.7391 70.8748 29.928 69.8168 29.928C69.2311 29.928 68.6832 29.8713 68.173 29.758C67.6629 29.6446 67.1717 29.484 66.6993 29.2762V34.2128C66.6993 34.5855 66.3972 34.8876 66.0245 34.8876H63.1514C62.7787 34.8876 62.4766 34.5855 62.4766 34.2128V16.5886C62.4766 15.7927 62.9986 15.0862 63.7802 14.9358C64.2715 14.8225 64.7816 14.728 65.3106 14.6524C65.8586 14.5769 66.4065 14.5202 66.9544 14.4824C67.5212 14.4257 68.0597 14.3974 68.5698 14.3974C69.7979 14.3974 70.8937 14.5863 71.8573 14.9642C72.8209 15.3232 73.6333 15.8427 74.2946 16.5229C74.9559 17.1842 75.4566 17.9966 75.7966 18.9602C76.1556 19.9238 76.3351 21.0007 76.3351 22.191Z" fill="#343434"/>
<path d="M78.872 22.3044C78.872 20.9818 79.0704 19.8293 79.4672 18.8468C79.8828 17.8455 80.4213 17.0142 81.0826 16.3529C81.7439 15.6916 82.4996 15.1909 83.3498 14.8508C84.2189 14.5107 85.107 14.3407 86.0139 14.3407C88.1299 14.3407 89.802 14.9925 91.0301 16.2962C92.2582 17.581 92.8723 19.4798 92.8723 21.9927C92.8723 22.2383 92.8628 22.5122 92.8439 22.8145C92.825 23.0979 92.8061 23.353 92.7873 23.5797H83.2081C83.3026 24.4488 83.7088 25.1385 84.4268 25.6486C85.1447 26.1587 86.1083 26.4138 87.3175 26.4138C88.0922 26.4138 88.8479 26.3477 89.5848 26.2154C90.5403 26.0243 91.5816 26.6126 91.7405 27.574L91.8356 28.1494C91.9296 28.7182 91.639 29.2806 91.0868 29.4462C90.7089 29.5596 90.2838 29.654 89.8115 29.7296C89.358 29.8241 88.8668 29.8997 88.3378 29.9563C87.8088 30.013 87.2797 30.0414 86.7507 30.0414C85.4093 30.0414 84.2378 29.843 83.2365 29.4462C82.254 29.0495 81.4321 28.511 80.7709 27.8308C80.1285 27.1317 79.6467 26.3099 79.3255 25.3652C79.0232 24.4205 78.872 23.4002 78.872 22.3044ZM88.4356 20.689C88.6289 20.689 88.7841 20.5265 88.7569 20.3351C88.7233 20.0993 88.6686 19.8677 88.5928 19.6404C88.4984 19.3003 88.3378 18.998 88.1111 18.7335C87.9032 18.469 87.6293 18.2517 87.2892 18.0817C86.968 17.9116 86.5618 17.8266 86.0705 17.8266C85.5982 17.8266 85.192 17.9116 84.8519 18.0817C84.5118 18.2328 84.2284 18.4406 84.0017 18.7051C83.7749 18.9697 83.5955 19.2814 83.4632 19.6404C83.3911 19.8568 83.3304 20.077 83.2812 20.301C83.2368 20.5035 83.3957 20.689 83.603 20.689H88.4356Z" fill="#343434"/>
<path d="M105.386 17.1437C105.238 17.871 104.513 18.3302 103.783 18.195C103.273 18.0817 102.725 18.025 102.139 18.025C101.875 18.025 101.553 18.0533 101.176 18.11C100.817 18.1478 100.543 18.195 100.354 18.2517V29.6446H96.131V15.531C96.8867 15.2665 97.7747 15.0209 98.795 14.7941C99.8342 14.5485 100.987 14.4257 102.253 14.4257C102.479 14.4257 102.753 14.4446 103.074 14.4824C103.396 14.5013 103.717 14.5391 104.038 14.5958C104.359 14.6336 104.68 14.6902 105.002 14.7658C105.49 14.8521 105.752 15.3433 105.653 15.8297L105.386 17.1437Z" fill="#343434"/>
<path d="M107.102 22.3044C107.102 20.9818 107.3 19.8293 107.697 18.8468C108.113 17.8455 108.651 17.0142 109.312 16.3529C109.974 15.6916 110.729 15.1909 111.58 14.8508C112.449 14.5107 113.337 14.3407 114.244 14.3407C116.36 14.3407 118.032 14.9925 119.26 16.2962C120.488 17.581 121.102 19.4798 121.102 21.9927C121.102 22.2383 121.093 22.5122 121.074 22.8145C121.045 23.2473 120.683 23.5797 120.25 23.5797H111.438C111.532 24.4488 111.939 25.1385 112.657 25.6486C113.375 26.1587 114.338 26.4138 115.547 26.4138C116.322 26.4138 117.078 26.3477 117.815 26.2154C118.77 26.0243 119.811 26.6126 119.97 27.574L120.065 28.1494C120.159 28.7182 119.869 29.2806 119.317 29.4462C118.939 29.5596 118.514 29.654 118.041 29.7296C117.588 29.8241 117.097 29.8997 116.568 29.9563C116.039 30.013 115.51 30.0414 114.981 30.0414C113.639 30.0414 112.468 29.843 111.466 29.4462C110.484 29.0495 109.662 28.511 109.001 27.8308C108.358 27.1317 107.877 26.3099 107.555 25.3652C107.253 24.4205 107.102 23.4002 107.102 22.3044ZM116.843 20.689C116.94 20.689 117.017 20.6079 117.008 20.5117C116.979 20.2147 116.917 19.9242 116.823 19.6404C116.728 19.3003 116.568 18.998 116.341 18.7335C116.133 18.469 115.859 18.2517 115.519 18.0817C115.198 17.9116 114.792 17.8266 114.3 17.8266C113.828 17.8266 113.422 17.9116 113.082 18.0817C112.742 18.2328 112.458 18.4406 112.232 18.7051C112.005 18.9697 111.825 19.2814 111.693 19.6404C111.6 19.9187 111.526 20.2034 111.472 20.4944C111.452 20.5963 111.532 20.689 111.635 20.689H116.843Z" fill="#343434"/>
<path d="M123.652 22.191C123.652 21.1141 123.822 20.1033 124.162 19.1586C124.521 18.195 125.032 17.3637 125.693 16.6646C126.354 15.9467 127.157 15.3799 128.102 14.9642C129.046 14.5485 130.123 14.3407 131.333 14.3407C132.126 14.3407 132.854 14.4163 133.515 14.5674C133.699 14.6043 133.883 14.6464 134.064 14.6937C134.874 14.9042 135.286 15.7624 135.075 16.5721L134.907 17.2155C134.724 17.9198 133.967 18.3082 133.26 18.1383C132.787 18.025 132.258 17.9683 131.673 17.9683C130.426 17.9683 129.49 18.3556 128.867 19.1303C128.262 19.9049 127.96 20.9252 127.96 22.191C127.96 23.5325 128.243 24.5716 128.81 25.3085C129.396 26.0454 130.407 26.4138 131.843 26.4138C132.353 26.4138 132.901 26.3665 133.486 26.2721C134.335 26.1352 135.241 26.6292 135.387 27.4761L135.47 27.9575C135.603 28.7299 135.185 29.4972 134.425 29.686C134.244 29.731 134.054 29.7738 133.855 29.8146C133.118 29.9658 132.306 30.0414 131.418 30.0414C130.057 30.0414 128.886 29.843 127.903 29.4462C126.921 29.0306 126.109 28.4732 125.466 27.7741C124.843 27.0751 124.38 26.2532 124.077 25.3085C123.794 24.3449 123.652 23.3058 123.652 22.191Z" fill="#343434"/>
<path d="M110.508 12.443C110.508 11.0684 111.622 9.95414 112.996 9.95414H117.787C117.787 11.3287 116.673 12.443 115.298 12.443H110.508Z" fill="url(#paint1_linear_489_5854)"/>
<defs>
<linearGradient id="paint0_linear_489_5854" x1="6.04026" y1="7.81027" x2="32.6117" y2="12.0551" gradientUnits="userSpaceOnUse">
<stop stop-color="#FF6262"/>
<stop offset="1" stop-color="#F37F14"/>
</linearGradient>
<linearGradient id="paint1_linear_489_5854" x1="111.794" y1="11.7993" x2="116.751" y2="9.75325" gradientUnits="userSpaceOnUse">
<stop stop-color="#FF6262"/>
<stop offset="1" stop-color="#F37F14"/>
</linearGradient>
</defs>
</svg>
