<svg width="20" height="20" viewBox="0 0 20 20" fill="none" xmlns="http://www.w3.org/2000/svg">
<path d="M3.81296 14.1759L4.66652 15.0295V13.8223V4.16687C4.66652 4.07845 4.70164 3.99365 4.76416 3.93113C4.82667 3.86861 4.91145 3.8335 4.99985 3.8335C5.08825 3.8335 5.17303 3.86861 5.23554 3.93113C5.29806 3.99365 5.33318 4.07845 5.33318 4.16687V13.8223V15.0295L6.18675 14.1759L7.26049 13.1021C7.32309 13.0428 7.40624 13.0101 7.49251 13.0109C7.5799 13.0116 7.6635 13.0467 7.7253 13.1085C7.78711 13.1703 7.82217 13.2539 7.82293 13.3413C7.82368 13.4276 7.79095 13.5108 7.7317 13.5734L5.23551 16.0697C5.23549 16.0697 5.23547 16.0697 5.23546 16.0698C5.17295 16.1322 5.08821 16.1673 4.99985 16.1673C4.91149 16.1673 4.82675 16.1322 4.76425 16.0698C4.76423 16.0697 4.76421 16.0697 4.76419 16.0697L2.268 13.5734C2.20875 13.5108 2.17602 13.4276 2.17677 13.3413C2.17753 13.2539 2.21259 13.1703 2.2744 13.1085C2.3362 13.0467 2.4198 13.0116 2.50719 13.0109C2.59346 13.0101 2.67661 13.0428 2.73921 13.1021L3.81296 14.1759ZM10.5975 5.59788C10.66 5.53536 10.7448 5.50024 10.8332 5.50024H17.4999C17.5882 5.50024 17.673 5.53536 17.7355 5.59788C17.7981 5.6604 17.8332 5.74519 17.8332 5.83362C17.8332 5.92204 17.7981 6.00684 17.7355 6.06936C17.673 6.13187 17.5882 6.16699 17.4999 6.16699H10.8332C10.7448 6.16699 10.66 6.13187 10.5975 6.06936C10.535 6.00684 10.4999 5.92204 10.4999 5.83362C10.4999 5.74519 10.535 5.6604 10.5975 5.59788ZM11.9022 14.4031L12.2558 14.7566L11.9022 14.4031C11.8397 14.4656 11.7549 14.5007 11.6665 14.5007H10.8332C10.7448 14.5007 10.66 14.4656 10.5975 14.4031C10.535 14.3406 10.4999 14.2558 10.4999 14.1674C10.4999 14.0789 10.535 13.9941 10.5975 13.9316C10.66 13.8691 10.7448 13.834 10.8332 13.834H11.6665C11.7549 13.834 11.8397 13.8691 11.9022 13.9316C11.9647 13.9941 11.9999 14.0789 11.9999 14.1674C11.9999 14.2558 11.9647 14.3406 11.9022 14.4031ZM10.5975 9.76475C10.66 9.70223 10.7448 9.66711 10.8332 9.66711H14.1665C14.2549 9.66711 14.3397 9.70223 14.4022 9.76475C14.4647 9.82727 14.4999 9.91206 14.4999 10.0005C14.4999 10.0889 14.4647 10.1737 14.4022 10.2362C14.3397 10.2987 14.2549 10.3339 14.1665 10.3339H10.8332C10.7448 10.3339 10.66 10.2987 10.5975 10.2362C10.535 10.1737 10.4999 10.0889 10.4999 10.0005C10.4999 9.91206 10.535 9.82727 10.5975 9.76475Z" fill="black" stroke="url(#paint0_linear_309_29833)"/>
<defs>
<linearGradient id="paint0_linear_309_29833" x1="4.61939" y1="6.78189" x2="17.4945" y2="9.05136" gradientUnits="userSpaceOnUse">
<stop stop-color="#FF6262"/>
<stop offset="1" stop-color="#F37F14"/>
</linearGradient>
</defs>
</svg>
