<svg width="18" height="20" viewBox="0 0 18 20" fill="none" xmlns="http://www.w3.org/2000/svg">
<path d="M17.997 8.18385C17.8251 8.1988 17.6526 8.20663 17.4799 8.20733C16.5475 8.20744 15.6297 7.99975 14.8094 7.60298C13.9892 7.20622 13.2922 6.63288 12.7814 5.93472V13.6735C12.7814 14.8048 12.4066 15.9106 11.7044 16.8512C11.0022 17.7918 10.0041 18.525 8.83635 18.9579C7.6686 19.3908 6.38364 19.5041 5.14396 19.2834C3.90428 19.0627 2.76556 18.5179 1.8718 17.718C0.978043 16.9181 0.369386 15.8989 0.122799 14.7894C-0.123788 13.6799 0.00276847 12.5298 0.486467 11.4847C0.970166 10.4395 1.78928 9.54622 2.84023 8.91772C3.89118 8.28923 5.12676 7.95377 6.39073 7.95377C6.52413 7.95377 6.65454 7.9645 6.7857 7.97188V10.7905C6.65454 10.7764 6.52563 10.7549 6.39073 10.7549C5.52567 10.7549 4.69605 11.0625 4.08436 11.61C3.47268 12.1574 3.12904 12.9 3.12904 13.6742C3.12904 14.4484 3.47268 15.1909 4.08436 15.7384C4.69605 16.2859 5.52567 16.5934 6.39073 16.5934C8.19245 16.5934 9.78357 15.323 9.78357 13.7104L9.81505 0.567139H12.8279C12.9656 1.73878 13.559 2.82984 14.5045 3.64954C15.4499 4.46924 16.6872 4.96541 18 5.0513V8.18385" fill="#A5B4CB"/>
</svg>
