<svg width="20" height="20" viewBox="0 0 20 20" fill="none" xmlns="http://www.w3.org/2000/svg">
<path fill-rule="evenodd" clip-rule="evenodd" d="M14.1663 6.66663C14.6266 6.66663 14.9997 7.03972 14.9997 7.49996V15.8333C14.9997 17.214 13.8804 18.3333 12.4997 18.3333H7.49967C6.11896 18.3333 4.99967 17.214 4.99967 15.8333V7.49996C4.99967 7.03972 5.37277 6.66663 5.83301 6.66663H14.1663ZM13.333 8.33329H6.66634V15.8333C6.66634 16.2935 7.03944 16.6666 7.49967 16.6666H12.4997C12.9599 16.6666 13.333 16.2935 13.333 15.8333V8.33329ZM7.49967 2.49996C7.49967 2.03972 7.87277 1.66663 8.33301 1.66663H11.6663C12.1266 1.66663 12.4997 2.03972 12.4997 2.49996V3.33329H15.833C16.2932 3.33329 16.6663 3.70639 16.6663 4.16663C16.6663 4.62686 16.2932 4.99996 15.833 4.99996H4.16634C3.7061 4.99996 3.33301 4.62686 3.33301 4.16663C3.33301 3.70639 3.7061 3.33329 4.16634 3.33329H7.49967V2.49996Z" fill="#FFC2C2"/>
</svg>
