<svg width="25" height="6" viewBox="0 0 25 6" fill="none" xmlns="http://www.w3.org/2000/svg">
<path fill-rule="evenodd" clip-rule="evenodd" d="M5.83333 3.33329C5.83333 4.80605 4.63943 5.99996 3.16667 5.99996C1.69391 5.99996 0.5 4.80605 0.5 3.33329C0.5 1.86053 1.69391 0.666626 3.16667 0.666626C4.63943 0.666626 5.83333 1.86053 5.83333 3.33329ZM15.1678 3.33329C15.1678 4.80605 13.9739 5.99996 12.5011 5.99996C11.0284 5.99996 9.83447 4.80605 9.83447 3.33329C9.83447 1.86053 11.0284 0.666626 12.5011 0.666626C13.9739 0.666626 15.1678 1.86053 15.1678 3.33329ZM21.8356 5.99996C23.3084 5.99996 24.5023 4.80605 24.5023 3.33329C24.5023 1.86053 23.3084 0.666626 21.8356 0.666626C20.3629 0.666626 19.1689 1.86053 19.1689 3.33329C19.1689 4.80605 20.3629 5.99996 21.8356 5.99996Z" fill="#262F56"/>
</svg>
