<svg width="18" height="5" viewBox="0 0 18 5" fill="none" xmlns="http://www.w3.org/2000/svg">
<path fill-rule="evenodd" clip-rule="evenodd" d="M4 2.5C4 3.60457 3.10457 4.5 2 4.5C0.895431 4.5 0 3.60457 0 2.5C0 1.39543 0.895431 0.5 2 0.5C3.10457 0.5 4 1.39543 4 2.5ZM11 2.5C11 3.60457 10.1046 4.5 9 4.5C7.89543 4.5 7 3.60457 7 2.5C7 1.39543 7.89543 0.5 9 0.5C10.1046 0.5 11 1.39543 11 2.5ZM16 4.5C17.1046 4.5 18 3.60457 18 2.5C18 1.39543 17.1046 0.5 16 0.5C14.8954 0.5 14 1.39543 14 2.5C14 3.60457 14.8954 4.5 16 4.5Z" fill="#A5B4CB"/>
</svg>
