<svg width="25" height="24" viewBox="0 0 25 24" fill="none" xmlns="http://www.w3.org/2000/svg">
<path fill-rule="evenodd" clip-rule="evenodd" d="M16.0953 6.00057C15.2996 6.00057 14.5366 6.31664 13.974 6.87925C13.4113 7.44186 13.0953 8.20492 13.0953 9.00057C13.0953 9.79622 13.4113 10.5593 13.974 11.1219C14.5366 11.6845 15.2996 12.0006 16.0953 12.0006C16.8909 12.0006 17.654 11.6845 18.2166 11.1219C18.7792 10.5593 19.0953 9.79622 19.0953 9.00057C19.0953 8.20492 18.7792 7.44186 18.2166 6.87925C17.654 6.31664 16.8909 6.00057 16.0953 6.00057ZM11.0953 9.00057C11.0953 8.18553 11.2945 7.38284 11.6757 6.66241C12.0568 5.94198 12.6083 5.32564 13.2821 4.86707C13.9559 4.40851 14.7316 4.12161 15.5416 4.03136C16.3517 3.94111 17.1715 4.05025 17.9297 4.34928C18.6879 4.6483 19.3615 5.12814 19.8919 5.74702C20.4222 6.3659 20.7933 7.10505 20.9727 7.9001C21.1521 8.69516 21.1344 9.52202 20.9211 10.3087C20.7079 11.0953 20.3056 11.8179 19.7493 12.4136C21.4457 12.9654 22.9124 14.0623 23.9213 15.5336C24.062 15.7527 24.1117 16.0182 24.0597 16.2734C24.0077 16.5286 23.8582 16.7535 23.643 16.9002C23.4278 17.0469 23.1638 17.1038 22.9073 17.0589C22.6507 17.0139 22.4218 16.8707 22.2693 16.6596C21.2933 15.2276 19.5133 14.0006 17.0953 14.0006C13.2613 14.0006 11.0953 17.0746 11.0953 19.0006C11.0953 19.2658 10.9899 19.5201 10.8024 19.7077C10.6148 19.8952 10.3605 20.0006 10.0953 20.0006C9.83006 20.0006 9.5757 19.8952 9.38817 19.7077C9.20063 19.5201 9.09527 19.2658 9.09527 19.0006C9.09527 18.3086 9.25327 17.5706 9.55527 16.8436C9.47675 16.7927 9.40573 16.7311 9.34427 16.6606C8.52327 15.7266 7.24927 15.0006 5.59527 15.0006C3.94127 15.0006 2.66727 15.7266 1.84627 16.6606C1.6685 16.8494 1.42432 16.9618 1.16527 16.974C0.906208 16.9862 0.652537 16.8973 0.457787 16.726C0.263036 16.5548 0.14244 16.3145 0.121447 16.056C0.100455 15.7976 0.18071 15.541 0.345274 15.3406C0.935791 14.6685 1.65186 14.1182 2.45327 13.7206C1.81298 13.0957 1.37349 12.2941 1.19094 11.4183C1.00839 10.5424 1.09107 9.632 1.42841 8.80335C1.76575 7.9747 2.34244 7.26542 3.08483 6.7661C3.82722 6.26677 4.70159 6.00008 5.59627 6.00008C6.49096 6.00008 7.36533 6.26677 8.10772 6.7661C8.8501 7.26542 9.4268 7.9747 9.76414 8.80335C10.1015 9.632 10.1842 10.5424 10.0016 11.4183C9.81906 12.2941 9.37957 13.0957 8.73927 13.7206C9.43303 14.0649 10.0636 14.524 10.6043 15.0786C11.2835 14.2239 12.1284 13.5154 13.0883 12.9956C12.4688 12.53 11.9662 11.9267 11.6203 11.2333C11.2744 10.5399 11.0946 9.77547 11.0953 9.00057ZM3.09527 10.5006C3.09527 9.83753 3.35867 9.20164 3.82751 8.7328C4.29635 8.26396 4.93223 8.00057 5.59527 8.00057C6.25832 8.00057 6.8942 8.26396 7.36304 8.7328C7.83188 9.20164 8.09527 9.83753 8.09527 10.5006C8.09527 11.1636 7.83188 11.7995 7.36304 12.2683C6.8942 12.7372 6.25832 13.0006 5.59527 13.0006C4.93223 13.0006 4.29635 12.7372 3.82751 12.2683C3.35867 11.7995 3.09527 11.1636 3.09527 10.5006Z" fill="#A5B4CB"/>
</svg>
