<svg width="24" height="16" viewBox="0 0 24 16" fill="none" xmlns="http://www.w3.org/2000/svg">
<path fill-rule="evenodd" clip-rule="evenodd" d="M15.9996 2.00006C15.2039 2.00006 14.4409 2.31614 13.8783 2.87878C13.3156 3.44142 12.9996 4.20451 12.9996 5.0002C12.9996 5.79589 13.3156 6.55899 13.8783 7.12163C14.4409 7.68426 15.2039 8.00035 15.9996 8.00035C16.7952 8.00035 17.5583 7.68426 18.1209 7.12163C18.6835 6.55899 18.9996 5.79589 18.9996 5.0002C18.9996 4.20451 18.6835 3.44142 18.1209 2.87878C17.5583 2.31614 16.7952 2.00006 15.9996 2.00006ZM10.9996 5.0002C10.9996 4.18512 11.1988 3.3824 11.58 2.66193C11.9611 1.94146 12.5126 1.3251 13.1864 0.866506C13.8602 0.407915 14.6359 0.121001 15.4459 0.0307488C16.256 -0.0595034 17.0758 0.049642 17.834 0.348682C18.5922 0.647721 19.2658 1.12759 19.7962 1.7465C20.3265 2.3654 20.6976 3.10459 20.877 3.89968C21.0563 4.69478 21.0387 5.52167 20.8254 6.30837C20.6122 7.09507 20.2099 7.81771 19.6536 8.41337C21.35 8.96527 22.8167 10.0621 23.8256 11.5335C23.9663 11.7527 24.016 12.0181 23.964 12.2734C23.912 12.5286 23.7625 12.7535 23.5473 12.9002C23.3321 13.0469 23.0681 13.1038 22.8116 13.0589C22.555 13.014 22.3261 12.8707 22.1736 12.6596C21.1976 11.2275 19.4176 10.0004 16.9996 10.0004C13.1656 10.0004 10.9996 13.0746 10.9996 15.0007C10.9996 15.2659 10.8942 15.5203 10.7067 15.7078C10.5191 15.8954 10.2648 16.0007 9.99957 16.0007C9.73435 16.0007 9.48 15.8954 9.29246 15.7078C9.10493 15.5203 8.99957 15.2659 8.99957 15.0007C8.99957 14.3087 9.15757 13.5706 9.45957 12.8436C9.38105 12.7927 9.31003 12.7311 9.24857 12.6606C8.42757 11.7265 7.15357 11.0005 5.49957 11.0005C3.84557 11.0005 2.57157 11.7265 1.75057 12.6606C1.5728 12.8494 1.32862 12.9618 1.06956 12.974C0.810505 12.9862 0.556834 12.8973 0.362083 12.726C0.167333 12.5548 0.0467364 12.3145 0.0257444 12.056C0.00475233 11.7975 0.0850067 11.541 0.249571 11.3405C0.840088 10.6684 1.55615 10.1181 2.35757 9.72043C1.71728 9.09552 1.27779 8.29391 1.09524 7.41801C0.912688 6.5421 0.995364 5.63166 1.33271 4.80297C1.67005 3.97428 2.24674 3.26497 2.98913 2.76562C3.73151 2.26627 4.60589 1.99957 5.50057 1.99957C6.39525 1.99957 7.26963 2.26627 8.01202 2.76562C8.7544 3.26497 9.33109 3.97428 9.66844 4.80297C10.0058 5.63166 10.0885 6.5421 9.9059 7.41801C9.72335 8.29391 9.28386 9.09552 8.64357 9.72043C9.33733 10.0648 9.96789 10.5239 10.5086 11.0785C11.1877 10.2238 12.0327 9.51528 12.9926 8.9954C12.3731 8.52985 11.8705 7.92646 11.5246 7.23303C11.1787 6.53959 10.9989 5.77514 10.9996 5.0002ZM2.99957 6.50028C2.99957 5.8372 3.26296 5.20129 3.7318 4.73242C4.20064 4.26356 4.83653 4.00015 5.49957 4.00015C6.16261 4.00015 6.7985 4.26356 7.26734 4.73242C7.73618 5.20129 7.99957 5.8372 7.99957 6.50028C7.99957 7.16335 7.73618 7.79927 7.26734 8.26813C6.7985 8.73699 6.16261 9.0004 5.49957 9.0004C4.83653 9.0004 4.20064 8.73699 3.7318 8.26813C3.26296 7.79927 2.99957 7.16335 2.99957 6.50028Z" fill="url(#paint0_linear_688_1490)"/>
<defs>
<linearGradient id="paint0_linear_688_1490" x1="4.25568" y1="4.13812" x2="22.5368" y2="8.00111" gradientUnits="userSpaceOnUse">
<stop stop-color="#FF6262"/>
<stop offset="1" stop-color="#F37F14"/>
</linearGradient>
</defs>
</svg>
