<svg width="16" height="16" viewBox="0 0 16 16" fill="none" xmlns="http://www.w3.org/2000/svg">
<path fill-rule="evenodd" clip-rule="evenodd" d="M2 0C1.46957 0 0.960859 0.210724 0.585786 0.585815C0.210714 0.960907 0 1.46964 0 2.0001V5.00025C0 5.53071 0.210714 6.03944 0.585786 6.41453C0.960859 6.78962 1.46957 7.00035 2 7.00035H5C5.53043 7.00035 6.03914 6.78962 6.41421 6.41453C6.78929 6.03944 7 5.53071 7 5.00025V2.0001C7 1.46964 6.78929 0.960907 6.41421 0.585815C6.03914 0.210724 5.53043 0 5 0H2ZM2 2.0001H5V5.00025H2V2.0001ZM10 2.0001C9.73478 2.0001 9.48043 2.10546 9.29289 2.29301C9.10536 2.48055 9 2.73492 9 3.00015C9 3.26538 9.10536 3.51974 9.29289 3.70729C9.48043 3.89484 9.73478 4.0002 10 4.0002H15C15.2652 4.0002 15.5196 3.89484 15.7071 3.70729C15.8946 3.51974 16 3.26538 16 3.00015C16 2.73492 15.8946 2.48055 15.7071 2.29301C15.5196 2.10546 15.2652 2.0001 15 2.0001H10ZM10 11.0005C9.73478 11.0005 9.48043 11.1059 9.29289 11.2935C9.10536 11.481 9 11.7354 9 12.0006C9 12.2658 9.10536 12.5202 9.29289 12.7077C9.48043 12.8953 9.73478 13.0006 10 13.0006H15C15.2652 13.0006 15.5196 12.8953 15.7071 12.7077C15.8946 12.5202 16 12.2658 16 12.0006C16 11.7354 15.8946 11.481 15.7071 11.2935C15.5196 11.1059 15.2652 11.0005 15 11.0005H10ZM0 11.0005C0 10.4701 0.210714 9.96135 0.585786 9.58626C0.960859 9.21117 1.46957 9.00045 2 9.00045H5C5.53043 9.00045 6.03914 9.21117 6.41421 9.58626C6.78929 9.96135 7 10.4701 7 11.0005V14.0007C7 14.5312 6.78929 15.0399 6.41421 15.415C6.03914 15.7901 5.53043 16.0008 5 16.0008H2C1.46957 16.0008 0.960859 15.7901 0.585786 15.415C0.210714 15.0399 0 14.5312 0 14.0007V11.0005ZM5 11.0005H2V14.0007H5V11.0005Z" fill="#A5B4CB"/>
</svg>
