<svg width="52" height="52" viewBox="0 0 52 52" fill="none" xmlns="http://www.w3.org/2000/svg">
<rect width="52" height="52" rx="10" fill="#09BD3C"/>
<g clip-path="url(#clip0_325_2090)">
<path d="M34.9293 30.4003C34.9294 30.3965 34.9293 30.3927 34.9293 30.3888L34.9371 18.5152C34.9369 18.4211 34.9264 18.3274 34.906 18.2356L34.8284 17.9716L34.7507 17.8162L34.6653 17.7308C34.5585 17.5759 34.4243 17.4416 34.2693 17.3348L34.1916 17.2571L34.0984 17.1639L33.8965 17.1018C33.783 17.0682 33.6654 17.0499 33.547 17.0474L21.6112 17.0707C20.8167 17.0676 20.17 17.7091 20.1668 18.5037C20.1668 18.5075 20.1668 18.5113 20.1668 18.5152C20.1853 19.3008 20.8178 19.9333 21.6035 19.9518L28.6935 19.9596C28.9967 19.9626 29.2402 20.2108 29.2372 20.5141C29.2358 20.6552 29.1802 20.7903 29.0818 20.8914L17.5187 32.4545C16.9568 33.0163 16.9568 33.9272 17.5186 34.4891C18.0804 35.051 18.9913 35.051 19.5532 34.4893C19.5533 34.4892 19.5533 34.4892 19.5534 34.4891L31.1164 22.9261C31.3338 22.7147 31.6815 22.7195 31.8929 22.937C31.9912 23.0381 32.0469 23.1732 32.0483 23.3143L32.0405 30.3889C32.0551 31.1805 32.6933 31.8187 33.4849 31.8333C34.2795 31.8364 34.9262 31.1949 34.9293 30.4003Z" fill="white"/>
</g>
<defs>
<clipPath id="clip0_325_2090">
<rect width="24" height="24" fill="white" transform="translate(26 9.02942) rotate(45)"/>
</clipPath>
</defs>
</svg>
