<svg width="68" height="68" viewBox="0 0 68 68" fill="none" xmlns="http://www.w3.org/2000/svg">
<rect x="0.000488281" width="68" height="68" rx="14" fill="#E7EBF5"/>
<path d="M50.0005 50.7037C41.6894 51.5679 34.356 52 28.0005 52C24.9783 52 22.556 51.1142 20.7338 49.3426C18.9116 47.571 18.0005 45.2161 18.0005 42.2778V27.3704C18.0005 24.1296 18.9338 21.6019 20.8005 19.787C22.7116 17.929 25.3338 17 28.6672 17H50.0005V25.75H32.3338C30.556 25.75 29.6672 26.6142 29.6672 28.3426V40.9815C29.6672 41.6296 29.8894 42.1698 30.3338 42.6019C30.7783 43.034 31.3338 43.25 32.0005 43.25C36.0005 43.25 42.0005 42.9259 50.0005 42.2778V50.7037Z" fill="#1D3573"/>
</svg>
