<svg width="255" height="337" viewBox="0 0 255 337" fill="none" xmlns="http://www.w3.org/2000/svg">
<rect x="61" width="1" height="294" rx="0.5" fill="#D7D7D7"/>
<rect x="107" width="1" height="294" rx="0.5" fill="#D7D7D7"/>
<rect x="152" width="1" height="294" rx="0.5" fill="#D7D7D7"/>
<rect x="200" width="1" height="294" rx="0.5" fill="#D7D7D7"/>
<rect x="246" width="1" height="294" rx="0.5" fill="#D7D7D7"/>
<path d="M1.714 252.888H8.448V251.824H3.632C5.438 250.354 8.154 248.212 8.154 245.692C8.154 243.816 6.922 242.696 5.018 242.696C3.198 242.696 1.84 243.816 1.756 245.972H2.988C3.044 244.698 3.716 243.788 5.032 243.788C6.404 243.788 6.894 244.628 6.894 245.748C6.894 247.82 4.374 249.836 1.714 251.978V252.888ZM9.92073 247.834C9.92073 250.774 10.6487 253 13.4487 253C16.2347 253 16.9627 250.774 16.9627 247.834C16.9627 244.936 16.2347 242.724 13.4487 242.724C10.6487 242.724 9.92073 244.936 9.92073 247.834ZM15.7027 247.834C15.7027 250.018 15.4367 251.838 13.4487 251.838C11.4467 251.838 11.1807 250.018 11.1807 247.834C11.1807 245.734 11.4467 243.886 13.4487 243.886C15.4367 243.886 15.7027 245.734 15.7027 247.834Z" fill="#717579"/>
<path d="M9.868 300.834C9.868 303.774 10.596 306 13.396 306C16.182 306 16.91 303.774 16.91 300.834C16.91 297.936 16.182 295.724 13.396 295.724C10.596 295.724 9.868 297.936 9.868 300.834ZM15.65 300.834C15.65 303.018 15.384 304.838 13.396 304.838C11.394 304.838 11.128 303.018 11.128 300.834C11.128 298.734 11.394 296.886 13.396 296.886C15.384 296.886 15.65 298.734 15.65 300.834Z" fill="#717579"/>
<path d="M5.74 203H7V200.746H8.4V199.64H7V192.976H5.474L0.56 199.78V200.746H5.74V203ZM2.03 199.64L5.796 194.306V199.64H2.03ZM9.67269 197.834C9.67269 200.774 10.4007 203 13.2007 203C15.9867 203 16.7147 200.774 16.7147 197.834C16.7147 194.936 15.9867 192.724 13.2007 192.724C10.4007 192.724 9.67269 194.936 9.67269 197.834ZM15.4547 197.834C15.4547 200.018 15.1887 201.838 13.2007 201.838C11.1987 201.838 10.9327 200.018 10.9327 197.834C10.9327 195.734 11.1987 193.886 13.2007 193.886C15.1887 193.886 15.4547 195.734 15.4547 197.834Z" fill="#717579"/>
<path d="M7.686 144.286C7.518 142.872 6.538 141.668 4.606 141.668C2.044 141.668 1.022 143.628 1.022 146.806C1.022 149.872 1.736 152.028 4.732 152.028C6.944 152.028 8.036 150.516 8.036 148.668C8.036 146.54 6.762 145.294 4.872 145.294C3.668 145.294 2.562 145.854 2.128 146.848C2.114 143.838 2.982 142.732 4.592 142.732C5.74 142.732 6.314 143.306 6.51 144.286H7.686ZM4.606 146.372C6.062 146.372 6.804 147.282 6.804 148.71C6.804 150.082 5.978 150.964 4.662 150.964C3.066 150.964 2.282 149.914 2.282 148.57C2.282 147.058 3.444 146.372 4.606 146.372ZM9.75472 146.834C9.75472 149.774 10.4827 152 13.2827 152C16.0687 152 16.7967 149.774 16.7967 146.834C16.7967 143.936 16.0687 141.724 13.2827 141.724C10.4827 141.724 9.75472 143.936 9.75472 146.834ZM15.5367 146.834C15.5367 149.018 15.2707 150.838 13.2827 150.838C11.2807 150.838 11.0147 149.018 11.0147 146.834C11.0147 144.734 11.2807 142.886 13.2827 142.886C15.2707 142.886 15.5367 144.734 15.5367 146.834Z" fill="#717579"/>
<path d="M2.716 95.736C1.582 96.072 0.84 96.996 0.84 98.27C0.84 100.104 2.282 101.28 4.41 101.28C6.552 101.28 8.008 100.104 8.008 98.27C8.008 97.01 7.266 96.086 6.118 95.736C7.112 95.344 7.742 94.504 7.742 93.412C7.742 91.942 6.608 90.724 4.41 90.724C2.212 90.724 1.092 91.928 1.092 93.412C1.092 94.546 1.68 95.33 2.716 95.736ZM4.41 95.316C3.178 95.316 2.324 94.63 2.324 93.58C2.324 92.39 3.164 91.788 4.41 91.788C5.684 91.788 6.51 92.404 6.51 93.566C6.51 94.616 5.656 95.316 4.41 95.316ZM4.41 96.296C5.74 96.296 6.748 96.926 6.748 98.228C6.748 99.404 5.852 100.216 4.41 100.216C2.968 100.216 2.058 99.418 2.058 98.228C2.058 96.884 3.108 96.296 4.41 96.296ZM9.70003 95.834C9.70003 98.774 10.428 101 13.228 101C16.014 101 16.742 98.774 16.742 95.834C16.742 92.936 16.014 90.724 13.228 90.724C10.428 90.724 9.70003 92.936 9.70003 95.834ZM15.482 95.834C15.482 98.018 15.216 99.838 13.228 99.838C11.226 99.838 10.96 98.018 10.96 95.834C10.96 93.734 11.226 91.886 13.228 91.886C15.216 91.886 15.482 93.734 15.482 95.834Z" fill="#717579"/>
<path d="M1.876 50H3.164V39.878H0.532V41.04H1.876V50ZM5.35238 44.834C5.35238 47.774 6.08038 50 8.88038 50C11.6664 50 12.3944 47.774 12.3944 44.834C12.3944 41.936 11.6664 39.724 8.88038 39.724C6.08038 39.724 5.35238 41.936 5.35238 44.834ZM11.1344 44.834C11.1344 47.018 10.8684 48.838 8.88038 48.838C6.87838 48.838 6.61238 47.018 6.61238 44.834C6.61238 42.734 6.87838 40.886 8.88038 40.886C10.8684 40.886 11.1344 42.734 11.1344 44.834ZM14.1434 44.834C14.1434 47.774 14.8714 50 17.6714 50C20.4574 50 21.1854 47.774 21.1854 44.834C21.1854 41.936 20.4574 39.724 17.6714 39.724C14.8714 39.724 14.1434 41.936 14.1434 44.834ZM19.9254 44.834C19.9254 47.018 19.6594 48.838 17.6714 48.838C15.6694 48.838 15.4034 47.018 15.4034 44.834C15.4034 42.734 15.6694 40.886 17.6714 40.886C19.6594 40.886 19.9254 42.734 19.9254 44.834Z" fill="#717579"/>
<path d="M54.868 325.834C54.868 328.774 55.596 331 58.396 331C61.182 331 61.91 328.774 61.91 325.834C61.91 322.936 61.182 320.724 58.396 320.724C55.596 320.724 54.868 322.936 54.868 325.834ZM60.65 325.834C60.65 328.018 60.384 329.838 58.396 329.838C56.394 329.838 56.128 328.018 56.128 325.834C56.128 323.734 56.394 321.886 58.396 321.886C60.384 321.886 60.65 323.734 60.65 325.834ZM64.667 331H65.955V320.878H63.323V322.04H64.667V331Z" fill="#717579"/>
<path d="M97.868 325.834C97.868 328.774 98.596 331 101.396 331C104.182 331 104.91 328.774 104.91 325.834C104.91 322.936 104.182 320.724 101.396 320.724C98.596 320.724 97.868 322.936 97.868 325.834ZM103.65 325.834C103.65 328.018 103.384 329.838 101.396 329.838C99.394 329.838 99.128 328.018 99.128 325.834C99.128 323.734 99.394 321.886 101.396 321.886C103.384 321.886 103.65 323.734 103.65 325.834ZM106.505 330.888H113.239V329.824H108.423C110.229 328.354 112.945 326.212 112.945 323.692C112.945 321.816 111.713 320.696 109.809 320.696C107.989 320.696 106.631 321.816 106.547 323.972H107.779C107.835 322.698 108.507 321.788 109.823 321.788C111.195 321.788 111.685 322.628 111.685 323.748C111.685 325.82 109.165 327.836 106.505 329.978V330.888Z" fill="#717579"/>
<path d="M143.868 325.834C143.868 328.774 144.596 331 147.396 331C150.182 331 150.91 328.774 150.91 325.834C150.91 322.936 150.182 320.724 147.396 320.724C144.596 320.724 143.868 322.936 143.868 325.834ZM149.65 325.834C149.65 328.018 149.384 329.838 147.396 329.838C145.394 329.838 145.128 328.018 145.128 325.834C145.128 323.734 145.394 321.886 147.396 321.886C149.384 321.886 149.65 323.734 149.65 325.834ZM152.631 323.426H153.877C154.003 322.446 154.717 321.774 155.907 321.774C157.125 321.774 157.769 322.446 157.769 323.412C157.769 324.588 156.859 325.106 155.165 325.12H154.829V326.184H155.151C156.971 326.184 157.965 326.73 157.965 328.158C157.965 329.194 157.321 329.992 155.963 329.992C154.619 329.992 153.835 329.166 153.709 328.088H152.477C152.631 330.048 154.059 331.07 155.977 331.07C158.091 331.07 159.183 329.838 159.183 328.27C159.183 326.814 158.385 325.946 157.209 325.666V325.596C158.273 325.358 159.001 324.448 159.001 323.286C159.001 321.83 157.923 320.682 155.949 320.682C154.073 320.682 152.757 321.69 152.631 323.426Z" fill="#717579"/>
<path d="M190.868 325.834C190.868 328.774 191.596 331 194.396 331C197.182 331 197.91 328.774 197.91 325.834C197.91 322.936 197.182 320.724 194.396 320.724C191.596 320.724 190.868 322.936 190.868 325.834ZM196.65 325.834C196.65 328.018 196.384 329.838 194.396 329.838C192.394 329.838 192.128 328.018 192.128 325.834C192.128 323.734 192.394 321.886 194.396 321.886C196.384 321.886 196.65 323.734 196.65 325.834ZM204.531 331H205.791V328.746H207.191V327.64H205.791V320.976H204.265L199.351 327.78V328.746H204.531V331ZM200.821 327.64L204.587 322.306V327.64H200.821Z" fill="#717579"/>
<path d="M237.868 325.834C237.868 328.774 238.596 331 241.396 331C244.182 331 244.91 328.774 244.91 325.834C244.91 322.936 244.182 320.724 241.396 320.724C238.596 320.724 237.868 322.936 237.868 325.834ZM243.65 325.834C243.65 328.018 243.384 329.838 241.396 329.838C239.394 329.838 239.128 328.018 239.128 325.834C239.128 323.734 239.394 321.886 241.396 321.886C243.384 321.886 243.65 323.734 243.65 325.834ZM247.023 320.864V326.576H248.227C248.563 325.778 249.305 325.246 250.327 325.246C251.797 325.246 252.539 326.086 252.539 327.528C252.539 328.914 251.853 329.95 250.313 329.95C249.123 329.95 248.297 329.32 248.059 328.256H246.813C247.065 329.894 248.283 331.028 250.299 331.028C252.665 331.028 253.757 329.46 253.757 327.5C253.757 325.932 252.973 324.154 250.509 324.154C249.515 324.154 248.619 324.602 248.199 325.176V321.984H253.113V320.864H247.023Z" fill="#717579"/>
<rect width="14" height="90" rx="4" transform="matrix(-1 0 0 1 206 152)" fill="#09BD3C"/>
<rect width="14" height="94" rx="4" transform="matrix(-1 0 0 1 206 50)" fill="#EAC947"/>
<rect width="14" height="116" rx="4" transform="matrix(-1 0 0 1 114 161)" fill="#09BD3C"/>
<rect width="14" height="46" rx="4" transform="matrix(-1 0 0 1 114 107)" fill="#EAC947"/>
<rect width="14" height="113" rx="4" transform="matrix(-1 0 0 1 68 66)" fill="#09BD3C"/>
<rect width="14" height="23" rx="4" transform="matrix(-1 0 0 1 68 35)" fill="#EAC947"/>
<rect width="14" height="147" rx="4" transform="matrix(-1 0 0 1 160 75)" fill="#09BD3C"/>
<rect width="14" height="35" rx="4" transform="matrix(-1 0 0 1 160 32)" fill="#EAC947"/>
<rect width="14" height="122" rx="4" transform="matrix(-1 0 0 1 253 90)" fill="#09BD3C"/>
<rect width="14" height="61" rx="4" transform="matrix(-1 0 0 1 253 21)" fill="#EAC947"/>
</svg>
