<svg width="230" height="212" viewBox="0 0 230 212" fill="none" xmlns="http://www.w3.org/2000/svg">
<mask id="path-1-inside-1_223_1356" fill="white">
<path d="M212 106C212 164.542 164.542 212 106 212C47.4578 212 0 164.542 0 106C0 47.4578 47.4578 0 106 0C164.542 0 212 47.4578 212 106ZM31.4849 106C31.4849 147.154 64.8465 180.515 106 180.515C147.154 180.515 180.515 147.154 180.515 106C180.515 64.8465 147.154 31.4849 106 31.4849C64.8465 31.4849 31.4849 64.8465 31.4849 106Z"/>
</mask>
<path d="M212 106C212 164.542 164.542 212 106 212C47.4578 212 0 164.542 0 106C0 47.4578 47.4578 0 106 0C164.542 0 212 47.4578 212 106ZM31.4849 106C31.4849 147.154 64.8465 180.515 106 180.515C147.154 180.515 180.515 147.154 180.515 106C180.515 64.8465 147.154 31.4849 106 31.4849C64.8465 31.4849 31.4849 64.8465 31.4849 106Z" stroke="#D7D7D7" stroke-width="10" mask="url(#path-1-inside-1_223_1356)"/>
<path d="M106 0C121.541 1.85326e-07 136.892 3.41735 150.966 10.01C165.039 16.6026 177.491 26.2092 187.439 38.1494C197.387 50.0895 204.587 64.071 208.531 79.1035C212.474 94.1361 213.064 109.852 210.258 125.138L168.555 117.483C170.238 108.311 169.885 98.8816 167.519 89.8621C165.152 80.8426 160.832 72.4537 154.863 65.2896C148.895 58.1255 141.424 52.3616 132.979 48.406C124.535 44.4504 115.325 42.4 106 42.4V0Z" fill="#763FE4"/>
<path d="M229.014 128.192C223.575 158.34 207.255 185.441 183.152 204.349L138.134 146.963C148.173 139.087 154.97 127.8 157.236 115.243L229.014 128.192Z" fill="#09BD3C"/>
<path d="M170.52 157H174.08V142.4H168.54V145.58H170.52V157ZM178.04 157H181.6V142.4H176.06V145.58H178.04V157ZM183.659 146.08C183.659 148.3 185.099 149.46 186.999 149.46C188.899 149.46 190.319 148.3 190.319 146.08C190.319 143.86 188.899 142.7 186.999 142.7C185.099 142.7 183.659 143.86 183.659 146.08ZM186.979 144.7C187.579 144.7 187.959 145.12 187.959 146.08C187.959 147.02 187.579 147.44 186.979 147.44C186.379 147.44 186.019 147.02 186.019 146.08C186.019 145.12 186.379 144.7 186.979 144.7ZM186.239 157H189.539L197.239 142.92H193.939L186.239 157ZM193.179 153.84C193.179 156.06 194.599 157.22 196.499 157.22C198.399 157.22 199.819 156.06 199.819 153.84C199.819 151.6 198.399 150.46 196.499 150.46C194.599 150.46 193.179 151.6 193.179 153.84ZM196.479 152.46C197.079 152.46 197.459 152.9 197.459 153.84C197.459 154.78 197.079 155.2 196.479 155.2C195.879 155.2 195.519 154.78 195.519 153.84C195.519 152.9 195.879 152.46 196.479 152.46Z" fill="white"/>
<path d="M171.402 189.418C151.806 204.782 127.426 212.757 102.538 211.943C77.6498 211.13 53.8425 201.581 35.291 184.97L63.5746 153.382C74.7055 163.348 88.9899 169.078 103.923 169.566C118.856 170.054 133.484 165.269 145.241 156.051L171.402 189.418Z" fill="#3BC0EA"/>
<path d="M35.4435 185.106C22.2385 173.328 12.1919 158.432 6.2199 141.776C0.247866 125.12 -1.45962 107.234 1.25315 89.7489L43.1519 96.2494C41.5242 106.74 42.5487 117.472 46.1319 127.466C49.7152 137.459 55.7431 146.397 63.6661 153.464L35.4435 185.106Z" fill="#FFAB2D"/>
<path d="M1.24484 89.8025C5.10781 64.8193 17.7725 42.0392 36.9538 25.5722C56.1352 9.1053 80.5702 0.0358152 105.85 0.00012207L105.91 42.4001C90.7421 42.4215 76.0811 47.8632 64.5723 57.7434C53.0635 67.6235 45.4647 81.2916 43.1469 96.2815L1.24484 89.8025Z" fill="#FF4E8D"/>
</svg>
