<svg width="233" height="227" viewBox="0 0 233 227" fill="none" xmlns="http://www.w3.org/2000/svg">
<path d="M4.04069 150.195C-0.567178 132.998 -1.1573 114.972 2.31597 97.5102C5.78926 80.0488 13.2328 63.6205 24.0709 49.4961C34.9089 35.3717 48.8509 23.9298 64.8183 16.0555C80.7857 8.18129 98.3505 4.08576 116.154 4.08575C133.957 4.08575 151.522 8.18129 167.49 16.0555C183.457 23.9298 197.399 35.3717 208.237 49.4961C219.075 63.6205 226.519 80.0488 229.992 97.5102C233.465 114.972 232.875 132.998 228.267 150.195L187.312 139.221C190.237 128.306 190.611 116.865 188.407 105.782C186.202 94.6992 181.478 84.2722 174.599 75.3074C167.72 66.3426 158.871 59.0805 148.737 54.0827C138.602 49.0849 127.454 46.4854 116.154 46.4854C104.854 46.4854 93.7057 49.0849 83.5712 54.0827C73.4367 59.0805 64.5877 66.3426 57.7088 75.3074C50.8299 84.2722 46.1055 94.6992 43.901 105.782C41.6965 116.865 42.071 128.306 44.9956 139.221L4.04069 150.195Z" fill="#F1EAFF"/>
<path d="M4.04068 150.195C-0.992979 131.409 -1.2254 111.659 3.36479 92.7599C7.95496 73.8608 17.2206 56.418 30.3105 42.034C43.4004 27.6499 59.8949 16.7857 78.2789 10.4392C96.6629 4.09284 116.347 2.46773 135.523 5.7132L128.447 47.5184C116.276 45.4585 103.783 46.4899 92.1146 50.518C80.4463 54.5461 69.9772 61.4416 61.6691 70.5712C53.3609 79.7007 47.48 90.7716 44.5666 102.767C41.6533 114.762 41.8008 127.297 44.9956 139.221L4.04068 150.195Z" fill="url(#paint0_linear_235_744)"/>
<circle cx="115.5" cy="136.5" r="39.5" stroke="#F1EAFF" stroke-width="20"/>
<circle cx="115.47" cy="136.252" r="11.5" stroke="#D0412E" stroke-width="22.8239"/>
<path d="M53.167 215.682C53.167 211.92 50.323 209.256 46.741 209.256C43.195 209.256 40.297 211.92 40.297 215.682C40.297 219.462 43.195 222.126 46.741 222.126C50.305 222.126 53.167 219.462 53.167 215.682ZM42.889 215.682C42.889 213.126 44.455 211.524 46.741 211.524C49.009 211.524 50.575 213.126 50.575 215.682C50.575 218.238 49.009 219.876 46.741 219.876C44.455 219.876 42.889 218.238 42.889 215.682ZM62.0258 222H64.5458V216.15C64.5458 213.396 62.8898 211.884 60.5678 211.884C59.2898 211.884 58.2098 212.424 57.5618 213.27V212.028H55.0418V222H57.5618V216.492C57.5618 214.89 58.4438 214.026 59.8118 214.026C61.1438 214.026 62.0258 214.89 62.0258 216.492V222ZM73.7513 215.142V211.488H75.7493C77.1713 211.488 77.8013 212.172 77.8013 213.324C77.8013 214.44 77.1713 215.142 75.7493 215.142H73.7513ZM80.3933 213.324C80.3933 211.146 78.8813 209.436 75.8573 209.436H71.2313V222H73.7513V217.176H75.8573C79.0973 217.176 80.3933 215.232 80.3933 213.324ZM84.7024 217.032C84.7024 215.106 85.6024 214.53 87.0964 214.53H87.7624V211.884C86.3764 211.884 85.3324 212.55 84.7024 213.576V212.028H82.1824V222H84.7024V217.032ZM99.0898 217.014C99.0898 213.864 96.8398 211.866 93.9598 211.866C91.0798 211.866 88.8298 213.864 88.8298 217.014C88.8298 220.146 91.0078 222.162 93.8878 222.162C96.7858 222.162 99.0898 220.146 99.0898 217.014ZM91.3858 217.014C91.3858 215.016 92.5918 214.062 93.9238 214.062C95.2558 214.062 96.4978 215.016 96.4978 217.014C96.4978 218.994 95.2198 219.966 93.8878 219.966C92.5378 219.966 91.3858 218.994 91.3858 217.014ZM100.29 216.978C100.29 220.092 102.306 222.162 104.844 222.162C106.41 222.162 107.544 221.388 108.138 220.524V222.072C108.138 223.926 107.058 224.718 105.672 224.718C104.412 224.718 103.476 224.124 103.224 223.224H100.722C100.974 225.51 102.936 226.914 105.744 226.914C109.02 226.914 110.676 224.772 110.676 222.072V212.028H108.138V213.45C107.544 212.586 106.41 211.866 104.844 211.866C102.306 211.866 100.29 213.864 100.29 216.978ZM108.138 217.014C108.138 218.904 106.878 219.948 105.492 219.948C104.142 219.948 102.864 218.868 102.864 216.978C102.864 215.088 104.142 214.08 105.492 214.08C106.878 214.08 108.138 215.124 108.138 217.014ZM115.658 217.032C115.658 215.106 116.558 214.53 118.052 214.53H118.718V211.884C117.332 211.884 116.288 212.55 115.658 213.576V212.028H113.138V222H115.658V217.032ZM124.699 213.936C125.995 213.936 127.039 214.764 127.075 216.078H122.341C122.539 214.71 123.493 213.936 124.699 213.936ZM129.433 218.868H126.715C126.391 219.534 125.797 220.074 124.717 220.074C123.457 220.074 122.449 219.246 122.323 217.77H129.613C129.667 217.446 129.685 217.122 129.685 216.798C129.685 213.828 127.651 211.866 124.771 211.866C121.819 211.866 119.767 213.864 119.767 217.014C119.767 220.146 121.873 222.162 124.771 222.162C127.237 222.162 128.893 220.704 129.433 218.868ZM139.264 219.156C139.192 215.502 133.666 216.636 133.666 214.818C133.666 214.242 134.152 213.864 135.088 213.864C136.078 213.864 136.69 214.386 136.762 215.16H139.174C139.03 213.18 137.572 211.866 135.16 211.866C132.694 211.866 131.218 213.198 131.218 214.854C131.218 218.508 136.852 217.374 136.852 219.156C136.852 219.732 136.312 220.182 135.322 220.182C134.314 220.182 133.612 219.606 133.522 218.85H130.984C131.092 220.704 132.838 222.162 135.34 222.162C137.77 222.162 139.264 220.866 139.264 219.156ZM149.073 219.156C149.001 215.502 143.475 216.636 143.475 214.818C143.475 214.242 143.961 213.864 144.897 213.864C145.887 213.864 146.499 214.386 146.571 215.16H148.983C148.839 213.18 147.381 211.866 144.969 211.866C142.503 211.866 141.027 213.198 141.027 214.854C141.027 218.508 146.661 217.374 146.661 219.156C146.661 219.732 146.121 220.182 145.131 220.182C144.123 220.182 143.421 219.606 143.331 218.85H140.793C140.901 220.704 142.647 222.162 145.149 222.162C147.579 222.162 149.073 220.866 149.073 219.156Z" fill="#717579"/>
<path d="M155.826 208.842V216.546H158.238C158.508 215.736 159.174 215.16 160.218 215.16C161.64 215.16 162.378 215.97 162.378 217.446C162.378 218.832 161.712 219.876 160.236 219.876C159.012 219.876 158.274 219.21 158.058 218.292H155.61C155.826 220.434 157.446 222 160.272 222C163.26 222 164.808 220.092 164.808 217.41C164.808 215.376 163.764 213.072 160.704 213.072C159.606 213.072 158.616 213.54 158.13 214.134V211.056H163.962V208.842H155.826ZM166.726 215.268C166.726 219.102 167.878 221.964 171.586 221.964C175.294 221.964 176.446 219.102 176.446 215.268C176.446 211.47 175.294 208.626 171.586 208.626C167.878 208.626 166.726 211.47 166.726 215.268ZM173.962 215.268C173.962 217.608 173.71 219.624 171.586 219.624C169.462 219.624 169.21 217.608 169.21 215.268C169.21 213.018 169.462 210.966 171.586 210.966C173.71 210.966 173.962 213.018 173.962 215.268ZM178.075 212.1C178.075 213.99 179.299 215.034 180.937 215.034C182.575 215.034 183.799 213.99 183.799 212.1C183.799 210.228 182.575 209.184 180.937 209.184C179.299 209.184 178.075 210.228 178.075 212.1ZM180.919 210.696C181.549 210.696 181.945 211.11 181.945 212.1C181.945 213.09 181.549 213.522 180.919 213.522C180.307 213.522 179.929 213.09 179.929 212.1C179.929 211.11 180.307 210.696 180.919 210.696ZM180.109 222H182.557L189.631 209.4H187.165L180.109 222ZM185.977 219.282C185.977 221.19 187.201 222.216 188.839 222.216C190.459 222.216 191.665 221.19 191.665 219.282C191.665 217.392 190.459 216.366 188.839 216.366C187.201 216.366 185.977 217.392 185.977 219.282ZM188.821 217.878C189.433 217.878 189.829 218.292 189.829 219.282C189.829 220.29 189.433 220.704 188.821 220.704C188.191 220.704 187.795 220.29 187.795 219.282C187.795 218.292 188.191 217.878 188.821 217.878Z" fill="#09BD3C"/>
<path fill-rule="evenodd" clip-rule="evenodd" d="M137.611 57.6113L127.013 130.229L107.411 127.203L119.695 43.6647L126.427 0.0623169C132.574 2.47998 138.521 5.42522 144.201 8.87543C144.487 9.04883 144.771 9.22342 145.055 9.39919L137.611 57.6113Z" fill="#D0412E"/>
<defs>
<linearGradient id="paint0_linear_235_744" x1="107.5" y1="18.5" x2="13" y2="156.5" gradientUnits="userSpaceOnUse">
<stop stop-color="#1D3573"/>
<stop offset="1" stop-color="#1B7AAF"/>
</linearGradient>
</defs>
</svg>
