<svg width="206" height="135" viewBox="0 0 206 135" fill="none" xmlns="http://www.w3.org/2000/svg">
<circle cx="29.5377" cy="119.462" r="1.46227" transform="rotate(90 29.5377 119.462)" fill="#B78150"/>
<circle cx="29.5377" cy="126.481" r="1.46227" transform="rotate(90 29.5377 126.481)" fill="#B78150"/>
<circle cx="29.5377" cy="133.5" r="1.46227" transform="rotate(90 29.5377 133.5)" fill="#B78150"/>
<circle cx="22.5189" cy="119.462" r="1.46227" transform="rotate(90 22.5189 119.462)" fill="#B78150"/>
<circle cx="22.5189" cy="126.481" r="1.46227" transform="rotate(90 22.5189 126.481)" fill="#B78150"/>
<circle cx="22.5189" cy="133.5" r="1.46227" transform="rotate(90 22.5189 133.5)" fill="#B78150"/>
<circle cx="15.5" cy="119.462" r="1.46227" transform="rotate(90 15.5 119.462)" fill="#B78150"/>
<circle cx="15.5" cy="126.481" r="1.46227" transform="rotate(90 15.5 126.481)" fill="#B78150"/>
<circle cx="15.5" cy="133.5" r="1.46227" transform="rotate(90 15.5 133.5)" fill="#B78150"/>
<circle cx="8.48115" cy="119.462" r="1.46227" transform="rotate(90 8.48115 119.462)" fill="#B78150"/>
<circle cx="8.48115" cy="126.481" r="1.46227" transform="rotate(90 8.48115 126.481)" fill="#B78150"/>
<circle cx="8.48115" cy="133.5" r="1.46227" transform="rotate(90 8.48115 133.5)" fill="#B78150"/>
<circle cx="1.46229" cy="119.462" r="1.46227" transform="rotate(90 1.46229 119.462)" fill="#B78150"/>
<circle cx="1.46229" cy="126.481" r="1.46227" transform="rotate(90 1.46229 126.481)" fill="#B78150"/>
<circle cx="1.46229" cy="133.5" r="1.46227" transform="rotate(90 1.46229 133.5)" fill="#B78150"/>
<path d="M203.809 9.49201L198.544 13.7684C197.427 14.6761 195.813 14.4614 194.962 13.2916L193.408 11.1565C192.47 9.86733 190.639 9.76107 189.556 10.933L188.052 12.5626C186.988 13.7146 185.194 13.6349 184.24 12.3933L182.718 10.4116C181.746 9.14688 179.91 9.09202 178.858 10.2963L175.573 14.0574" stroke="#D0412E" stroke-width="3"/>
<path d="M204.3 1.95686L199.062 5.81509C197.95 6.63406 196.336 6.4293 195.478 5.3604L193.913 3.40944C192.967 2.23141 191.136 2.12399 190.061 3.18349L188.566 4.6567C187.51 5.69807 185.716 5.61503 184.755 4.48025L183.222 2.66896C182.243 1.51301 180.407 1.4523 179.363 2.54136L176.102 5.94265" stroke="#D0412E" stroke-width="3"/>
</svg>
