<svg width="227" height="60" viewBox="0 0 227 60" fill="none" xmlns="http://www.w3.org/2000/svg">
<path d="M92.783 26.0341C89.4629 26.3826 86.5335 26.5568 83.9947 26.5568C82.7874 26.5568 81.8198 26.1996 81.0919 25.4852C80.364 24.7708 80 23.8212 80 22.6364V16.625C80 15.3182 80.3728 14.2989 81.1185 13.567C81.8819 12.8178 82.9294 12.4432 84.261 12.4432H92.783V15.9716H85.7257C85.0155 15.9716 84.6605 16.3201 84.6605 17.017V22.1136C84.6605 22.375 84.7492 22.5928 84.9268 22.767C85.1043 22.9413 85.3262 23.0284 85.5925 23.0284C87.1904 23.0284 89.5872 22.8977 92.783 22.6364V26.0341Z" fill="#171B1E"/>
<path d="M109.289 22.375C109.289 23.6818 108.907 24.7098 108.144 25.4591C107.398 26.1909 106.36 26.5568 105.028 26.5568H98.9029C97.5714 26.5568 96.5239 26.1909 95.7605 25.4591C95.0148 24.7098 94.642 23.6818 94.642 22.375V16.3636C94.642 15.0568 95.0148 14.0375 95.7605 13.3057C96.5239 12.5564 97.5714 12.1818 98.9029 12.1818H105.028C106.36 12.1818 107.398 12.5564 108.144 13.3057C108.907 14.0375 109.289 15.0568 109.289 16.3636V22.375ZM104.629 16.7557C104.629 16.0587 104.274 15.7102 103.563 15.7102H100.368C99.6575 15.7102 99.3024 16.0587 99.3024 16.7557V21.983C99.3024 22.6799 99.6575 23.0284 100.368 23.0284H103.563C104.274 23.0284 104.629 22.6799 104.629 21.983V16.7557Z" fill="#171B1E"/>
<path d="M121.669 26.2955L121.403 24.9886C120.569 25.5288 119.708 25.9295 118.82 26.1909C117.95 26.4348 117.213 26.5568 116.61 26.5568H115.411C114.204 26.5568 113.236 26.1996 112.508 25.4852C111.78 24.7708 111.416 23.8212 111.416 22.6364V16.625C111.416 15.3182 111.789 14.2989 112.535 13.567C113.298 12.8178 114.346 12.4432 115.677 12.4432H121.137V8H125.797V26.2955H121.669ZM117.941 22.767C118.882 22.767 119.947 22.5928 121.137 22.2443V15.9716H117.142C116.432 15.9716 116.077 16.3201 116.077 17.017V21.8523C116.077 22.1136 116.166 22.3314 116.343 22.5057C116.521 22.6799 116.743 22.767 117.009 22.767H117.941Z" fill="#171B1E"/>
<path d="M133.917 15.4489C133.207 15.4489 132.851 15.7973 132.851 16.4943V17.9318H137.379V16.4943C137.379 15.7973 137.024 15.4489 136.314 15.4489H133.917ZM141.507 26.0341C138.08 26.3826 134.973 26.5568 132.186 26.5568C130.978 26.5568 130.011 26.1996 129.283 25.4852C128.555 24.7708 128.191 23.8212 128.191 22.6364V16.3636C128.191 15.0568 128.564 14.0375 129.31 13.3057C130.073 12.5564 131.12 12.1818 132.452 12.1818H137.778C139.11 12.1818 140.148 12.5564 140.894 13.3057C141.658 14.0375 142.039 15.0568 142.039 16.3636V21.1989H132.851V22.2443C132.851 22.5057 132.94 22.7235 133.118 22.8977C133.295 23.072 133.517 23.1591 133.784 23.1591C135.541 23.1591 138.116 23.0284 141.507 22.767V26.0341Z" fill="#171B1E"/>
<path d="M153.88 16.625C153.88 16.3636 153.791 16.1458 153.613 15.9716C153.436 15.7973 153.214 15.7102 152.948 15.7102H152.282C151.536 15.7102 150.888 15.7451 150.338 15.8148C149.805 15.8845 149.388 15.9367 149.086 15.9716V22.767H152.814C153.525 22.767 153.88 22.4186 153.88 21.7216V16.625ZM149.086 12.7045C150.808 12.3561 152.317 12.1818 153.613 12.1818H154.545C155.753 12.1818 156.72 12.539 157.448 13.2534C158.176 13.9678 158.54 14.9174 158.54 16.1023V22.1136C158.54 23.4205 158.158 24.4485 157.395 25.1977C156.649 25.9295 155.611 26.2955 154.279 26.2955H144.426V8H149.086V12.7045Z" fill="#171B1E"/>
<path d="M164.408 31C163.467 31 162.313 30.9129 160.946 30.7386V27.3409H163.343C164.018 27.3409 164.453 27.158 164.648 26.792C164.861 26.4261 164.826 25.9121 164.542 25.25L159.082 12.4432H164.009L167.338 21.3295L170.134 12.4432H175.061L169.735 26.8182C169.22 28.1947 168.554 29.2314 167.737 29.9284C166.921 30.6428 165.811 31 164.408 31Z" fill="#171B1E"/>
<path d="M185.722 26.2955C184 26.4697 182.313 26.5568 180.662 26.5568C179.454 26.5568 178.487 26.1996 177.759 25.4852C177.031 24.7708 176.667 23.8212 176.667 22.6364V15.9716H175.069V12.4432H176.667L177.2 9.30682H181.328V12.4432H184.656V15.9716H181.328V21.983C181.328 22.2443 181.416 22.4621 181.594 22.6364C181.771 22.8106 181.993 22.8977 182.26 22.8977H185.722V26.2955Z" fill="#171B1E"/>
<path d="M192.797 15.4489C192.086 15.4489 191.731 15.7973 191.731 16.4943V17.9318H196.259V16.4943C196.259 15.7973 195.904 15.4489 195.193 15.4489H192.797ZM200.386 26.0341C196.96 26.3826 193.853 26.5568 191.066 26.5568C189.858 26.5568 188.891 26.1996 188.163 25.4852C187.435 24.7708 187.071 23.8212 187.071 22.6364V16.3636C187.071 15.0568 187.444 14.0375 188.189 13.3057C188.953 12.5564 190 12.1818 191.332 12.1818H196.658C197.99 12.1818 199.028 12.5564 199.774 13.3057C200.537 14.0375 200.919 15.0568 200.919 16.3636V21.1989H191.731V22.2443C191.731 22.5057 191.82 22.7235 191.998 22.8977C192.175 23.072 192.397 23.1591 192.663 23.1591C194.421 23.1591 196.995 23.0284 200.386 22.767V26.0341Z" fill="#171B1E"/>
<path d="M201.974 26.2955L209.963 8H214.491L206.768 26.2955H201.974Z" fill="#171B1E"/>
<path d="M209.011 26.2955L217 8H221.527L213.804 26.2955H209.011Z" fill="#171B1E"/>
<path d="M83.368 50.112C82.668 50.112 81.996 50.0093 81.352 49.804C80.7173 49.5893 80.2087 49.3047 79.826 48.95C79.686 48.8193 79.616 48.656 79.616 48.46C79.616 48.3293 79.6533 48.2173 79.728 48.124C79.8027 48.0213 79.8913 47.97 79.994 47.97C80.1153 47.97 80.246 48.0213 80.386 48.124C81.254 48.796 82.2433 49.132 83.354 49.132C84.1567 49.132 84.7727 48.978 85.202 48.67C85.6313 48.362 85.846 47.9233 85.846 47.354C85.846 47.0273 85.7433 46.766 85.538 46.57C85.3327 46.3647 85.062 46.2013 84.726 46.08C84.39 45.9587 83.9373 45.8327 83.368 45.702C82.6027 45.5247 81.9727 45.338 81.478 45.142C80.9927 44.946 80.596 44.666 80.288 44.302C79.9893 43.938 79.84 43.462 79.84 42.874C79.84 42.314 79.9893 41.8193 80.288 41.39C80.596 40.9513 81.0207 40.6153 81.562 40.382C82.1127 40.1393 82.738 40.018 83.438 40.018C84.0913 40.018 84.698 40.1207 85.258 40.326C85.8273 40.522 86.3033 40.8067 86.686 41.18C86.8353 41.3293 86.91 41.4927 86.91 41.67C86.91 41.8007 86.8727 41.9173 86.798 42.02C86.7233 42.1133 86.6347 42.16 86.532 42.16C86.4293 42.16 86.294 42.1087 86.126 42.006C85.6687 41.6327 85.244 41.3713 84.852 41.222C84.46 41.0727 83.9887 40.998 83.438 40.998C82.6633 40.998 82.0613 41.1613 81.632 41.488C81.2027 41.8053 80.988 42.2533 80.988 42.832C80.988 43.3267 81.1747 43.7 81.548 43.952C81.9307 44.1947 82.514 44.4093 83.298 44.596C84.1473 44.8013 84.8147 44.9927 85.3 45.17C85.7853 45.338 86.1867 45.5947 86.504 45.94C86.8307 46.2853 86.994 46.7473 86.994 47.326C86.994 47.8767 86.84 48.362 86.532 48.782C86.2333 49.202 85.8087 49.5287 85.258 49.762C84.7073 49.9953 84.0773 50.112 83.368 50.112ZM91.4766 43.014C93.1846 43.014 94.0386 43.91 94.0386 45.702V49.51C94.0386 49.678 93.9873 49.8133 93.8846 49.916C93.7913 50.0187 93.6606 50.07 93.4926 50.07C93.3246 50.07 93.1893 50.0187 93.0866 49.916C92.984 49.8133 92.9326 49.678 92.9326 49.51V48.838C92.7553 49.2393 92.4846 49.552 92.1206 49.776C91.7566 49.9907 91.3366 50.098 90.8606 50.098C90.422 50.098 90.016 50.0093 89.6426 49.832C89.2786 49.6547 88.9893 49.4073 88.7746 49.09C88.56 48.7727 88.4526 48.4227 88.4526 48.04C88.4526 47.5267 88.5833 47.13 88.8446 46.85C89.106 46.5607 89.5353 46.3553 90.1326 46.234C90.73 46.1033 91.5606 46.038 92.6246 46.038H92.9326V45.576C92.9326 45.016 92.816 44.6053 92.5826 44.344C92.3586 44.0827 91.99 43.952 91.4766 43.952C90.842 43.952 90.198 44.1247 89.5446 44.47C89.2926 44.6287 89.1153 44.708 89.0126 44.708C88.9006 44.708 88.8073 44.666 88.7326 44.582C88.658 44.498 88.6206 44.3907 88.6206 44.26C88.6206 44.1293 88.658 44.0173 88.7326 43.924C88.8166 43.8213 88.9473 43.7187 89.1246 43.616C89.4513 43.4293 89.82 43.2847 90.2306 43.182C90.6506 43.07 91.066 43.014 91.4766 43.014ZM91.0146 49.202C91.5746 49.202 92.032 49.0153 92.3866 48.642C92.7506 48.2593 92.9326 47.7693 92.9326 47.172V46.766H92.6806C91.8593 46.766 91.234 46.8033 90.8046 46.878C90.3753 46.9433 90.0673 47.06 89.8806 47.228C89.7033 47.3867 89.6146 47.6247 89.6146 47.942C89.6146 48.306 89.7453 48.6093 90.0066 48.852C90.2773 49.0853 90.6133 49.202 91.0146 49.202ZM98.9005 43.014C100.608 43.014 101.462 43.91 101.462 45.702V49.51C101.462 49.678 101.411 49.8133 101.308 49.916C101.215 50.0187 101.084 50.07 100.916 50.07C100.748 50.07 100.613 50.0187 100.51 49.916C100.408 49.8133 100.356 49.678 100.356 49.51V48.838C100.179 49.2393 99.9085 49.552 99.5445 49.776C99.1805 49.9907 98.7605 50.098 98.2845 50.098C97.8458 50.098 97.4398 50.0093 97.0665 49.832C96.7025 49.6547 96.4131 49.4073 96.1985 49.09C95.9838 48.7727 95.8765 48.4227 95.8765 48.04C95.8765 47.5267 96.0071 47.13 96.2685 46.85C96.5298 46.5607 96.9591 46.3553 97.5565 46.234C98.1538 46.1033 98.9845 46.038 100.048 46.038H100.356V45.576C100.356 45.016 100.24 44.6053 100.006 44.344C99.7825 44.0827 99.4138 43.952 98.9005 43.952C98.2658 43.952 97.6218 44.1247 96.9685 44.47C96.7165 44.6287 96.5391 44.708 96.4365 44.708C96.3245 44.708 96.2311 44.666 96.1565 44.582C96.0818 44.498 96.0445 44.3907 96.0445 44.26C96.0445 44.1293 96.0818 44.0173 96.1565 43.924C96.2405 43.8213 96.3711 43.7187 96.5485 43.616C96.8751 43.4293 97.2438 43.2847 97.6545 43.182C98.0745 43.07 98.4898 43.014 98.9005 43.014ZM98.4385 49.202C98.9985 49.202 99.4558 49.0153 99.8105 48.642C100.174 48.2593 100.356 47.7693 100.356 47.172V46.766H100.104C99.2831 46.766 98.6578 46.8033 98.2285 46.878C97.7991 46.9433 97.4911 47.06 97.3045 47.228C97.1271 47.3867 97.0385 47.6247 97.0385 47.942C97.0385 48.306 97.1691 48.6093 97.4305 48.852C97.7011 49.0853 98.0371 49.202 98.4385 49.202ZM105.834 50.098C105.405 50.098 104.994 50.0467 104.602 49.944C104.22 49.8413 103.879 49.6967 103.58 49.51C103.412 49.398 103.291 49.2953 103.216 49.202C103.151 49.0993 103.118 48.978 103.118 48.838C103.118 48.7167 103.151 48.6187 103.216 48.544C103.291 48.46 103.384 48.418 103.496 48.418C103.608 48.418 103.772 48.488 103.986 48.628C104.266 48.796 104.542 48.9313 104.812 49.034C105.092 49.1273 105.438 49.174 105.848 49.174C106.352 49.174 106.744 49.0853 107.024 48.908C107.304 48.7307 107.444 48.474 107.444 48.138C107.444 47.9327 107.393 47.7693 107.29 47.648C107.188 47.5173 107.01 47.4053 106.758 47.312C106.506 47.2093 106.138 47.1067 105.652 47.004C104.831 46.8267 104.243 46.5887 103.888 46.29C103.534 45.9913 103.356 45.5853 103.356 45.072C103.356 44.6707 103.468 44.316 103.692 44.008C103.916 43.7 104.224 43.4573 104.616 43.28C105.018 43.1027 105.47 43.014 105.974 43.014C106.338 43.014 106.688 43.0653 107.024 43.168C107.37 43.2613 107.673 43.3967 107.934 43.574C108.252 43.798 108.41 44.0313 108.41 44.274C108.41 44.3953 108.373 44.498 108.298 44.582C108.224 44.666 108.135 44.708 108.032 44.708C107.92 44.708 107.752 44.6287 107.528 44.47C107.267 44.302 107.02 44.1713 106.786 44.078C106.553 43.9847 106.264 43.938 105.918 43.938C105.48 43.938 105.125 44.036 104.854 44.232C104.593 44.428 104.462 44.6893 104.462 45.016C104.462 45.2213 104.509 45.3893 104.602 45.52C104.705 45.6413 104.868 45.7533 105.092 45.856C105.326 45.9493 105.657 46.0427 106.086 46.136C106.721 46.276 107.211 46.43 107.556 46.598C107.911 46.766 108.163 46.9713 108.312 47.214C108.462 47.4567 108.536 47.7647 108.536 48.138C108.536 48.726 108.289 49.202 107.794 49.566C107.3 49.9207 106.646 50.098 105.834 50.098ZM122.54 49.342C122.578 49.4167 122.596 49.496 122.596 49.58C122.596 49.72 122.54 49.8367 122.428 49.93C122.326 50.0233 122.2 50.07 122.05 50.07C121.817 50.07 121.654 49.958 121.56 49.734L120.566 47.466H115.288L114.28 49.734C114.187 49.958 114.024 50.07 113.79 50.07C113.641 50.07 113.51 50.0233 113.398 49.93C113.286 49.8273 113.23 49.706 113.23 49.566C113.23 49.4913 113.249 49.4167 113.286 49.342L117.29 40.438C117.346 40.3073 117.43 40.2093 117.542 40.144C117.654 40.0787 117.776 40.046 117.906 40.046C118.046 40.046 118.172 40.0833 118.284 40.158C118.396 40.2233 118.48 40.3167 118.536 40.438L122.54 49.342ZM115.708 46.514H120.146L117.92 41.488L115.708 46.514ZM129.52 40.06C129.697 40.06 129.837 40.1113 129.94 40.214C130.043 40.3167 130.094 40.4473 130.094 40.606V49.51C130.094 49.678 130.043 49.8133 129.94 49.916C129.837 50.0187 129.697 50.07 129.52 50.07C129.343 50.07 129.203 50.0187 129.1 49.916C129.007 49.8133 128.96 49.678 128.96 49.51V48.754C128.755 49.1833 128.451 49.5147 128.05 49.748C127.658 49.9813 127.196 50.098 126.664 50.098C126.067 50.098 125.539 49.9487 125.082 49.65C124.625 49.3513 124.27 48.936 124.018 48.404C123.766 47.8627 123.64 47.2373 123.64 46.528C123.64 45.828 123.766 45.212 124.018 44.68C124.27 44.148 124.625 43.7373 125.082 43.448C125.539 43.1587 126.067 43.014 126.664 43.014C127.196 43.014 127.658 43.1307 128.05 43.364C128.451 43.5973 128.755 43.9287 128.96 44.358V40.606C128.96 40.438 129.007 40.3073 129.1 40.214C129.203 40.1113 129.343 40.06 129.52 40.06ZM126.888 49.16C127.551 49.16 128.059 48.936 128.414 48.488C128.778 48.0307 128.96 47.3867 128.96 46.556C128.96 45.7253 128.778 45.086 128.414 44.638C128.059 44.19 127.551 43.966 126.888 43.966C126.225 43.966 125.707 44.19 125.334 44.638C124.97 45.086 124.788 45.716 124.788 46.528C124.788 47.3587 124.97 48.0073 125.334 48.474C125.707 48.9313 126.225 49.16 126.888 49.16ZM139.783 43.014C141.295 43.014 142.051 43.9147 142.051 45.716V49.51C142.051 49.6873 141.999 49.8273 141.897 49.93C141.794 50.0233 141.659 50.07 141.491 50.07C141.323 50.07 141.183 50.0233 141.071 49.93C140.968 49.8273 140.917 49.6873 140.917 49.51V45.744C140.917 45.1187 140.805 44.666 140.581 44.386C140.357 44.106 140.007 43.966 139.531 43.966C138.961 43.966 138.513 44.1573 138.187 44.54C137.86 44.9227 137.697 45.4407 137.697 46.094V49.51C137.697 49.6873 137.641 49.8273 137.529 49.93C137.426 50.0233 137.291 50.07 137.123 50.07C136.955 50.07 136.819 50.0233 136.717 49.93C136.614 49.8273 136.563 49.6873 136.563 49.51V45.744C136.563 45.1187 136.451 44.666 136.227 44.386C136.003 44.106 135.648 43.966 135.163 43.966C134.603 43.966 134.155 44.1573 133.819 44.54C133.492 44.9227 133.329 45.4407 133.329 46.094V49.51C133.329 49.6873 133.277 49.8273 133.175 49.93C133.072 50.0233 132.937 50.07 132.769 50.07C132.601 50.07 132.461 50.0233 132.349 49.93C132.246 49.8273 132.195 49.6873 132.195 49.51V43.602C132.195 43.434 132.246 43.2987 132.349 43.196C132.461 43.0933 132.601 43.042 132.769 43.042C132.927 43.042 133.058 43.0933 133.161 43.196C133.263 43.2893 133.315 43.42 133.315 43.588V44.26C133.52 43.8587 133.805 43.5507 134.169 43.336C134.533 43.1213 134.953 43.014 135.429 43.014C136.493 43.014 137.188 43.462 137.515 44.358C137.711 43.9473 138.009 43.6207 138.411 43.378C138.812 43.1353 139.269 43.014 139.783 43.014ZM144.69 50.07C144.522 50.07 144.382 50.0233 144.27 49.93C144.168 49.8273 144.116 49.6873 144.116 49.51V43.602C144.116 43.4247 144.168 43.2893 144.27 43.196C144.382 43.0933 144.522 43.042 144.69 43.042C144.858 43.042 144.994 43.0933 145.096 43.196C145.199 43.2893 145.25 43.4247 145.25 43.602V49.51C145.25 49.6967 145.199 49.8367 145.096 49.93C144.994 50.0233 144.858 50.07 144.69 50.07ZM144.69 41.572C144.466 41.572 144.284 41.5067 144.144 41.376C144.004 41.2453 143.934 41.0727 143.934 40.858C143.934 40.6527 144.004 40.4847 144.144 40.354C144.284 40.2233 144.466 40.158 144.69 40.158C144.914 40.158 145.096 40.2233 145.236 40.354C145.376 40.4847 145.446 40.6527 145.446 40.858C145.446 41.0727 145.376 41.2453 145.236 41.376C145.096 41.5067 144.914 41.572 144.69 41.572ZM150.8 43.014C152.434 43.014 153.25 43.9147 153.25 45.716V49.51C153.25 49.6873 153.199 49.8273 153.096 49.93C153.003 50.0233 152.868 50.07 152.69 50.07C152.513 50.07 152.373 50.0233 152.27 49.93C152.168 49.8273 152.116 49.6873 152.116 49.51V45.786C152.116 45.1513 151.99 44.6893 151.738 44.4C151.496 44.1107 151.104 43.966 150.562 43.966C149.937 43.966 149.438 44.1573 149.064 44.54C148.691 44.9227 148.504 45.4407 148.504 46.094V49.51C148.504 49.6873 148.453 49.8273 148.35 49.93C148.257 50.0233 148.122 50.07 147.944 50.07C147.767 50.07 147.627 50.0233 147.524 49.93C147.422 49.8273 147.37 49.6873 147.37 49.51V43.602C147.37 43.434 147.422 43.2987 147.524 43.196C147.627 43.0933 147.767 43.042 147.944 43.042C148.112 43.042 148.243 43.0933 148.336 43.196C148.439 43.2987 148.49 43.4293 148.49 43.588V44.302C148.714 43.882 149.027 43.5647 149.428 43.35C149.83 43.126 150.287 43.014 150.8 43.014ZM159.693 50C159.515 50 159.371 49.9487 159.259 49.846C159.156 49.7433 159.105 49.608 159.105 49.44V40.69C159.105 40.522 159.156 40.3867 159.259 40.284C159.371 40.1813 159.515 40.13 159.693 40.13H162.423C164 40.13 165.218 40.5593 166.077 41.418C166.945 42.2673 167.379 43.4807 167.379 45.058C167.379 46.6353 166.945 47.8533 166.077 48.712C165.209 49.5707 163.991 50 162.423 50H159.693ZM162.353 49.02C164.91 49.02 166.189 47.6993 166.189 45.058C166.189 42.426 164.91 41.11 162.353 41.11H160.253V49.02H162.353ZM172.072 43.014C173.78 43.014 174.634 43.91 174.634 45.702V49.51C174.634 49.678 174.583 49.8133 174.48 49.916C174.387 50.0187 174.256 50.07 174.088 50.07C173.92 50.07 173.785 50.0187 173.682 49.916C173.58 49.8133 173.528 49.678 173.528 49.51V48.838C173.351 49.2393 173.08 49.552 172.716 49.776C172.352 49.9907 171.932 50.098 171.456 50.098C171.018 50.098 170.612 50.0093 170.238 49.832C169.874 49.6547 169.585 49.4073 169.37 49.09C169.156 48.7727 169.048 48.4227 169.048 48.04C169.048 47.5267 169.179 47.13 169.44 46.85C169.702 46.5607 170.131 46.3553 170.728 46.234C171.326 46.1033 172.156 46.038 173.22 46.038H173.528V45.576C173.528 45.016 173.412 44.6053 173.178 44.344C172.954 44.0827 172.586 43.952 172.072 43.952C171.438 43.952 170.794 44.1247 170.14 44.47C169.888 44.6287 169.711 44.708 169.608 44.708C169.496 44.708 169.403 44.666 169.328 44.582C169.254 44.498 169.216 44.3907 169.216 44.26C169.216 44.1293 169.254 44.0173 169.328 43.924C169.412 43.8213 169.543 43.7187 169.72 43.616C170.047 43.4293 170.416 43.2847 170.826 43.182C171.246 43.07 171.662 43.014 172.072 43.014ZM171.61 49.202C172.17 49.202 172.628 49.0153 172.982 48.642C173.346 48.2593 173.528 47.7693 173.528 47.172V46.766H173.276C172.455 46.766 171.83 46.8033 171.4 46.878C170.971 46.9433 170.663 47.06 170.476 47.228C170.299 47.3867 170.21 47.6247 170.21 47.942C170.21 48.306 170.341 48.6093 170.602 48.852C170.873 49.0853 171.209 49.202 171.61 49.202ZM179.006 50.098C178.577 50.098 178.166 50.0467 177.774 49.944C177.391 49.8413 177.051 49.6967 176.752 49.51C176.584 49.398 176.463 49.2953 176.388 49.202C176.323 49.0993 176.29 48.978 176.29 48.838C176.29 48.7167 176.323 48.6187 176.388 48.544C176.463 48.46 176.556 48.418 176.668 48.418C176.78 48.418 176.943 48.488 177.158 48.628C177.438 48.796 177.713 48.9313 177.984 49.034C178.264 49.1273 178.609 49.174 179.02 49.174C179.524 49.174 179.916 49.0853 180.196 48.908C180.476 48.7307 180.616 48.474 180.616 48.138C180.616 47.9327 180.565 47.7693 180.462 47.648C180.359 47.5173 180.182 47.4053 179.93 47.312C179.678 47.2093 179.309 47.1067 178.824 47.004C178.003 46.8267 177.415 46.5887 177.06 46.29C176.705 45.9913 176.528 45.5853 176.528 45.072C176.528 44.6707 176.64 44.316 176.864 44.008C177.088 43.7 177.396 43.4573 177.788 43.28C178.189 43.1027 178.642 43.014 179.146 43.014C179.51 43.014 179.86 43.0653 180.196 43.168C180.541 43.2613 180.845 43.3967 181.106 43.574C181.423 43.798 181.582 44.0313 181.582 44.274C181.582 44.3953 181.545 44.498 181.47 44.582C181.395 44.666 181.307 44.708 181.204 44.708C181.092 44.708 180.924 44.6287 180.7 44.47C180.439 44.302 180.191 44.1713 179.958 44.078C179.725 43.9847 179.435 43.938 179.09 43.938C178.651 43.938 178.297 44.036 178.026 44.232C177.765 44.428 177.634 44.6893 177.634 45.016C177.634 45.2213 177.681 45.3893 177.774 45.52C177.877 45.6413 178.04 45.7533 178.264 45.856C178.497 45.9493 178.829 46.0427 179.258 46.136C179.893 46.276 180.383 46.43 180.728 46.598C181.083 46.766 181.335 46.9713 181.484 47.214C181.633 47.4567 181.708 47.7647 181.708 48.138C181.708 48.726 181.461 49.202 180.966 49.566C180.471 49.9207 179.818 50.098 179.006 50.098ZM186.881 43.014C187.683 43.014 188.29 43.2427 188.701 43.7C189.111 44.148 189.317 44.82 189.317 45.716V49.51C189.317 49.6873 189.265 49.8273 189.163 49.93C189.06 50.0233 188.925 50.07 188.757 50.07C188.579 50.07 188.439 50.0233 188.337 49.93C188.234 49.8273 188.183 49.6873 188.183 49.51V45.744C188.183 45.1373 188.057 44.6893 187.805 44.4C187.562 44.1107 187.17 43.966 186.629 43.966C186.003 43.966 185.504 44.1573 185.131 44.54C184.757 44.9227 184.571 45.4407 184.571 46.094V49.51C184.571 49.6873 184.519 49.8273 184.417 49.93C184.323 50.0233 184.188 50.07 184.011 50.07C183.833 50.07 183.693 50.0233 183.591 49.93C183.488 49.8273 183.437 49.6873 183.437 49.51V40.606C183.437 40.4473 183.488 40.3167 183.591 40.214C183.703 40.1113 183.843 40.06 184.011 40.06C184.188 40.06 184.323 40.1113 184.417 40.214C184.519 40.3073 184.571 40.438 184.571 40.606V44.274C184.795 43.8633 185.107 43.5507 185.509 43.336C185.91 43.1213 186.367 43.014 186.881 43.014ZM194.824 43.014C195.421 43.014 195.948 43.1587 196.406 43.448C196.863 43.7373 197.218 44.148 197.47 44.68C197.722 45.212 197.848 45.828 197.848 46.528C197.848 47.2373 197.722 47.8627 197.47 48.404C197.218 48.936 196.863 49.3513 196.406 49.65C195.948 49.9487 195.421 50.098 194.824 50.098C194.292 50.098 193.825 49.9813 193.424 49.748C193.032 49.5147 192.733 49.1833 192.528 48.754V49.51C192.528 49.678 192.476 49.8133 192.374 49.916C192.28 50.0187 192.145 50.07 191.968 50.07C191.79 50.07 191.65 50.0187 191.548 49.916C191.445 49.8133 191.394 49.678 191.394 49.51V40.606C191.394 40.4473 191.445 40.3167 191.548 40.214C191.65 40.1113 191.79 40.06 191.968 40.06C192.145 40.06 192.28 40.1113 192.374 40.214C192.476 40.3073 192.528 40.438 192.528 40.606V44.358C192.733 43.9287 193.032 43.5973 193.424 43.364C193.825 43.1307 194.292 43.014 194.824 43.014ZM194.6 49.16C195.262 49.16 195.776 48.9313 196.14 48.474C196.504 48.0073 196.686 47.3587 196.686 46.528C196.686 45.716 196.504 45.086 196.14 44.638C195.776 44.19 195.262 43.966 194.6 43.966C193.937 43.966 193.424 44.19 193.06 44.638C192.705 45.086 192.528 45.7253 192.528 46.556C192.528 47.3867 192.705 48.0307 193.06 48.488C193.424 48.936 193.937 49.16 194.6 49.16ZM202.37 50.098C201.726 50.098 201.157 49.9533 200.662 49.664C200.177 49.3747 199.799 48.964 199.528 48.432C199.267 47.8907 199.136 47.2653 199.136 46.556C199.136 45.8467 199.267 45.226 199.528 44.694C199.799 44.1527 200.177 43.7373 200.662 43.448C201.157 43.1587 201.726 43.014 202.37 43.014C203.014 43.014 203.584 43.1587 204.078 43.448C204.573 43.7373 204.951 44.1527 205.212 44.694C205.483 45.226 205.618 45.8467 205.618 46.556C205.618 47.2653 205.483 47.8907 205.212 48.432C204.951 48.964 204.573 49.3747 204.078 49.664C203.584 49.9533 203.014 50.098 202.37 50.098ZM202.37 49.16C203.042 49.16 203.556 48.9407 203.91 48.502C204.274 48.054 204.456 47.4053 204.456 46.556C204.456 45.7253 204.274 45.086 203.91 44.638C203.546 44.1807 203.033 43.952 202.37 43.952C201.708 43.952 201.194 44.1807 200.83 44.638C200.466 45.086 200.284 45.7253 200.284 46.556C200.284 47.396 200.462 48.04 200.816 48.488C201.18 48.936 201.698 49.16 202.37 49.16ZM210.094 43.014C211.802 43.014 212.656 43.91 212.656 45.702V49.51C212.656 49.678 212.604 49.8133 212.502 49.916C212.408 50.0187 212.278 50.07 212.11 50.07C211.942 50.07 211.806 50.0187 211.704 49.916C211.601 49.8133 211.55 49.678 211.55 49.51V48.838C211.372 49.2393 211.102 49.552 210.738 49.776C210.374 49.9907 209.954 50.098 209.478 50.098C209.039 50.098 208.633 50.0093 208.26 49.832C207.896 49.6547 207.606 49.4073 207.392 49.09C207.177 48.7727 207.07 48.4227 207.07 48.04C207.07 47.5267 207.2 47.13 207.462 46.85C207.723 46.5607 208.152 46.3553 208.75 46.234C209.347 46.1033 210.178 46.038 211.242 46.038H211.55V45.576C211.55 45.016 211.433 44.6053 211.2 44.344C210.976 44.0827 210.607 43.952 210.094 43.952C209.459 43.952 208.815 44.1247 208.162 44.47C207.91 44.6287 207.732 44.708 207.63 44.708C207.518 44.708 207.424 44.666 207.35 44.582C207.275 44.498 207.238 44.3907 207.238 44.26C207.238 44.1293 207.275 44.0173 207.35 43.924C207.434 43.8213 207.564 43.7187 207.742 43.616C208.068 43.4293 208.437 43.2847 208.848 43.182C209.268 43.07 209.683 43.014 210.094 43.014ZM209.632 49.202C210.192 49.202 210.649 49.0153 211.004 48.642C211.368 48.2593 211.55 47.7693 211.55 47.172V46.766H211.298C210.476 46.766 209.851 46.8033 209.422 46.878C208.992 46.9433 208.684 47.06 208.498 47.228C208.32 47.3867 208.232 47.6247 208.232 47.942C208.232 48.306 208.362 48.6093 208.624 48.852C208.894 49.0853 209.23 49.202 209.632 49.202ZM218.106 43.042C218.498 43.014 218.694 43.1727 218.694 43.518C218.694 43.6673 218.652 43.7887 218.568 43.882C218.484 43.966 218.339 44.0173 218.134 44.036L217.714 44.078C217.088 44.134 216.622 44.358 216.314 44.75C216.015 45.1327 215.866 45.5853 215.866 46.108V49.51C215.866 49.6967 215.814 49.8367 215.712 49.93C215.609 50.0233 215.474 50.07 215.306 50.07C215.138 50.07 214.998 50.0233 214.886 49.93C214.783 49.8273 214.732 49.6873 214.732 49.51V43.602C214.732 43.4247 214.788 43.2893 214.9 43.196C215.012 43.0933 215.147 43.042 215.306 43.042C215.455 43.042 215.581 43.0933 215.684 43.196C215.786 43.2893 215.838 43.42 215.838 43.588V44.372C216.034 43.9613 216.309 43.6487 216.664 43.434C217.028 43.2193 217.443 43.0933 217.91 43.056L218.106 43.042ZM225.004 40.06C225.182 40.06 225.322 40.1113 225.424 40.214C225.527 40.3167 225.578 40.4473 225.578 40.606V49.51C225.578 49.678 225.527 49.8133 225.424 49.916C225.322 50.0187 225.182 50.07 225.004 50.07C224.827 50.07 224.687 50.0187 224.584 49.916C224.491 49.8133 224.444 49.678 224.444 49.51V48.754C224.239 49.1833 223.936 49.5147 223.534 49.748C223.142 49.9813 222.68 50.098 222.148 50.098C221.551 50.098 221.024 49.9487 220.566 49.65C220.109 49.3513 219.754 48.936 219.502 48.404C219.25 47.8627 219.124 47.2373 219.124 46.528C219.124 45.828 219.25 45.212 219.502 44.68C219.754 44.148 220.109 43.7373 220.566 43.448C221.024 43.1587 221.551 43.014 222.148 43.014C222.68 43.014 223.142 43.1307 223.534 43.364C223.936 43.5973 224.239 43.9287 224.444 44.358V40.606C224.444 40.438 224.491 40.3073 224.584 40.214C224.687 40.1113 224.827 40.06 225.004 40.06ZM222.372 49.16C223.035 49.16 223.544 48.936 223.898 48.488C224.262 48.0307 224.444 47.3867 224.444 46.556C224.444 45.7253 224.262 45.086 223.898 44.638C223.544 44.19 223.035 43.966 222.372 43.966C221.71 43.966 221.192 44.19 220.818 44.638C220.454 45.086 220.272 45.716 220.272 46.528C220.272 47.3587 220.454 48.0073 220.818 48.474C221.192 48.9313 221.71 49.16 222.372 49.16Z" fill="#717579"/>
<rect width="60" height="60" rx="10" fill="#1D3573"/>
<mask id="mask0_114_3045" style="mask-type:alpha" maskUnits="userSpaceOnUse" x="0" y="0" width="60" height="60">
<rect width="60" height="60" rx="10" fill="#1D3573"/>
</mask>
<g mask="url(#mask0_114_3045)">
<path d="M-54 51.3929L-50.5 45.2109C-47 38.9626 -40 26.6981 -33 23.1017C-26 19.5715 -19 24.875 -12 29.3002C-5 33.6591 2 37.3053 9 39.0124C16 40.7857 23 40.7857 30 36.3606C37 32.0017 44 23.0519 51 17.7981C58 12.4448 65 10.7874 72 16.9197C79 23.0519 86 37.3053 93 40.7857C100 44.2662 107 37.3053 110.5 33.7088L114 30.1786V62H110.5C107 62 100 62 93 62C86 62 79 62 72 62C65 62 58 62 51 62C44 62 37 62 30 62C23 62 16 62 9 62C2 62 -5 62 -12 62C-19 62 -26 62 -33 62C-40 62 -47 62 -50.5 62H-54V51.3929Z" fill="url(#paint0_linear_114_3045)"/>
<path d="M130 48.7223L126.5 45.0636C123 41.3656 116 34.1071 109 31.9785C102 29.8892 95 33.0281 88 35.6471C81 38.2268 74 40.3848 67 41.3951C60 42.4446 53 42.4446 46 39.8256C39 37.2459 32 31.9491 25 28.8397C18 25.6714 11 24.6905 4 28.3198C-3 31.9491 -10 40.3848 -17 42.4446C-24 44.5045 -31 40.3848 -34.5 38.2562L-38 36.1669V55H-34.5C-31 55 -24 55 -17 55C-10 55 -3 55 4 55C11 55 18 55 25 55C32 55 39 55 46 55C53 55 60 55 67 55C74 55 81 55 88 55C95 55 102 55 109 55C116 55 123 55 126.5 55H130V48.7223Z" fill="url(#paint1_linear_114_3045)"/>
</g>
<path d="M44 43.8519C36.7278 44.6173 30.3111 45 24.75 45C22.1056 45 19.9861 44.2154 18.3917 42.6463C16.7972 41.0772 16 38.9914 16 36.3889V23.1852C16 20.3148 16.8167 18.0759 18.45 16.4685C20.1222 14.8228 22.4167 14 25.3333 14H44V21.75H28.5417C26.9861 21.75 26.2083 22.5154 26.2083 24.0463V35.2407C26.2083 35.8148 26.4028 36.2932 26.7917 36.6759C27.1806 37.0586 27.6667 37.25 28.25 37.25C31.75 37.25 37 36.963 44 36.3889V43.8519Z" fill="#FBFBFB"/>
<defs>
<linearGradient id="paint0_linear_114_3045" x1="30" y1="13" x2="30" y2="62" gradientUnits="userSpaceOnUse">
<stop stop-color="#4870D6"/>
<stop offset="1" stop-color="#2A3EA6" stop-opacity="0"/>
</linearGradient>
<linearGradient id="paint1_linear_114_3045" x1="46" y1="26" x2="46" y2="55" gradientUnits="userSpaceOnUse">
<stop stop-color="#4870D6" stop-opacity="0.46"/>
<stop offset="1" stop-color="#2A3EA6" stop-opacity="0"/>
</linearGradient>
</defs>
</svg>
