<svg width="227" height="60" viewBox="0 0 227 60" fill="none" xmlns="http://www.w3.org/2000/svg">
<path d="M92.783 26.0341C89.4629 26.3826 86.5335 26.5568 83.9947 26.5568C82.7874 26.5568 81.8198 26.1996 81.0919 25.4852C80.364 24.7708 80 23.8212 80 22.6364V16.625C80 15.3182 80.3728 14.2989 81.1185 13.567C81.8819 12.8178 82.9294 12.4432 84.261 12.4432H92.783V15.9716H85.7257C85.0155 15.9716 84.6605 16.3201 84.6605 17.017V22.1136C84.6605 22.375 84.7492 22.5928 84.9268 22.767C85.1043 22.9413 85.3262 23.0284 85.5925 23.0284C87.1904 23.0284 89.5872 22.8977 92.783 22.6364V26.0341Z" fill="white"/>
<path d="M109.289 22.375C109.289 23.6818 108.907 24.7098 108.144 25.4591C107.398 26.1909 106.36 26.5568 105.028 26.5568H98.9029C97.5714 26.5568 96.5239 26.1909 95.7605 25.4591C95.0148 24.7098 94.642 23.6818 94.642 22.375V16.3636C94.642 15.0568 95.0148 14.0375 95.7605 13.3057C96.5239 12.5564 97.5714 12.1818 98.9029 12.1818H105.028C106.36 12.1818 107.398 12.5564 108.144 13.3057C108.907 14.0375 109.289 15.0568 109.289 16.3636V22.375ZM104.629 16.7557C104.629 16.0587 104.274 15.7102 103.563 15.7102H100.368C99.6575 15.7102 99.3024 16.0587 99.3024 16.7557V21.983C99.3024 22.6799 99.6575 23.0284 100.368 23.0284H103.563C104.274 23.0284 104.629 22.6799 104.629 21.983V16.7557Z" fill="white"/>
<path d="M121.669 26.2955L121.403 24.9886C120.569 25.5288 119.708 25.9295 118.82 26.1909C117.95 26.4348 117.213 26.5568 116.61 26.5568H115.411C114.204 26.5568 113.236 26.1996 112.508 25.4852C111.78 24.7708 111.416 23.8212 111.416 22.6364V16.625C111.416 15.3182 111.789 14.2989 112.535 13.567C113.298 12.8178 114.346 12.4432 115.677 12.4432H121.137V8H125.797V26.2955H121.669ZM117.941 22.767C118.882 22.767 119.947 22.5928 121.137 22.2443V15.9716H117.142C116.432 15.9716 116.077 16.3201 116.077 17.017V21.8523C116.077 22.1136 116.166 22.3314 116.343 22.5057C116.521 22.6799 116.743 22.767 117.009 22.767H117.941Z" fill="white"/>
<path d="M133.917 15.4489C133.207 15.4489 132.851 15.7973 132.851 16.4943V17.9318H137.379V16.4943C137.379 15.7973 137.024 15.4489 136.314 15.4489H133.917ZM141.507 26.0341C138.08 26.3826 134.973 26.5568 132.186 26.5568C130.978 26.5568 130.011 26.1996 129.283 25.4852C128.555 24.7708 128.191 23.8212 128.191 22.6364V16.3636C128.191 15.0568 128.564 14.0375 129.31 13.3057C130.073 12.5564 131.12 12.1818 132.452 12.1818H137.778C139.11 12.1818 140.148 12.5564 140.894 13.3057C141.658 14.0375 142.039 15.0568 142.039 16.3636V21.1989H132.851V22.2443C132.851 22.5057 132.94 22.7235 133.118 22.8977C133.295 23.072 133.517 23.1591 133.784 23.1591C135.541 23.1591 138.116 23.0284 141.507 22.767V26.0341Z" fill="white"/>
<path d="M153.88 16.625C153.88 16.3636 153.791 16.1458 153.613 15.9716C153.436 15.7973 153.214 15.7102 152.948 15.7102H152.282C151.536 15.7102 150.888 15.7451 150.338 15.8148C149.805 15.8845 149.388 15.9367 149.086 15.9716V22.767H152.814C153.525 22.767 153.88 22.4186 153.88 21.7216V16.625ZM149.086 12.7045C150.808 12.3561 152.317 12.1818 153.613 12.1818H154.545C155.753 12.1818 156.72 12.539 157.448 13.2534C158.176 13.9678 158.54 14.9174 158.54 16.1023V22.1136C158.54 23.4205 158.158 24.4485 157.395 25.1977C156.649 25.9295 155.611 26.2955 154.279 26.2955H144.426V8H149.086V12.7045Z" fill="white"/>
<path d="M164.408 31C163.467 31 162.313 30.9129 160.946 30.7386V27.3409H163.343C164.018 27.3409 164.453 27.158 164.648 26.792C164.861 26.4261 164.826 25.9121 164.542 25.25L159.082 12.4432H164.009L167.338 21.3295L170.134 12.4432H175.061L169.735 26.8182C169.22 28.1947 168.554 29.2314 167.737 29.9284C166.921 30.6428 165.811 31 164.408 31Z" fill="white"/>
<path d="M185.722 26.2955C184 26.4697 182.313 26.5568 180.662 26.5568C179.454 26.5568 178.487 26.1996 177.759 25.4852C177.031 24.7708 176.667 23.8212 176.667 22.6364V15.9716H175.069V12.4432H176.667L177.2 9.30682H181.328V12.4432H184.656V15.9716H181.328V21.983C181.328 22.2443 181.416 22.4621 181.594 22.6364C181.771 22.8106 181.993 22.8977 182.26 22.8977H185.722V26.2955Z" fill="white"/>
<path d="M192.797 15.4489C192.086 15.4489 191.731 15.7973 191.731 16.4943V17.9318H196.259V16.4943C196.259 15.7973 195.904 15.4489 195.193 15.4489H192.797ZM200.386 26.0341C196.96 26.3826 193.853 26.5568 191.066 26.5568C189.858 26.5568 188.891 26.1996 188.163 25.4852C187.435 24.7708 187.071 23.8212 187.071 22.6364V16.3636C187.071 15.0568 187.444 14.0375 188.189 13.3057C188.953 12.5564 190 12.1818 191.332 12.1818H196.658C197.99 12.1818 199.028 12.5564 199.774 13.3057C200.537 14.0375 200.919 15.0568 200.919 16.3636V21.1989H191.731V22.2443C191.731 22.5057 191.82 22.7235 191.998 22.8977C192.175 23.072 192.397 23.1591 192.663 23.1591C194.421 23.1591 196.995 23.0284 200.386 22.767V26.0341Z" fill="white"/>
<path d="M201.974 26.2955L209.963 8H214.491L206.768 26.2955H201.974Z" fill="white"/>
<path d="M209.011 26.2955L217 8H221.527L213.804 26.2955H209.011Z" fill="white"/>
<path d="M83.41 50.126C82.9713 50.126 82.542 50.0887 82.122 50.014C81.702 49.9393 81.31 49.832 80.946 49.692C80.5913 49.552 80.2693 49.3747 79.98 49.16C79.868 49.076 79.7887 48.9827 79.742 48.88C79.7047 48.768 79.6953 48.6607 79.714 48.558C79.742 48.446 79.7887 48.3527 79.854 48.278C79.9287 48.2033 80.0173 48.1613 80.12 48.152C80.2227 48.1427 80.3347 48.1753 80.456 48.25C80.876 48.5487 81.324 48.768 81.8 48.908C82.276 49.0387 82.8127 49.104 83.41 49.104C84.25 49.104 84.8707 48.95 85.272 48.642C85.6827 48.3247 85.888 47.9093 85.888 47.396C85.888 46.976 85.7387 46.6493 85.44 46.416C85.1507 46.1733 84.6607 45.982 83.97 45.842L82.514 45.548C81.6367 45.3613 80.9787 45.058 80.54 44.638C80.1107 44.2087 79.896 43.6393 79.896 42.93C79.896 42.4913 79.9847 42.0947 80.162 41.74C80.3393 41.376 80.5867 41.068 80.904 40.816C81.2213 40.5547 81.5993 40.354 82.038 40.214C82.4767 40.074 82.962 40.004 83.494 40.004C84.082 40.004 84.628 40.088 85.132 40.256C85.6453 40.4147 86.1073 40.6573 86.518 40.984C86.6207 41.068 86.6907 41.166 86.728 41.278C86.7653 41.3807 86.77 41.4833 86.742 41.586C86.714 41.6793 86.6627 41.7587 86.588 41.824C86.5227 41.8893 86.434 41.9267 86.322 41.936C86.2193 41.9453 86.1027 41.908 85.972 41.824C85.5987 41.544 85.2113 41.3433 84.81 41.222C84.4087 41.0913 83.9653 41.026 83.48 41.026C82.9853 41.026 82.556 41.1007 82.192 41.25C81.8373 41.3993 81.5573 41.6187 81.352 41.908C81.156 42.188 81.058 42.5147 81.058 42.888C81.058 43.336 81.1933 43.6907 81.464 43.952C81.744 44.2133 82.1967 44.4047 82.822 44.526L84.278 44.834C85.2207 45.03 85.916 45.3287 86.364 45.73C86.8213 46.122 87.05 46.6587 87.05 47.34C87.05 47.7507 86.966 48.1287 86.798 48.474C86.63 48.8193 86.3873 49.118 86.07 49.37C85.7527 49.6127 85.37 49.7993 84.922 49.93C84.474 50.0607 83.97 50.126 83.41 50.126ZM90.8193 50.126C90.3526 50.126 89.9326 50.0373 89.5593 49.86C89.1953 49.6733 88.9059 49.4213 88.6913 49.104C88.4766 48.7867 88.3693 48.432 88.3693 48.04C88.3693 47.536 88.4953 47.1393 88.7473 46.85C89.0086 46.5607 89.4333 46.3553 90.0213 46.234C90.6186 46.1127 91.4306 46.052 92.4573 46.052H93.0873V46.794H92.4713C91.7153 46.794 91.1179 46.8313 90.6793 46.906C90.2499 46.9713 89.9466 47.088 89.7693 47.256C89.6013 47.424 89.5173 47.662 89.5173 47.97C89.5173 48.3527 89.6479 48.6653 89.9093 48.908C90.1799 49.1507 90.5439 49.272 91.0013 49.272C91.3746 49.272 91.7013 49.1833 91.9813 49.006C92.2706 48.8287 92.4946 48.586 92.6533 48.278C92.8213 47.97 92.9053 47.6153 92.9053 47.214V45.618C92.9053 45.0393 92.7886 44.624 92.5553 44.372C92.3219 44.1107 91.9393 43.98 91.4073 43.98C91.0806 43.98 90.7539 44.022 90.4273 44.106C90.1006 44.19 89.7553 44.3253 89.3913 44.512C89.2606 44.5773 89.1486 44.6007 89.0553 44.582C88.9619 44.554 88.8873 44.5027 88.8313 44.428C88.7753 44.3533 88.7426 44.2693 88.7333 44.176C88.7239 44.0733 88.7426 43.9753 88.7893 43.882C88.8453 43.7887 88.9293 43.714 89.0413 43.658C89.4519 43.4527 89.8579 43.3033 90.2593 43.21C90.6606 43.1167 91.0433 43.07 91.4073 43.07C91.9953 43.07 92.4806 43.168 92.8633 43.364C93.2459 43.5507 93.5306 43.84 93.7173 44.232C93.9039 44.6147 93.9973 45.1093 93.9973 45.716V49.51C93.9973 49.6967 93.9506 49.8413 93.8573 49.944C93.7733 50.0467 93.6473 50.098 93.4793 50.098C93.3019 50.098 93.1666 50.0467 93.0733 49.944C92.9799 49.8413 92.9333 49.6967 92.9333 49.51V48.418H93.0593C92.9846 48.7727 92.8399 49.076 92.6253 49.328C92.4199 49.58 92.1633 49.776 91.8553 49.916C91.5473 50.056 91.2019 50.126 90.8193 50.126ZM98.2431 50.126C97.7764 50.126 97.3564 50.0373 96.9831 49.86C96.6191 49.6733 96.3298 49.4213 96.1151 49.104C95.9004 48.7867 95.7931 48.432 95.7931 48.04C95.7931 47.536 95.9191 47.1393 96.1711 46.85C96.4324 46.5607 96.8571 46.3553 97.4451 46.234C98.0424 46.1127 98.8544 46.052 99.8811 46.052H100.511V46.794H99.8951C99.1391 46.794 98.5418 46.8313 98.1031 46.906C97.6738 46.9713 97.3704 47.088 97.1931 47.256C97.0251 47.424 96.9411 47.662 96.9411 47.97C96.9411 48.3527 97.0718 48.6653 97.3331 48.908C97.6038 49.1507 97.9678 49.272 98.4251 49.272C98.7984 49.272 99.1251 49.1833 99.4051 49.006C99.6944 48.8287 99.9184 48.586 100.077 48.278C100.245 47.97 100.329 47.6153 100.329 47.214V45.618C100.329 45.0393 100.212 44.624 99.9791 44.372C99.7458 44.1107 99.3631 43.98 98.8311 43.98C98.5044 43.98 98.1778 44.022 97.8511 44.106C97.5244 44.19 97.1791 44.3253 96.8151 44.512C96.6844 44.5773 96.5724 44.6007 96.4791 44.582C96.3858 44.554 96.3111 44.5027 96.2551 44.428C96.1991 44.3533 96.1664 44.2693 96.1571 44.176C96.1478 44.0733 96.1664 43.9753 96.2131 43.882C96.2691 43.7887 96.3531 43.714 96.4651 43.658C96.8758 43.4527 97.2818 43.3033 97.6831 43.21C98.0844 43.1167 98.4671 43.07 98.8311 43.07C99.4191 43.07 99.9044 43.168 100.287 43.364C100.67 43.5507 100.954 43.84 101.141 44.232C101.328 44.6147 101.421 45.1093 101.421 45.716V49.51C101.421 49.6967 101.374 49.8413 101.281 49.944C101.197 50.0467 101.071 50.098 100.903 50.098C100.726 50.098 100.59 50.0467 100.497 49.944C100.404 49.8413 100.357 49.6967 100.357 49.51V48.418H100.483C100.408 48.7727 100.264 49.076 100.049 49.328C99.8438 49.58 99.5871 49.776 99.2791 49.916C98.9711 50.056 98.6258 50.126 98.2431 50.126ZM105.821 50.126C105.401 50.126 104.976 50.0747 104.547 49.972C104.127 49.8693 103.735 49.692 103.371 49.44C103.278 49.3747 103.212 49.3 103.175 49.216C103.138 49.1227 103.124 49.034 103.133 48.95C103.152 48.8567 103.189 48.7773 103.245 48.712C103.31 48.6467 103.385 48.6093 103.469 48.6C103.562 48.5813 103.665 48.6 103.777 48.656C104.141 48.88 104.491 49.0387 104.827 49.132C105.172 49.216 105.513 49.258 105.849 49.258C106.381 49.258 106.782 49.16 107.053 48.964C107.324 48.768 107.459 48.502 107.459 48.166C107.459 47.9047 107.37 47.6993 107.193 47.55C107.016 47.3913 106.736 47.27 106.353 47.186L105.079 46.906C104.491 46.7847 104.052 46.5747 103.763 46.276C103.483 45.9773 103.343 45.59 103.343 45.114C103.343 44.694 103.45 44.3347 103.665 44.036C103.889 43.728 104.202 43.49 104.603 43.322C105.004 43.154 105.471 43.07 106.003 43.07C106.414 43.07 106.801 43.126 107.165 43.238C107.538 43.3407 107.874 43.5087 108.173 43.742C108.266 43.8073 108.327 43.8867 108.355 43.98C108.392 44.064 108.397 44.1527 108.369 44.246C108.35 44.33 108.308 44.4047 108.243 44.47C108.178 44.526 108.098 44.5587 108.005 44.568C107.912 44.5773 107.814 44.5493 107.711 44.484C107.431 44.2973 107.146 44.162 106.857 44.078C106.568 43.9847 106.283 43.938 106.003 43.938C105.48 43.938 105.084 44.0407 104.813 44.246C104.542 44.4513 104.407 44.722 104.407 45.058C104.407 45.3193 104.491 45.534 104.659 45.702C104.827 45.87 105.088 45.9913 105.443 46.066L106.717 46.332C107.324 46.4627 107.776 46.6727 108.075 46.962C108.383 47.242 108.537 47.6247 108.537 48.11C108.537 48.726 108.29 49.216 107.795 49.58C107.3 49.944 106.642 50.126 105.821 50.126ZM113.819 50.098C113.669 50.098 113.548 50.0653 113.455 50C113.371 49.9253 113.319 49.832 113.301 49.72C113.291 49.5987 113.319 49.4633 113.385 49.314L117.235 40.55C117.319 40.3633 117.417 40.2327 117.529 40.158C117.65 40.074 117.781 40.032 117.921 40.032C118.061 40.032 118.187 40.074 118.299 40.158C118.42 40.2327 118.518 40.3633 118.593 40.55L122.457 49.314C122.531 49.4633 122.559 49.5987 122.541 49.72C122.531 49.8413 122.485 49.9347 122.401 50C122.317 50.0653 122.2 50.098 122.051 50.098C121.883 50.098 121.747 50.056 121.645 49.972C121.542 49.8787 121.458 49.748 121.393 49.58L120.357 47.186L120.917 47.48H114.897L115.471 47.186L114.449 49.58C114.365 49.7573 114.276 49.888 114.183 49.972C114.089 50.056 113.968 50.098 113.819 50.098ZM117.907 41.474L115.653 46.78L115.317 46.514H120.497L120.189 46.78L117.935 41.474H117.907ZM126.595 50.126C125.989 50.126 125.457 49.9813 124.999 49.692C124.551 49.4027 124.201 48.9967 123.949 48.474C123.707 47.942 123.585 47.3167 123.585 46.598C123.585 45.87 123.707 45.2447 123.949 44.722C124.201 44.19 124.551 43.784 124.999 43.504C125.457 43.2147 125.989 43.07 126.595 43.07C127.211 43.07 127.739 43.224 128.177 43.532C128.616 43.84 128.91 44.2553 129.059 44.778H128.905V40.606C128.905 40.4193 128.952 40.2793 129.045 40.186C129.148 40.0833 129.293 40.032 129.479 40.032C129.657 40.032 129.792 40.0833 129.885 40.186C129.988 40.2793 130.039 40.4193 130.039 40.606V49.51C130.039 49.6967 129.993 49.8413 129.899 49.944C129.806 50.0467 129.666 50.098 129.479 50.098C129.302 50.098 129.162 50.0467 129.059 49.944C128.966 49.8413 128.919 49.6967 128.919 49.51V48.18L129.073 48.376C128.924 48.908 128.625 49.3327 128.177 49.65C127.739 49.9673 127.211 50.126 126.595 50.126ZM126.833 49.216C127.253 49.216 127.622 49.1133 127.939 48.908C128.257 48.7027 128.499 48.404 128.667 48.012C128.845 47.62 128.933 47.1487 128.933 46.598C128.933 45.7487 128.742 45.1 128.359 44.652C127.986 44.204 127.477 43.98 126.833 43.98C126.404 43.98 126.031 44.0827 125.713 44.288C125.405 44.484 125.163 44.778 124.985 45.17C124.817 45.5527 124.733 46.0287 124.733 46.598C124.733 47.438 124.925 48.0867 125.307 48.544C125.69 48.992 126.199 49.216 126.833 49.216ZM132.756 50.098C132.569 50.098 132.429 50.0467 132.336 49.944C132.242 49.8413 132.196 49.6967 132.196 49.51V43.672C132.196 43.4853 132.242 43.3453 132.336 43.252C132.429 43.1493 132.564 43.098 132.742 43.098C132.919 43.098 133.054 43.1493 133.148 43.252C133.25 43.3453 133.302 43.4853 133.302 43.672V44.904L133.148 44.708C133.325 44.1853 133.61 43.784 134.002 43.504C134.403 43.2147 134.879 43.07 135.43 43.07C136.008 43.07 136.475 43.21 136.83 43.49C137.194 43.7607 137.436 44.1853 137.558 44.764H137.348C137.516 44.2413 137.814 43.8307 138.244 43.532C138.682 43.224 139.191 43.07 139.77 43.07C140.283 43.07 140.703 43.168 141.03 43.364C141.366 43.56 141.618 43.8587 141.786 44.26C141.954 44.652 142.038 45.1513 142.038 45.758V49.51C142.038 49.6967 141.986 49.8413 141.884 49.944C141.79 50.0467 141.65 50.098 141.464 50.098C141.286 50.098 141.146 50.0467 141.044 49.944C140.95 49.8413 140.904 49.6967 140.904 49.51V45.814C140.904 45.1887 140.796 44.7313 140.582 44.442C140.367 44.1433 140.003 43.994 139.49 43.994C138.93 43.994 138.486 44.19 138.16 44.582C137.842 44.9647 137.684 45.4873 137.684 46.15V49.51C137.684 49.6967 137.632 49.8413 137.53 49.944C137.436 50.0467 137.296 50.098 137.11 50.098C136.932 50.098 136.792 50.0467 136.69 49.944C136.596 49.8413 136.55 49.6967 136.55 49.51V45.814C136.55 45.1887 136.438 44.7313 136.214 44.442C135.999 44.1433 135.64 43.994 135.136 43.994C134.576 43.994 134.132 44.19 133.806 44.582C133.488 44.9647 133.33 45.4873 133.33 46.15V49.51C133.33 49.902 133.138 50.098 132.756 50.098ZM144.718 50.07C144.531 50.07 144.391 50.0187 144.298 49.916C144.204 49.804 144.158 49.65 144.158 49.454V43.728C144.158 43.532 144.204 43.3827 144.298 43.28C144.391 43.1773 144.531 43.126 144.718 43.126C144.895 43.126 145.035 43.1773 145.138 43.28C145.24 43.3827 145.292 43.532 145.292 43.728V49.454C145.292 49.65 145.24 49.804 145.138 49.916C145.044 50.0187 144.904 50.07 144.718 50.07ZM144.718 41.558C144.484 41.558 144.302 41.4973 144.172 41.376C144.041 41.2453 143.976 41.0727 143.976 40.858C143.976 40.634 144.041 40.466 144.172 40.354C144.302 40.2327 144.484 40.172 144.718 40.172C144.96 40.172 145.142 40.2327 145.264 40.354C145.394 40.466 145.46 40.634 145.46 40.858C145.46 41.0727 145.394 41.2453 145.264 41.376C145.142 41.4973 144.96 41.558 144.718 41.558ZM147.972 50.098C147.785 50.098 147.645 50.0467 147.552 49.944C147.458 49.8413 147.412 49.6967 147.412 49.51V43.672C147.412 43.4853 147.458 43.3453 147.552 43.252C147.645 43.1493 147.78 43.098 147.958 43.098C148.135 43.098 148.27 43.1493 148.364 43.252C148.466 43.3453 148.518 43.4853 148.518 43.672V44.876L148.364 44.708C148.56 44.1667 148.877 43.7607 149.316 43.49C149.764 43.21 150.277 43.07 150.856 43.07C151.397 43.07 151.845 43.168 152.2 43.364C152.564 43.56 152.834 43.8587 153.012 44.26C153.189 44.652 153.278 45.1513 153.278 45.758V49.51C153.278 49.6967 153.226 49.8413 153.124 49.944C153.03 50.0467 152.895 50.098 152.718 50.098C152.531 50.098 152.386 50.0467 152.284 49.944C152.19 49.8413 152.144 49.6967 152.144 49.51V45.828C152.144 45.1933 152.018 44.7313 151.766 44.442C151.523 44.1433 151.131 43.994 150.59 43.994C149.964 43.994 149.465 44.19 149.092 44.582C148.728 44.9647 148.546 45.478 148.546 46.122V49.51C148.546 49.902 148.354 50.098 147.972 50.098ZM159.762 50C159.557 50 159.398 49.9487 159.286 49.846C159.183 49.734 159.132 49.5753 159.132 49.37V40.76C159.132 40.5547 159.183 40.4007 159.286 40.298C159.398 40.186 159.557 40.13 159.762 40.13H162.464C164.06 40.13 165.292 40.55 166.16 41.39C167.028 42.23 167.462 43.4527 167.462 45.058C167.462 45.8607 167.35 46.57 167.126 47.186C166.911 47.7927 166.589 48.306 166.16 48.726C165.731 49.146 165.208 49.4633 164.592 49.678C163.976 49.8927 163.267 50 162.464 50H159.762ZM160.28 49.02H162.38C163.033 49.02 163.598 48.936 164.074 48.768C164.559 48.6 164.961 48.3527 165.278 48.026C165.605 47.6993 165.847 47.2887 166.006 46.794C166.165 46.29 166.244 45.7113 166.244 45.058C166.244 43.742 165.922 42.7573 165.278 42.104C164.634 41.4413 163.668 41.11 162.38 41.11H160.28V49.02ZM171.511 50.126C171.044 50.126 170.624 50.0373 170.251 49.86C169.887 49.6733 169.597 49.4213 169.383 49.104C169.168 48.7867 169.061 48.432 169.061 48.04C169.061 47.536 169.187 47.1393 169.439 46.85C169.7 46.5607 170.125 46.3553 170.713 46.234C171.31 46.1127 172.122 46.052 173.149 46.052H173.779V46.794H173.163C172.407 46.794 171.809 46.8313 171.371 46.906C170.941 46.9713 170.638 47.088 170.461 47.256C170.293 47.424 170.209 47.662 170.209 47.97C170.209 48.3527 170.339 48.6653 170.601 48.908C170.871 49.1507 171.235 49.272 171.693 49.272C172.066 49.272 172.393 49.1833 172.673 49.006C172.962 48.8287 173.186 48.586 173.345 48.278C173.513 47.97 173.597 47.6153 173.597 47.214V45.618C173.597 45.0393 173.48 44.624 173.247 44.372C173.013 44.1107 172.631 43.98 172.099 43.98C171.772 43.98 171.445 44.022 171.119 44.106C170.792 44.19 170.447 44.3253 170.083 44.512C169.952 44.5773 169.84 44.6007 169.747 44.582C169.653 44.554 169.579 44.5027 169.523 44.428C169.467 44.3533 169.434 44.2693 169.425 44.176C169.415 44.0733 169.434 43.9753 169.481 43.882C169.537 43.7887 169.621 43.714 169.733 43.658C170.143 43.4527 170.549 43.3033 170.951 43.21C171.352 43.1167 171.735 43.07 172.099 43.07C172.687 43.07 173.172 43.168 173.555 43.364C173.937 43.5507 174.222 43.84 174.409 44.232C174.595 44.6147 174.689 45.1093 174.689 45.716V49.51C174.689 49.6967 174.642 49.8413 174.549 49.944C174.465 50.0467 174.339 50.098 174.171 50.098C173.993 50.098 173.858 50.0467 173.765 49.944C173.671 49.8413 173.625 49.6967 173.625 49.51V48.418H173.751C173.676 48.7727 173.531 49.076 173.317 49.328C173.111 49.58 172.855 49.776 172.547 49.916C172.239 50.056 171.893 50.126 171.511 50.126ZM179.089 50.126C178.669 50.126 178.244 50.0747 177.815 49.972C177.395 49.8693 177.003 49.692 176.639 49.44C176.545 49.3747 176.48 49.3 176.443 49.216C176.405 49.1227 176.391 49.034 176.401 48.95C176.419 48.8567 176.457 48.7773 176.513 48.712C176.578 48.6467 176.653 48.6093 176.737 48.6C176.83 48.5813 176.933 48.6 177.045 48.656C177.409 48.88 177.759 49.0387 178.095 49.132C178.44 49.216 178.781 49.258 179.117 49.258C179.649 49.258 180.05 49.16 180.321 48.964C180.591 48.768 180.727 48.502 180.727 48.166C180.727 47.9047 180.638 47.6993 180.461 47.55C180.283 47.3913 180.003 47.27 179.621 47.186L178.347 46.906C177.759 46.7847 177.32 46.5747 177.031 46.276C176.751 45.9773 176.611 45.59 176.611 45.114C176.611 44.694 176.718 44.3347 176.933 44.036C177.157 43.728 177.469 43.49 177.871 43.322C178.272 43.154 178.739 43.07 179.271 43.07C179.681 43.07 180.069 43.126 180.433 43.238C180.806 43.3407 181.142 43.5087 181.441 43.742C181.534 43.8073 181.595 43.8867 181.623 43.98C181.66 44.064 181.665 44.1527 181.637 44.246C181.618 44.33 181.576 44.4047 181.511 44.47C181.445 44.526 181.366 44.5587 181.273 44.568C181.179 44.5773 181.081 44.5493 180.979 44.484C180.699 44.2973 180.414 44.162 180.125 44.078C179.835 43.9847 179.551 43.938 179.271 43.938C178.748 43.938 178.351 44.0407 178.081 44.246C177.81 44.4513 177.675 44.722 177.675 45.058C177.675 45.3193 177.759 45.534 177.927 45.702C178.095 45.87 178.356 45.9913 178.711 46.066L179.985 46.332C180.591 46.4627 181.044 46.6727 181.343 46.962C181.651 47.242 181.805 47.6247 181.805 48.11C181.805 48.726 181.557 49.216 181.063 49.58C180.568 49.944 179.91 50.126 179.089 50.126ZM184.093 50.098C183.906 50.098 183.766 50.0467 183.673 49.944C183.579 49.8413 183.533 49.6967 183.533 49.51V40.606C183.533 40.4193 183.579 40.2793 183.673 40.186C183.766 40.0833 183.906 40.032 184.093 40.032C184.27 40.032 184.41 40.0833 184.513 40.186C184.615 40.2793 184.667 40.4193 184.667 40.606V44.708H184.485C184.681 44.1667 184.998 43.7607 185.437 43.49C185.885 43.21 186.398 43.07 186.977 43.07C187.518 43.07 187.966 43.168 188.321 43.364C188.685 43.56 188.955 43.8587 189.133 44.26C189.31 44.652 189.399 45.1513 189.399 45.758V49.51C189.399 49.6967 189.347 49.8413 189.245 49.944C189.151 50.0467 189.016 50.098 188.839 50.098C188.652 50.098 188.507 50.0467 188.405 49.944C188.311 49.8413 188.265 49.6967 188.265 49.51V45.828C188.265 45.1933 188.139 44.7313 187.887 44.442C187.644 44.1433 187.252 43.994 186.711 43.994C186.085 43.994 185.586 44.19 185.213 44.582C184.849 44.9647 184.667 45.478 184.667 46.122V49.51C184.667 49.902 184.475 50.098 184.093 50.098ZM194.934 50.126C194.318 50.126 193.786 49.9673 193.338 49.65C192.899 49.3327 192.605 48.908 192.456 48.376L192.61 48.222V49.51C192.61 49.6967 192.558 49.8413 192.456 49.944C192.362 50.0467 192.227 50.098 192.05 50.098C191.863 50.098 191.723 50.0467 191.63 49.944C191.536 49.8413 191.49 49.6967 191.49 49.51V40.606C191.49 40.4193 191.536 40.2793 191.63 40.186C191.723 40.0833 191.863 40.032 192.05 40.032C192.227 40.032 192.367 40.0833 192.47 40.186C192.572 40.2793 192.624 40.4193 192.624 40.606V44.778H192.456C192.614 44.2553 192.913 43.84 193.352 43.532C193.79 43.224 194.318 43.07 194.934 43.07C195.55 43.07 196.082 43.2147 196.53 43.504C196.978 43.784 197.323 44.19 197.566 44.722C197.818 45.2447 197.944 45.87 197.944 46.598C197.944 47.3167 197.818 47.942 197.566 48.474C197.323 48.9967 196.973 49.4027 196.516 49.692C196.068 49.9813 195.54 50.126 194.934 50.126ZM194.696 49.216C195.125 49.216 195.494 49.1133 195.802 48.908C196.119 48.7027 196.362 48.404 196.53 48.012C196.707 47.62 196.796 47.1487 196.796 46.598C196.796 45.7487 196.604 45.1 196.222 44.652C195.848 44.204 195.34 43.98 194.696 43.98C194.276 43.98 193.907 44.0827 193.59 44.288C193.272 44.484 193.025 44.778 192.848 45.17C192.68 45.5527 192.596 46.0287 192.596 46.598C192.596 47.438 192.787 48.0867 193.17 48.544C193.552 48.992 194.061 49.216 194.696 49.216ZM202.48 50.126C201.817 50.126 201.243 49.9813 200.758 49.692C200.273 49.4027 199.895 48.9967 199.624 48.474C199.363 47.942 199.232 47.3167 199.232 46.598C199.232 46.0567 199.307 45.5713 199.456 45.142C199.605 44.7033 199.825 44.33 200.114 44.022C200.403 43.714 200.744 43.4807 201.136 43.322C201.537 43.154 201.985 43.07 202.48 43.07C203.143 43.07 203.717 43.2147 204.202 43.504C204.687 43.7933 205.061 44.204 205.322 44.736C205.593 45.2587 205.728 45.8793 205.728 46.598C205.728 47.1393 205.653 47.6247 205.504 48.054C205.355 48.4833 205.135 48.8567 204.846 49.174C204.557 49.482 204.211 49.72 203.81 49.888C203.418 50.0467 202.975 50.126 202.48 50.126ZM202.48 49.216C202.9 49.216 203.269 49.1133 203.586 48.908C203.903 48.7027 204.146 48.404 204.314 48.012C204.491 47.62 204.58 47.1487 204.58 46.598C204.58 45.7487 204.389 45.1 204.006 44.652C203.633 44.204 203.124 43.98 202.48 43.98C202.051 43.98 201.677 44.0827 201.36 44.288C201.052 44.484 200.809 44.778 200.632 45.17C200.464 45.5527 200.38 46.0287 200.38 46.598C200.38 47.438 200.571 48.0867 200.954 48.544C201.337 48.992 201.845 49.216 202.48 49.216ZM209.573 50.126C209.107 50.126 208.687 50.0373 208.313 49.86C207.949 49.6733 207.66 49.4213 207.445 49.104C207.231 48.7867 207.123 48.432 207.123 48.04C207.123 47.536 207.249 47.1393 207.501 46.85C207.763 46.5607 208.187 46.3553 208.775 46.234C209.373 46.1127 210.185 46.052 211.211 46.052H211.841V46.794H211.225C210.469 46.794 209.872 46.8313 209.433 46.906C209.004 46.9713 208.701 47.088 208.523 47.256C208.355 47.424 208.271 47.662 208.271 47.97C208.271 48.3527 208.402 48.6653 208.663 48.908C208.934 49.1507 209.298 49.272 209.755 49.272C210.129 49.272 210.455 49.1833 210.735 49.006C211.025 48.8287 211.249 48.586 211.407 48.278C211.575 47.97 211.659 47.6153 211.659 47.214V45.618C211.659 45.0393 211.543 44.624 211.309 44.372C211.076 44.1107 210.693 43.98 210.161 43.98C209.835 43.98 209.508 44.022 209.181 44.106C208.855 44.19 208.509 44.3253 208.145 44.512C208.015 44.5773 207.903 44.6007 207.809 44.582C207.716 44.554 207.641 44.5027 207.585 44.428C207.529 44.3533 207.497 44.2693 207.487 44.176C207.478 44.0733 207.497 43.9753 207.543 43.882C207.599 43.7887 207.683 43.714 207.795 43.658C208.206 43.4527 208.612 43.3033 209.013 43.21C209.415 43.1167 209.797 43.07 210.161 43.07C210.749 43.07 211.235 43.168 211.617 43.364C212 43.5507 212.285 43.84 212.471 44.232C212.658 44.6147 212.751 45.1093 212.751 45.716V49.51C212.751 49.6967 212.705 49.8413 212.611 49.944C212.527 50.0467 212.401 50.098 212.233 50.098C212.056 50.098 211.921 50.0467 211.827 49.944C211.734 49.8413 211.687 49.6967 211.687 49.51V48.418H211.813C211.739 48.7727 211.594 49.076 211.379 49.328C211.174 49.58 210.917 49.776 210.609 49.916C210.301 50.056 209.956 50.126 209.573 50.126ZM215.429 50.098C215.242 50.098 215.098 50.0467 214.995 49.944C214.902 49.8413 214.855 49.6967 214.855 49.51V43.672C214.855 43.4853 214.902 43.3453 214.995 43.252C215.088 43.1493 215.224 43.098 215.401 43.098C215.578 43.098 215.714 43.1493 215.807 43.252C215.91 43.3453 215.961 43.4853 215.961 43.672V44.806H215.821C215.97 44.2553 216.255 43.8307 216.675 43.532C217.095 43.2333 217.613 43.0747 218.229 43.056C218.369 43.0467 218.481 43.0793 218.565 43.154C218.649 43.2193 218.696 43.336 218.705 43.504C218.714 43.6627 218.677 43.7887 218.593 43.882C218.509 43.9753 218.378 44.0313 218.201 44.05L217.977 44.078C217.342 44.134 216.852 44.3393 216.507 44.694C216.171 45.0393 216.003 45.5153 216.003 46.122V49.51C216.003 49.6967 215.952 49.8413 215.849 49.944C215.756 50.0467 215.616 50.098 215.429 50.098ZM222.381 50.126C221.774 50.126 221.242 49.9813 220.785 49.692C220.337 49.4027 219.987 48.9967 219.735 48.474C219.492 47.942 219.371 47.3167 219.371 46.598C219.371 45.87 219.492 45.2447 219.735 44.722C219.987 44.19 220.337 43.784 220.785 43.504C221.242 43.2147 221.774 43.07 222.381 43.07C222.997 43.07 223.524 43.224 223.963 43.532C224.401 43.84 224.695 44.2553 224.845 44.778H224.691V40.606C224.691 40.4193 224.737 40.2793 224.831 40.186C224.933 40.0833 225.078 40.032 225.265 40.032C225.442 40.032 225.577 40.0833 225.671 40.186C225.773 40.2793 225.825 40.4193 225.825 40.606V49.51C225.825 49.6967 225.778 49.8413 225.685 49.944C225.591 50.0467 225.451 50.098 225.265 50.098C225.087 50.098 224.947 50.0467 224.845 49.944C224.751 49.8413 224.705 49.6967 224.705 49.51V48.18L224.859 48.376C224.709 48.908 224.411 49.3327 223.963 49.65C223.524 49.9673 222.997 50.126 222.381 50.126ZM222.619 49.216C223.039 49.216 223.407 49.1133 223.725 48.908C224.042 48.7027 224.285 48.404 224.453 48.012C224.63 47.62 224.719 47.1487 224.719 46.598C224.719 45.7487 224.527 45.1 224.145 44.652C223.771 44.204 223.263 43.98 222.619 43.98C222.189 43.98 221.816 44.0827 221.499 44.288C221.191 44.484 220.948 44.778 220.771 45.17C220.603 45.5527 220.519 46.0287 220.519 46.598C220.519 47.438 220.71 48.0867 221.093 48.544C221.475 48.992 221.984 49.216 222.619 49.216Z" fill="#717579"/>
<rect width="60" height="60" rx="10" fill="#1D3573"/>
<mask id="mask0_11_282" style="mask-type:alpha" maskUnits="userSpaceOnUse" x="0" y="0" width="60" height="60">
<rect width="60" height="60" rx="10" fill="#1D3573"/>
</mask>
<g mask="url(#mask0_11_282)">
<path d="M-54 51.3929L-50.5 45.2109C-47 38.9626 -40 26.6981 -33 23.1017C-26 19.5715 -19 24.875 -12 29.3002C-5 33.6591 2 37.3053 9 39.0124C16 40.7857 23 40.7857 30 36.3606C37 32.0017 44 23.0519 51 17.7981C58 12.4448 65 10.7874 72 16.9197C79 23.0519 86 37.3053 93 40.7857C100 44.2662 107 37.3053 110.5 33.7088L114 30.1786V62H110.5C107 62 100 62 93 62C86 62 79 62 72 62C65 62 58 62 51 62C44 62 37 62 30 62C23 62 16 62 9 62C2 62 -5 62 -12 62C-19 62 -26 62 -33 62C-40 62 -47 62 -50.5 62H-54V51.3929Z" fill="url(#paint0_linear_11_282)"/>
<path d="M130 48.7223L126.5 45.0636C123 41.3656 116 34.1071 109 31.9785C102 29.8892 95 33.0281 88 35.6471C81 38.2268 74 40.3848 67 41.3951C60 42.4446 53 42.4446 46 39.8256C39 37.2459 32 31.9491 25 28.8397C18 25.6714 11 24.6905 4 28.3198C-3 31.9491 -10 40.3848 -17 42.4446C-24 44.5045 -31 40.3848 -34.5 38.2562L-38 36.1669V55H-34.5C-31 55 -24 55 -17 55C-10 55 -3 55 4 55C11 55 18 55 25 55C32 55 39 55 46 55C53 55 60 55 67 55C74 55 81 55 88 55C95 55 102 55 109 55C116 55 123 55 126.5 55H130V48.7223Z" fill="url(#paint1_linear_11_282)"/>
</g>
<path d="M44 43.8519C36.7278 44.6173 30.3111 45 24.75 45C22.1056 45 19.9861 44.2154 18.3917 42.6463C16.7972 41.0772 16 38.9914 16 36.3889V23.1852C16 20.3148 16.8167 18.0759 18.45 16.4685C20.1222 14.8228 22.4167 14 25.3333 14H44V21.75H28.5417C26.9861 21.75 26.2083 22.5154 26.2083 24.0463V35.2407C26.2083 35.8148 26.4028 36.2932 26.7917 36.6759C27.1806 37.0586 27.6667 37.25 28.25 37.25C31.75 37.25 37 36.963 44 36.3889V43.8519Z" fill="white"/>
<defs>
<linearGradient id="paint0_linear_11_282" x1="30" y1="13" x2="30" y2="62" gradientUnits="userSpaceOnUse">
<stop stop-color="#4870D6"/>
<stop offset="1" stop-color="#2A3EA6" stop-opacity="0"/>
</linearGradient>
<linearGradient id="paint1_linear_11_282" x1="46" y1="26" x2="46" y2="55" gradientUnits="userSpaceOnUse">
<stop stop-color="#4870D6" stop-opacity="0.46"/>
<stop offset="1" stop-color="#2A3EA6" stop-opacity="0"/>
</linearGradient>
</defs>
</svg>
