<svg width="24" height="24" viewBox="0 0 24 24" fill="none" xmlns="http://www.w3.org/2000/svg">
<g clip-path="url(#clip0_239_1846)">
<path d="M14.6719 0H3.75C1.68219 0 0 1.68219 0 3.75V14.6719C0 16.7397 1.68219 18.4219 3.75 18.4219H14.6719C16.7397 18.4219 18.4219 16.7397 18.4219 14.6719V3.75C18.4219 1.68219 16.7397 0 14.6719 0ZM16.5469 14.6719C16.5469 15.7057 15.7057 16.5469 14.6719 16.5469H3.75C2.71619 16.5469 1.875 15.7057 1.875 14.6719V3.75C1.875 2.71619 2.71619 1.875 3.75 1.875H14.6719C15.7057 1.875 16.5469 2.71619 16.5469 3.75V14.6719ZM14.625 9.04688V11.8594C14.625 13.4103 13.3634 14.6719 11.8125 14.6719H9C8.48218 14.6719 8.0625 14.2522 8.0625 13.7344C8.0625 13.2166 8.48218 12.7969 9 12.7969H11.4241L8.07916 9.4519C7.71313 9.08588 7.71313 8.49225 8.07916 8.12622C8.44537 7.76001 9.039 7.76001 9.40503 8.12622L12.75 11.471V9.04688C12.75 8.52905 13.1697 8.10938 13.6875 8.10938C14.2053 8.10938 14.625 8.52905 14.625 9.04688ZM24 13.7344C24 14.2522 23.5803 14.6719 23.0625 14.6719C22.5447 14.6719 22.125 14.2522 22.125 13.7344C22.125 13.2166 22.5447 12.7969 23.0625 12.7969C23.5803 12.7969 24 13.2166 24 13.7344ZM20.25 8.10938C20.25 7.59155 20.6697 7.17188 21.1875 7.17188C22.7384 7.17188 24 8.43347 24 9.98438C24 10.5022 23.5803 10.9219 23.0625 10.9219C22.5447 10.9219 22.125 10.5022 22.125 9.98438C22.125 9.46747 21.7044 9.04688 21.1875 9.04688C20.6697 9.04688 20.25 8.6272 20.25 8.10938ZM14.5781 23.0625C14.5781 23.5803 14.1584 24 13.6406 24C13.1228 24 12.7031 23.5803 12.7031 23.0625C12.7031 22.5447 13.1228 22.125 13.6406 22.125C14.1584 22.125 14.5781 22.5447 14.5781 23.0625ZM10.7344 23.0609C10.7344 23.5787 10.3147 23.9984 9.79688 23.9984C8.24597 23.9984 6.98438 22.7368 6.98438 21.1859C6.98438 20.6682 7.40405 20.2484 7.92188 20.2484C8.4397 20.2484 8.85938 20.6682 8.85938 21.1859C8.85938 21.7028 9.27997 22.1234 9.79688 22.1234C10.3147 22.1234 10.7344 22.5432 10.7344 23.0609ZM24 17.3438C24 17.8616 23.5803 18.2812 23.0625 18.2812C22.5447 18.2812 22.125 17.8616 22.125 17.3438C22.125 16.8259 22.5447 16.4062 23.0625 16.4062C23.5803 16.4062 24 16.8259 24 17.3438ZM18.375 23.0625C18.375 23.5803 17.9553 24 17.4375 24C16.9197 24 16.5 23.5803 16.5 23.0625C16.5 22.5447 16.9197 22.125 17.4375 22.125C17.9553 22.125 18.375 22.5447 18.375 23.0625ZM24 21.1875C24 22.7384 22.7384 24 21.1875 24C20.6697 24 20.25 23.5803 20.25 23.0625C20.25 22.5447 20.6697 22.125 21.1875 22.125C21.7044 22.125 22.125 21.7044 22.125 21.1875C22.125 20.6697 22.5447 20.25 23.0625 20.25C23.5803 20.25 24 20.6697 24 21.1875Z" fill="#717579"/>
</g>
<defs>
<clipPath id="clip0_239_1846">
<rect width="24" height="24" fill="white"/>
</clipPath>
</defs>
</svg>
