<svg width="20" height="21" viewBox="0 0 20 21" fill="none" xmlns="http://www.w3.org/2000/svg">
<path d="M18.3337 13.3343V8.33431C18.3337 4.16764 16.667 2.50098 12.5003 2.50098H7.50033C3.33366 2.50098 1.66699 4.16764 1.66699 8.33431V13.3343C1.66699 17.501 3.33366 19.1676 7.50033 19.1676H12.5003C16.667 19.1676 18.3337 17.501 18.3337 13.3343Z" stroke="#66768E" stroke-width="1.5" stroke-linecap="round" stroke-linejoin="round"/>
<path d="M9.78333 13.57C9.78333 14.0386 9.5972 14.4879 9.26589 14.8192C8.93457 15.1505 8.48522 15.3367 8.01667 15.3367C7.54812 15.3367 7.09876 15.1505 6.76744 14.8192C6.43613 14.4879 6.25 14.0386 6.25 13.57C6.25 13.1015 6.43613 12.6521 6.76744 12.3208C7.09876 11.9895 7.54812 11.8033 8.01667 11.8033C8.48522 11.8033 8.93457 11.9895 9.26589 12.3208C9.5972 12.6521 9.78333 13.1015 9.78333 13.57ZM9.78333 13.57V7.395M9.78333 7.395V7.91167C9.78333 8.41167 10.1667 8.945 10.6417 9.10333L12.5917 9.75334C13.225 9.97 13.75 9.595 13.75 8.92V8.40333C13.75 7.90333 13.3667 7.37 12.8917 7.21167L10.9417 6.56167C10.3 6.345 9.78333 6.72834 9.78333 7.395Z" stroke="#66768E" stroke-width="1.5" stroke-linecap="round" stroke-linejoin="round"/>
</svg>
