<svg width="68" height="68" viewBox="0 0 68 68" fill="none" xmlns="http://www.w3.org/2000/svg">
<path d="M35.501 57.8569H17.5943C8.64102 57.8569 5.66602 51.9069 5.66602 45.9286V22.0719C5.66602 13.1186 8.64102 10.1436 17.5943 10.1436H35.501C44.4543 10.1436 47.4293 13.1186 47.4293 22.0719V45.9286C47.4293 54.8819 44.426 57.8569 35.501 57.8569Z" stroke="#536ADC" stroke-width="3" stroke-linecap="round" stroke-linejoin="round"/>
<path d="M55.3073 48.4504L47.4306 42.9254V25.047L55.3073 19.522C59.1607 16.8304 62.334 18.4737 62.334 23.2054V44.7954C62.334 49.527 59.1607 51.1704 55.3073 48.4504ZM32.584 31.167C33.7112 31.167 34.7922 30.7193 35.5892 29.9222C36.3862 29.1252 36.834 28.0442 36.834 26.917C36.834 25.7899 36.3862 24.7089 35.5892 23.9118C34.7922 23.1148 33.7112 22.667 32.584 22.667C31.4568 22.667 30.3758 23.1148 29.5788 23.9118C28.7818 24.7089 28.334 25.7899 28.334 26.917C28.334 28.0442 28.7818 29.1252 29.5788 29.9222C30.3758 30.7193 31.4568 31.167 32.584 31.167Z" stroke="#536ADC" stroke-width="3" stroke-linecap="round" stroke-linejoin="round"/>
</svg>
