<svg width="32" height="32" viewBox="0 0 32 32" fill="none" xmlns="http://www.w3.org/2000/svg">
<path d="M13.3346 6.00033V24.0003C13.3346 25.4403 12.748 26.7603 11.8146 27.7203L11.7613 27.7737C11.6413 27.8937 11.508 28.0137 11.388 28.107C10.988 28.4537 10.5346 28.7203 10.068 28.907C9.9213 28.9737 9.77464 29.027 9.62797 29.0803C9.10797 29.2537 8.54797 29.3337 8.0013 29.3337C7.6413 29.3337 7.2813 29.2937 6.93464 29.227C6.7613 29.187 6.58797 29.147 6.41464 29.0937C6.2013 29.027 6.0013 28.9603 5.8013 28.867C5.8013 28.8537 5.8013 28.8537 5.78797 28.867C5.41464 28.6803 5.05464 28.467 4.7213 28.2137L4.70797 28.2003C4.53464 28.067 4.37464 27.9337 4.22797 27.7737C4.0813 27.6137 3.93464 27.4537 3.78797 27.2803C3.53464 26.947 3.3213 26.587 3.13464 26.2137C3.14797 26.2003 3.14797 26.2003 3.13464 26.2003C3.13464 26.2003 3.13464 26.187 3.1213 26.1737C3.0413 25.987 2.97464 25.787 2.90797 25.587C2.85728 25.4153 2.81281 25.2419 2.77464 25.067C2.70797 24.7203 2.66797 24.3603 2.66797 24.0003V6.00033C2.66797 4.00033 4.0013 2.66699 6.0013 2.66699H10.0013C12.0013 2.66699 13.3346 4.00033 13.3346 6.00033Z" stroke="#2F3A4C" stroke-width="1.5" stroke-linecap="round" stroke-linejoin="round"/>
<path d="M29.3329 22.0003V26.0003C29.3329 28.0003 27.9996 29.3337 25.9996 29.3337H7.99958C8.54625 29.3337 9.10625 29.2537 9.62625 29.0803C9.77292 29.027 9.91958 28.9737 10.0663 28.907C10.5329 28.7203 10.9862 28.4537 11.3862 28.107C11.5062 28.0137 11.6396 27.8937 11.7596 27.7737L11.8129 27.7203L20.8796 18.667H25.9996C27.9996 18.667 29.3329 20.0003 29.3329 22.0003ZM6.41292 29.0937C5.61292 28.8537 4.85292 28.4137 4.22625 27.7737C3.58625 27.147 3.14625 26.387 2.90625 25.587C3.16509 26.4107 3.6191 27.1597 4.22964 27.7703C4.84019 28.3808 5.58919 28.8348 6.41292 29.0937Z" stroke="#2F3A4C" stroke-width="1.5" stroke-linecap="round" stroke-linejoin="round"/>
<path d="M24.4946 15.053L20.8813 18.6663L11.8146 27.7196C12.748 26.7596 13.3346 25.4396 13.3346 23.9996V11.1196L16.948 7.50629C18.3613 6.09296 20.2546 6.09296 21.668 7.50629L24.4946 10.333C25.908 11.7463 25.908 13.6396 24.4946 15.053ZM8.0013 25.333C8.35492 25.333 8.69406 25.1925 8.94411 24.9424C9.19416 24.6924 9.33464 24.3532 9.33464 23.9996C9.33464 23.646 9.19416 23.3069 8.94411 23.0568C8.69406 22.8068 8.35492 22.6663 8.0013 22.6663C7.64768 22.6663 7.30854 22.8068 7.05849 23.0568C6.80844 23.3069 6.66797 23.646 6.66797 23.9996C6.66797 24.3532 6.80844 24.6924 7.05849 24.9424C7.30854 25.1925 7.64768 25.333 8.0013 25.333Z" stroke="#2F3A4C" stroke-width="1.5" stroke-linecap="round" stroke-linejoin="round"/>
</svg>
