<svg width="40" height="40" viewBox="0 0 40 40" fill="none" xmlns="http://www.w3.org/2000/svg">
<rect width="40" height="40" rx="20" fill="#F0783C" fill-opacity="0.1"/>
<path d="M15 24C12.7909 24 11 22.2091 11 20C11 18.0929 12.3346 16.4976 14.1207 16.097C14.0417 15.7439 14 15.3768 14 15C14 12.2386 16.2386 10 19 10C21.4193 10 23.4373 11.7183 23.9002 14.001C23.9334 14.0003 23.9666 14 24 14C26.7614 14 29 16.2386 29 19C29 21.419 27.2822 23.4367 25 23.9M17 27L20 30M20 30L23 27M20 30V18" stroke="#F0783C" stroke-width="1.5" stroke-linecap="round" stroke-linejoin="round"/>
</svg>
