<svg width="56" height="56" viewBox="0 0 56 56" fill="none" xmlns="http://www.w3.org/2000/svg">
<rect x="0.5" y="0.5" width="55" height="55" rx="7.5" fill="#F3F5FF"/>
<path d="M34.6285 31.2537C36.4552 31.5603 38.4685 31.2403 39.8819 30.2937C41.7619 29.0403 41.7619 26.987 39.8819 25.7337C38.4552 24.787 36.4152 24.467 34.5885 24.787M21.3352 31.2537C19.5085 31.5603 17.4952 31.2403 16.0819 30.2937C14.2019 29.0403 14.2019 26.987 16.0819 25.7337C17.5085 24.787 19.5485 24.467 21.3752 24.787M36.0019 21.547C35.918 21.5336 35.8325 21.5336 35.7485 21.547C34.8587 21.5148 34.0163 21.1379 33.3992 20.496C32.7822 19.8541 32.4389 18.9974 32.4419 18.107C32.4419 16.2003 33.9752 14.667 35.8819 14.667C36.7942 14.667 37.6692 15.0294 38.3143 15.6745C38.9594 16.3197 39.3219 17.1946 39.3219 18.107C39.3194 18.998 38.9725 19.8536 38.3538 20.4947C37.735 21.1359 36.8923 21.5129 36.0019 21.547ZM19.9619 21.547C20.0419 21.5337 20.1352 21.5337 20.2152 21.547C21.105 21.5148 21.9475 21.1379 22.5645 20.496C23.1816 19.8541 23.5249 18.9974 23.5219 18.107C23.5219 16.2003 21.9885 14.667 20.0819 14.667C19.1695 14.667 18.2946 15.0294 17.6494 15.6745C17.0043 16.3197 16.6419 17.1946 16.6419 18.107C16.6552 19.9737 18.1219 21.4803 19.9619 21.547ZM28.0019 31.507C27.918 31.4936 27.8325 31.4936 27.7485 31.507C26.8587 31.4748 26.0163 31.0979 25.3992 30.456C24.7822 29.8141 24.4389 28.9574 24.4419 28.067C24.4419 26.1603 25.9752 24.627 27.8819 24.627C28.7942 24.627 29.6692 24.9894 30.3143 25.6345C30.9594 26.2797 31.3219 27.1546 31.3219 28.067C31.3085 29.9337 29.8419 31.4537 28.0019 31.507ZM24.1219 35.707C22.2419 36.9603 22.2419 39.0137 24.1219 40.267C26.2552 41.6937 29.7485 41.6937 31.8819 40.267C33.7619 39.0137 33.7619 36.9603 31.8819 35.707C29.7619 34.2937 26.2552 34.2937 24.1219 35.707Z" stroke="#2F3A4C" stroke-width="1.5" stroke-linecap="round" stroke-linejoin="round"/>
<rect x="0.5" y="0.5" width="55" height="55" rx="7.5" stroke="#DEE4ED"/>
</svg>
