<svg width="56" height="56" viewBox="0 0 56 56" fill="none" xmlns="http://www.w3.org/2000/svg">
<rect x="0.5" y="0.5" width="55" height="55" rx="7.5" fill="#131313"/>
<path d="M34.6266 31.2534C36.4533 31.5601 38.4666 31.2401 39.8799 30.2934C41.7599 29.0401 41.7599 26.9867 39.8799 25.7334C38.4533 24.7867 36.4133 24.4667 34.5866 24.7867M21.3333 31.2534C19.5066 31.5601 17.4933 31.2401 16.0799 30.2934C14.1999 29.0401 14.1999 26.9867 16.0799 25.7334C17.5066 24.7867 19.5466 24.4667 21.3733 24.7867M35.9999 21.5467C35.916 21.5334 35.8305 21.5334 35.7466 21.5467C34.8568 21.5146 34.0143 21.1377 33.3973 20.4958C32.7802 19.8538 32.4369 18.9971 32.4399 18.1067C32.4399 16.2001 33.9733 14.6667 35.8799 14.6667C36.7923 14.6667 37.6672 15.0292 38.3124 15.6743C38.9575 16.3194 39.3199 17.1944 39.3199 18.1067C39.3175 18.9978 38.9706 19.8534 38.3518 20.4945C37.733 21.1356 36.8903 21.5127 35.9999 21.5467ZM19.9599 21.5467C20.0399 21.5334 20.1333 21.5334 20.2133 21.5467C21.1031 21.5146 21.9455 21.1377 22.5626 20.4958C23.1796 19.8538 23.5229 18.9971 23.5199 18.1067C23.5199 16.2001 21.9866 14.6667 20.0799 14.6667C19.1676 14.6667 18.2926 15.0292 17.6475 15.6743C17.0023 16.3194 16.6399 17.1944 16.6399 18.1067C16.6533 19.9734 18.1199 21.4801 19.9599 21.5467ZM27.9999 31.5067C27.916 31.4934 27.8305 31.4934 27.7466 31.5067C26.8568 31.4746 26.0143 31.0977 25.3973 30.4558C24.7802 29.8138 24.4369 28.9571 24.4399 28.0667C24.4399 26.1601 25.9733 24.6267 27.8799 24.6267C28.7923 24.6267 29.6672 24.9892 30.3124 25.6343C30.9575 26.2794 31.3199 27.1544 31.3199 28.0667C31.3066 29.9334 29.8399 31.4534 27.9999 31.5067ZM24.1199 35.7067C22.2399 36.9601 22.2399 39.0134 24.1199 40.2667C26.2533 41.6934 29.7466 41.6934 31.8799 40.2667C33.7599 39.0134 33.7599 36.9601 31.8799 35.7067C29.7599 34.2934 26.2533 34.2934 24.1199 35.7067Z" stroke="#7289FF" stroke-width="1.5" stroke-linecap="round" stroke-linejoin="round"/>
<rect x="0.5" y="0.5" width="55" height="55" rx="7.5" stroke="#1B2431"/>
</svg>
