<svg width="56" height="56" viewBox="0 0 56 56" fill="none" xmlns="http://www.w3.org/2000/svg">
<rect x="0.5" y="0.5" width="55" height="55" rx="7.5" fill="#F3F5FF"/>
<path d="M24.668 30.3333C24.668 31.6267 25.668 32.6667 26.8946 32.6667H29.4013C30.468 32.6667 31.3346 31.76 31.3346 30.6267C31.3346 29.4133 30.8013 28.9733 30.0146 28.6933L26.0013 27.2933C25.2146 27.0133 24.6813 26.5867 24.6813 25.36C24.6813 24.24 25.548 23.32 26.6146 23.32H29.1213C30.348 23.32 31.348 24.36 31.348 25.6533M28.0013 22V34" stroke="#2F3A4C" stroke-width="1.5" stroke-linecap="round" stroke-linejoin="round"/>
<path d="M41.3346 28.0003C41.3346 35.3603 35.3613 41.3337 28.0013 41.3337C20.6413 41.3337 14.668 35.3603 14.668 28.0003C14.668 20.6403 20.6413 14.667 28.0013 14.667" stroke="#2F3A4C" stroke-width="1.5" stroke-linecap="round" stroke-linejoin="round"/>
<path d="M34.668 16.0003V21.3337M34.668 21.3337H40.0013M34.668 21.3337L41.3346 14.667" stroke="#2F3A4C" stroke-width="1.5" stroke-linecap="round" stroke-linejoin="round"/>
<rect x="0.5" y="0.5" width="55" height="55" rx="7.5" stroke="#DEE4ED"/>
</svg>
