<svg width="20" height="21" viewBox="0 0 20 21" fill="none" xmlns="http://www.w3.org/2000/svg">
<path d="M10 18C14.1421 18 17.5 14.6421 17.5 10.5C17.5 6.35786 14.1421 3 10 3C5.85786 3 2.5 6.35786 2.5 10.5C2.5 14.6421 5.85786 18 10 18Z" stroke="#2F3A4C" stroke-width="1.5" stroke-linecap="round" stroke-linejoin="round"/>
<path d="M3.875 14.8281L4.78906 14.2734C4.87971 14.2175 4.95457 14.1394 5.00653 14.0464C5.05849 13.9534 5.08582 13.8487 5.08594 13.7422L5.10156 10.9219C5.10281 10.805 5.1381 10.6909 5.20312 10.5937L6.75 8.16406C6.79642 8.09228 6.8569 8.03064 6.92779 7.98287C6.99869 7.93511 7.07853 7.9022 7.16249 7.88614C7.24645 7.87007 7.3328 7.87119 7.41632 7.88942C7.49984 7.90764 7.5788 7.9426 7.64844 7.99219L9.17969 9.10156C9.3118 9.19367 9.47261 9.23526 9.63281 9.21875L12.0938 8.88281C12.243 8.86226 12.3794 8.78711 12.4766 8.67188L14.2109 6.67188C14.3138 6.54996 14.3668 6.3937 14.3594 6.23438L14.2734 4.33594" stroke="#2F3A4C" stroke-width="1.5" stroke-linecap="round" stroke-linejoin="round"/>
<path d="M14.6172 16.4141L13.7735 15.5704C13.6954 15.4924 13.5985 15.4359 13.4922 15.4063L11.8125 14.9688C11.665 14.9284 11.5374 14.8354 11.4539 14.7072C11.3704 14.5791 11.3368 14.4248 11.3594 14.2735L11.5391 13.0079C11.5569 12.9014 11.6014 12.8012 11.6683 12.7165C11.7352 12.6318 11.8225 12.5655 11.9219 12.5235L14.2969 11.5313C14.4072 11.4853 14.5284 11.4719 14.6461 11.4927C14.7638 11.5134 14.8731 11.5675 14.961 11.6485L16.9063 13.4297" stroke="#2F3A4C" stroke-width="1.5" stroke-linecap="round" stroke-linejoin="round"/>
</svg>
