<svg width="36" height="36" viewBox="0 0 36 36" fill="none" xmlns="http://www.w3.org/2000/svg">
<rect x="0.5" y="0.5" width="35" height="35" rx="11.5" fill="white"/>
<path d="M18.62 26.8101C18.28 26.9301 17.72 26.9301 17.38 26.8101C14.48 25.8201 8 21.6901 8 14.6901C8 11.6001 10.49 9.1001 13.56 9.1001C15.38 9.1001 16.99 9.9801 18 11.3401C18.5138 10.646 19.183 10.0818 19.954 9.69284C20.725 9.30386 21.5764 9.10086 22.44 9.1001C25.51 9.1001 28 11.6001 28 14.6901C28 21.6901 21.52 25.8201 18.62 26.8101Z" fill="#A6B1C4"/>
<rect x="0.5" y="0.5" width="35" height="35" rx="11.5" stroke="#E5ECF6"/>
</svg>
