<svg width="32" height="32" viewBox="0 0 32 32" fill="none" xmlns="http://www.w3.org/2000/svg">
<path d="M18.667 21.3333C18.667 23.6933 17.6403 25.8266 16.0003 27.2799C14.5407 28.6054 12.6386 29.3377 10.667 29.3333C6.25366 29.3333 2.66699 25.7466 2.66699 21.3333C2.66699 17.6533 5.17366 14.5333 8.56033 13.6133C9.01932 14.7674 9.73992 15.7991 10.6654 16.6274C11.5909 17.4557 12.6959 18.0579 13.8937 18.3866C14.5603 18.5733 15.267 18.6666 16.0003 18.6666C16.7337 18.6666 17.4403 18.5733 18.107 18.3866C18.467 19.2933 18.667 20.2933 18.667 21.3333Z" stroke="#2F3A4C" stroke-width="1.5" stroke-linecap="round" stroke-linejoin="round"/>
<path d="M24 10.6665C24.0021 12.422 23.426 14.1293 22.3608 15.5246C21.2956 16.92 19.8006 17.9257 18.1067 18.3865C17.44 18.5732 16.7333 18.6665 16 18.6665C15.2667 18.6665 14.56 18.5732 13.8933 18.3865C12.1994 17.9257 10.7044 16.92 9.63917 15.5246C8.57398 14.1293 7.99792 12.422 8.00001 10.6665C8.00001 6.25317 11.5867 2.6665 16 2.6665C20.4133 2.6665 24 6.25317 24 10.6665Z" stroke="#2F3A4C" stroke-width="1.5" stroke-linecap="round" stroke-linejoin="round"/>
<path d="M29.3333 21.3333C29.3333 25.7466 25.7467 29.3333 21.3333 29.3333C19.3617 29.3377 17.4596 28.6054 16 27.2799C17.64 25.8266 18.6667 23.6933 18.6667 21.3333C18.6667 20.2933 18.4667 19.2933 18.1067 18.3866C20.5467 17.7199 22.52 15.9333 23.44 13.6133C26.8267 14.5333 29.3333 17.6533 29.3333 21.3333Z" stroke="#2F3A4C" stroke-width="1.5" stroke-linecap="round" stroke-linejoin="round"/>
</svg>
