<svg width="32" height="32" viewBox="0 0 32 32" fill="none" xmlns="http://www.w3.org/2000/svg">
<path d="M13.3337 5.99984V23.9998C13.3337 25.4398 12.747 26.7598 11.8137 27.7198L11.7603 27.7732C11.6403 27.8932 11.507 28.0132 11.387 28.1065C10.987 28.4532 10.5337 28.7198 10.067 28.9065C9.92033 28.9732 9.77366 29.0265 9.62699 29.0798C9.10699 29.2532 8.54699 29.3332 8.00033 29.3332C7.64033 29.3332 7.28033 29.2932 6.93366 29.2265C6.76033 29.1865 6.58699 29.1465 6.41366 29.0932C6.20033 29.0265 6.00033 28.9598 5.80033 28.8665C5.80033 28.8532 5.80033 28.8532 5.78699 28.8665C5.41366 28.6798 5.05366 28.4665 4.72033 28.2132L4.70699 28.1998C4.53366 28.0665 4.37366 27.9332 4.22699 27.7732C4.08033 27.6132 3.93366 27.4532 3.78699 27.2798C3.53366 26.9465 3.32033 26.5865 3.13366 26.2132C3.14699 26.1998 3.14699 26.1998 3.13366 26.1998C3.13366 26.1998 3.13366 26.1865 3.12033 26.1732C3.04033 25.9865 2.97366 25.7865 2.90699 25.5865C2.85631 25.4148 2.81183 25.2414 2.77366 25.0665C2.70699 24.7198 2.66699 24.3598 2.66699 23.9998V5.99984C2.66699 3.99984 4.00033 2.6665 6.00033 2.6665H10.0003C12.0003 2.6665 13.3337 3.99984 13.3337 5.99984Z" stroke="#2F3A4C" stroke-width="1.5" stroke-linecap="round" stroke-linejoin="round"/>
<path d="M29.3329 21.9998V25.9998C29.3329 27.9998 27.9996 29.3332 25.9996 29.3332H7.99958C8.54625 29.3332 9.10625 29.2532 9.62625 29.0798C9.77292 29.0265 9.91958 28.9732 10.0663 28.9065C10.5329 28.7198 10.9862 28.4532 11.3862 28.1065C11.5062 28.0132 11.6396 27.8932 11.7596 27.7732L11.8129 27.7198L20.8796 18.6665H25.9996C27.9996 18.6665 29.3329 19.9998 29.3329 21.9998ZM6.41292 29.0932C5.61292 28.8532 4.85292 28.4132 4.22625 27.7732C3.58625 27.1465 3.14625 26.3865 2.90625 25.5865C3.16509 26.4102 3.6191 27.1592 4.22964 27.7698C4.84019 28.3803 5.58919 28.8343 6.41292 29.0932Z" stroke="#2F3A4C" stroke-width="1.5" stroke-linecap="round" stroke-linejoin="round"/>
<path d="M24.4937 15.0534L20.8803 18.6668L11.8137 27.7201C12.747 26.7601 13.3337 25.4401 13.3337 24.0001V11.1201L16.947 7.50678C18.3603 6.09344 20.2537 6.09344 21.667 7.50678L24.4937 10.3334C25.907 11.7468 25.907 13.6401 24.4937 15.0534ZM8.00033 25.3334C8.35395 25.3334 8.69309 25.193 8.94313 24.9429C9.19318 24.6929 9.33366 24.3537 9.33366 24.0001C9.33366 23.6465 9.19318 23.3073 8.94313 23.0573C8.69309 22.8073 8.35395 22.6668 8.00033 22.6668C7.6467 22.6668 7.30757 22.8073 7.05752 23.0573C6.80747 23.3073 6.66699 23.6465 6.66699 24.0001C6.66699 24.3537 6.80747 24.6929 7.05752 24.9429C7.30757 25.193 7.6467 25.3334 8.00033 25.3334Z" stroke="#2F3A4C" stroke-width="1.5" stroke-linecap="round" stroke-linejoin="round"/>
</svg>
