<svg width="23" height="23" viewBox="0 0 23 23" fill="none" xmlns="http://www.w3.org/2000/svg">
<g clip-path="url(#clip0_1655_33373)">
<path d="M18.801 5.20692H4.45619V17.7586L12.7869 9.42609C12.9551 9.25802 13.1831 9.1636 13.4208 9.1636C13.6585 9.1636 13.8865 9.25802 14.0547 9.42609L18.801 14.1814V5.20692ZM2.66309 4.30409C2.66473 4.06864 2.75893 3.84328 2.92534 3.6767C3.09175 3.51012 3.31701 3.4157 3.55247 3.41382H19.7047C20.1961 3.41382 20.5941 3.81278 20.5941 4.30409V18.6615C20.5925 18.8969 20.4983 19.1223 20.3319 19.2889C20.1655 19.4554 19.9402 19.5499 19.7047 19.5517H3.55247C3.3165 19.5515 3.09029 19.4576 2.92352 19.2907C2.75676 19.1237 2.66309 18.8974 2.66309 18.6615V4.30409ZM8.0424 10.5862C7.56684 10.5862 7.11075 10.3973 6.77448 10.061C6.43821 9.72477 6.24929 9.26869 6.24929 8.79313C6.24929 8.31757 6.43821 7.86149 6.77448 7.52521C7.11075 7.18894 7.56684 7.00003 8.0424 7.00003C8.51796 7.00003 8.97404 7.18894 9.31031 7.52521C9.64658 7.86149 9.8355 8.31757 9.8355 8.79313C9.8355 9.26869 9.64658 9.72477 9.31031 10.061C8.97404 10.3973 8.51796 10.5862 8.0424 10.5862Z" fill="black"/>
</g>
<defs>
<clipPath id="clip0_1655_33373">
<rect width="21.5172" height="21.5172" fill="white" transform="translate(0.869995 0.724121)"/>
</clipPath>
</defs>
</svg>
