<svg width="20" height="20" viewBox="0 0 20 20" fill="none" xmlns="http://www.w3.org/2000/svg">
<g clip-path="url(#clip0_377_39966)">
<path d="M7.49935 18.3337H12.4993C16.666 18.3337 18.3327 16.667 18.3327 12.5003V7.50033C18.3327 3.33366 16.666 1.66699 12.4993 1.66699H7.49935C3.33268 1.66699 1.66602 3.33366 1.66602 7.50033V12.5003C1.66602 16.667 3.33268 18.3337 7.49935 18.3337Z" stroke="#3D5CFF" stroke-width="1.5" stroke-linecap="round" stroke-linejoin="round"/>
<path d="M2.22461 15.7917L6.33294 13.0333C6.99128 12.5917 7.94128 12.6417 8.53294 13.15L8.80794 13.3917C9.45794 13.95 10.5079 13.95 11.1579 13.3917L14.6246 10.4167C15.2746 9.85833 16.3246 9.85833 16.9746 10.4167L18.3329 11.5833M7.49961 8.33333C7.94164 8.33333 8.36556 8.15774 8.67812 7.84518C8.99068 7.53262 9.16628 7.10869 9.16628 6.66667C9.16628 6.22464 8.99068 5.80072 8.67812 5.48816C8.36556 5.17559 7.94164 5 7.49961 5C7.05758 5 6.63366 5.17559 6.3211 5.48816C6.00854 5.80072 5.83294 6.22464 5.83294 6.66667C5.83294 7.10869 6.00854 7.53262 6.3211 7.84518C6.63366 8.15774 7.05758 8.33333 7.49961 8.33333Z" stroke="#3D5CFF" stroke-width="1.5" stroke-linecap="round" stroke-linejoin="round"/>
</g>
<defs>
<clipPath id="clip0_377_39966">
<rect width="20" height="20" fill="white"/>
</clipPath>
</defs>
</svg>
