<svg width="20" height="20" viewBox="0 0 20 20" fill="none" xmlns="http://www.w3.org/2000/svg">
<path d="M8.47786 15.8752C8.13269 15.8752 7.85286 15.5953 7.85286 15.2502C7.85286 14.905 8.13269 14.6252 8.47786 14.6252H16.8737C17.2189 14.6252 17.4987 14.905 17.4987 15.2502C17.4987 15.5953 17.2189 15.8752 16.8737 15.8752H8.47786ZM8.47786 10.6252C8.13269 10.6252 7.85286 10.3453 7.85286 10.0002C7.85286 9.65498 8.13269 9.37516 8.47786 9.37516H16.8737C17.2189 9.37516 17.4987 9.65498 17.4987 10.0002C17.4987 10.3453 17.2189 10.6252 16.8737 10.6252H8.47786ZM8.47786 5.35433C8.13269 5.35433 7.85286 5.07451 7.85286 4.72933C7.85286 4.38415 8.13269 4.10433 8.47786 4.10433H16.8737C17.2189 4.10433 17.4987 4.38415 17.4987 4.72933C17.4987 5.07451 17.2189 5.35433 16.8737 5.35433H12.6758H8.47786ZM3.9362 16.646C3.54661 16.646 3.21311 16.5141 2.93568 16.2502C2.65825 15.9863 2.51953 15.6564 2.51953 15.2606C2.51953 14.8647 2.65495 14.5314 2.92578 14.2606C3.19661 13.9897 3.52995 13.8543 3.92578 13.8543C4.32161 13.8543 4.65148 13.993 4.91536 14.2705C5.17925 14.5479 5.3112 14.8814 5.3112 15.271C5.3112 15.6491 5.17657 15.9728 4.9073 16.2421C4.63802 16.5114 4.31432 16.646 3.9362 16.646ZM3.9362 11.396C3.54661 11.396 3.21311 11.2593 2.93568 10.986C2.65825 10.7126 2.51953 10.384 2.51953 10.0002C2.51953 9.6163 2.65825 9.2877 2.93568 9.01435C3.21311 8.741 3.54661 8.60433 3.9362 8.60433C4.31432 8.60433 4.63802 8.741 4.9073 9.01435C5.17657 9.2877 5.3112 9.6163 5.3112 10.0002C5.3112 10.384 5.17657 10.7126 4.9073 10.986C4.63802 11.2593 4.31432 11.396 3.9362 11.396ZM3.91536 6.12516C3.53152 6.12516 3.20291 5.98849 2.92955 5.71514C2.6562 5.44179 2.51953 5.11319 2.51953 4.72933C2.51953 4.34547 2.6562 4.01686 2.92955 3.74352C3.20291 3.47017 3.53152 3.3335 3.91536 3.3335C4.29921 3.3335 4.62782 3.47017 4.90118 3.74352C5.17452 4.01686 5.3112 4.34547 5.3112 4.72933C5.3112 5.11319 5.17452 5.44179 4.90118 5.71514C4.62782 5.98849 4.29921 6.12516 3.91536 6.12516Z" fill="white"/>
</svg>
