<svg width="21" height="21" viewBox="0 0 21 21" fill="none" xmlns="http://www.w3.org/2000/svg">
<path d="M8.32161 18.5299H13.3216C17.4883 18.5299 19.1549 16.8633 19.1549 12.6966V7.69661C19.1549 3.52995 17.4883 1.86328 13.3216 1.86328H8.32161C4.15495 1.86328 2.48828 3.52995 2.48828 7.69661V12.6966C2.48828 16.8633 4.15495 18.5299 8.32161 18.5299Z" stroke="#2F3A4C" stroke-width="1.5" stroke-linecap="round" stroke-linejoin="round"/>
<path d="M10.819 13.1126C11.202 13.1126 11.5813 13.0372 11.9352 12.8906C12.289 12.744 12.6106 12.5292 12.8814 12.2584C13.1522 11.9875 13.3671 11.666 13.5137 11.3121C13.6602 10.9583 13.7357 10.579 13.7357 10.196C13.7357 9.81294 13.6602 9.43367 13.5137 9.0798C13.3671 8.72594 13.1522 8.40441 12.8814 8.13357C12.6106 7.86273 12.289 7.64789 11.9352 7.50131C11.5813 7.35474 11.202 7.2793 10.819 7.2793C10.0455 7.2793 9.3036 7.58659 8.75662 8.13357C8.20963 8.68055 7.90234 9.42242 7.90234 10.196C7.90234 10.9695 8.20963 11.7114 8.75662 12.2584C9.3036 12.8053 10.0455 13.1126 10.819 13.1126Z" stroke="#2F3A4C" stroke-width="1.5" stroke-linecap="round" stroke-linejoin="round"/>
<path d="M15.5156 6.0293H15.5256" stroke="#2F3A4C" stroke-width="2" stroke-linecap="round" stroke-linejoin="round"/>
</svg>
