<svg width="18" height="18" viewBox="0 0 18 18" fill="none" xmlns="http://www.w3.org/2000/svg">
<path d="M17.3372 0.653891C16.9054 0.241108 16.3311 0.0107422 15.7337 0.0107422C15.1364 0.0107422 14.562 0.241108 14.1302 0.653891L11.575 3.20914C11.0975 3.69093 10.4502 3.96635 9.77197 3.9763C9.09374 3.98626 8.43863 3.72995 7.94723 3.26239C7.45582 2.79483 6.99762 3.76103 6.90098 4.33939C6.76273 5.1667 8.41973 5.85814 8.41973 5.85814L1.51973 12.7581C1.11826 13.1553 0.857554 13.6728 0.77727 14.2318C0.696986 14.7908 0.801524 15.3608 1.07498 15.8549C1.07498 15.8549 -0.00277545 16.3358 0.000976562 16.9289C0.00468141 17.5146 0.475791 17.9857 1.06148 17.9894C1.65462 17.9931 2.13548 16.9154 2.13548 16.9154C2.6296 17.1888 3.19954 17.2934 3.75854 17.2131C4.31755 17.1328 4.83503 16.8721 5.23223 16.4706L12.1322 9.57064C12.1322 9.57064 12.8238 11.2282 13.651 11.0894C14.2285 10.9925 15.1942 10.536 14.7265 10.0446C14.2587 9.55333 14.0023 8.89818 14.0123 8.21989C14.0222 7.5416 14.2978 6.89427 14.7797 6.41689L17.335 3.86164C17.7601 3.43645 17.999 2.8598 17.999 2.25852C17.999 1.65723 17.7601 1.08058 17.335 0.655391L17.3372 0.653891ZM4.17098 15.4101C3.95668 15.6147 3.67183 15.7288 3.3756 15.7288C3.07937 15.7288 2.79452 15.6147 2.58023 15.4101C2.36932 15.1992 2.25084 14.9131 2.25084 14.6148C2.25084 14.3165 2.36932 14.0304 2.58023 13.8194L9.48023 6.91939L11.071 8.51014L4.17098 15.4101ZM16.276 2.79964L13.7207 5.35489C13.0479 6.02273 12.6275 6.90327 12.5312 7.84639L10.144 5.45914C11.0871 5.36288 11.9676 4.94249 12.6355 4.26964L15.1915 1.71439C15.3374 1.57458 15.5316 1.49653 15.7337 1.49653C15.9358 1.49653 16.1301 1.57458 16.276 1.71439C16.3473 1.78559 16.404 1.87017 16.4426 1.96328C16.4812 2.05639 16.5011 2.15621 16.5011 2.25702C16.5011 2.35782 16.4812 2.45764 16.4426 2.55075C16.404 2.64386 16.3473 2.72844 16.276 2.79964Z" fill="#3D5CFF"/>
</svg>
