<svg width="30" height="30" viewBox="0 0 30 30" fill="none" xmlns="http://www.w3.org/2000/svg">
<rect x="0.5" y="0.5" width="29" height="29" rx="3.5" fill="#F1F4F9"/>
<path d="M23.3363 6.65389C22.9045 6.24111 22.3301 6.01074 21.7327 6.01074C21.1354 6.01074 20.561 6.24111 20.1293 6.65389L17.574 9.20914C17.0965 9.69093 16.4492 9.96635 15.771 9.9763C15.0928 9.98626 14.4377 9.72995 13.9462 9.26239C13.4548 8.79483 12.9966 9.76103 12.9 10.3394C12.7618 11.1667 14.4188 11.8581 14.4188 11.8581L7.51875 18.7581C7.11729 19.1553 6.85658 19.6728 6.77629 20.2318C6.69601 20.7908 6.80055 21.3608 7.074 21.8549C7.074 21.8549 5.99625 22.3358 6 22.9289C6.0037 23.5146 6.47481 23.9857 7.0605 23.9894C7.65364 23.9931 8.1345 22.9154 8.1345 22.9154C8.62863 23.1888 9.19856 23.2934 9.75757 23.2131C10.3166 23.1328 10.8341 22.8721 11.2312 22.4706L18.1312 15.5706C18.1312 15.5706 18.8228 17.2282 19.65 17.0894C20.2275 16.9925 21.1932 16.536 20.7255 16.0446C20.2578 15.5533 20.0013 14.8982 20.0113 14.2199C20.0212 13.5416 20.2968 12.8943 20.7787 12.4169L23.334 9.86164C23.7592 9.43645 23.998 8.8598 23.998 8.25852C23.998 7.65723 23.7592 7.08058 23.334 6.65539L23.3363 6.65389ZM10.17 21.4101C9.95571 21.6147 9.67086 21.7288 9.37462 21.7288C9.07839 21.7288 8.79354 21.6147 8.57925 21.4101C8.36834 21.1992 8.24987 20.9131 8.24987 20.6148C8.24987 20.3165 8.36834 20.0304 8.57925 19.8194L15.4792 12.9194L17.07 14.5101L10.17 21.4101ZM22.275 8.79964L19.7197 11.3549C19.0469 12.0227 18.6265 12.9033 18.5303 13.8464L16.143 11.4591C17.0861 11.3629 17.9667 10.9425 18.6345 10.2696L21.1905 7.71439C21.3364 7.57458 21.5307 7.49653 21.7327 7.49653C21.9348 7.49653 22.1291 7.57458 22.275 7.71439C22.3464 7.78559 22.403 7.87017 22.4416 7.96328C22.4802 8.05639 22.5001 8.15621 22.5001 8.25702C22.5001 8.35782 22.4802 8.45764 22.4416 8.55075C22.403 8.64386 22.3464 8.72844 22.275 8.79964Z" fill="#3D5CFF"/>
<rect x="0.5" y="0.5" width="29" height="29" rx="3.5" stroke="#E1E4E9"/>
</svg>
