<svg width="20" height="21" viewBox="0 0 20 21" fill="none" xmlns="http://www.w3.org/2000/svg">
<path d="M14.0625 4.25C14.6427 4.25 15.1991 4.48047 15.6093 4.8907C16.0195 5.30094 16.25 5.85734 16.25 6.4375C16.25 7.01766 16.0195 7.57406 15.6093 7.9843C15.1991 8.39453 14.6427 8.625 14.0625 8.625H11.875V6.4375C11.875 5.85734 12.1055 5.30094 12.5157 4.8907C12.9259 4.48047 13.4823 4.25 14.0625 4.25V4.25Z" stroke="#2F3A4C" stroke-width="1.5" stroke-linecap="round" stroke-linejoin="round"/>
<path d="M8.125 8.625H5.9375C5.35734 8.625 4.80094 8.39453 4.3907 7.9843C3.98047 7.57406 3.75 7.01766 3.75 6.4375C3.75 5.85734 3.98047 5.30094 4.3907 4.8907C4.80094 4.48047 5.35734 4.25 5.9375 4.25C6.51766 4.25 7.07406 4.48047 7.4843 4.8907C7.89453 5.30094 8.125 5.85734 8.125 6.4375V8.625Z" stroke="#2F3A4C" stroke-width="1.5" stroke-linecap="round" stroke-linejoin="round"/>
<path d="M11.875 12.375H14.0625C14.6427 12.375 15.1991 12.6055 15.6093 13.0157C16.0195 13.4259 16.25 13.9823 16.25 14.5625C16.25 15.1427 16.0195 15.6991 15.6093 16.1093C15.1991 16.5195 14.6427 16.75 14.0625 16.75C13.4823 16.75 12.9259 16.5195 12.5157 16.1093C12.1055 15.6991 11.875 15.1427 11.875 14.5625V12.375Z" stroke="#2F3A4C" stroke-width="1.5" stroke-linecap="round" stroke-linejoin="round"/>
<path d="M5.9375 16.75C5.35734 16.75 4.80094 16.5195 4.3907 16.1093C3.98047 15.6991 3.75 15.1427 3.75 14.5625C3.75 13.9823 3.98047 13.4259 4.3907 13.0157C4.80094 12.6055 5.35734 12.375 5.9375 12.375H8.125V14.5625C8.125 15.1427 7.89453 15.6991 7.4843 16.1093C7.07406 16.5195 6.51766 16.75 5.9375 16.75V16.75Z" stroke="#2F3A4C" stroke-width="1.5" stroke-linecap="round" stroke-linejoin="round"/>
<path d="M11.875 8.625H8.125V12.375H11.875V8.625Z" stroke="#2F3A4C" stroke-width="1.5" stroke-linecap="round" stroke-linejoin="round"/>
</svg>
