<svg width="15" height="18" viewBox="0 0 15 18" fill="none" xmlns="http://www.w3.org/2000/svg">
<path d="M13.8203 8.46855L2.57812 1.59355C2.48349 1.53517 2.37499 1.5031 2.26382 1.50064C2.15265 1.49818 2.04284 1.52543 1.94571 1.57956C1.84859 1.6337 1.76766 1.71277 1.71128 1.80861C1.65491 1.90446 1.62512 2.0136 1.625 2.1248V15.8748C1.62512 15.986 1.65491 16.0951 1.71128 16.191C1.76766 16.2868 1.84859 16.3659 1.94571 16.42C2.04284 16.4742 2.15265 16.5014 2.26382 16.499C2.37499 16.4965 2.48349 16.4644 2.57812 16.406L13.8203 9.53105C13.9126 9.47646 13.9891 9.39876 14.0423 9.3056C14.0954 9.21244 14.1233 9.10705 14.1233 8.9998C14.1233 8.89255 14.0954 8.78716 14.0423 8.694C13.9891 8.60084 13.9126 8.52314 13.8203 8.46855V8.46855Z" stroke="#E3E3E3" stroke-width="1.5" stroke-linecap="round" stroke-linejoin="round"/>
</svg>
