<svg width="20" height="20" viewBox="0 0 20 20" fill="none" xmlns="http://www.w3.org/2000/svg">
<path d="M6.04297 5.83366H13.9596V4.16699C13.9596 2.50033 13.3346 1.66699 11.4596 1.66699H8.54297C6.66797 1.66699 6.04297 2.50033 6.04297 4.16699V5.83366ZM13.3346 12.5003V15.8337C13.3346 17.5003 12.5013 18.3337 10.8346 18.3337H9.16797C7.5013 18.3337 6.66797 17.5003 6.66797 15.8337V12.5003H13.3346Z" stroke="#101C2D" stroke-width="1.5" stroke-miterlimit="10" stroke-linecap="round" stroke-linejoin="round"/>
<path d="M14.1667 12.4997H5.83333M5.83333 9.16634H8.33333M17.5 8.33301V12.4997C17.5 14.1663 16.6667 14.9997 15 14.9997H13.3333V12.4997H6.66667V14.9997H5C3.33333 14.9997 2.5 14.1663 2.5 12.4997V8.33301C2.5 6.66634 3.33333 5.83301 5 5.83301H15C16.6667 5.83301 17.5 6.66634 17.5 8.33301Z" stroke="#101C2D" stroke-width="1.5" stroke-miterlimit="10" stroke-linecap="round" stroke-linejoin="round"/>
</svg>
