<svg width="32" height="32" viewBox="0 0 32 32" fill="none" xmlns="http://www.w3.org/2000/svg">
<path fill-rule="evenodd" clip-rule="evenodd" d="M16 2.66675C23.3638 2.66675 29.3333 8.63628 29.3333 16.0001C29.3333 23.3639 23.3638 29.3334 16 29.3334C8.63619 29.3334 2.66666 23.3639 2.66666 16.0001C2.66666 8.63628 8.63619 2.66675 16 2.66675ZM16 5.33341C10.109 5.33341 5.33332 10.109 5.33332 16.0001C5.33332 21.8911 10.109 26.6667 16 26.6667C21.891 26.6667 26.6667 21.8911 26.6667 16.0001C26.6667 10.109 21.891 5.33341 16 5.33341ZM16 13.3334C16.7364 13.3334 17.3333 13.9304 17.3333 14.6667V22.6667C17.3333 23.4031 16.7364 24.0001 16 24.0001C15.2636 24.0001 14.6667 23.4031 14.6667 22.6667V14.6667C14.6667 13.9304 15.2636 13.3334 16 13.3334ZM16 8.00008C16.7364 8.00008 17.3333 8.59703 17.3333 9.33342C17.3333 10.0698 16.7364 10.6667 16 10.6667C15.2636 10.6667 14.6667 10.0698 14.6667 9.33342C14.6667 8.59703 15.2636 8.00008 16 8.00008Z" fill="#727DFF"/>
</svg>
