<svg width="54" height="54" viewBox="0 0 54 54" fill="none" xmlns="http://www.w3.org/2000/svg">
<rect width="54" height="53.999" rx="5" fill="url(#paint0_linear_595_6531)" fill-opacity="0.1"/>
<path fill-rule="evenodd" clip-rule="evenodd" d="M25 16C24.7348 16.0001 24.4805 16.1054 24.293 16.293L18.293 22.2927C18.1055 22.4802 18.0001 22.7345 18 22.9997V34.9991C18 35.7947 18.3161 36.5577 18.8787 37.1203C19.4413 37.6828 20.2044 37.9989 21 37.9989H22C22.2652 37.9989 22.5196 37.8936 22.7071 37.706C22.8946 37.5185 23 37.2642 23 36.999C23 36.7337 22.8946 36.4794 22.7071 36.2919C22.5196 36.1044 22.2652 35.999 22 35.999H21C20.7348 35.999 20.4804 35.8937 20.2929 35.7061C20.1054 35.5186 20 35.2643 20 34.9991V23.9996H25C25.2652 23.9996 25.5196 23.8942 25.7071 23.7067C25.8946 23.5192 26 23.2649 26 22.9997V17.9999H33C33.2652 17.9999 33.5196 18.1053 33.7071 18.2928C33.8946 18.4803 34 18.7346 34 18.9999V25.9995C34 26.2647 34.1054 26.519 34.2929 26.7066C34.4804 26.8941 34.7348 26.9995 35 26.9995C35.2652 26.9995 35.5196 26.8941 35.7071 26.7066C35.8946 26.519 36 26.2647 36 25.9995V18.9999C36 18.2042 35.6839 17.4412 35.1213 16.8786C34.5587 16.3161 33.7956 16 33 16H25ZM24 21.9997H21.414L24 19.4138V21.9997ZM25.308 38.5619C25.466 38.7569 25.695 38.9159 25.985 38.9749C26.255 39.0308 26.492 38.9799 26.656 38.9199C26.958 38.8099 27.196 38.6029 27.35 38.4499C27.594 38.2099 27.85 37.8839 28.103 37.5159C29.213 37.1329 30.771 36.781 32.287 36.559C33.13 36.436 33.917 36.359 34.579 36.333C34.841 36.643 35.08 36.908 35.279 37.1089C35.403 37.2349 35.541 37.3659 35.677 37.4659C35.737 37.5109 35.852 37.5909 35.999 37.6479C36.076 37.6779 36.579 37.8699 37.042 37.4959C37.316 37.2759 37.568 37.0289 37.744 36.752C37.921 36.472 38.088 36.046 37.949 35.562C37.813 35.087 37.459 34.8221 37.198 34.6841C36.9333 34.5529 36.65 34.4632 36.358 34.4181C36.0818 34.372 35.8029 34.3436 35.523 34.3331C34.8186 33.4495 34.1416 32.5445 33.493 31.6192C32.9269 30.8202 32.3925 29.9993 31.891 29.1583C31.936 28.9654 31.973 28.7814 32.003 28.6054C32.053 28.3054 32.083 28.0034 32.076 27.7204C32.0759 27.4089 32.009 27.101 31.88 26.8175C31.7927 26.6311 31.6659 26.466 31.5084 26.3336C31.3509 26.2012 31.1665 26.1046 30.968 26.0505C30.566 25.9425 30.183 26.0235 29.889 26.1325C29.436 26.2995 29.187 26.6725 29.101 27.0354C29.0451 27.3054 29.0495 27.5844 29.114 27.8524C29.208 28.2904 29.427 28.7954 29.68 29.2883C29.702 29.3323 29.725 29.3773 29.749 29.4213C29.51 30.2063 29.158 31.1312 28.739 32.0892C28.126 33.4921 27.405 34.8831 26.785 35.877C26.362 36.054 25.971 36.257 25.675 36.491C25.473 36.65 25.202 36.908 25.072 37.2859C24.913 37.7499 25.026 38.2139 25.308 38.5619ZM26.876 38.0939L26.882 38.0869C26.8802 38.0894 26.8782 38.0917 26.876 38.0939ZM31.997 34.5801C31.183 34.7001 30.345 34.8561 29.55 35.038C29.904 34.3511 30.253 33.6191 30.572 32.8902C30.752 32.4772 30.927 32.0572 31.089 31.6422C31.336 32.0162 31.594 32.3952 31.856 32.7672C32.2528 33.3329 32.6596 33.8916 33.076 34.4431C32.719 34.4811 32.356 34.5281 31.997 34.5801ZM31.061 27.3834V27.3814V27.3834Z" fill="url(#paint1_linear_595_6531)"/>
<defs>
<linearGradient id="paint0_linear_595_6531" x1="9.54" y1="13.9652" x2="51.7377" y2="19.9197" gradientUnits="userSpaceOnUse">
<stop stop-color="#FF6262"/>
<stop offset="1" stop-color="#F37F14"/>
</linearGradient>
<linearGradient id="paint1_linear_595_6531" x1="21.5334" y1="21.948" x2="37.2374" y2="23.875" gradientUnits="userSpaceOnUse">
<stop stop-color="#FF6262"/>
<stop offset="1" stop-color="#F37F14"/>
</linearGradient>
</defs>
</svg>
