<svg width="54" height="54" viewBox="0 0 54 54" fill="none" xmlns="http://www.w3.org/2000/svg">
<rect y="-0.000976562" width="54" height="53.9988" rx="5" fill="url(#paint0_linear_595_6537)" fill-opacity="0.1"/>
<path fill-rule="evenodd" clip-rule="evenodd" d="M24.293 16.292C24.4805 16.1045 24.7348 15.9991 25 15.999H33C33.7956 15.999 34.5587 16.3151 35.1213 16.8777C35.6839 17.4402 36 18.2033 36 18.9989V23.9986C36 24.2638 35.8946 24.5182 35.7071 24.7057C35.5196 24.8932 35.2652 24.9986 35 24.9986C34.7348 24.9986 34.4804 24.8932 34.2929 24.7057C34.1054 24.5182 34 24.2638 34 23.9986V18.9989C34 18.7337 33.8946 18.4793 33.7071 18.2918C33.5196 18.1043 33.2652 17.9989 33 17.9989H26V22.9987C26 23.2639 25.8946 23.5182 25.7071 23.7057C25.5196 23.8933 25.2652 23.9986 25 23.9986H20V34.9981C20 35.2633 20.1054 35.5176 20.2929 35.7052C20.4804 35.8927 20.7348 35.998 21 35.998H22C22.2652 35.998 22.5196 36.1034 22.7071 36.2909C22.8946 36.4784 23 36.7328 23 36.998C23 37.2632 22.8946 37.5175 22.7071 37.7051C22.5196 37.8926 22.2652 37.9979 22 37.9979H21C20.2044 37.9979 19.4413 37.6819 18.8787 37.1193C18.3161 36.5567 18 35.7937 18 34.9981V22.9987C18.0001 22.7335 18.1055 22.4792 18.293 22.2917L24.293 16.292ZM21.414 21.9987H24V19.4129L21.414 21.9987ZM34 26.9985C34.2652 26.9985 34.5196 27.1038 34.7071 27.2914C34.8946 27.4789 35 27.7332 35 27.9984V33.9981H38C38.2652 33.9981 38.5196 34.1035 38.7071 34.291C38.8946 34.4785 39 34.7329 39 34.9981C39 35.2633 38.8946 35.5176 38.7071 35.7052C38.5196 35.8927 38.2652 35.998 38 35.998H34C33.7348 35.998 33.4804 35.8927 33.2929 35.7052C33.1054 35.5176 33 35.2633 33 34.9981V27.9984C33 27.7332 33.1054 27.4789 33.2929 27.2914C33.4804 27.1038 33.7348 26.9985 34 26.9985ZM26.814 27.4175C26.7377 27.3106 26.6411 27.2198 26.5297 27.1502C26.4183 27.0806 26.2943 27.0337 26.1648 27.0121C26.0352 26.9904 25.9027 26.9945 25.7747 27.0241C25.6468 27.0537 25.5259 27.1082 25.419 27.1845C25.3121 27.2608 25.2213 27.3574 25.1517 27.4688C25.0822 27.5801 25.0352 27.7041 25.0136 27.8337C24.992 27.9632 24.996 28.0957 25.0256 28.2237C25.0552 28.3516 25.1097 28.4725 25.186 28.5794L27.271 31.4983L25.186 34.4171C25.1097 34.524 25.0552 34.6449 25.0256 34.7728C24.996 34.9008 24.992 35.0333 25.0136 35.1628C25.0352 35.2924 25.0822 35.4164 25.1517 35.5278C25.2213 35.6391 25.3121 35.7357 25.419 35.812C25.5259 35.8883 25.6468 35.9428 25.7747 35.9724C25.9027 36.002 26.0352 36.0061 26.1648 35.9844C26.2943 35.9628 26.4183 35.9159 26.5297 35.8463C26.6411 35.7768 26.7377 35.6859 26.814 35.5791L28.5 33.2192L30.186 35.5791C30.3401 35.7949 30.5736 35.9408 30.8352 35.9844C31.0969 36.0281 31.3651 35.9661 31.581 35.812C31.7969 35.658 31.9427 35.4244 31.9864 35.1628C32.0301 34.9012 31.9681 34.633 31.814 34.4171L29.729 31.4983L31.814 28.5794C31.8903 28.4725 31.9448 28.3516 31.9744 28.2237C32.004 28.0957 32.008 27.9632 31.9864 27.8337C31.9648 27.7041 31.9178 27.5801 31.8483 27.4688C31.7787 27.3574 31.6879 27.2608 31.581 27.1845C31.4741 27.1082 31.3532 27.0537 31.2253 27.0241C31.0973 26.9945 30.9648 26.9904 30.8352 27.0121C30.7057 27.0337 30.5817 27.0806 30.4703 27.1502C30.3589 27.2198 30.2623 27.3106 30.186 27.4175L28.5 29.7773L26.814 27.4175Z" fill="url(#paint1_linear_595_6537)"/>
<defs>
<linearGradient id="paint0_linear_595_6537" x1="9.54" y1="13.9642" x2="51.7377" y2="19.9187" gradientUnits="userSpaceOnUse">
<stop stop-color="#FF6262"/>
<stop offset="1" stop-color="#F37F14"/>
</linearGradient>
<linearGradient id="paint1_linear_595_6537" x1="21.71" y1="21.6884" x2="38.1487" y2="23.9027" gradientUnits="userSpaceOnUse">
<stop stop-color="#FF6262"/>
<stop offset="1" stop-color="#F37F14"/>
</linearGradient>
</defs>
</svg>
