<svg width="16" height="17" viewBox="0 0 16 17" fill="none" xmlns="http://www.w3.org/2000/svg">
<path fill-rule="evenodd" clip-rule="evenodd" d="M12.6667 1.83325H4.66666C3.50239 1.83325 2.66666 2.70381 2.66666 3.83325V13.1666C2.66666 14.296 3.50239 15.1666 4.66666 15.1666H12.6667C13.0945 15.1666 13.3333 14.9179 13.3333 14.4999V13.8333H5.33332C4.96513 13.8333 4.66666 13.5348 4.66666 13.1666C4.66666 12.7984 4.96513 12.4999 5.33332 12.4999H13.3333V2.49992C13.3333 2.08198 13.0945 1.83325 12.6667 1.83325Z" fill="#727DFF"/>
<mask id="mask0_595_6724" style="mask-type:luminance" maskUnits="userSpaceOnUse" x="2" y="1" width="12" height="15">
<path fill-rule="evenodd" clip-rule="evenodd" d="M12.6667 1.83325H4.66666C3.50239 1.83325 2.66666 2.70381 2.66666 3.83325V13.1666C2.66666 14.296 3.50239 15.1666 4.66666 15.1666H12.6667C13.0945 15.1666 13.3333 14.9179 13.3333 14.4999V13.8333H5.33332C4.96513 13.8333 4.66666 13.5348 4.66666 13.1666C4.66666 12.7984 4.96513 12.4999 5.33332 12.4999H13.3333V2.49992C13.3333 2.08198 13.0945 1.83325 12.6667 1.83325Z" fill="white"/>
</mask>
<g mask="url(#mask0_595_6724)">
</g>
</svg>
