<svg width="21" height="20" viewBox="0 0 21 20" fill="none" xmlns="http://www.w3.org/2000/svg">
<path d="M3 15.8329V8.39149C3 7.83424 3.2785 7.31385 3.74217 7.00474L9.5755 3.11585C10.1353 2.74263 10.8647 2.74263 11.4245 3.11585L17.2578 7.00474C17.7215 7.31385 18 7.83424 18 8.39149V15.8329M3 15.8329C3 16.7533 3.74619 17.4995 4.66667 17.4995H16.3333C17.2538 17.4995 18 16.7533 18 15.8329M3 15.8329L8.625 12.0829M18 15.8329L12.375 12.0829M3 8.33285L8.625 12.0829M18 8.33285L12.375 12.0829M12.375 12.0829L11.4245 12.7165C10.8647 13.0897 10.1353 13.0897 9.5755 12.7165L8.625 12.0829" stroke="#667085" stroke-linecap="round" stroke-linejoin="round"/>
</svg>
