<svg width="21" height="20" viewBox="0 0 21 20" fill="none" xmlns="http://www.w3.org/2000/svg">
<path fill-rule="evenodd" clip-rule="evenodd" d="M8 3.125C6.50423 3.125 5.29167 4.33756 5.29167 5.83333C5.29167 7.3291 6.50423 8.54167 8 8.54167C9.49577 8.54167 10.7083 7.3291 10.7083 5.83333C10.7083 4.33756 9.49577 3.125 8 3.125ZM4.04167 5.83333C4.04167 3.64721 5.81387 1.875 8 1.875C10.1861 1.875 11.9583 3.64721 11.9583 5.83333C11.9583 8.01946 10.1861 9.79167 8 9.79167C5.81387 9.79167 4.04167 8.01946 4.04167 5.83333Z" fill="#667085"/>
<path fill-rule="evenodd" clip-rule="evenodd" d="M6.33333 13.125C5.61504 13.125 4.92616 13.4103 4.41825 13.9183C3.91034 14.4262 3.625 15.115 3.625 15.8333V17.5C3.625 17.8452 3.34518 18.125 3 18.125C2.65482 18.125 2.375 17.8452 2.375 17.5V15.8333C2.375 14.7835 2.79204 13.7767 3.53437 13.0344C4.2767 12.292 5.28352 11.875 6.33333 11.875H9.66667C10.7165 11.875 11.7233 12.292 12.4656 13.0344C13.208 13.7767 13.625 14.7835 13.625 15.8333V17.5C13.625 17.8452 13.3452 18.125 13 18.125C12.6548 18.125 12.375 17.8452 12.375 17.5V15.8333C12.375 15.115 12.0897 14.4262 11.5817 13.9183C11.0738 13.4103 10.385 13.125 9.66667 13.125H6.33333Z" fill="#667085"/>
<path fill-rule="evenodd" clip-rule="evenodd" d="M13.2279 2.45331C13.3135 2.11892 13.654 1.91725 13.9884 2.00286C14.8398 2.22087 15.5945 2.71606 16.1334 3.41036C16.6723 4.10466 16.9649 4.95858 16.9649 5.8375C16.9649 6.71642 16.6723 7.57034 16.1334 8.26464C15.5945 8.95894 14.8398 9.45413 13.9884 9.67214C13.654 9.75775 13.3135 9.55608 13.2279 9.22169C13.1422 8.8873 13.3439 8.54682 13.6783 8.4612C14.2609 8.31204 14.7772 7.97322 15.146 7.49817C15.5147 7.02313 15.7149 6.43886 15.7149 5.8375C15.7149 5.23614 15.5147 4.65187 15.146 4.17682C14.7772 3.70178 14.2609 3.36296 13.6783 3.2138C13.3439 3.12818 13.1422 2.7877 13.2279 2.45331Z" fill="#667085"/>
<path fill-rule="evenodd" clip-rule="evenodd" d="M14.8948 12.4688C14.9811 12.1345 15.322 11.9336 15.6562 12.0198C16.5022 12.2382 17.2521 12.7304 17.7891 13.4195C18.3261 14.1087 18.62 14.9561 18.625 15.8297L18.625 15.8333L18.625 17.5C18.625 17.8452 18.3452 18.125 18 18.125C17.6548 18.125 17.375 17.8452 17.375 17.5V15.8352C17.3712 15.2381 17.1701 14.6589 16.8031 14.1878C16.4356 13.7163 15.9225 13.3796 15.3438 13.2302C15.0095 13.1439 14.8086 12.803 14.8948 12.4688Z" fill="#667085"/>
</svg>
