<svg width="24" height="24" viewBox="0 0 24 24" fill="none" xmlns="http://www.w3.org/2000/svg">
<path d="M18.9999 4.99997H17.9999V2.99997C17.9999 2.73475 17.8946 2.4804 17.707 2.29286C17.5195 2.10533 17.2652 1.99997 16.9999 1.99997C16.7347 1.99997 16.4804 2.10533 16.2928 2.29286C16.1053 2.4804 15.9999 2.73475 15.9999 2.99997V4.99997H7.99994V2.99997C7.99994 2.73475 7.89458 2.4804 7.70705 2.29286C7.51951 2.10533 7.26516 1.99997 6.99994 1.99997C6.73472 1.99997 6.48037 2.10533 6.29283 2.29286C6.1053 2.4804 5.99994 2.73475 5.99994 2.99997V4.99997H4.99994C4.20429 4.99997 3.44123 5.31604 2.87862 5.87865C2.31601 6.44126 1.99994 7.20432 1.99994 7.99997V8.99997H21.9999V7.99997C21.9999 7.20432 21.6839 6.44126 21.1213 5.87865C20.5587 5.31604 19.7956 4.99997 18.9999 4.99997Z" fill="#717579"/>
<path d="M1.99994 19C1.99994 19.7956 2.31601 20.5587 2.87862 21.1213C3.44123 21.6839 4.20429 22 4.99994 22H18.9999C19.7956 22 20.5587 21.6839 21.1213 21.1213C21.6839 20.5587 21.9999 19.7956 21.9999 19V11H1.99994V19Z" fill="#717579"/>
</svg>
