<svg width="24" height="24" viewBox="0 0 24 24" fill="none" xmlns="http://www.w3.org/2000/svg">
<path d="M22.44 13.035C22.3837 13.172 22.2882 13.2892 22.1654 13.372C22.0426 13.4547 21.8981 13.4993 21.75 13.5H19.5V21C19.5 21.5968 19.2629 22.169 18.841 22.591C18.419 23.013 17.8467 23.25 17.25 23.25H14.25C14.0511 23.25 13.8603 23.171 13.7197 23.0303C13.579 22.8897 13.5 22.6989 13.5 22.5V18C13.5 17.8011 13.421 17.6103 13.2803 17.4697C13.1397 17.329 12.9489 17.25 12.75 17.25H11.25C11.0511 17.25 10.8603 17.329 10.7197 17.4697C10.579 17.6103 10.5 17.8011 10.5 18V22.5C10.5 22.6989 10.421 22.8897 10.2803 23.0303C10.1397 23.171 9.9489 23.25 9.74998 23.25H6.74998C6.15325 23.25 5.58095 23.013 5.15899 22.591C4.73704 22.169 4.49998 21.5968 4.49998 21V13.5H2.24998C2.10191 13.4993 1.95738 13.4547 1.83459 13.372C1.7118 13.2892 1.61625 13.172 1.55998 13.035C1.50255 12.8984 1.48686 12.7479 1.51489 12.6024C1.54292 12.4569 1.61341 12.323 1.71748 12.2175L11.4675 2.46752C11.5372 2.39722 11.6202 2.34142 11.7116 2.30335C11.8029 2.26527 11.901 2.24567 12 2.24567C12.099 2.24567 12.197 2.26527 12.2884 2.30335C12.3798 2.34142 12.4628 2.39722 12.5325 2.46752L22.2825 12.2175C22.3866 12.323 22.457 12.4569 22.4851 12.6024C22.5131 12.7479 22.4974 12.8984 22.44 13.035Z" fill="#717579"/>
</svg>
