<svg width="24" height="24" viewBox="0 0 24 24" fill="none" xmlns="http://www.w3.org/2000/svg">
<path d="M18 0.999954H6C4.67441 1.00154 3.40356 1.52884 2.46622 2.46617C1.52888 3.40351 1.00159 4.67436 1 5.99995V14C1.00145 15.1522 1.40009 16.2686 2.12872 17.1612C2.85735 18.0538 3.87141 18.6679 5 18.9V22C4.99997 22.181 5.0491 22.3587 5.14213 22.514C5.23516 22.6693 5.36861 22.7964 5.52823 22.8818C5.68786 22.9672 5.86769 23.0077 6.04852 22.9989C6.22935 22.9901 6.4044 22.9324 6.555 22.832L12.3 19H18C19.3256 18.9984 20.5964 18.4711 21.5338 17.5337C22.4711 16.5964 22.9984 15.3255 23 14V5.99995C22.9984 4.67436 22.4711 3.40351 21.5338 2.46617C20.5964 1.52884 19.3256 1.00154 18 0.999954ZM16 13H8C7.73478 13 7.48043 12.8946 7.29289 12.7071C7.10536 12.5195 7 12.2652 7 12C7 11.7347 7.10536 11.4804 7.29289 11.2928C7.48043 11.1053 7.73478 11 8 11H16C16.2652 11 16.5196 11.1053 16.7071 11.2928C16.8946 11.4804 17 11.7347 17 12C17 12.2652 16.8946 12.5195 16.7071 12.7071C16.5196 12.8946 16.2652 13 16 13ZM18 8.99995H6C5.73478 8.99995 5.48043 8.8946 5.29289 8.70706C5.10536 8.51952 5 8.26517 5 7.99995C5 7.73474 5.10536 7.48038 5.29289 7.29285C5.48043 7.10531 5.73478 6.99995 6 6.99995H18C18.2652 6.99995 18.5196 7.10531 18.7071 7.29285C18.8946 7.48038 19 7.73474 19 7.99995C19 8.26517 18.8946 8.51952 18.7071 8.70706C18.5196 8.8946 18.2652 8.99995 18 8.99995Z" fill="#717579"/>
</svg>
