<svg width="24" height="24" viewBox="0 0 24 24" fill="none" xmlns="http://www.w3.org/2000/svg">
<g clip-path="url(#clip0_220_570)">
<path d="M21.2961 8.6858C21.1797 8.44064 20.9324 8.28427 20.6609 8.28427H13.6087L17.8772 1.06083C18.0057 0.843469 18.0077 0.573844 17.8825 0.354609C17.7574 0.135375 17.5243 -9.37014e-05 17.2718 4.86277e-08L11.2468 0.000656299C10.9967 0.000750049 10.7655 0.1335 10.6395 0.349453L2.73173 13.905C2.60484 14.1224 2.60395 14.3911 2.72934 14.6094C2.85473 14.8277 3.08728 14.9624 3.33904 14.9624H10.3463L8.30536 23.1263C8.22548 23.4457 8.37806 23.7779 8.67243 23.9255C8.77284 23.9757 8.88051 24 8.98715 24C9.19321 24 9.39515 23.9094 9.53231 23.7413L21.2058 9.43186C21.3774 9.22148 21.4125 8.93105 21.2961 8.6858Z" fill="#717579"/>
</g>
<defs>
<clipPath id="clip0_220_570">
<rect width="24" height="24" fill="white"/>
</clipPath>
</defs>
</svg>
